<!-- Generated by IcoMoon.io -->
<svg version="1.1" xmlns="http://www.w3.org/2000/svg" width="32" height="32" viewBox="0 0 32 32">
<title>ItemCategory_MRD</title>
<path d="M25.856 23.584q-0.032-0.096-0.512-0.48-0.864-0.672-1.408-1.216-2.048-2.112-4.64-5.152-1.824-2.176-2.752-3.328-1.536-2.048-2.592-3.776-0.256-0.384-0.32-0.448-0.128-0.16-0.672 0.192l-0.128 0.064q-0.192 0.128-0.256 0.064t0.064-0.16l0.544-0.448q0.704-0.512 0.736-0.608 0-0.128-0.208-0.56t-0.496-0.784-0.416-0.336-0.672 0.272l-0.864 0.384q-0.16 0.064-0.192-0.016t0.416-0.4q0.32-0.256 0.352-0.368t-0.24-0.608-0.384-0.544-0.512 0.128-0.752 0.432-0.352 0.4 0.864 1.328q-0.864 0.352-1.664 0.448-0.704 0.096-1.92 0 0.128 0.928 0.704 1.888 0.448 0.768 1.216 1.536l0.096 0.128q-0.064 0.064-0.48-0.288-0.512-0.416-0.992-1.056-0.704-0.928-1.12-2.24-0.8-0.096-1.632-0.672-0.384-0.288-0.64-0.544v0l0.032 0.416q0.032 0.544 0.192 1.12 0.224 0.832 0.608 1.632 0.48 1.024 1.184 1.984 0.8 1.024 1.856 1.92 0.736 0.608 1.568 1.088l0.672 0.352-0.064-0.672q-0.032-0.8 0.064-1.536 0.16-1.024 0.576-1.76 0.512-0.864 1.376-1.568 1.504 1.984 4.064 5.216l1.28 1.664q2.688 3.392 3.392 4.384 0.832 1.12 1.664 2.496 0.992 1.6 1.248 2.272v0.032q0.256 0.736 0.32 0.768 0.192 0.064 0.608-0.352t0.672-0.96q0.672-1.248 0.512-1.728zM14.816 14.176q-3.648 4.512-6.784 7.712-0.512 0.544-1.376 1.216-0.48 0.384-0.512 0.48-0.16 0.48 0.512 1.728 0.256 0.544 0.672 0.96t0.608 0.352q0.064-0.032 0.32-0.768v-0.032q0.256-0.672 1.248-2.272 0.864-1.376 1.648-2.48t3.696-4.752l0.864-1.088q0.064-0.096 0-0.192l-0.672-0.864q-0.064-0.064-0.128-0.048t-0.096 0.048zM27.968 6.816q-0.16 0.128-0.32 0.288-0.384 0.32-0.8 0.544-0.576 0.32-1.152 0.384-0.384 1.248-1.12 2.24-0.48 0.64-0.992 1.056-0.416 0.352-0.48 0.288l0.064-0.096q0.8-0.8 1.248-1.568 0.576-0.96 0.704-1.888-1.216 0.096-1.92 0-0.8-0.096-1.696-0.448 0.896-1.184 0.896-1.328t-0.352-0.4-0.752-0.432-0.528-0.128-0.384 0.544-0.24 0.608 0.368 0.368q0.448 0.32 0.416 0.4t-0.192 0.016l-0.864-0.384q-0.544-0.256-0.672-0.272t-0.416 0.336-0.512 0.784-0.192 0.544 0.704 0.624l0.576 0.448q0.096 0.096 0.048 0.16t-0.272-0.064l-0.096-0.064q-0.544-0.352-0.672-0.192-0.064 0.064-0.512 0.736-0.96 1.472-1.536 2.24-0.096 0.128 0.032 0.256l0.672 0.832q0.064 0.032 0.128 0.032t0.096-0.064q0.448-0.544 2.656-3.456 0.864 0.736 1.344 1.6 0.608 1.024 0.672 2.592 0.032 0.8-0.064 1.376v0l0.672-0.352q0.832-0.48 1.568-1.088 1.056-0.896 1.856-1.952 0.704-0.928 1.184-1.952 0.384-0.8 0.608-1.632 0.128-0.576 0.192-1.12z"></path>
</svg>
