<!-- Generated by IcoMoon.io -->
<svg version="1.1" xmlns="http://www.w3.org/2000/svg" width="32" height="32" viewBox="0 0 32 32">
<title>ItemCategory_GSM</title>
<path d="M15.968 8.64q-0.064 0.096-0.128 0.224-0.16 0.288-0.288 0.576-0.128 0.416-0.128 0.8t0.128 0.8q0.128 0.32 0.288 0.608l0.128 0.224 0.128-0.224q0.16-0.32 0.288-0.608 0.128-0.416 0.128-0.8 0-0.544-0.288-1.12-0.128-0.288-0.256-0.48v0zM27.136 20.16q0.032-0.16 0.064-0.288 0.064-0.384 0.032-0.768-0.096-0.544-0.384-0.992t-0.64-0.704q-0.256-0.192-0.48-0.256h-0.192l-0.128-0.48q-0.192-0.544-0.48-1.024-0.416-0.64-0.992-0.992-0.704-0.48-1.664-0.48-0.832 0-1.632 0.416h0.032l0.032-0.192q0.064-0.256 0.064-0.544 0.032-0.608-0.032-1.088v0l-0.288 0.096q-0.32 0.16-0.672 0.48h-0.032q-0.352 0.32-0.416 0.48-0.16-1.056-0.8-1.696-0.544-0.576-1.152-0.576-0.48 0-0.864 0.32-0.256 0.224-0.416 0.576l-0.128 0.32-0.128-0.32q-0.192-0.352-0.448-0.576-0.384-0.32-0.864-0.32-0.608 0-1.152 0.576-0.64 0.64-0.768 1.696-0.096-0.16-0.448-0.48v0q-0.352-0.32-0.704-0.48l-0.288-0.096-0.032 0.32v0.768q0 0.288 0.064 0.544l0.032 0.192h0.032q-0.8-0.416-1.632-0.416-0.96 0-1.664 0.48-0.576 0.352-0.992 0.992-0.288 0.48-0.48 1.024l-0.096 0.48h-0.192q-0.256 0.064-0.512 0.256-0.32 0.256-0.64 0.704-0.416 0.64-0.384 1.408 0.032 0.384 0.128 0.64l-0.224 0.16q-0.224 0.224-0.384 0.48-0.224 0.384-0.224 0.768 0 0.64 0.48 1.056t1.040 0.416 1.072-0.288q0.16 0.16 0.512 0.288l0.032 0.032q0.224 0.096 0.672 0.176t0.656 0.080 0.368-0.128v0l-0.288-0.128q-0.352-0.16-0.544-0.384-0.32-0.32-0.32-0.752t0.512-0.848 1.408-0.672 1.936-0.256 1.744 0.224q0.544 0.16 1.152 0.544 0.448 0.288 0.8 0.64 0.256 0.288 0.32 0.48l0.032 0.16q0.032 0.16 0.096 0.272t0.192 0.176l0.096 0.064 0.128-0.064q0.128-0.064 0.176-0.176t0.080-0.272l0.064-0.16q0.064-0.192 0.32-0.48 0.32-0.352 0.8-0.64 0.608-0.384 1.12-0.544 0.736-0.224 1.776-0.224t1.92 0.256 1.392 0.672 0.512 0.848-0.288 0.752q-0.224 0.224-0.544 0.384l-0.32 0.128 0.128 0.064q0.128 0.064 0.304 0.064t0.624-0.080 0.672-0.176q0.352-0.128 0.544-0.32 0.512 0.288 1.056 0.288t1.024-0.416 0.48-1.056q0.032-0.544-0.384-1.024-0.192-0.256-0.384-0.384v0zM25.056 18.4q0.224-0.32 0.416-0.608l0.16 0.032q0.16 0.064 0.32 0.192 0.224 0.16 0.352 0.4t0.096 0.528q0 0.224-0.064 0.416l-0.096 0.192-0.256-0.16q-0.32-0.192-0.608-0.256-0.448-0.128-0.832-0.192v0l0.192-0.192q0.224-0.224 0.32-0.352zM19.392 14.848q0.096-0.352 0.224-0.576t0.384-0.416l0.224-0.16 0.032 0.288q-0.032 0.32-0.096 0.544-0.192 0.448-0.8 0.928 0.032-0.352 0.032-0.576v-0.032zM22.208 14.72q0.864 0 1.312 0.48 0.224 0.224 0.288 0.448v0l-0.544-0.032q-0.608-0.032-1.12 0.032-0.416 0.096-0.928 0.384l-0.448 0.256h-0.288q-0.32-0.032-0.512 0.032-0.352 0.064-0.736 0.224v0l0.448-0.48q0.544-0.544 1.088-0.864 0.768-0.48 1.44-0.48zM16.384 13.344q0.128-0.416 0.432-0.72t0.592-0.304q0.544 0 0.896 0.896 0.288 0.736 0.288 1.6t-0.768 1.984q-0.512 0.8-1.344 1.6 0.352-0.544 0.576-1.152 0.416-0.992 0.416-1.776t-0.416-1.264q-0.32-0.32-0.768-0.448zM15.968 14.432q0.096 0 0.192 0.032 0.224 0.064 0.352 0.288 0.224 0.32 0.224 0.912t-0.224 1.232q-0.128 0.48-0.352 0.928l-0.192 0.352-0.192-0.352q-0.224-0.448-0.352-0.928-0.224-0.64-0.224-1.216 0-0.832 0.384-1.12 0.192-0.16 0.384-0.128v0zM14.528 12.32q0.288 0 0.592 0.304t0.432 0.72l0.096 0.416q-0.48 0.128-0.768 0.448-0.416 0.48-0.416 1.264t0.416 1.776q0.224 0.608 0.576 1.152-0.832-0.832-1.344-1.6-0.768-1.152-0.784-2t0.304-1.584q0.352-0.896 0.896-0.896zM11.68 13.696q0.128 0.064 0.256 0.16 0.256 0.192 0.368 0.4t0.24 0.592v0.032q0 0.224 0.032 0.576-0.576-0.448-0.8-0.928-0.096-0.224-0.096-0.544v-0.288zM9.728 14.72q0.672 0 1.44 0.48 0.544 0.32 1.088 0.864l0.448 0.48-0.256-0.096q-0.256-0.096-0.464-0.144t-0.528-0.016h-0.288l-0.448-0.256q-0.512-0.288-0.928-0.384-0.8-0.128-1.664 0v0l0.128-0.224q0.16-0.288 0.448-0.448 0.416-0.256 1.024-0.256zM5.632 18.4q0.192-0.32 0.544-0.512 0.16-0.096 0.288-0.096l0.416 0.608q0.096 0.128 0.32 0.352l0.192 0.192-0.256 0.032q-0.288 0.064-0.576 0.16-0.448 0.128-0.864 0.416v0l-0.096-0.192q-0.064-0.192-0.064-0.416-0.032-0.288 0.096-0.544zM6.176 21.792q0 0.16 0.032 0.352-0.928-0.416-0.768-1.248 0.096-0.512 0.736-0.864 0.576-0.32 1.28-0.416 0.512-0.064 1.12 0.064-2.4 0.928-2.4 2.112zM9.024 17.376q-0.128 0.288-0.096 0.8l0.032 0.448-0.224-0.032q-0.256-0.064-0.48-0.192-0.32-0.16-0.512-0.384-0.576-0.672-0.544-1.184v-0.032q0-0.128 0.224-0.352 0.288-0.288 0.736-0.384 0.608-0.096 1.184 0.096 0.352 0.096 0.576 0.352v0l-0.192 0.096q-0.192 0.128-0.352 0.288-0.224 0.224-0.352 0.48zM11.072 16.864q0.64 0 1.472 0.608 0.448 0.288 0.736 0.576v0l-0.64-0.096q-0.704-0.064-1.216-0.032-0.768 0.064-1.376 0.352v0l-0.032-0.352q0-0.416 0.192-0.672 0.256-0.384 0.864-0.384zM13.536 19.008q-0.192 0.096-0.288 0.288l-0.32-0.064q-0.448-0.064-0.896-0.096-0.672-0.032-1.344 0.032 0.224-0.256 0.608-0.448 0.576-0.288 1.312-0.288 0.928 0 1.312 0.384zM16.864 20.064q-0.512 0.352-0.896 1.024v0l-0.256-0.384q-0.32-0.416-0.624-0.624t-0.656-0.336l-0.288-0.096 0.16-0.128q0.192-0.128 0.384-0.128 0.288 0 0.56 0.224t0.528 0.608l0.192 0.352 0.192-0.352q0.256-0.384 0.512-0.608 0.384-0.32 0.8-0.192 0.192 0.096 0.32 0.224v0l-0.288 0.096q-0.352 0.128-0.64 0.32zM18.688 19.296q-0.032-0.032-0.064-0.096-0.096-0.128-0.256-0.224t-0.352-0.16q0.384-0.384 1.312-0.384 1.248 0 1.92 0.736-0.672-0.064-1.312-0.032-0.48 0.032-0.928 0.096zM21.856 18.272q-0.192-0.064-0.384-0.16-0.48-0.16-0.976-0.192t-1.2 0.032l-0.64 0.096 0.352-0.32q0.416-0.352 0.832-0.544 0.576-0.32 1.024-0.32 0.608 0 0.864 0.384 0.192 0.256 0.192 0.672zM22.912 17.376q-0.128-0.256-0.352-0.48-0.16-0.16-0.352-0.288l-0.192-0.096 0.16-0.128q0.192-0.16 0.416-0.256 0.544-0.192 1.184-0.064 0.448 0.064 0.736 0.352 0.224 0.224 0.224 0.384v0q0.032 0.544-0.544 1.184-0.192 0.256-0.512 0.416-0.224 0.096-0.48 0.16l-0.224 0.064 0.032-0.448q0.032-0.512-0.096-0.8zM25.728 22.144q0.032-0.192 0.032-0.352 0-1.216-2.432-2.112 0.576-0.128 1.12-0.064 0.736 0.096 1.28 0.416 0.672 0.384 0.768 0.864 0.16 0.832-0.768 1.248z"></path>
</svg>
