<!-- Generated by IcoMoon.io -->
<svg version="1.1" xmlns="http://www.w3.org/2000/svg" width="32" height="32" viewBox="0 0 32 32">
<title>ItemCategory_ARC</title>
<path d="M17.216 16.032l7.104-7.104h0.448q0.288 0.16 0.656 0.144t0.656-0.24q0.352-0.288 0.512-0.768 0.096-0.288 0.128-0.864 0.032-0.384 0.064-0.544 0.064-0.288 0.192-0.448 0.288-0.352 0.864-0.64 0.096-0.064 0.096-0.096t-0.208-0.032-0.512 0.080-0.656 0.352-0.416 0.464l-0.032 0.192q-0.032 0.416-0.288 0.64-0.384 0.416-0.96 0.352-0.448-0.032-0.768-0.32-0.192-0.224-0.224-0.8 0-0.288 0.064-0.544v0l-0.608-0.096q-0.736-0.064-1.536-0.032-1.12 0.032-2.24 0.32-1.248 0.288-2.56 0.928-0.768 0.384-1.888 1.024-0.704 0.416-0.864 0.448-0.48 0.16-1.472 0-0.512-0.064-0.992-0.352l-0.16-0.096q-0.16-0.032-0.544 0-0.064 0-0.080 0.032t0.112 0.128l1.376 1.408q0.192 0.192 0.064 0.32t-0.384 0.128q-0.16-0.032-0.4-0.112t-0.304-0.048l-0.224 0.256q-0.064 0.032 0 0.096l1.184 1.184q0.032 0.032 0.080 0.032t0.048-0.032l0.704-0.704q0.128-0.128 0.288 0l0.704 0.704q0.096 0.096 0.192-0.128l0.064-0.096q0.448-0.928 1.088-1.648t1.952-1.28 2.88-0.784q1.088-0.16 2.112 0.064 0.8 0.224 1.44 0.608v0.512l-7.072 7.072q-0.096 0.064-0.032 0.16l0.224 0.192q0.064 0.032 0.128-0.032zM5.504 27.936l0.064-0.128q0.288-0.544 0.64-0.864 0.16-0.128 0.416-0.16 0.16-0.032 0.544-0.064 0.576-0.032 0.864-0.128 0.48-0.16 0.8-0.512 0.224-0.288 0.24-0.656t-0.144-0.656v-0.448l7.456-7.456 6.656 6.656 0.032 1.376 0.32 0.32 0.032-0.64q0-0.096 0.096-0.16l0.064-0.064v1.056l2.176 2.176-0.064-1.536 0.32-0.352 1.536 0.064-2.176-2.176h-1.024l0.064-0.064q0.064-0.096 0.16-0.096l0.64-0.032-0.32-0.32-1.376-0.032-14.752-14.752q-1.216-1.216-1.152-1.504 0-0.16 0.256-0.256l0.224-0.032-4.096-2.496 2.496 4.096 0.064-0.224q0.064-0.224 0.224-0.256 0.288-0.032 1.504 1.152l2.112 2.144-0.544 0.544q-0.032 0.032 0.048 0.272t0.112 0.4q0 0.288-0.128 0.416t-0.32-0.064l-1.408-1.408q-0.16-0.16-0.16 0-0.032 0.384 0 0.544l0.064 0.128q0.32 0.512 0.384 0.992 0.16 1.024 0 1.504-0.064 0.16-0.448 0.864-0.64 1.12-1.024 1.856-0.64 1.344-0.96 2.592-0.256 1.088-0.32 2.24-0.032 0.8 0.064 1.536l0.096 0.576 0.256-0.032q0.32 0 0.576 0.032 0.352 0.032 0.48 0.192 0.32 0.288 0.352 0.768 0.064 0.544-0.352 0.96-0.224 0.224-0.64 0.288l-0.192 0.032q-0.256 0.096-0.48 0.4t-0.32 0.64-0.096 0.544 0.064 0.208zM8.128 23.968q-0.416-0.64-0.608-1.44-0.256-1.024-0.096-2.112 0.256-1.568 0.8-2.88t1.264-1.936 1.648-1.104l0.096-0.064q0.224-0.096 0.128-0.192l-0.672-0.704q-0.16-0.16 0-0.288l1.024-1.024 4.32 4.32-7.424 7.424h-0.48z"></path>
</svg>
