<svg version="1.1" xmlns="http://www.w3.org/2000/svg" width="32" height="32" viewBox="0 0 32 32">
<title>ItemCategory_ROG</title>
<path d="M12.48 18.080q-0.32-0.192-0.64-0.416-0.768-0.448-1.472-0.768-0.32-0.128-0.976-0.32t-0.912-0.32q-0.192-0.096-0.48-0.32l-0.16-0.096-0.672 1.536 0.224 0.032q0.352 0.064 0.544 0.16 0.256 0.096 0.832 0.448t0.896 0.48q0.704 0.32 1.568 0.576l0.736 0.224zM7.488 15.616l0.192-0.384-0.928-0.416-0.192 0.16q-0.192 0.16-0.352 0.368t-0.32 0.56-0.192 0.608q-0.064 0.384-0.032 0.736l0.928 0.416 0.896-2.048zM23.392 21.888q-0.608-0.256-1.92-0.704-1.536-0.512-2.208-0.864-0.576-0.288-1.504-0.96l-0.64-0.48q-1.056-0.704-1.824-1.12v0l-1.664 3.808 0.576 0.16q0.704 0.224 1.472 0.416l0.8 0.16q1.12 0.224 1.728 0.448 0.704 0.256 2.112 1.024 1.216 0.672 1.824 0.928 1.92 0.8 4 0.896 1.024 0.032 1.664-0.064v-0.032q-0.48-0.672-1.184-1.376-1.44-1.408-3.232-2.24zM14.336 16.256l-0.864 1.952-0.32-0.128q-0.096-0.064-0.224 0l-0.672 1.504 0.032 0.064q0.032 0.096 0.096 0.128l0.352 0.128-0.896 1.984 0.64 0.288 2.496-5.664zM19.456 13.856q0.32 0.192 0.64 0.416 0.768 0.448 1.472 0.768 0.32 0.128 0.976 0.32t0.912 0.32q0.192 0.096 0.48 0.32l0.16 0.096 0.672-1.536-0.224-0.032q-0.32-0.064-0.512-0.16-0.288-0.096-0.864-0.448t-0.896-0.48q-1.12-0.512-2.272-0.8v0zM24.448 16.288l-0.16 0.416 0.928 0.416 0.16-0.16q0.192-0.192 0.368-0.384t0.32-0.544 0.176-0.608 0.032-0.512v-0.224l-0.928-0.416zM12.672 11.616q0.576 0.288 1.504 0.96l0.64 0.48q0.672 0.416 1.312 0.8l0.512 0.32 1.664-3.808-0.576-0.16q-0.704-0.224-1.472-0.416l-0.8-0.16q-1.12-0.224-1.728-0.448-0.704-0.256-2.112-1.024-1.216-0.672-1.824-0.928-1.92-0.832-4-0.896-1.024-0.032-1.664 0.064v0l0.256 0.384q0.352 0.448 0.832 0.896 0.64 0.64 1.376 1.184 0.928 0.672 1.952 1.152 0.64 0.288 1.984 0.736 1.504 0.512 2.144 0.864zM17.6 15.68l0.864-1.952 0.32 0.128q0.096 0.064 0.224 0l0.672-1.504-0.032-0.096q-0.032-0.064-0.096-0.096l-0.352-0.128 0.896-1.984-0.64-0.288-2.496 5.632z"></path>
</svg>
