<svg version="1.1" xmlns="http://www.w3.org/2000/svg" width="32" height="32" viewBox="0 0 32 32">
<title>ItemCategory_CUL</title>
<path d="M27.008 19.52q0.544-0.64 0.768-1.504 0.192-0.704 0.16-1.696t-0.576-2.144q-0.64-1.376-1.76-2.208-1.344-1.024-3.104-1.056-1.12-0.032-2.144 0.896-0.32 0.288-0.736 0.864-0.608 0.8-0.8 1.44-0.256 0.864 0.192 1.376 0.192 0.192 0.528 0.128t0.512-0.272 0.192-0.096-0.096 0.288-0.32 0.336-0.528 0.224q-0.416 0.128-0.736 0-0.384-0.16-0.608-0.672-0.128-0.352 0.016-0.96t0.496-1.12q0.544-0.768 1.504-1.6 0.096-0.064 0.112-0.208t-0.080-0.272q-0.48-0.672-1.44-1.184-1.248-0.704-2.752-0.704-2.56 0-4.8 2.688l-0.064 0.096q-0.288 0.288-0.576 0.8-0.352 0.672-0.48 1.216-0.128 0.704 0.16 1.072t0.704 0.304q0.256-0.064 0.448-0.224 0.224-0.192 0.224-0.128 0.032 0.32-0.48 0.704-0.16 0.128-0.48 0.192-0.384 0.064-0.704-0.032-0.384-0.128-0.56-0.56t-0.080-1.072 0.448-1.184q0.288-0.48 1.28-1.536l0.128-0.128q0.192-0.224 0.112-0.432t-0.24-0.304q-0.352-0.16-0.768-0.192-0.32 0-0.64 0.032l-0.768 0.192q-0.608 0.16-1.184 0.416-0.832 0.384-1.472 0.896-0.8 0.672-1.312 1.536-0.576 0.992-0.704 2.272-0.096 0.768 0.16 1.6 0.256 0.96 0.832 1.632 1.184 1.376 3.584 1.76h0.096l0.128 0.096q2.464 1.504 6.144 1.504t6.080-1.024l0.096-0.032q0.032 0 0.352-0.032 1.728-0.064 2.832-0.4t1.872-0.912l0.256-0.192z"></path>
</svg>
