<!-- Generated by IcoMoon.io -->
<svg version="1.1" xmlns="http://www.w3.org/2000/svg" width="32" height="32" viewBox="0 0 32 32">
<title>ItemCategory_CNJ</title>
<path d="M7.936 17.6q0-0.352-0.256-0.624t-0.592-0.272-0.592 0.272-0.256 0.64 0.256 0.64 0.592 0.272 0.592-0.272 0.256-0.656zM11.264 10.592q0.416 0 0.704-0.32t0.288-0.768-0.288-0.768-0.704-0.32-0.72 0.32-0.304 0.768 0.304 0.768 0.72 0.32zM17.12 8.192q0.384 0 0.656-0.304t0.272-0.72-0.272-0.704-0.656-0.288-0.672 0.288-0.272 0.704 0.288 0.72 0.656 0.304zM23.552 9.568q0.352 0 0.592-0.272t0.24-0.656-0.24-0.656-0.592-0.272-0.608 0.272-0.256 0.656 0.256 0.656 0.608 0.272zM27.456 8.32q-0.224 0.224-0.48 0.448-0.48 0.48-0.688 0.624t-0.592 0.24l-0.256 0.16q-0.256 0.16-0.416 0.224-0.288 0.096-0.816 0.16t-0.976 0.064q-0.352 0-0.544-0.032l-0.16-0.032 0.096-0.16 0.224-0.256v-0.032q0.032-0.064-0.016-0.096t-0.272 0.096l-0.384 0.288-0.096-0.128q-0.096-0.16-0.16-0.32-0.096-0.224-0.16-0.576-0.096-0.48-0.096-0.896 0.096-1.216 0.448-1.856 0.192-0.32 0.448-0.736l0.256-0.352h-0.096q-0.16 0.032-0.304 0.112t-0.592 0.496q-0.48 0.48-0.704 0.8-0.416 0.704-0.416 1.248 0.032 0.224 0.192 0.672 0.16 0.384 0.288 0.608 0.32 0.576 0.8 1.024l-0.352 0.352q-0.416 0.416-0.576 0.608-0.256 0.32-0.544 1.12l-0.032 0.064q-0.032 0.128-0.16 0.224l-0.128 0.064-0.224 0.096q-0.256 0.096-0.352 0.16-0.192 0.16-0.48 0.416v0l-0.128-0.192q-0.128-0.192-0.192-0.448-0.128-0.512-0.512-1.504-0.16-0.448-0.48-1.024l0.352-0.352q0.352-0.416 0.512-0.704 0.224-0.384 0.512-0.992 0.32-0.736 0.352-1.088 0.128-0.768-0.288-1.6-0.224-0.512-0.56-0.88t-0.848-0.816q-0.416-0.352-0.544-0.416t-0.16-0.032l0.096 0.16q0.544 0.64 0.704 0.992t0.128 0.96q-0.032 0.32-0.064 0.544l0.16 0.192q0.16 0.224 0.224 0.464t0.048 0.752-0.080 0.896q-0.128 0.64-0.416 1.152-0.128 0.224-0.256 0.352v0l-0.192-0.256-0.032-0.16q-0.064-0.192-0.112-0.288t-0.128-0.176-0.144-0.048-0.032 0.128l0.064 0.128v0.128q-0.032 0.128-0.096 0.128l-0.128-0.16q-0.128-0.224-0.32-0.416l-0.192-0.224q-0.928-1.12-1.584-1.616t-1.312-0.8-1.088-0.32-0.72 0.144q-0.224 0.128-0.608 0.512l-0.32 0.256q-0.16 0.16-0.224 0.256t-0.064 0.256l0.192-0.096q0.224-0.128 0.576-0.128 0.48 0 1.344 0.608l0.896 0.608 0.512-0.064q0.576-0.032 0.8 0.032 0.64 0.192 0.992 0.48 0.192 0.16 0.512 0.544t0.32 0.416q0.096 0.256 0.128 0.288l0.064 0.064q0.32 0.16 0.48 0.352 0.288 0.352 0.576 1.12 0.32 0.992 0.352 1.824 0 0.256-0.080 0.768t-0.112 0.768q-0.032 0.96-0.736 2.144-0.16 0.256-0.16 0.32l0.064 0.128q0.32 0.48 0.416 0.832 0.032 0.128 0.144 0.368t0.112 0.304q-0.032 0.192-0.32 0.384h-0.032q-0.224 0.16-0.448 0.288l-0.192 0.096 0.064 0.128q0.096 0.128 0.288 0.192l0.16 0.064q0.416 0.128 0.608 0.32 0.128 0.128 0.336 0.384t0.208 0.288l-0.384-0.224q-0.416-0.256-0.704-0.384t-0.768-0.256q-0.384-0.096-0.576-0.192-1.216-0.512-2.208-1.216-0.512-0.32-0.928-0.768l-0.32-0.384-0.224-0.064q-0.256-0.096-0.416-0.192l-0.16-0.096q-0.32-0.192-0.352-0.32t0-0.512l0.032-0.32-0.256-0.832q-0.256-0.896-0.32-1.216-0.064-0.512-0.032-0.992l0.352-0.448q0.448-0.448 0.736-0.576 0.736-0.352 1.312-0.352 0.16 0 0.672 0.096l0.256 0.032q0.096 0 0.48-0.304t0.64-0.592l0.416-0.512q0.448-0.512 0.496-0.576t0.048-0.192v0l-0.384 0.192q-0.352 0.16-0.8 0.16-0.224 0-0.736-0.064l-0.256-0.032q-0.128 0-0.544 0.16-0.544 0.224-1.056 0.592t-0.928 0.784q-0.288 0.32-0.512 0.64l-0.192 0.256-0.032-0.096q-0.032-0.128-0.032-0.224 0-0.288 0.096-0.608v-0.064q0-0.096-0.064-0.096-0.128-0.064-0.256 0.128t-0.208 0.448-0.080 0.416v0l-0.096-0.032q-0.16-0.096-0.256-0.224v-0.032q-0.384-0.512-0.512-0.784t-0.208-0.656-0.080-0.704q0-0.48 0.192-0.864 0.096-0.192 0.192-0.256l-0.064-0.32q-0.064-0.416-0.048-0.8t0.080-0.576l0.064-0.128 0.032-0.16q0-0.192 0.064-0.32 0.096-0.288 0.16-0.4t0.096-0.336v0l-0.352 0.32q-0.416 0.416-0.864 0.96-0.544 0.672-0.768 1.184t-0.256 1.088q-0.032 1.152 1.12 2.272l1.44 1.408-0.032 0.256q-0.032 0.288 0 0.48 0.064 0.608 0.16 0.928 0.256 0.768 0.256 1.696 0 0.608-0.096 1.184-0.064 0.448-0.112 0.544t-0.048 0.256h0.256q0.288 0.032 0.416 0.096l0.256 0.128 0.128 0.032q0.128 0.032 0.16 0.064l1.024 1.216q0.832 0.928 1.536 1.44v0l-0.32-0.032q-0.32-0.064-0.672-0.256-0.192-0.096-0.384-0.256l-0.128-0.096-0.32 0.064q-0.384 0.064-0.576 0.064-0.32-0.032-0.8-0.16-0.64-0.224-1.088-0.576-0.576-0.48-0.896-0.96-0.128-0.224-0.16-0.352l0.064-0.704q0.064-0.768-0.096-1.856-0.032-0.448-0.368-1.36t-0.608-1.344-0.816-0.704-1.056-0.272q-0.992 0-1.472 0.32l0.256 0.064q0.288 0.096 0.576 0.256 0.384 0.224 0.688 0.56t0.688 1.040l0.352 0.608 0.192 0.064q0.192 0.096 0.352 0.224 0.704 0.544 0.928 1.536 0.032 0.256 0.096 0.704v0.384q0 0.064-0.064 0.064h-0.096l-0.128-0.096q-0.128-0.096-0.192-0.064t-0.064 0.096l0.096 0.224q0.096 0.288 0.032 0.352l-0.352 0.064q-0.416 0.096-0.736 0.288-0.384 0.224-1.024 0.976t-0.848 1.216-0.272 1.040q-0.032 0.384 0.032 0.752t0.416 0.976q0.192 0.288 0.352 0.544v0l0.128-0.576q0.096-0.608 0.208-0.848t0.432-0.752l0.288-0.48 0.032-0.8q0-0.8 0.016-0.896t0.272-0.448 0.448-0.512q0.384-0.32 0.768-0.32l0.288 0.352q0.352 0.448 0.672 0.8 0.768 0.832 1.344 1.184 0.512 0.288 1.504 0.8 0.448 0.224 0.864 0.64l0.352 0.384 0.32-0.256q0.352-0.256 0.608-0.352t0.72-0.16 0.752-0.064q0.576 0 1.12 0.288 0.384 0.192 0.992 0.672l0.544 0.512q0.608 0.608 0.896 1.12 0.416 0.704 0.608 1.216 0.224 0.608 0.288 1.2t0.064 1.168v0.16l0.096 0.256 0.16-0.192q0.192-0.192 0.288-0.256 0.256-0.192 0.576-0.352l0.288-0.416q0.384-0.448 0.768-0.768 0.896-0.704 1.6-0.832 0.32-0.064 0.72-0.064t0.608 0.064 0.352 0.224 0.192 0.368 0.016 0.336l-0.064 0.128 0.16-0.064q0.16-0.064 0.224-0.256t-0.016-0.464-0.24-0.4l-0.032-0.032q-0.192-0.224-0.352-0.32-0.32-0.192-0.704-0.256-0.928-0.096-1.376-0.352l-0.8-0.256q-0.416-0.128-0.576-0.224-0.096-0.064-0.544-0.608l-0.416-0.48-0.448-0.48q-0.288-0.32-0.352-0.416l-0.064-0.096q-0.288-0.416-0.368-0.688t-0.048-0.656 0.128-0.576q0.128-0.288 0.672-0.416 0.288-0.064 0.512-0.064v0l-0.032-0.16q-0.064-0.192-0.224-0.288t-0.512-0.192-0.512-0.16q-0.448-0.256-0.832-0.832-0.448-0.672-0.448-1.44t0.512-1.904 0.912-1.376 1.040-0.24q0.096 0 0.192-0.096l-0.096-0.256q-0.096-0.32-0.032-0.768 0.032-0.288 0.208-0.656t0.368-0.56q0.256-0.256 0.576-0.48l0.544 0.16q0.64 0.16 1.088 0.224 0.896 0.064 1.568-0.064 0.288-0.032 0.592-0.208t0.496-0.384 0.432-0.704 0.304-0.816q0.032-0.096 0.064-0.256v-0.128zM22.56 15.168q-0.416 0-0.704 0.32t-0.288 0.752 0.288 0.752 0.688 0.32 0.688-0.32 0.288-0.752-0.288-0.752-0.672-0.32zM22.592 17.6q-0.384 0-0.656 0.288t-0.272 0.704 0.272 0.704 0.64 0.288 0.64-0.288 0.272-0.704-0.272-0.704-0.624-0.288zM20.544 16.448q-0.416 0-0.736 0.352t-0.32 0.832 0.32 0.816 0.752 0.336 0.752-0.336 0.32-0.816-0.32-0.832-0.768-0.352z"></path>
</svg>
