<!-- Generated by IcoMoon.io -->
<svg version="1.1" xmlns="http://www.w3.org/2000/svg" width="32" height="32" viewBox="0 0 32 32">
<title>ItemCategory_MCH</title>
<path d="M21.312 16.32q-0.288-0.384-0.736-0.736-0.256-0.192-0.8-0.544l-0.544-0.352-10.432-7.392q-0.64-0.48-0.96-0.736-0.768-0.608-0.352-1.344 0.576-0.96 1.472-0.672 0.352 0.064 0.96 0.512v0q5.568 3.936 13.248 9.376 0.64 0.48 0.992 0.864 0.512 0.576 0.512 0.992-0.032 0.512-0.864 0.96l-0.064 0.032q-0.736 0.384-1.152 0.544l-0.128 0.032q-1.312 0.48-1.632 0.672-0.448 0.224-0.32 0.512 0.064 0.224 0.672 0.896 0.512 0.576 0.832 0.96l0.128 0.128q0.768 0.96 0.928 1.28 0.256 0.448 0.064 0.896-0.16 0.352-0.864 1.376l-0.288 0.448q-0.8 1.184-1.248 1.728-0.544 0.704-0.928 0.72t-0.96-0.688q-0.736-0.864-1.44-2.112-0.448-0.736-1.184-2.272-0.48-0.96 0.224-1.344 0.928-0.544 1.44 0.512 0.352 0.64 1.024 1.696 0.384 0.608 0.512 0.736 0.192 0.192 0.352 0.128t0.544-0.384q0.512-0.384 0.576-0.736 0.128-0.448-0.32-0.928-0.608-0.64-0.992-1.216-0.736-1.024-0.88-1.712t0.32-1.232 1.648-1.12q0.384-0.224 0.64-0.48zM13.152 16.128q0.768 0.288 1.056 0.608 0.352 0.448 0.288 1.28-0.032 0.32 0.256 0.528t0.592 0.144 0.56-0.416 0.32-0.704q0.096-0.512-0.288-0.992-0.224-0.256-0.832-0.672l-0.064-0.032q-2.144-1.44-5.632-3.936-0.16-0.128-0.384-0.224-0.256-0.16-0.48-0.4t-0.32-0.736 0-0.832 0.464-0.32 0.72 0.24l3.264 2.304q2.656 1.888 4.032 2.784 0.672 0.448 0.88 1.024t0.048 1.408q-0.256 1.184-0.592 1.792t-0.928 0.912-1.68 0.464q-0.736 0.096-1.056-0.064-0.416-0.256-0.48-0.96v-0.384q-0.064-0.896-0.032-1.376 0.032-0.768 0.288-1.44z"></path>
</svg>
