<svg version="1.1" xmlns="http://www.w3.org/2000/svg" width="32" height="32" viewBox="0 0 32 32">
<title>ItemCategory_RDM</title>
<path d="M20.032 18.528q-0.128-0.064-0.352-0.208t-0.384-0.176q-0.288-0.096-0.736-0.096-1.12 0-2.048 0.576t-1.456 1.568-0.528 2.176q0 1.728 1.024 2.816t2.784 1.344q0.352 0.064 0.624 0.4t0.192 0.864-0.688 0.592q-0.48 0.064-1.216-0.16-2.176-0.416-3.424-1.92-1.344-1.6-1.344-4.128 0-1.568 0.72-2.928t1.968-2.224l0.064-0.032q0.8-0.448 0.896-1.632v0q0.192-3.968 0.704-8.8l0.064-0.864q0.096-1.056 0.16-1.376 0.096-0.512 0.304-0.512t0.336 0.512q0.064 0.32 0.16 1.376l0.064 0.864q0.352 3.392 0.608 7.264 0.096 1.056 0.384 1.888 0.256 0.768 0.48 0.928 0.352 0.16 0.96 0.512 0.512 0.288 0.736 0.384 0.384 0.192 0.608 0.128 0.192 0.064 0.112 0.256t-0.336 0.4-0.64 0.288-0.8-0.080zM8.48 15.744q0.096-0.096 0.512 0.16 0.256 0.128 0.896 0.576l0.64 0.48q0.416 0.256 0.896 0.416l0.192 0.064q0.416 0.032 0.736 0.224t0.16 0.384q-1.056 1.28-1.36 3.264t0.656 3.968q0.512 1.024 1.344 2.016l0.064 0.064q-0.032 0.288-0.384 0.192t-0.784-0.384-0.56-0.512q-0.32-0.256-0.736-0.8v0q-0.224-0.224-0.544-0.064l-0.64 0.448q-0.64 0.448-0.864 0.608-0.416 0.224-0.528 0.128t0.144-0.544q0.16-0.256 0.608-0.864l0.608-0.896h-0.032q0.096-0.192 0.112-0.464t0.016-0.464q-0.128-0.384-0.192-0.768v-0.032q-0.096-0.672-0.48-0.8l-1.12-0.192q-0.96-0.192-1.312-0.288-0.576-0.16-0.576-0.368t0.576-0.368q0.352-0.096 1.312-0.256l0.864-0.16 0.32-0.096q0.224-0.064 0.464-0.272t0.336-0.464l0.032-0.128q0.128-0.32 0.224-0.512 0.032-0.064 0.064-0.192-0.064-0.448-0.48-1.056l-0.448-0.64q-0.448-0.608-0.576-0.864-0.256-0.448-0.16-0.544zM16.128 22.272q0-0.832 0.608-1.44t1.456-0.608 1.456 0.608 0.608 1.456-0.608 1.44-1.456 0.592-1.456-0.592-0.608-1.456z"></path>
</svg>
