<!-- Generated by IcoMoon.io -->
<svg version="1.1" xmlns="http://www.w3.org/2000/svg" width="32" height="32" viewBox="0 0 32 32">
<title>ItemCategory_ACN</title>
<path d="M23.808 14.464q0-1.92-0.896-3.6t-2.464-2.768-3.456-1.344q-0.128-0.16-0.288-0.288-0.096-0.064-0.24-0.144t-0.144-0.176 0.256-0.384q0.16-0.16 0.416-0.32 0.16-0.096 0.16-0.128t-0.16-0.16q-0.288-0.224-0.512-0.416-0.16-0.16-0.288-0.48-0.128-0.192-0.192-0.192t-0.16 0.192q-0.16 0.32-0.336 0.496t-0.464 0.4q-0.192 0.128-0.192 0.16t0.16 0.128q0.256 0.16 0.416 0.32 0.288 0.288 0.288 0.384t-0.16 0.176-0.24 0.144-0.24 0.256l-0.064 0.032q-1.728 0.224-3.232 1.184-2.976-1.664-3.552-0.896-0.224 0.32 0.032 1.424t0.896 2.32q-0.928 1.728-0.928 3.712t0.944 3.712 2.608 2.8 3.648 1.232q-0.352 0.096-0.736 0.352t-0.384 0.448 0.128 0.32q0.064 0.064 0.272 0.192t0.304 0.224 0.096 0.224q0 0.576-0.736 1.088-0.224 0.096-0.576 0.256-0.192 0.064-0.256 0.128t-0.064 0.224v0.32q0 0.16 0.192 0.16h1.376q0.256 0 0.256 0.096t-0.16 0.16-0.496 0.112-1.168 0.080h-1.44q-0.224 0-0.816 0.496t-0.592 0.64 0.080 0.176 0.24 0.032h10.112q0.16 0 0.24-0.032t0.080-0.176-0.576-0.64-0.832-0.496h-1.44v-0.928q0-0.16-0.064-0.224t-0.256-0.128q-0.352-0.16-0.544-0.256-0.768-0.512-0.768-1.088 0-0.128 0.096-0.224t0.304-0.224 0.272-0.192q0.128-0.128 0.128-0.32t-0.384-0.448-0.704-0.352q1.664-0.128 3.136-0.928 1.184 0.608 2.256 0.848t1.392-0.016q0.768-0.544-0.864-3.424 1.28-1.92 1.28-4.256zM22.784 14.464q0 1.728-0.832 3.232l-0.064-0.096q-1.152-1.856-3.168-3.968-0.16-1.888-0.608-3.456-0.608-1.952-1.44-2.4 1.696 0.128 3.088 1.072t2.208 2.432 0.816 3.184zM17.568 12.448q-1.344-1.376-2.848-2.56 0.544-0.8 1.216-0.8t1.12 1.088q0.32 0.864 0.512 2.272zM18.72 15.2q0.416 0.576 0.64 0.896 0.704 0.992 0.992 1.824 0.384 1.056-0.048 1.472t-2.32-0.32q0.576-1.696 0.736-3.872zM15.616 7.744q-0.832 0.32-1.44 1.728-0.672-0.512-1.376-0.928v-0.032q1.312-0.672 2.816-0.768zM9.248 14.464q0-1.376 0.544-2.656l0.224 0.32q0.928 1.216 1.76 2.176 0.672 0.832 0.72 0.768t0.032-0.144-0.144-0.24l-0.128-0.224q-0.576-1.152-0.96-2.080-0.704-1.856-0.32-2.24t1.216-0.16q0.704 0.16 1.568 0.704-0.16 0.64-0.256 1.344l-0.096 0.576 0.064-0.032q0.096-0.032 0.176-0.128t0.144-0.288q0.128-0.64 0.384-1.216l1.664 1.184q-0.992 0.064-1.696 0.8t-0.704 1.776 0.752 1.792 1.808 0.752q0.864 0 1.536-0.512-0.256 1.632-0.704 2.464-0.032 0 0 0.032-0.384 0.64-0.896 0.64-0.896 0-1.568-1.376-0.384-0.8-0.576-1.728-0.064-0.256-0.224-0.384-0.096-0.032-0.128-0.032h-0.032l0.096 0.672q0.128 0.8 0.352 1.504 0.288 0.992 0.672 1.664 0.48 0.8 1.12 1.024-1.76-0.064-3.232-0.992t-2.32-2.448-0.848-3.312zM16.64 21.216q0.576-0.288 1.024-1.312l0.64 0.48q0.256 0.192 0.416 0.288-1.024 0.448-2.080 0.544z"></path>
</svg>
