<!-- Generated by IcoMoon.io -->
<svg version="1.1" xmlns="http://www.w3.org/2000/svg" width="32" height="32" viewBox="0 0 32 32">
<title>ItemCategory_LNC</title>
<path d="M23.968 20.128q-0.032 0-0.096 0.032l-2.016 2.048q-0.096 0.096-0.208 0.096t-0.16-0.048 0.144-0.24l1.888-1.888q0.032-0.032 0.032-0.064l-0.352-0.096q-0.416-0.128-0.608-0.192-0.832-0.352-1.44-0.96-0.032-0.032-0.064 0l-0.672 0.704q-0.096 0.064-0.208 0.080t-0.16-0.032 0.112-0.208l0.736-0.736q0.032-0.064 0-0.096-0.192-0.256-0.32-0.544l-0.096-0.224-2.432-1.696q-2.688-1.952-4-3.104-1.408-1.248-7.584-6.784l-0.032-0.384-2.144-1.696q-0.096-0.064-0.16-0.064h-0.096v0.096q0 0.064 0.064 0.16l1.696 2.144 0.384 0.032 6.784 7.584q1.152 1.312 3.104 4 0.96 1.344 1.696 2.432l0.384 0.16q0.416 0.256 0.768 0.64 0.544 0.544 0.864 1.312 0.448 1.088 0.448 2.688 0 0.288 0.032 0.288 0.096 0.128 0.256-0.032l1.664-1.664q0.16-0.16 0.32 0l0.288 0.256q0.096 0.096 0.448 0.064l0.352-0.064 2.016 2.048-0.032 0.16q0 0.192 0.032 0.336t0.128 0.304l0.096 0.128-0.032 0.064q0.032 0.096 0.096 0.16t0.352 0l0.224-0.032q0.384-0.032 0.48 0.032 0.288 0.256 0.768 0.576 0.16 0.096 0.256 0.064v-0.064q0-0.096-0.064-0.192-0.224-0.32-0.576-0.768-0.096-0.096-0.032-0.512l0.032-0.192q0.064-0.288 0-0.352t-0.16-0.096h-0.096l-0.896 0.896v-0.064q-0.032-0.096 0.016-0.224t0.208-0.288l0.352-0.32q0.032-0.064 0.016-0.112t-0.080-0.080q-0.16-0.032-0.352-0.032l-0.16 0.032-2.048-2.016 0.064-0.352q0.032-0.352-0.064-0.448l-0.192-0.192q-0.032-0.064-0.096 0l-0.48 0.448q-0.128 0.16-0.288 0.192t-0.192 0 0.064-0.16l2.592-2.56q0.16-0.16 0.032-0.288h-0.256q-0.768 0-1.344-0.096z"></path>
</svg>
