<!-- Generated by IcoMoon.io -->
<svg version="1.1" xmlns="http://www.w3.org/2000/svg" width="32" height="32" viewBox="0 0 32 32">
<title>ItemCategory_GLA</title>
<path d="M24.768 20.192l-0.704-0.704-1.216 1.248q-0.096 0.096-0.416 0.064-0.224 0-0.448-0.064-0.16-0.032-0.224 0.032l-0.448 0.448h-0.064q-0.064 0-0.112-0.064t-0.048-0.128v-0.064l0.32-0.32-0.416-0.416-0.064-0.288q-0.064-0.32-0.064-0.608t0.096-0.608l0.096-0.288-0.32-0.032q-0.384-0.128-0.832-0.384-0.64-0.32-1.28-0.928-1.216-1.12-3.264-3.136-2.304-2.272-3.552-3.648-1.92-2.144-3.648-4.288l-4.16-2.016 2.016 4.16 1.344 1.088q1.6 1.376 2.944 2.56 1.408 1.248 3.648 3.52 2.048 2.080 3.168 3.296 0.8 0.896 1.152 1.76 0.16 0.416 0.16 0.672v0l0.288-0.096q0.32-0.096 0.608-0.096 0.48-0.032 0.896 0.128v0l0.64 0.64-0.096 0.128-0.032 0.064q-0.032 0.064 0 0.16 0.064 0.224 0.064 0.448 0.032 0.32-0.064 0.416l-1.248 1.216 0.704 0.704 1.728-1.728 3.52 3.2 0.256 0.256v0.064q0 0.032 0.032 0.096l0.096 0.096q0.224 0.256 0.256 0.352 0.096 0.256 0.096 0.768l0.16 0.064q0.192 0.032 0.448 0 0.512-0.032 0.8-0.352 0.16-0.16 0.256-0.384t0.112-0.448-0.016-0.416l-0.032-0.192h-0.32q-0.32 0-0.464-0.064t-0.464-0.352q-0.064-0.064-0.16 0l-0.352 0.352q-0.128 0.128-0.256 0.032-0.032-0.064-0.016-0.128t0.048-0.096l0.352-0.384q-0.352-0.352-2.976-3.296l-0.608 0.64q-0.064 0.032-0.144 0.048t-0.144-0.048-0.048-0.16 0.048-0.128zM13.312 17.12q-0.64 0.576-1.28 0.928-0.448 0.224-0.832 0.352l-0.288 0.032 0.064 0.288q0.096 0.32 0.112 0.608t-0.048 0.64l-0.096 0.256-0.416 0.416 0.352 0.32v0.064q0 0.064-0.064 0.128t-0.128 0.064h-0.032l-0.48-0.448-0.032-0.032q-0.096-0.032-0.16 0-0.224 0.064-0.48 0.064-0.288 0.032-0.384-0.064l-1.248-1.248-0.704 0.704 2.4 2.368q0.032 0.064 0.048 0.144t-0.048 0.144-0.144 0.048-0.144-0.048l-0.608-0.64q-2.432 2.72-3.008 3.296l0.384 0.384q0.096 0.128 0 0.224t-0.224-0.032l-0.352-0.352-0.064-0.032q-0.064 0-0.128 0.032l-0.096 0.096q-0.256 0.224-0.384 0.272t-0.448 0.048h-0.288l-0.064 0.192q-0.032 0.192 0 0.448 0.032 0.512 0.336 0.8t0.816 0.352q0.384 0.032 0.64-0.064v0 0-0.288q0-0.32 0.064-0.464t0.352-0.464q0.032-0.064 0.032-0.096v-0.064l0.256-0.256 3.52-3.2 1.728 1.728 0.704-0.704-1.248-1.216q-0.096-0.096-0.064-0.416 0-0.224 0.064-0.448 0.032-0.096 0-0.16v-0.064l-0.128-0.128 0.64-0.64 0.288-0.064q0.32-0.096 0.608-0.080t0.608 0.112l0.288 0.096 0.032-0.32q0.128-0.384 0.384-0.832 0.32-0.64 0.928-1.28l0.896-0.992-1.44-1.44zM23.776 6.016l-1.088 1.344q-1.344 1.6-2.56 2.944-1.376 1.536-3.904 4.032l1.376 1.408q2.496-2.56 4.032-3.936 1.344-1.184 2.944-2.56l1.344-1.088 2.048-4.16z"></path>
</svg>
