<!-- Generated by IcoMoon.io -->
<svg version="1.1" xmlns="http://www.w3.org/2000/svg" width="32" height="32" viewBox="0 0 32 32">
<title>ItemCategory_BTN</title>
<path d="M27.2 27.008q-0.128-0.032-0.288-0.064-0.448-0.064-0.96-0.224-0.736-0.192-1.6-0.544-0.768-0.288-1.504-0.8l-0.608-0.416-0.032-0.224q-0.064-0.32-0.272-0.656t-0.592-0.752l-0.288-0.288q-0.192-0.224-0.352-0.608t-0.192-0.624 0.064-0.432l0.032-0.096q0.064-0.192 0-0.192t-0.192 0.288-0.128 0.72 0.256 1.264q0.096 0.256 0.096 0.768v0l-1.088-0.8q-0.48-0.352-0.928-0.8 0.128-0.096 0.304-0.288t0.224-0.88-0.080-1.392q-0.128-0.832-0.416-1.376-0.256-0.416-0.544-0.768l-0.224-0.256-0.928-1.952q-0.256-0.48-0.656-1.088t-0.528-0.736q-0.48-0.48-0.512-0.4t0.256 0.4q0.16 0.16 0.448 0.64 0.352 0.608 0.576 1.184 0.352 0.832 0.544 1.856l-0.064 0.288q-0.032 0.192-0.064 0.544v0l-0.416-0.768q-0.192-0.288-0.416-0.576l-0.192-0.224-0.16-0.736q-0.224-0.832-0.416-1.248-0.32-0.64-0.864-1.12l-0.032-0.224-0.192-0.576q-0.256-0.64-0.736-1.536l-0.128-0.288q-0.096-0.16-0.256-0.384t-0.192-0.208 0.16 0.336l0.064 0.096q0.032 0.064 0.224 0.64l0.224 0.544q0.224 0.608 0.288 1.344l-0.064 0.192-0.16 0.32-0.576-0.704-0.128-0.608q-0.16-0.768-0.352-1.408-0.288-0.96-0.8-1.824-0.224-0.384-0.464-0.704t-0.272-0.288 0.192 0.48l0.16 0.288q0.48 1.056 0.416 1.728 0 0.192-0.096 0.448l-0.064 0.224-0.448-0.384q-0.256-0.192-0.704-0.544 0.224-1.024-0.128-1.856-0.128-0.32-0.288-0.608l-0.16-0.224-0.288-0.608q-0.352-0.672-0.704-1.072t-0.448-0.336l0.192 0.256q0.224 0.32 0.448 0.672 0.096 0.192 0.288 0.704l0.16 0.48-0.128 0.32-0.096 0.416q-0.512-0.736-1.12-1.264t-0.864-0.496l0.128 0.128q0.768 0.672 1.216 1.408 0.736 1.216 0.544 1.824-0.032 0.16-0.256 0.224-0.128-0.96-0.544-1.6-0.352-0.48-0.832-0.928-0.384-0.32-0.768-0.576l-0.352-0.192-0.32-0.416q-0.384-0.512-0.64-1.056-0.224-0.448-0.544-1.248-0.224-0.544-0.288-0.544t0.112 0.688 0.4 1.2l0.704 1.6 0.032 0.448q0.032 0.544 0.224 1.056 0.032 0.384 0.128 0.832t0.224 0.704q0.192 0.48 0.48 0.864v0l-0.16-0.032q-0.16-0.032-0.256-0.080t-0.464-0.416-0.592-0.656l-0.384-0.512q-0.448-0.608-0.496-0.592t0.256 0.56 0.624 1.024l0.736 0.992 0.128 0.416q0.16 0.448 0.464 0.72t0.656 0.432q0.224 0.128 0.448 0.16l0.192 0.032 0.48 0.704h-0.608q-0.192 0-0.416 0.032l-0.224 0.032-0.32-0.256q-0.384-0.288-0.64-0.608t-0.672-0.864l-0.16-0.192q-0.32-0.416-0.368-0.384t0.048 0.24 0.192 0.304l0.192 0.256q1.088 1.504 1.536 1.92 1.344 1.248 2.176 1.632 0.288 0.096 0.704 0.224l0.736 1.12-1.12-0.096q-0.096 0-0.416-0.16-0.352-0.192-0.64-0.416-0.544-0.448-1.248-1.248l-0.256-0.32q-0.16-0.224-0.192-0.208t0.032 0.176 0.16 0.256l0.032 0.096q0.608 0.8 1.184 1.376 0.288 0.288 1.152 0.992l0.128 0.096 0.128 0.16q0.48 0.544 0.96 0.896 0.352 0.224 0.96 0.288l0.544 0.512 0.512 0.512 0.096 0.352q0.032 0.16 0.16 0.352v0l-0.256-0.064q-0.352-0.096-0.736-0.384-0.224-0.16-0.672-0.512t-0.544-0.448q-0.448-0.48-0.496-0.432t0.24 0.4q0.16 0.224 0.608 0.704 0.544 0.576 0.8 0.768l0.48 0.32q0.64 0.448 0.736 0.608 0.288 0.384 0.736 0.704 0.768 0.576 1.728 0.704 0.704 0.096 1.344 0.032 0.48-0.064 0.864-0.224l0.288-0.16 0.064 0.064q0.384 0.352 0.576 0.496t0.384 0.336l0.16 0.16-0.64 0.032q-0.384 0-1.056 0.128-0.768 0.128-1.216 0.352-0.544 0.256-0.928 0.544-0.16 0.16-0.192 0.352v0h0.064q0.096-0.032 0.192-0.112t0.48-0.224 0.608-0.144q0.448 0 1.184 0.256 0.288 0.096 0.864 0.192 0.672 0.096 1.248 0.096t1.248-0.192l0.16-0.032q0.064 0 0.768 0.448 0.832 0.544 1.216 0.768 0.576 0.32 1.552 0.768t1.104 0.416q0.288 0 0.768-0.448l0.352-0.32q0.128-0.128 0.064-0.16zM8.064 11.552q-0.064 0-0.224-0.064l-0.128-0.032-0.192-0.192q-0.256-0.224-0.384-0.448-0.192-0.352-0.192-0.672 0.384 0.512 0.624 0.688t0.528 0.176l0.064 0.288v0.128q0 0.128-0.096 0.128zM9.472 14.336q-0.32-0.16-0.576-0.48l-0.224-0.288 0.192 0.064 0.336 0.048t0.24-0.016h0.128l0.384 0.416 0.384 0.448h-0.256q-0.32-0.032-0.608-0.192zM10.88 11.488l0.16 0.16q0.224 0.224 0.48 0.576 0.192 0.256 0.256 0.56t0.032 0.464-0.128 0.16-0.16-0.032l-0.128-0.096q-0.128-0.128-0.192-0.224l-0.256-0.352v-0.448q0-0.192-0.064-0.768v0zM12.672 18.112q-0.032 0.064-0.208 0.016t-0.336-0.144q-0.32-0.16-0.736-0.608l-0.352-0.448 0.16 0.032q0.16 0.064 0.304 0.064h0.4l0.48 0.512q0.16 0.192 0.24 0.352t0.048 0.224zM13.568 14.624q0.096 0.064 0.256 0.128l0.128 0.64q0.032 0.224 0.096 0.544l0.096 0.32h-0.288l-0.128-0.256-0.16-0.16-0.064-0.576q-0.032-0.352-0.128-0.8v0zM14.592 21.248q-0.096 0-0.272-0.096t-0.368-0.192q-0.384-0.128-0.64-0.48v0l0.192-0.032q0.224-0.032 0.352-0.032l0.448 0.064 0.768 0.704q0.032 0-0.16 0.048t-0.32 0.016zM16.8 20.16q-0.224-0.32-0.48-0.64l-0.288-0.384v-0.192q0.032-0.224 0.064-0.352 0.032-0.256 0.032-0.704v0q0.064 0.032 0.416 0.512 0.416 0.576 0.448 0.928 0.032 0.512-0.192 0.832v0z"></path>
</svg>
