<svg version="1.1" xmlns="http://www.w3.org/2000/svg" width="32" height="32" viewBox="0 0 32 32">
    <title>ItemCategory_BSM1</title>
    <path d="M6.656 12.992q-0.096 0-0.224-0.128l-0.832-1.056q-0.128-0.224 0-0.416l0.192-0.192q0.192-0.192 0.384-0.192h11.168q0.544 0 0.896 0.096 0.288 0.096 0.448 0.256l0.096 0.096q0.128 0.192 0.224 0.112t0.032-0.24l-0.096-0.192q-0.16-0.192-0.448-0.288-0.384-0.192-0.896-0.192h-13.28q-0.128 0-0.224-0.096t-0.096-0.224v-0.928q0-0.128 0.096-0.24t0.224-0.112h15.712q0.128 0 0.288 0.080t0.224 0.208l0.352 0.704q0.16 0.352 0.288 0.352h6.528q0.128 0 0.192 0.080t0.032 0.208l-0.288 0.736q-0.384 0.864-0.928 1.6-0.768 1.024-1.664 1.6-0.608 0.416-1.504 0.8-0.768 0.288-1.44 0.448t-0.784 0.112-0.176-0.304-0.24-0.224-0.176 0.384l0.032 0.032q0 0.128-0.096 0.176t-0.352 0.112q-0.128 0.064-0.384 0.224-0.352 0.288-0.544 0.672-0.288 0.48-0.288 1.104t0.448 1.2q0.352 0.448 0.768 0.64 0.288 0.128 0.64 0.192l0.288 0.064q0.128 0 0.208 0.112t0.080 0.24v1.952q0 0.128-0.080 0.224t-0.208 0.096h-3.456q-0.128 0-0.224-0.096t-0.096-0.224v-0.416q0-0.256-0.464-0.576t-1.136-0.544-1.184-0.224q-1.12 0-1.824 0.288-0.352 0.16-0.512 0.288v0q-0.064 0.064-0.224 0l-0.096-0.064-0.128-0.192q-0.096-0.256-0.096-0.384 0-0.48 0.544-0.992 0.288-0.256 0.544-0.384t0.672-0.24 0.128-0.208h-0.192q-0.224 0.032-0.448 0.096-0.352 0.096-0.64 0.288-1.056 0.64-1.056 1.76v1.504q0 0.128-0.080 0.224t-0.208 0.096h-3.36q-0.128 0-0.224-0.096t-0.096-0.224v-1.856q0-0.128 0.112-0.272t0.24-0.144l0.384-0.192q0.448-0.256 0.8-0.608 0.544-0.512 0.832-1.12 0.384-0.736 0.384-1.632 0-1.184-0.608-2.112-0.512-0.768-1.376-1.216-0.768-0.416-1.504-0.416z"></path>
</svg>
