<svg version="1.1" xmlns="http://www.w3.org/2000/svg" width="32" height="32" viewBox="0 0 32 32">
    <title>ItemCategory_ChairsandBeds</title>
    <path d="M24.928 6.816q0-0.128-0.080-0.24t-0.208-0.144l-9.408-1.984q-0.16-0.032-0.256 0.032l-1.792 0.96q-0.192 0.096-0.192 0.32v7.616q0 0.192-0.16 0.32l-6.080 4.48v7.072q0 0.352 0.272 0.624t0.656 0.272h0.832q0.384 0 0.64-0.272t0.256-0.624v-3.776q0-0.192 0.144-0.304t0.336-0.048l5.824 1.376q0.128 0.032 0.208 0.144t0.080 0.24v4.128q0 0.384 0.272 0.656t0.656 0.272h0.736q0.384 0 0.656-0.272t0.272-0.624v-4.48q0-0.16 0.128-0.288l3.008-2.624q0.16-0.16 0.384-0.048t0.224 0.336v3.712q0 0.352 0.272 0.624t0.656 0.272h0.736q0.384 0 0.656-0.272t0.272-0.624v-16.832zM22.336 14.272q0 0.192-0.144 0.304t-0.304 0.080l-6.016-1.376q-0.128-0.032-0.208-0.144t-0.080-0.24v-0.736q0-0.192 0.128-0.304t0.32-0.080l6.016 1.248q0.128 0.032 0.208 0.144t0.080 0.24v0.864zM22.336 10.72q0 0.16-0.128 0.272t-0.32 0.080l-6.016-1.184q-0.128-0.032-0.208-0.128t-0.080-0.224v-0.896q0-0.192 0.128-0.304t0.32-0.080l6.016 1.216q0.128 0.032 0.208 0.144t0.080 0.24v0.864z"></path>
</svg>
