<svg version="1.1" xmlns="http://www.w3.org/2000/svg" width="32" height="32" viewBox="0 0 32 32">
    <title>ItemCategory_InteriorFixtures</title>
    <path d="M25.664 5.952h-19.328q-0.864 0-1.472 0.608t-0.608 1.472v15.936q0 0.864 0.608 1.472t1.472 0.608h19.328q0.864 0 1.472-0.608t0.608-1.472v-15.936q0-0.864-0.608-1.472t-1.472-0.608zM25.184 22.528q0 0.448-0.32 0.768t-0.768 0.32h-0.544v-6.080q0-0.224-0.16-0.384t-0.352-0.16h-0.608q-0.224 0-0.384 0.16t-0.16 0.384v6.080h-5.056v-6.080q0-0.224-0.16-0.384t-0.384-0.16h-0.576q-0.224 0-0.384 0.16t-0.16 0.384v6.080h-5.056v-6.176q0-0.224-0.16-0.368t-0.384-0.144h-0.576q-0.224 0-0.384 0.144t-0.16 0.368v6.176h-0.608q-0.448 0-0.768-0.32t-0.32-0.768v-12.864q0-0.448 0.32-0.768t0.768-0.32h0.608v3.936q0 0.224 0.16 0.384t0.352 0.16h0.608q0.224 0 0.384-0.16t0.16-0.384v-3.936h5.056v3.936q0 0.224 0.16 0.384t0.352 0.16h0.608q0.224 0 0.384-0.16t0.16-0.384v-3.936h5.056v3.936q0 0.224 0.16 0.384t0.352 0.16h0.608q0.224 0 0.384-0.16t0.16-0.384v-3.936h0.544q0.448 0 0.768 0.32t0.32 0.768v12.864zM12.352 11.072h0.576q0.224 0 0.384 0.16t0.16 0.384v6.784q0 0.224-0.16 0.384t-0.384 0.16h-0.576q-0.224 0-0.384-0.16t-0.16-0.384v-6.784q0-0.224 0.16-0.384t0.384-0.16zM19.072 11.072h0.576q0.224 0 0.384 0.16t0.16 0.384v6.784q0 0.224-0.16 0.384t-0.384 0.16h-0.576q-0.224 0-0.384-0.16t-0.16-0.384v-6.784q0-0.224 0.16-0.384t0.384-0.16z"></path>
</svg>
