<svg version="1.1" xmlns="http://www.w3.org/2000/svg" width="32" height="32" viewBox="0 0 32 32">
<title>ItemCategory_WVR1</title>
<path d="M27.872 26.848q-0.032-0.128-1.184-1.344l-1.12-1.248v-0.32q0-0.352-0.016-0.512t-0.24-0.448q-0.288-0.416-0.288-0.672t0.224-0.512l0.256-0.224-0.32-0.288q-0.352-0.32-0.576-0.32t-0.336 0.064-0.192 0.208-0.144 0.192-0.24 0.048-0.256-0.112-0.032-0.224 0.208-0.288 0.24-0.304 0.112-0.336 0.064-0.704-0.16-1.232q-0.096-0.48-0.192-0.72t-0.416-0.208q-0.064 0-0.512 0.416-0.384 0.32-0.48 0.368t-0.16-0.016-0.064-0.192 0.576-0.8q0.352-0.352 0.384-0.448 0.16-0.256 0.112-0.512t-0.512-1.056-0.72-1.024q-0.096-0.096-0.256-0.112t-0.256 0.048-1.424 1.328-1.392 1.296q-0.192 0.096-0.16-0.128 0-0.064 1.184-1.376 1.088-1.248 1.248-1.472 0.256-0.352 0.080-0.688t-0.784-0.912-0.96-0.704-0.544 0q-0.064 0.064-1.792 1.696l-1.344 1.312q-0.064 0.064-0.096 0.032t-0.016-0.128 1.264-1.568q1.184-1.408 1.376-1.696 0.064-0.096 0.064-0.24t-0.064-0.24q-0.096-0.192-0.688-0.592t-0.848-0.464q-0.384-0.096-0.64 0-0.064 0.032-0.752 0.72t-0.768 0.704-0.144-0.064-0.016-0.208 0.88-1.152v0q0.128-0.16 0.096-0.368t-0.16-0.304q-0.352-0.192-1.328-0.288t-1.264 0.032q-0.096 0.064-0.576 0.448-0.288 0.256-0.352 0.288-0.32 0.096-0.256-0.288 0.032-0.096 0.224-0.288 0.32-0.288 0.336-0.512t-0.304-0.672l-0.32-0.352-0.224 0.224q-0.288 0.256-0.528 0.288t-0.656-0.288q-0.288-0.224-0.448-0.256t-0.512-0.032h-0.32l-1.248-1.12q-1.248-1.12-1.36-1.168t-0.224-0.048-0.176 0.064 0.032 0.352q0.064 0.096 1.184 1.344l1.152 1.216v0.352q0 0.352 0.016 0.496t0.24 0.432q0.352 0.448 0.32 0.672t-0.288 0.512l-0.256 0.256 0.416 0.352q0.48 0.352 0.704 0.32 0.064 0 0.224 0.064t0.208 0.192-0.128 0.544-0.176 0.576q0 0.288 0.224 1.168t0.32 0.976 0.32 0.080 0.304 0.064-0.080 0.368q-0.128 0.256-0.128 0.384-0.032 0.448 0.832 1.76 0.96 1.408 2.272 2.688t2.56 1.984q1.024 0.576 1.536 0.576 0.352 0 0.672-0.32 0.128-0.096 0.176-0.080t0 0.256 0.016 0.336q0.128 0.224 0.48 0.384 0.48 0.256 1.312 0.288 1.184 0.096 1.472-0.128 0.032-0.064 0.096-0.032 0.16 0.032 0.176 0.16t-0.016 0.288l-0.032 0.128q0 0.224 0.32 0.64 0.16 0.224 0.32 0.384l0.256-0.256q0.288-0.256 0.512-0.288t0.64 0.288q0.288 0.224 0.416 0.256 0.288 0.064 0.896 0.032l1.216 1.12q1.248 1.152 1.36 1.2t0.224 0.032 0.176-0.080-0.064-0.32zM19.584 24q-0.096-0.16-0.496-0.256t-0.592 0q-0.128 0.032-0.512 0.288-0.832 0.48-1.408 0.736-1.056 0.448-2.048 0.48-2.144 0.064-3.328-2.176-0.256-0.512-0.992-2.528l-0.416-1.088q-0.448-1.184-1.12-1.92-0.8-0.896-1.888-1.024-0.896-0.096-1.568 0.256-0.576 0.288-0.928 0.8-0.256 0.448-0.288 0.848t0.080 0.56 0.272 0.16q0.256 0 0.32-0.224 0.192-0.608 0.576-1.024 0.608-0.576 1.504-0.448 1.024 0.128 1.792 1.376 0.416 0.768 1.056 2.56 0.448 1.344 0.704 1.856 0.928 1.824 2.24 2.528 1.024 0.544 2.368 0.384 2.464-0.256 4.576-1.888 0.032-0.032 0.064-0.128t0.032-0.128z"></path>
</svg>
