<svg version="1.1" xmlns="http://www.w3.org/2000/svg" width="32" height="32" viewBox="0 0 32 32">
    <title>ItemCategory_CRP1</title>
    <path d="M27.104 21.888q-0.032-0.448-0.416-1.040t-0.608-0.304q0.096 0.32-0.048 0.464t-0.384 0.080-0.272-0.288 0.256-0.576q-0.8-0.768-2.176-2.144l-1.408-1.376q-0.064 0.032-0.432 0.4t-0.496 0.464q-0.032 0.032-0.096 0.016t-0.064-0.048q-0.096-0.096 0.128-0.48l0.128-0.192-12.864-12.864-3.52 3.52 0.704 1.536 0.352-0.256 0.576 1.184 0.32-0.32 0.608 1.248 0.288-0.288 0.576 1.184 0.32-0.288 0.544 1.184 0.32-0.384 0.544 1.28 0.352-0.384 0.608 1.248 0.288-0.288 0.576 1.248 0.352-0.352 0.576 1.248 0.352-0.384 0.544 1.28 0.32-0.352 0.544 1.216 0.32-0.288 0.576 1.184 0.32-0.32 0.608 1.184 0.288-0.288 0.576 1.248 0.32-0.288 0.576 1.152 0.352-0.32 0.576 1.216 0.288-0.288 0.608 1.248 0.32-0.352 0.576 1.28 1.888-1.92 0.064 0.096q0.096 0.096 0.272 0.16t0.416 0.064 0.416-0.080 0.176-0.144-0.096-0.144-0.128-0.176q-0.032-0.16 0.064-0.448t0.352-0.368 0.624 0.112 0.432 0.672-0.176 0.816-1.84 2.096l-0.416 0.48-0.288 0.256q-0.256 0.256-0.352 0.384-0.16 0.224-0.192 0.448 0 0.512 0.624 0.928t1.392 0.288q0.032-0.032 0-0.256-0.064-0.544 0.096-0.896v-0.032q0.224-0.544 0.448-0.896 0.384-0.608 1.12-1.344 0.16-0.192 0.48-0.544 0.544-0.576 0.704-0.896 0.288-0.544 0.224-1.216zM23.072 20.736q-0.256 0-0.416-0.16t-0.16-0.432 0.16-0.448 0.416-0.176 0.448 0.16 0.192 0.448q-0.032 0.608-0.64 0.608z"></path>
</svg>
