<svg version="1.1" xmlns="http://www.w3.org/2000/svg" width="32" height="32" viewBox="0 0 32 32">
<title>ItemCategory_Painting</title>
<path d="M25.664 5.952h-19.328q-0.864 0-1.472 0.608t-0.608 1.472v15.936q0 0.864 0.608 1.472t1.472 0.608h19.328q0.864 0 1.472-0.608t0.608-1.472v-15.936q0-0.864-0.608-1.472t-1.472-0.608zM25.184 22.528q0 0.448-0.32 0.768t-0.768 0.32h-2.048q-0.16-0.32-0.544-0.608-0.672-0.544-1.728-0.64v-1.44q0.512 0.16 0.864 0.064 0.256-0.096 0.416-0.288l0.096-0.16q0.608 0.384 1.472 0.096 0.384-0.16 0.672-0.576 0.288-0.48 0.288-1.216-0.032-1.056-0.864-1.536-0.064-0.064-0.096-0.144t0.032-0.176q0.192-0.32 0.208-0.688t-0.176-0.72q-0.192-0.448-0.928-0.704-0.192-0.064-0.224-0.288-0.192-1.216-0.64-2.272-0.384-0.896-0.864-1.472-0.448-0.512-0.768-0.544-0.48-0.064-0.928 1.856v0.128q-1.376 0.736-1.792 1.76-0.32 0.704-0.16 1.44 0.032 0.128-0.048 0.272t-0.24 0.176q-0.736 0.128-1.472 1.024-0.48 0.576-0.592 1.28t0.208 1.28 1.056 0.832q0.352 0.128 0.832 0 0.224-0.032 0.416-0.128v0l0.064 0.16q0.096 0.192 0.256 0.32 0.192 0.192 0.448 0.256 0.512 0.16 0.992 0.032v1.376q-0.992 0.128-1.664 0.64-0.384 0.288-0.544 0.608h-8.256q-0.448 0-0.768-0.32t-0.32-0.768v-12.864q0-0.448 0.32-0.768t0.768-0.32h16.256q0.448 0 0.768 0.32t0.32 0.768v12.864zM8.192 12.704q0 1.248 0.88 2.128t2.128 0.88 2.128-0.88 0.88-2.112-0.88-2.112-2.128-0.88-2.128 0.88-0.88 2.096z"></path>
</svg>
