<svg version="1.1" xmlns="http://www.w3.org/2000/svg" width="32" height="32" viewBox="0 0 32 32">
    <title>ItemCategory_FishingTackle</title>
    <path d="M22.72 6.72q-0.512-0.48-1.376-0.416-0.8 0.064-1.536 0.512-1.504 0.896-3.040 2.144-2.336 1.952-3.568 3.824t-1.104 3.568q0.128 1.504 1.248 2.592 0.736 0.704 2.528 1.248 1.056 0.32 3.232 0.768 1.344 0.288 1.824 0.416 0.8 0.224 0.928 0.448 0.32 0.48-0.16 0.768-0.448 0.256-1.632 0.448-2.784 0.384-6.304-0.608-1.376-0.384-2.56-1.024-0.672-0.352-1.504-0.96l-0.256-0.16q-0.608-0.416-1.36-0.416t-1.12 0.464-0.336 1.040q0.064 0.672 0.736 1.248 0.896 0.736 1.984 1.28 1.728 0.832 4.288 1.312 2.048 0.384 4.16 0.416 2.432 0.064 4.192-0.32 2.016-0.48 2.816-1.536 0.704-0.928 0.448-1.92-0.224-0.832-1.056-1.568-0.704-0.608-1.504-0.896-0.608-0.224-2.272-0.64-2.080-0.512-2.976-0.832-1.504-0.512-1.856-1.104t0.032-1.712q0.32-1.024 1.008-1.904t1.904-1.776q0.704-0.512 2.080-1.344 1.248-0.768 1.6-1.056 0.736-0.64 0.832-1.264t-0.32-1.040z"></path>
</svg>
