<svg version="1.1" xmlns="http://www.w3.org/2000/svg" width="32" height="32" viewBox="0 0 32 32">
<title>ItemCategory_ExteriorFixtures</title>
<path d="M28.16 11.040l-3.040-4.8q-0.096-0.16-0.288-0.16h-13.504q-0.16 0-0.256 0.144t-0.032 0.304l1.312 4.096q0.064 0.16-0.064 0.32t-0.32 0.128l-4.864-1.248q-0.16-0.032-0.224-0.176t0-0.304l1.76-2.784q0.096-0.16 0-0.32t-0.288-0.16h-1.664q-0.192 0-0.288 0.16l-2.592 4.8q-0.064 0.064-0.064 0.16v10.816q0 0.192 0.224 0.288l1.472 0.64q0.16 0.064 0.304-0.032t0.144-0.256v-10.656q0-0.16 0.128-0.256t0.288-0.064l5.792 1.568q0.256 0.064 0.256 0.32v11.872q0 0.128 0.096 0.224t0.224 0.096h1.344q0.128 0 0.224-0.096t0.096-0.224v-11.68q0-0.128 0.096-0.224t0.224-0.096h11.2q0.16 0 0.256 0.096t0.096 0.224v11.648q0 0.128 0.080 0.224t0.24 0.096h1.344q0.128 0 0.224-0.096t0.096-0.224v-14.208q0-0.096-0.032-0.16zM11.168 24.576v-6.848q0-0.224-0.128-0.4t-0.352-0.208l-2.912-0.8q-0.288-0.096-0.544 0.096t-0.256 0.512v6.368q0 0.192 0.112 0.352t0.272 0.224l2.912 1.28q0.32 0.16 0.608-0.032t0.288-0.544zM24.096 15.424q-0.064-0.16-0.192-0.16h-7.84q-0.096 0-0.16 0.096t-0.032 0.192l0.704 1.984q0.064 0.128 0.192 0.128h7.84q0.096 0 0.16-0.080t0.032-0.208zM17.312 18.848h0.864q0.224 0 0.368 0.144t0.144 0.336v4.576q0 0.224-0.144 0.368t-0.368 0.144h-0.864q-0.224 0-0.368-0.144t-0.144-0.368v-4.576q0-0.192 0.144-0.336t0.368-0.144zM20.064 18.848h0.896q0.224 0 0.352 0.144t0.128 0.336v4.576q0 0.224-0.128 0.368t-0.352 0.144h-0.896q-0.192 0-0.336-0.144t-0.144-0.368v-4.576q0-0.192 0.144-0.336t0.336-0.144zM22.848 18.848h0.896q0.192 0 0.336 0.144t0.144 0.336v4.576q0 0.224-0.144 0.368t-0.336 0.144h-0.896q-0.192 0-0.336-0.144t-0.144-0.368v-4.576q0-0.192 0.144-0.336t0.336-0.144z"></path>
</svg>
