<svg version="1.1" xmlns="http://www.w3.org/2000/svg" width="32" height="32" viewBox="0 0 32 32">
<title>ItemCategory_Dye</title>
<path d="M6.784 14.816v7.168q0.032 1.856 0.672 3.104t1.952 2.016q1.024 0.672 2.752 1.088t3.744 0.416h0.032q2.112 0 3.888-0.448t2.8-1.184q1.216-0.768 1.808-1.984t0.592-3.008v-7.168q0-0.736 0.128-1.28 0.064-0.384 0.192-0.64l0.096-0.192q0.224-0.384 0.224-0.848t-0.256-0.816l-0.128-0.224q-0.864-1.28-2.176-2.112 0.448-0.576 1.024-1.024l0.064-0.064q0.448-0.224 0.864-0.512 0.704-0.512 0.896-0.896 0.352-0.768 0.032-2.4-0.032-0.288-0.352-0.384-0.224-0.032-0.416 0h-0.064q-0.8 0.096-1.312 0.256-0.896 0.32-1.248 0.928-0.128 0.192-0.352 0.672-0.288 0.672-0.512 1.056-0.384 0.672-0.864 1.248-1.6-0.608-3.328-0.768-0.896-0.096-1.632-0.064v0q-0.992-0.064-2.336 0.16-2.496 0.384-4.544 1.568-1.504 0.896-2.496 2.336l-0.128 0.192q-0.224 0.384-0.24 0.848t0.208 0.848l0.128 0.192q0.096 0.256 0.192 0.64 0.096 0.544 0.096 1.28zM15.936 9.216q1.248 0 2.496 0.192l-1.6 0.672q-0.192 0.064-0.272 0.224t-0.048 0.352q0.16 0.608 0.48 1.12 0.416 0.704 1.12 0.96 1.216 0.48 2.944 0.416 0.192 0 0.32-0.128t0.16-0.32q0.128-1.12 0.544-2.208 1.568 0.864 1.568 1.952 0 0.704-0.704 1.344t-1.952 1.088v5.76q0 0.416-0.272 0.688t-0.656 0.272-0.656-0.272-0.272-0.688v-5.28q-1.6 0.32-3.2 0.288-2.112 0-3.888-0.432t-2.8-1.168-1.024-1.6 1.024-1.6 2.8-1.184 3.888-0.448z"></path>
</svg>
