<svg version="1.1" xmlns="http://www.w3.org/2000/svg" width="32" height="32" viewBox="0 0 32 32">
    <title>ItemCategory_MIN</title>
    <path d="M9.216 8.096q-0.032-0.096 0-0.128 1.632-1.376 1.6-1.376 0.032-0.032 0.112-0.048t0.112 0.016q0.32 0.16 0.576 0.16 0.8 0 1.024-0.256l0.608-0.8q0.48-0.608 0.752-0.848t1.808-0.752l0.192-0.064q0.032-0.032 0.112 0t0.112 0.064l0.256 0.384q0.032 0.064-0.016 0.128t-0.080 0.064q-0.256 0.064-0.64 0.224-0.512 0.224-0.896 0.48-0.16 0.096-0.32 0.304t-0.256 0.4-0.064 1.216l0.032 0.16q-0.032 0.256-0.384 0.736-0.256 0.32-0.256 0.48 0 0.256 0.352 1.024l0.096 0.192q0 0.064-0.032 0.224l-0.032 0.096 0.192 0.24t0.192 0.272l-0.096 0.224 1.824 2.048q0.064 0.096 0.080 0.128t-0.016 0.096l-0.224 0.224q-0.128 0.16-0.352 0.512l-0.032 0.096q-0.096 0.128-0.048 0.192t0.144 0v0q0.256-0.16 0.384-0.32l0.416-0.416q0.032-0.032 0.096 0.032l2.304 2.624q0.096 0.096 0.032 0.16-0.48 0.544-0.864 0.928-0.064 0.064-0.032 0.128t0.096 0.032q0.192-0.096 0.704-0.48 0.096-0.064 0.224-0.192l0.128-0.096q0.064-0.064 0.128 0.032l3.072 3.264q1.248 1.312 3.36 3.52l0.64 0.672q0.064 0.064 0.032 0.096l-0.096 0.064-0.224 0.224q-0.256 0.32-0.832 0.992l-0.128 0.128q-0.064 0.096-0.016 0.128t0.144-0.032l0.064-0.064q0.64-0.48 0.928-0.704 0.16-0.16 0.288-0.32l0.128-0.128q0.064-0.064 0.128 0l0.768 0.8q0.064 0.064 0.096 0.176t0.032 0.208l-0.064 0.416q-0.128 1.216-0.192 1.248l-0.128 0.128q-0.416 0.416-0.528 0.448t-0.976-0.016-0.928-0.080-2.656-3.552l-1.472-2.016q-1.408-1.952-2.688-3.648l-5.248-6.496-0.128 0.064q-0.032 0.064-0.096 0l-0.16-0.192q-0.256-0.288-0.288-0.304t-0.112 0.032-0.144 0.032-0.544-0.336l-0.512-0.352q-0.096-0.032-0.192 0.032l-1.632 1.504q-0.128 0.128-0.448 1.056-0.512 1.408-0.96 2.144-0.544 0.928-1.344 1.984-0.704 0.864-1.376 1.536-0.096 0.064-0.16 0l-0.384-0.384-0.032-0.064q0-0.032 0.032-0.064 1.696-2.432 2.24-3.776 0.608-1.44 0.704-3.072 0.032-0.416 0.096-0.48 0.128-0.16 0.432-0.592t0.304-0.464v-0.16q0-0.256 0.128-0.352 0.256-0.256 0.576-0.64 0.48-0.512 0.512-0.672 0.064-0.256-0.064-0.48z"></path>
</svg>
