<svg version="1.1" xmlns="http://www.w3.org/2000/svg" width="32" height="32" viewBox="0 0 32 32">
    <title>ItemCategory_Part</title>
    <path d="M6.72 18.336l0.96-0.96q0.704 0.448 1.536 0.672v1.376q0 0.384 0.272 0.656t0.656 0.272h1.024q0.384 0 0.656-0.272t0.272-0.656v-1.344q0.8-0.192 1.536-0.608l0.992 0.96q0.256 0.288 0.64 0.288t0.672-0.288l0.704-0.704q0.288-0.288 0.288-0.672t-0.288-0.64l-0.928-0.96q0.448-0.704 0.64-1.536h1.408q0.384 0 0.64-0.272t0.256-0.656v-1.024q0-0.384-0.256-0.656t-0.64-0.272h-1.344q-0.224-0.8-0.64-1.536l0.992-0.992q0.256-0.256 0.256-0.64t-0.256-0.672l-0.736-0.704q-0.256-0.288-0.64-0.288t-0.672 0.288l-0.928 0.928q-0.736-0.416-1.568-0.64v-1.408q0-0.384-0.272-0.64t-0.656-0.256h-1.024q-0.352 0-0.624 0.256t-0.272 0.64v1.344q-0.832 0.224-1.568 0.64l-0.992-0.992q-0.256-0.256-0.64-0.256t-0.672 0.256l-0.704 0.736q-0.288 0.256-0.288 0.64t0.288 0.672l0.96 0.928q-0.448 0.736-0.672 1.568h-1.376q-0.384 0-0.656 0.272t-0.272 0.656v1.024q0 0.352 0.272 0.624t0.656 0.272h1.344q0.192 0.832 0.608 1.568l-0.96 0.992q-0.288 0.256-0.288 0.64t0.288 0.672l0.704 0.704q0.288 0.288 0.672 0.288t0.64-0.288zM10.72 9.76q1.088 0 1.872 0.784t0.784 1.872-0.784 1.856-1.872 0.768-1.856-0.768-0.768-1.856 0.768-1.872 1.856-0.784zM14.208 22.304h-1.952q-0.288 0-0.48 0.192t-0.192 0.448v4.256q0 0.384 0.352 0.576 0.16 0.064 0.32 0.064h4.224q0.288 0 0.48-0.192t0.192-0.448v-1.984l7.36-9.632q0.128-0.16 0.112-0.336t-0.144-0.304v0q-0.128-0.096-0.304-0.112t-0.304 0.080zM28.768 10.208q-0.16-0.064-0.32 0t-0.256 0.224l-5.344 10.912-1.792 0.864q-0.224 0.128-0.32 0.384t0.032 0.512l1.888 3.776q0.128 0.256 0.384 0.336t0.48-0.048l3.808-1.856q0.256-0.128 0.336-0.384t-0.048-0.512l-0.864-1.76 2.336-11.936q0.032-0.16-0.064-0.32t-0.256-0.192z"></path>
</svg>
