<!-- Generated by IcoMoon.io -->
<svg version="1.1" xmlns="http://www.w3.org/2000/svg" width="32" height="32" viewBox="0 0 32 32">
<title>Armoury_Waist</title>
<path d="M26.272 13.92q-0.128 0.096-0.224 0.192-0.256 0.256-0.288 0.512-0.032 0.32 0.336 0.56t0.528 0.144 0.192-0.352v-0.256zM27.456 9.28q-0.768 1.248-1.568 2.464-1.664 2.56-2.144 3.008 0.16 0.32 0.224 0.896 0.032 0.352 0.064 1.184l0.032 0.992q0.256 0.288 0.96 0.032 0.384-0.096 0.704-0.288l0.704-0.32q0.832-0.448 1.376-0.832 0.8-0.576 0.96-1.024-0.992-1.024-1.28-3.040-0.192-1.472-0.032-3.072zM7.040 11.456q0.224-0.192 0.448-0.416 0.608-0.512 1.312-1.024 1.024-0.704 2.176-1.28 1.408-0.704 2.944-1.184 1.824-0.576 3.712-0.768 2.4-0.256 4.352 0.064 2.688 0.448 5.152 2.016-1.024 1.664-2.272 3.488v0l-0.064-0.416q-0.16-0.512-0.416-0.96-0.384-0.672-0.96-1.152-0.736-0.608-1.76-0.896l-0.16-0.032q-2.176-0.608-3.52-0.768-2.4-0.256-4.768 0.384-2.976 0.768-6.176 2.944zM10.016 7.84q-0.352 0.256-0.672 0.512-0.8 0.672-1.504 1.408-1.024 0.992-1.728 1.984-0.864 1.216-1.216 2.32t-0.384 2.064q0 0.864 0.224 1.536 0.192 0.576 0.496 0.864t0.544 0.224 0.784-0.064q0.8-0.032 1.408-0.096 1.088-0.128 2.464-0.512-0.032 0.768 0.16 1.856 0.224 1.184 0.64 2.144 0.48 1.12 1.12 1.664-2.944 1.056-7.552-0.32 0.256-0.928 0.032-1.856-0.16-0.544-0.688-1.584t-0.72-1.616q-0.32-0.992-0.224-2.016 0.096-1.216 0.768-2.688 1.312-2.688 5.792-5.664zM22.944 12.672l-0.288 3.456-0.672-0.064q-0.832-0.064-1.6-0.064-1.056 0-1.824 0.128-1.088 0.16-2.912 0.544l-1.632 0.352-0.384 0.288 0.032 0.544q0.032 0.704 0.128 1.312 0.128 0.896 0.384 1.568 0.32 0.832 0.832 1.28 0.576-0.384 0.992-0.832l0.288-0.352-0.832-0.096-0.224-0.32q-0.288-0.448-0.416-0.96-0.192-0.704-0.064-1.44 0.96-0.48 2.624-0.864 2.144-0.512 3.84-0.384 0 0.384-0.128 0.672l-0.16 0.224-0.672 0.224q-0.8 0.256-1.312 0.32-0.352 0.416-0.32 0.864t0.576 0.416q0.448-0.064 1.152-0.544 0.32-0.224 0.576-0.48v0l-0.64 1.376 0.832-0.544 0.896-2.176 0.768-0.064q0.8-0.096 0.976-0.208t0.144 0.656l-0.064 0.8-1.824 1.088v0.544l1.568-0.832-0.096 0.864q-0.128 0.864-0.176 1.024t-0.832 0.208-1.568 0-0.896-0.208 0.272-0.512l0.384-0.288-0.992-0.096-0.256 0.224q-0.32 0.256-0.736 0.48-0.544 0.256-1.216 0.384-0.48 0.096-0.832-0.352-0.288-0.384-0.48-1.088-0.128-0.512-0.192-1.12l-0.032-0.512-0.448 0.352 0.16 0.864q0.224 1.024 0.576 1.664 0.48 0.928 1.088 1.024 0.832 0.096-1.12 1.472-0.992 0.672-2.144 1.312l-0.384-0.352q-0.416-0.48-0.832-1.088-0.544-0.864-0.96-1.92-0.48-1.28-0.704-2.752-0.256-1.728-0.096-3.648 1.184 0.064 3.232-0.16 2.272-0.288 4.416-0.8 2.528-0.608 4.224-1.408zM8.192 20.64q-0.064 0.224-0.128 0.48-0.128 0.544-0.032 0.832 0.16 0.384 0.736 0.224 1.024-0.288 0.928-0.8-0.032-0.256-0.288-0.48z"></path>
</svg>
