<svg version="1.1" xmlns="http://www.w3.org/2000/svg" width="32" height="32" viewBox="0 0 32 32">
<title>Armoury_MainArm</title>
<path d="M15.36 19.552l0.672 0.608 4.288-4.48-0.672-0.608-0.352 0.384-8.896-8.512q-0.512-0.48-2.368-1.312-1.344-0.576-3.232-1.28l-1.6-0.576 1.728 3.456q1.728 3.456 1.888 3.52l8.928 8.416zM7.232 9.536l-0.928-2.816 2.88 0.736 9.344 8.768-0.288 0.32-0.384-0.032-8.576-8.096-1.92-0.736 0.8 1.888 8.544 8.096 0.096 0.416-0.352 0.32zM7.328 7.648l0.032 0.032v-0.032h-0.032zM28.448 23.264q-0.16-0.128-0.416-0.224-0.48 0.128-0.704 0.384l-0.032 0.032q-0.096 0.128-0.096 0.192 0.352 0.736 0.384 1.344 0.032 0.768-0.544 1.376t-1.344 0.576q-0.512 0-1.312-0.352l-0.256 0.192q-0.224 0.256-0.32 0.704 0.128 0.288 0.288 0.416 0.352 0.352 1.12 0.224 0.64-0.096 1.376-0.512 0.704-0.352 1.040-0.704t0.656-1.056q0.352-0.768 0.448-1.44 0.064-0.8-0.288-1.152zM24.896 25.792q0.384 0.192 0.768 0.192 0.448 0 0.704-0.272t0.24-0.704-0.208-0.784l-0.128 0.096 0.064-0.064-0.288-1.12-0.544-0.512-0.448-0.16-0.736 0.736 0.704-0.736-0.448-0.736-0.544-0.48-0.48-0.192-0.352 0.416 0.32-0.384-0.48-0.768-0.512-0.512-0.448-0.16-0.512-0.736-0.512-0.512-0.448-0.16-1.984 2.080 0.16 0.448 0.544 0.512 0.768 0.448 0.192 0.48 0.544 0.48 0.768 0.48 0.192 0.416 0.544 0.512 0.736 0.416 0.192 0.48 0.512 0.512zM21.12 17.152q0-0.256 0.336-1.136t0.496-1.104q-0.064-0.288 0-0.384h0.032l-0.64-0.576-0.832 0.416 0.8 0.768q-0.672 1.152-0.704 1.632-0.128 0-0.336 0.048t-0.272 0.112l-2.72 2.912q-0.096 0.064-0.16 0.48l-0.032 0.096q-0.32 0.064-1.28 0.608l-0.288 0.16-0.8-0.736-0.384 0.864 0.64 0.608q0-0.064 0.144-0.048t0.24 0.048q0.192-0.224 1.040-0.592t1.136-0.4l1.824-1.856z"></path>
</svg>
