<!-- Generated by IcoMoon.io -->
<svg version="1.1" xmlns="http://www.w3.org/2000/svg" width="32" height="32" viewBox="0 0 32 32">
<title>Armoury_Body1</title>
<path d="M22.976 14.976q0.224 0.288 0.48 0.544 0.608 0.736 1.216 1.504 0.576-0.288 2.048-0.096 0.736 0.096 1.344 0.256l0.672-0.672v-0.128q0-0.096-0.096-0.224t-0.368-0.192-0.784-0.032q-0.608 0.064-1.152-0.064-0.416-0.128-0.768-0.32l-1.088-0.704-1.248-0.544zM27.52 14.976q0.032-0.064 0.064-0.16 0.096-0.192 0.256-0.352 0.192-0.256 0.512-0.416-0.704-0.416-0.928-0.928-0.224-0.416-0.32-1.408-0.384-1.088-1.152-1.952-0.64-0.672-1.504-1.184-0.64-0.384-1.312-0.64l-0.544-0.16-0.192 0.16q-0.224 0.16-0.512 0.224-0.352 0.096-0.736-0.032 0.608 1.792 0.352 2.88-0.096 0.512-0.352 0.704v0q1.536 0.704 2.496 1.632 0.672 0.8 1.408 1.248 0.608 0.352 1.248 0.448 0.448 0.064 0.864 0zM17.92 10.016q0.736-0.512 1.184-1.024 0.384-0.416 0.576-0.768 0.128-0.288 0.16-0.512l0.032-0.16q-0.608-0.48-1.216-1.312-0.672-0.96-0.576-1.44-0.256 0-0.896-0.304t-1.024-0.4q-0.64-0.128-1.216 0.064-0.736 0.256-1.44 1.056-0.064 0.608-0.192 1.12l-0.064 0.384 0.224 0.32q0.32 0.32 0.768 0.544 0.608 0.256 1.344 0.224 0.896-0.032 1.952-0.544-0.512 0.416-1.408 0.672-1.088 0.288-2.080 0.16-1.216-0.16-2.048-0.96 0.128 0.864 0.128 1.088v0q0.64 1.056 1.696 1.632 1.728 0.896 4.096 0.16zM13.984 5.536l0.256-0.128q0.736-0.384 1.312-0.416 1.056-0.096 2.112 0.64-1.152 0.896-2.528 0.48-0.704-0.192-1.152-0.576v0zM12.032 8.032l-0.032-0.096zM10.752 11.712q-0.064-0.096-0.128-0.16-0.16-0.224-0.224-0.544-0.128-0.48-0.064-1.12 0.096-0.768 0.416-1.76-0.512 0.16-1.024-0.096-0.256-0.096-0.416-0.256l-0.544 0.16q-0.672 0.256-1.312 0.608-0.864 0.544-1.504 1.216-0.768 0.864-1.152 1.952-0.096 0.992-0.288 1.408-0.256 0.512-0.96 0.928 0.448 0.256 0.672 0.608 0.128 0.192 0.192 0.32l0.32 0.064q0.416 0.064 0.864 0 0.64-0.096 1.248-0.448 0.736-0.448 1.408-1.248 0.96-0.928 2.496-1.632zM3.84 17.184q0.352-0.064 0.672-0.128 0.8-0.16 1.44-0.192 0.864-0.032 1.312 0.16 0.928-1.248 1.696-2.048l-0.288-0.672-1.248 0.544-1.088 0.704q-0.352 0.192-0.736 0.288-0.576 0.16-1.184 0.096-0.48-0.032-0.752 0.032t-0.368 0.176-0.128 0.24v0.128zM20.384 23.36q0.224-1.728 0.384-2.688t0.256-1.36 0.176-0.496 0.208-0.080 0.24-0.016 0.24-0.256q0.672-0.928 0.608-2.688-0.032-0.992-0.384-2.592l-0.096-0.544q-0.288-0.096-0.8-0.416-0.8-0.576-1.6-0.864-1.376-0.48-3.648-0.608-2.272 0.128-3.648 0.608-0.8 0.288-1.632 0.864-0.48 0.32-0.768 0.416l-0.096 0.544q-0.352 1.6-0.384 2.592-0.096 1.76 0.576 2.688 0.16 0.224 0.272 0.256t0.24 0.016 0.192 0.080 0.176 0.496 0.256 1.36 0.4 2.688q0.608-0.416 2.56 0.032 0.992 0.224 1.856 0.512l0.928-0.288q1.088-0.32 1.92-0.416 1.12-0.16 1.568 0.16zM10.496 21.856q0.064 1.088-0.736 2.656-0.416 0.8-0.832 1.376v0l6.176 1.568 0.192-0.192q0.256-0.192 0.416-0.416 0.224-0.32 0.256-0.608 0 0.416 0.416 0.832 0.224 0.224 0.448 0.384l6.144-1.568-0.416-0.672q-0.448-0.832-0.736-1.568-0.384-1.056-0.416-1.792-0.192 0.448-0.384 2.016l-0.128 0.864q-0.896-0.224-2.272-0.096-0.768 0.096-2.048 0.352l-0.576 0.096q-0.064 0.416-0.064 0.608 0-0.224-0.032-0.608l-0.608-0.128q-1.28-0.224-2.048-0.32-1.376-0.128-2.24 0.096l-0.128-0.832q-0.096-0.832-0.16-1.152-0.096-0.576-0.224-0.896z"></path>
</svg>
