<svg version="1.1" xmlns="http://www.w3.org/2000/svg" width="32" height="32" viewBox="0 0 32 32">
<title>Armoury_SubArm</title>
<path d="M16.16 9.536h-0.192q-1.248 0.064-2.112 0.704-0.992 0.736-0.992 1.888t1.024 2.016q0.832 0.736 2.048 1.024h0.064q1.216-0.288 2.048-1.024 1.024-0.864 1.024-2.016 0-0.736-0.432-1.344t-1.104-0.944-1.376-0.304zM10.816 19.616q0.608 1.28 1.824 2.816 0.704 0.928 2.208 2.592l0.256 0.288q-0.064-1.728-1.408-3.36-1.184-1.504-2.88-2.336zM24.96 22.336q-0.288-0.224-0.464-0.608t-0.176-0.768q0-0.128 0.064-0.256-0.128-0.032-0.352-0.032-1.12 0-2.208 1.12-0.64 0.672-1.536 2.144l-0.032 0.032q-0.608 0.992-1.664 2.144-0.64 0.704-1.952 2.016l-0.576 0.576q0.384-0.16 3.072-2.72 1.12-1.056 1.376-1.28 1.248-1.088 3.392-1.856 0.16-0.032 0.64-0.208t0.48-0.224-0.064-0.080zM8 20.704h-0.32q0.128 0.384-0.096 0.896t-0.544 0.768h-0.032q-0.032 0.032-0.032 0.096t0.992 0.384l0.16 0.064q2.176 0.768 3.392 1.824 0.224 0.224 1.184 1.12 2.848 2.72 3.296 2.88l-0.672-0.672q-1.28-1.28-1.92-1.984-1.024-1.12-1.632-2.080l-0.064-0.096q-0.928-1.472-1.536-2.112-1.056-1.088-2.176-1.088zM16.896 25.312l0.256-0.256q1.504-1.696 2.208-2.592 1.248-1.568 1.856-2.848-1.696 0.832-2.912 2.336-1.312 1.664-1.408 3.36zM10.88 13.408q-0.512 0.128-0.896 0.416-0.448 0.384-0.448 0.816t0.352 0.992 0.736 0.56q0.256 0 0.512-0.32 0.192-0.224 0.32-0.576-0.384 0.16-0.88-0.192t-0.496-0.736q0-0.544 0.8-0.96zM26.944 10.848q-0.352 0.096-0.736 0.096t-0.736-0.096l-0.032-0.064q-0.736-1.568-1.152-2.24-0.64-1.088-1.44-1.76-0.896-0.832-2.208-1.312l-0.32-0.128q-1.536-0.576-2.336-0.928-1.472-0.672-2.016-1.184v0q-1.44 1.184-4.672 2.304-1.312 0.48-2.208 1.216-0.768 0.672-1.408 1.728-0.384 0.64-1.088 2.112l-0.128 0.256q-0.384 0.096-0.768 0.096t-0.704-0.096q0.032 0.832 0.448 1.664t1.024 1.344q-0.608 1.344-0.608 2.304 0 0.8 0.384 1.6 0.224 0.512 0.832 1.44 0.48 0.704 0.672 1.056 0.672-0.096 1.216 0.032 0.352 0.096 1.088 0.448 0.256 0.512 1.152 1.44l0.576 0.64q1.952 2.272 2.848 3.488 0.672 0.864 1.312 2.208v0.128l0.032-0.096 0.032 0.096v-0.128q0.672-1.376 1.312-2.208 0.992-1.408 2.944-3.584l0.416-0.48q0.896-0.96 1.184-1.504l0.128-0.064q0.544-0.224 0.8-0.32 0.416-0.128 0.832-0.128 0.192 0 0.544 0.032h0.032q0.16-0.288 0.512-0.896 0.672-1.12 0.928-1.696 0.416-0.96 0.416-1.792 0-0.96-0.576-2.016 0.608-0.512 1.024-1.344t0.448-1.664zM22.4 18.624q-0.128 0.16-0.352 0.512-0.384 0.512-0.528 0.768t-0.368 0.736q-0.224 0.544-0.384 0.832-0.8 1.376-2.144 2.848-1.248 1.376-2.656 2.432-1.376-1.056-2.656-2.432-1.344-1.472-2.144-2.848-0.16-0.288-0.416-0.864-0.192-0.448-0.32-0.672t-0.448-0.656-0.448-0.656q-1.504-2.464-1.504-4.992 0-1.056 0.192-1.952 0.416-2.464 2.912-4.192 1.888-1.28 4.832-2.080 2.976 0.8 4.832 2.080 2.496 1.728 2.912 4.192 0.192 0.928 0.192 1.952 0 1.312-0.416 2.592-0.352 1.152-1.088 2.4zM20.736 15.328q-0.16 0-0.224-0.064 0.096 0.352 0.288 0.576 0.224 0.32 0.512 0.32 0.384 0 0.736-0.544t0.352-0.992-0.448-0.8q-0.384-0.288-0.896-0.416 0.832 0.416 0.832 0.928-0.032 0.384-0.4 0.688t-0.752 0.304zM16.032 6.528v-0.032h-0.128v0.032q-2.048 0.256-3.68 1.12-1.728 0.96-2.688 2.432-1.024 1.632-1.024 3.712 0 0.32 0.464 1.104t0.784 1.104q-0.256-0.672-0.256-1.504 0-0.64 0.304-1.040t0.944-0.4q0.544 0 0.896 0.832 0.288 0.704 0.288 1.344 0 0.576-0.304 0.976t-0.848 0.4q-0.448 0-0.832-0.192-0.128 0.192-0.128 0.544 0 1.12 1.504 2.4 0.288 0.224 0.864 0.64l0.64 0.48q0.896 0.736 1.568 1.856 0.64 1.056 0.992 2.272l0.096 0.384q0.192 0.768 0.384 1.152v0.32l0.128-0.16 0.064 0.16v-0.32q0.224-0.448 0.448-1.376l0.032-0.16q0.32-1.216 0.96-2.272 0.672-1.12 1.6-1.856 0.224-0.192 0.672-0.512 0.544-0.384 0.8-0.608 1.536-1.312 1.536-2.4 0-0.352-0.128-0.544-0.384 0.192-0.8 0.192-0.576 0-0.88-0.4t-0.304-1.024 0.288-1.296q0.352-0.832 0.896-0.832 0.672 0 0.976 0.4t0.304 1.088-0.288 1.456q0.32-0.352 0.768-1.088 0.48-0.8 0.48-1.12 0-2.080-1.056-3.712-0.928-1.472-2.656-2.432-1.632-0.864-3.68-1.12zM16.256 16.16l-0.128 7.488q-0.192 0.48-0.192 1.28v-0.064q0-0.48-0.032-0.704-0.096-0.416-0.32-0.576-0.064-0.64-0.032-2.016v-0.576q-0.064-3.264-0.064-4.928-1.408-0.544-2.304-1.44-1.056-1.088-1.056-2.4 0-0.192 0.032-0.512 0.384-2.080 2.944-2.688v0q0.608-0.192 0.88-0.192t0.848 0.192q2.528 0.608 2.912 2.688 0.032 0.16 0.032 0.512 0 1.344-1.12 2.464-0.96 0.928-2.4 1.472z"></path>
</svg>
