<!-- Generated by IcoMoon.io -->
<svg version="1.1" xmlns="http://www.w3.org/2000/svg" width="32" height="32" viewBox="0 0 32 32">
<title>Armoury_Necklace</title>
<path d="M15.936 23.488v0h-0.032q-1.568-0.544-3.488-1.408-3.744-1.696-6.048-3.584-3.2-2.624-3.2-5.28 0-1.664 1.92-2.784 1.728-0.992 4.768-1.536 2.752-0.448 6.096-0.448t6.096 0.448q3.072 0.544 4.8 1.536 1.92 1.12 1.92 2.784 0 2.656-3.232 5.28-2.336 1.888-6.080 3.584-1.984 0.896-3.52 1.408zM15.968 10.528h-1.632q-1.952 0-3.584 0.192-2.272 0.256-3.584 0.8-1.632 0.64-1.632 1.696 0 1.344 2.688 2.624 1.92 0.896 4.992 1.696 1.568 0.384 2.72 0.576l1.632-0.32q1.984-0.448 3.616-0.992 2.272-0.736 3.584-1.536 1.632-1.024 1.632-2.048 0-1.344-2.688-2.048-1.952-0.512-5.056-0.64-1.536-0.032-2.688 0v0z"></path>
</svg>
