<!-- Generated by IcoMoon.io -->
<svg version="1.1" xmlns="http://www.w3.org/2000/svg" width="32" height="32" viewBox="0 0 32 32">
<title>Armoury_Bracelets1</title>
<path d="M5.28 15.104l0.32 0.064q0.416 0.064 0.896 0.192 0.64 0.192 1.312 0.48 0.8 0.352 1.6 0.832 0.896 0.608 1.728 1.376 0.96 0.896 1.792 2.016 0.896 1.216 1.632 2.72 0.832 1.664 1.408 3.616 0.096-0.672-0.096-1.92-0.224-1.536-0.8-2.976-0.704-1.824-1.792-3.168-1.344-1.632-3.168-2.432-2.112-0.96-4.832-0.8zM11.904 7.552l0.256-0.128q0.352-0.192 0.768-0.352 0.576-0.192 1.184-0.288 0.768-0.096 1.568-0.032 0.928 0.064 1.856 0.416 1.056 0.352 2.080 1.056 1.152 0.768 2.24 1.92 1.216 1.28 2.368 3.008 0.928-0.768 2.464-1.504 0.768-0.352 1.344-0.544v0l-0.352-0.512q-0.48-0.608-1.024-1.216-0.768-0.896-1.536-1.696-0.992-0.992-1.984-1.76-1.184-0.928-2.304-1.536-1.312-0.704-2.496-0.992-1.376-0.32-2.592-0.096-1.344 0.256-2.56 1.12-1.28 0.48-1.632 1.28-0.224 0.576 0.032 1.28 0.128 0.352 0.32 0.576v0zM16.32 26.624q-0.032 0.16-0.016-0.256t0.144-0.992q0.128-0.768 0.384-1.6 0.32-1.056 0.8-2.080 0.576-1.216 1.312-2.368 0.864-1.344 1.952-2.528 1.248-1.344 2.72-2.528 1.664-1.312 3.616-2.4 0.16 0.864-0.192 1.632-0.192 0.384-0.384 0.576l-0.32 0.064q-0.416 0.128-0.896 0.32-0.64 0.256-1.28 0.608-0.832 0.448-1.568 1.056-0.928 0.704-1.728 1.568-0.928 0.992-1.696 2.208-0.896 1.344-1.568 2.944-0.768 1.76-1.28 3.776zM6.784 16.16q-1.824-0.832-2.528-0.192-0.512 0.48-0.32 1.76 0.096 0.864 0.416 1.568l0.288 0.928q0.384 1.152 0.896 2.272 0.768 1.504 1.664 2.72 1.152 1.472 2.528 2.336 1.6 1.024 3.456 1.152 2.304 0.16 2.368-1.504 0.032-1.408-1.568-3.904-1.44-2.208-3.552-4.32t-3.648-2.816zM11.904 26.976l-0.512-0.128q-0.64-0.224-1.312-0.608-0.896-0.576-1.728-1.408-0.992-1.024-1.792-2.464-0.928-1.696-1.504-3.872-0.064-0.192 0.016-0.368t0.272-0.224 0.384 0.112l0.192 0.032q0.192 0.032 0.448 0.096 0.352 0.128 0.768 0.32 0.48 0.256 0.96 0.64 0.608 0.48 1.216 1.088 0.704 0.704 1.376 1.6 0.768 1.024 1.536 2.272 0.832 1.376 1.664 3.040-0.256 0.288-0.768 0.256-0.384 0-0.832-0.192zM11.904 7.904q-0.544 1.088-1.28 2.752-0.544 1.248-0.832 1.76-0.416 0.736-0.928 1.216t-1.376 0.896l0.32-0.064q0.416-0.064 0.864-0.064 0.64 0 1.28 0.096 0.768 0.096 1.472 0.384 0.864 0.352 1.6 0.896 0.832 0.608 1.504 1.504 0.768 0.992 1.312 2.336 0.608 1.44 0.928 3.296 0.96-3.072 2.688-5.408 1.632-2.176 4.416-4.256-1.888-2.208-3.68-3.552-1.536-1.152-3.072-1.664-1.216-0.384-2.56-0.384-0.768 0-2.144 0.192zM20.384 13.376l-0.576 2.432q0.064-0.288 0.032-0.576-0.032-0.576-0.384-0.928-0.288 0.32-0.608 0.544-0.16 0.128-0.512 0.288-0.608 0.288-0.96 0.64t-0.32 0.864q0 0.288 0.192 0.864 0.096 0.32 0.128 0.48 0.032 0.224 0 0.384l-0.256-0.352q-0.32-0.48-0.576-1.152l-0.224-0.608q-0.256-0.704-0.32-0.896-0.032-0.288 0.144-0.352t0.752-0.128h0.16q0.864-0.064 1.344-0.32 0.864-0.448 1.28-1.664 0.32-0.896 0.064-1.408-0.256-0.448-0.784-0.48t-0.912 0.256q-0.096 0.096-0.112 0.048t0.016-0.24q0.032-0.416-0.032-0.576-0.128-0.288-0.672-0.16-0.8 0.224 0.096-0.256l1.056-0.544q1.024 0.32 1.536 0.992 0.448 0.544 0.544 1.28 0.096 0.512 0 1.088z"></path>
</svg>
