<svg version="1.1" xmlns="http://www.w3.org/2000/svg" width="32" height="32" viewBox="0 0 32 32">
    <title>ItemCategory_PGL</title>
    <path d="M27.168 20.736q-0.352-0.352-0.704-0.576-0.16-0.096-0.256 0.032-0.384 0.352-1.44 1.44l-0.16 0.16q-0.128 0.128-0.32 0.096v-0.128q0-0.096 0.080-0.192t0.592-0.64q0.768-0.8 0.896-0.96 0.096-0.128 0.080-0.192t-0.112-0.16q-0.672-0.576-0.832-0.672-0.064-0.064-0.192-0.064l-0.064 0.032v0.288q0 0.32-0.192 0.56t-1.408 1.424l-0.096 0.096q-0.416 0.416-0.544 1.024-0.032 0.32 0 0.832 0 0.192-0.016 0.224t-0.144-0.032q-0.352-0.096-0.736-0.096-0.288 0-0.704 0.16l-0.384 0.192 0.096-0.16q0.16-0.16 0.352-0.256 0.224-0.192 0.48-0.224 0.128-0.032 0.448 0.032l0.288 0.032-0.032-0.256q-0.032-0.32 0.032-0.608 0.096-0.512 0.48-0.96l0.416-0.416q0.48-0.512 0.704-0.736 0.096-0.128 0.096-0.192t-0.032-0.192l-0.064-0.128q-0.032-0.16 0.016-0.336t0.112-0.112q0.224 0.224 0.384 0.032 0.064-0.064 0.032-0.16t-0.16-0.192l-1.632-1.44q-1.504-1.312-1.616-1.392t-0.192 0.016-0.016 0.224q0.032 0.064-0.096 0.112t-0.32 0-0.32-0.208q-0.256-0.288-0.736-0.288t-0.864 0.384q-0.512 0.576-0.32 1.856 0.064 0.608 0.256 1.184v0l-0.384-0.16q-0.48-0.192-0.864-0.288-0.608-0.16-1.152-0.128v0l0.288-0.096q0.352-0.128 0.704-0.128 0.224 0 0.512 0.064l0.256 0.064-0.064-0.384q-0.096-0.416-0.096-0.8 0-1.056 0.8-1.696 0.192-0.16 0.528-0.256t0.704-0.064 0.848 0.416v0l0.064-0.224q0.064-0.224 0.032-0.384 0-0.064-0.16-0.256l-0.192-0.352q-0.128-0.16-0.128-0.512-0.032-0.192-0.064-0.224-0.128-0.128-0.896-0.032l-0.16 0.032q-0.064 0-0.224-0.192l-0.128-0.096q-0.256-0.192-0.304-0.128t-0.080 0.224l-0.032 0.192q0 0.032-0.288 0.256l-0.64 0.576q-0.384 0.352-0.544 0.512-0.256 0.32-0.32 0.608t-0.032 0.832l0.032 0.512-0.448-0.096q-0.48-0.096-0.768-0.096-0.384 0-0.8 0.096v0l0.224-0.16q0.256-0.192 0.48-0.256 0.352-0.096 0.864 0v0l-0.032-0.288q-0.032-0.32 0.032-0.64 0.128-0.48 0.384-0.832 0.192-0.256 0.832-0.768l0.288-0.224q0.32-0.352 0.256-0.736-0.032-0.16-0.192-0.48l-0.128-0.352q-0.064-0.192-0.128-1.024-0.032-0.512-0.080-0.624t-0.368-0.752l-0.32-0.736q-0.192-0.448-0.32-0.672-0.256-0.416-0.576-0.608-0.544-0.288-1.696-0.256l-0.192 0.032q-0.352 0-1.248-0.192l-0.032-0.032q-0.8-0.16-1.28-0.032-0.384 0.096-1.184 1.216l-0.16 0.192q-0.096 0.16-0.368 0.336t-0.336 0.272q-0.064 0.16-0.064 0.4t0.16 0.368q0.192 0.16 0.576 0.224v0l-0.192 0.064q-0.224 0.032-0.448-0.032-0.288-0.128-0.48-0.416-0.096-0.16 0-0.56t0.192-0.496l0.256-0.224q0.608-0.48 0.784-0.72t0.432-0.592 0.32-0.416q0.32-0.256 0.608-0.256 0.192 0 0.384 0.096h0.064q0.416 0.192 0.656 0.208t0.528-0.016q0.384-0.032 0.672 0.064l0.224 0.064q0.32 0.128 0.544 0.16 0.352 0.064 0.448-0.032 0.064-0.064-0.048-0.304t-0.304-0.368q-0.384-0.256-1.536-1.568l-0.128-0.16q-0.32-0.32-0.704-0.544-0.608-0.288-1.28-0.256-0.448 0-0.864 0.32-0.256 0.16-0.608 0.608-0.32 0.352-0.448 0.416l-0.128 0.032q-0.832 0.064-1.344 0.576-0.384 0.416-0.448 1.312v0.128q-0.032 0.064-0.384 0.432t-0.512 0.528q-0.352 0.416-0.384 0.736v0q-0.128 0.48-0.096 0.992l0.032 0.416-0.064 0.064q-0.128 0.064-0.224 0.192-0.192 0.224-0.352 0.544-0.224 0.576-0.208 1.232t0.368 1.136q0.224 0.288 0.832 0.8l0.256 0.224q0.608 0.512 1.664 0.96 0.832-0.032 1.184-0.24t0.576-0.72l0.096-0.192 0.16-0.064q0.672-0.224 0.8-0.352 0.352-0.32 0.512-0.736 0.064-0.224 0.064-0.352l0.192-0.064q0.256-0.064 0.416-0.192 0.256-0.16 0.352-0.384 0.128-0.32 0.192-0.736l0.032-0.256q0.096-0.416 0.288-0.832l-0.48-0.416q-0.224-0.192-0.544-0.288v0l0.192-0.192 0.096-0.192 0.32 0.224q0.384 0.224 0.672 0.288 0.512 0.096 0.96 0.064 0.224-0.032 0.256 0.128 0.032 0.096-0.016 0.176t-0.112 0.080q-0.32 0-0.48 0.032-0.096 0.032-0.224 0.256t-0.192 0.416l-0.096 0.256q-0.288 0.928-0.352 1.216-0.096 0.48-0.064 0.96 0.032 0.64 0.256 1.024t0.576 0.736l0.288 0.256q0.032 0.064-0.144 0t-0.4-0.256q-0.384-0.256-0.576-0.576-0.256-0.352-0.32-0.8-0.064-0.224-0.064-0.544v-0.256q-0.192-0.064-0.704 0.416h-0.032q-0.096 0.096-0.32 0.512-0.192 0.32-0.24 0.352t-0.24 0.064q-0.576 0.16-0.864 0.384-0.096 0.064-0.336 0.368t-0.336 0.368q-0.256 0.16-1.088 0.192 0.128 0.352 0.32 0.624t0.608 0.624q0.448 0.416 0.736 0.512 0.384 0.096 0.96 0.128 0.64 0.032 1.12 0.224 0.256 0.128 0.544 0.416 0.128 0.128 0.16 0.128t0.32-0.128q0.384-0.224 0.448-0.192t0.080 0.096-0.048 0.128l-0.576 0.64q-0.064 0.096-0.032 0.256t0.096 0.224l0.096 0.064q0.096 0.096 0.096 0.16l-0.032 0.128q-0.128 0.736 0.032 0.928 0.032 0 0.224 0.032 0.384 0 0.544 0.128l0.32 0.192q0.224 0.16 0.288 0.16 0.256 0.064 0.384-0.064l1.632 1.824q1.664 1.888 1.856 2.144 0.16 0.16 0.096 0.48-0.032 0.256 0.064 0.352l1.568 1.792q0.128 0.128 0.288 0.128l0.16-0.032-0.032-0.096q-0.032-0.096 0.016-0.24t0.208-0.304l1.728-1.696q0.384-0.384 0.48-0.896 0.064-0.288 0.064-0.704 0-0.224 0.032-0.256t0.256-0.032q0.448 0 0.704-0.064 0.512-0.096 0.864-0.448l1.92-1.92q0.224-0.224 0.448-0.256 0.128-0.032 0.224 0v-0.064q0-0.096-0.128-0.224z"></path>
</svg>
