<svg version="1.1" xmlns="http://www.w3.org/2000/svg" width="32" height="32" viewBox="0 0 32 32">
<title>ItemCategory_ARM</title>
<path d="M25.408 22.56q-0.128-0.128-0.768-0.448-0.352-0.192-0.8-0.448-0.512-0.32-0.768-0.544-0.16-0.128-0.192-0.256t-0.032-0.32v-0.096q-0.032-0.224-0.32-0.224h-0.768q-0.128 0-0.16-0.080t0.016-0.128 0.144-0.112h0.064q0.288-0.128 0.512-0.336t0.224-0.304q0-0.032-0.096-0.128l-0.096-0.064q-0.288-0.256-0.48-0.576-0.064-0.096-0.064-0.464t0.064-0.592 0.352-0.736q0.096-0.128 0.128-0.864l0.032-0.864q0.032-0.16 0.096-0.272t0.256-0.112 0.224 0.32l0.064 1.408q0.032 0.32 0.048 0.384t0.4 0.288q0.704 0.416 1.376 0.832 0.096 0.064 0.16 0.048t0.032-0.112q-0.48-0.768-0.528-1.12t0.016-1.536l0.064-1.152q0.064-1.504-0.384-2.976-0.512-1.568-1.568-2.976-0.992-1.312-2.656-2.176-1.536-0.832-3.104-0.992-0.608-0.064-1.568-0.128-1.12-0.064-1.792-0.192-0.448-0.064-0.992-0.352l-0.224-0.128q-0.096-0.064-0.176-0.032t-0.048 0.16l0.096 0.224q0.512 1.248 0.544 1.728 0 0.096 0.096 0.144t0.272 0.016 0.528 0 0.464 0.064 0.208 0.224 0.032 0.192h-0.064q-0.736 0.096-1.232 0.304t-1.168 0.656q-0.864 0.608-1.472 1.344-0.352 0.416-0.64 1.152-0.16 0.416-0.416 1.28-0.352 1.056-0.544 1.344-0.224 0.384-0.864 1.056l-0.096 0.096q-0.064 0.064-0.048 0.128t0.112 0.064h0.256q4.448 0.032 4.56 0t0.112-0.24 0.128-0.272q1.504-0.864 2.56-1.504 0.32-0.224 0.496-0.272t0.432-0.080q0.736 0 1.248 0.384 0.352 0.224 0.496 0.544t0.112 0.64q0 0.16-0.048 0.16t-0.112-0.224q-0.064-0.352-0.384-0.64-0.16-0.128-0.448-0.256h-0.032q-0.352-0.192-0.928-0.16-0.16 0.032-0.768 0.384l-1.984 1.312q-0.224 0.16-0.256 0.448-0.032 0.128-0.032 0.192-0.096 0.16-0.24 0.272t-0.304 0.112h-4.736q-0.096 0-0.112 0.080t-0.016 0.272v0.288q-0.032 0.32-0.128 0.608-0.064 0.192-0.256 0.576l-0.32 0.64q-0.224 0.48-0.576 0.896-0.192 0.224-0.176 0.304t0.272 0.272l0.288 0.224 0.416 0.384q0.512 0.512 0.816 0.736t0.928 0.608 0.784 0.528 0.16 0.304l0.032 0.128q0.064 0.128 0.224 0.032 0.256-0.16 1.216-0.896 0.096-0.096 0.16-0.032t-0.032 0.16l-0.064 0.032q-0.736 0.736-0.88 0.928t-0.016 0.48q0.288 0.544 0.672 1.104t0.672 0.752q0.128 0.096 0.288 0.128l0.128-0.032 1.696-0.864q1.728-0.864 1.84-0.944t0.176-0.048 0 0.096-2.176 1.44q-1.824 1.184-1.872 1.232t-0.048 0.336q-0.032 0.576-0.176 0.928t-0.592 0.736q-0.32 0.32-0.432 0.368t-0.080 0.144l0.032 0.032q0 0.096 0.992-0.032 0.736-0.064 1.584-0.208t1.808-0.496q1.344-0.48 1.984-1.056 1.12-1.024 2.24-1.888 1.6-1.248 2.272-1.44 0.96-0.32 1.952-0.288 0.736 0.032 1.472 0.256l0.096 0.032q0.128 0.032 0.192-0.064t-0.064-0.192zM11.2 20.48l-0.288 0.224q-0.128 0.096-0.32-0.032l-1.216-0.832-1.344-0.864q-0.064-0.064-0.032-0.112t0.096-0.048l0.576-0.128q0.192-0.032 0.384 0.064l2.080 1.568q0.192 0.096 0.064 0.16zM12.16 19.808l-0.224 0.16q-0.128 0.096-0.256 0.032l-0.864-0.736-1.024-0.704-0.032-0.064 0.096-0.032 0.448-0.064q0.128-0.032 0.288 0.064l1.536 1.184 0.080 0.080t-0.048 0.080zM13.12 19.104l-0.192 0.16q-0.096 0.064-0.256-0.032l-1.344-0.992q-0.128-0.096 0.032-0.16l0.288-0.064q0.224-0.032 0.352 0.064l1.088 0.832q0.128 0.128 0.032 0.192zM14.016 18.432l-0.192 0.16q-0.128 0.096-0.256 0l-0.832-0.64q-0.064-0.032-0.064-0.096t0.096-0.064l0.352-0.096q0.16-0.032 0.352 0.128l0.48 0.384q0.16 0.128 0.064 0.224zM13.216 26.368q-0.288 0-0.288-0.384 0-0.128 0.096-0.24t0.256-0.112 0.192 0.080 0.064 0.272v0.032q0 0.16-0.080 0.256t-0.24 0.096zM16.256 24.48q-0.128 0.032-0.208 0.16t-0.016 0.24 0.048 0.16-0.144-0.032-0.144-0.224 0.016-0.272q0.064-0.288 0.352-0.304t0.288 0.096-0.016 0.144-0.080 0.032h-0.096zM17.088 14.144q-0.192-0.288-0.48-0.384t-0.544 0.064-0.288 0.496 0.256 0.624q0.064 0.096-0.144 0.048t-0.304-0.144q-0.256-0.256-0.224-0.688t0.352-0.656 0.704-0.192 0.608 0.32q0.096 0.128 0.128 0.272t0.016 0.224-0.080 0.016zM19.296 22.816q-0.128 0.064-0.192 0.192-0.032 0.064 0 0.192v0.128q0 0.192-0.176 0.096t-0.112-0.416q0.032-0.128 0.128-0.208t0.208-0.096 0.192 0.032-0.048 0.080z"></path>
</svg>
