<svg version="1.1" xmlns="http://www.w3.org/2000/svg" width="32" height="32" viewBox="0 0 32 32">
<title>ItemCategory_SCH</title>
<path d="M26.784 13.504q-0.224-0.352-0.48-0.576-1.12-0.352-1.536 0.544-0.192 0.416-0.224 1.088-0.032 0.544 0.064 0.768 0.192 0.48 0.256 0.736 0.128 0.416 0.128 0.768 0 1.088-0.752 1.84t-1.84 0.752-1.84-0.752-0.752-1.84q0-1.152 0.48-2.016 0.416-0.736 1.216-1.376 0.48-0.384 1.568-1.056 0.768-0.448 1.12-0.704l-0.128-0.096q-0.768-0.608-1.376-0.928-0.992-0.512-2.432-0.768-1.728-0.352-4.288-0.352v0q-2.56 0-4.32 0.352-1.408 0.256-2.432 0.768-0.576 0.32-1.376 0.928l-0.096 0.096q0.352 0.256 1.12 0.704 1.088 0.672 1.568 1.056 0.8 0.64 1.216 1.376 0.48 0.864 0.48 2.016 0 1.088-0.752 1.84t-1.84 0.752-1.84-0.752-0.752-1.84q0-0.352 0.128-0.768 0.064-0.256 0.256-0.736 0.096-0.224 0.064-0.768-0.032-0.672-0.224-1.088-0.416-0.896-1.536-0.544-0.256 0.224-0.48 0.576-0.48 0.704-0.8 1.536-0.352 0.992-0.352 1.824 0 1.504 0.736 2.768t2.016 2.016 2.784 0.752 2.784-0.752 2.016-2.016 0.736-2.768q0-1.344-0.576-2.496t-1.6-1.92q0.736-0.32 1.568-0.416 0.544-0.096 1.504-0.128 0.96 0.032 1.504 0.128 0.832 0.096 1.568 0.416-1.024 0.768-1.6 1.92t-0.576 2.496q0 1.504 0.736 2.768t2.016 2.016 2.784 0.752 2.784-0.752 2.016-2.016 0.736-2.768q0-0.832-0.352-1.824-0.32-0.832-0.8-1.536z"></path>
</svg>
