<svg version="1.1" xmlns="http://www.w3.org/2000/svg" width="32" height="32" viewBox="0 0 32 32">
<title>ItemCategory_AST</title>
<path d="M4.448 25.76q1.12-4.288 5.088-6.784l0.224 0.224q0.128 0.128 0.128 0.192v1.056q-0.032 0.832 0.032 1.056 0.064 0.32 0.448 0.416 0.256 0.032 1.216 0.032h0.544q0.672 0 1.728 0.032 1.184 0.064 1.472-0.032 0.448-0.096 0.544-0.576 0.064-0.352 0.032-1.696v-1.6q0-0.672-0.048-2.032t-0.048-2.032q0-0.896-0.16-1.312t-0.512-0.576q-0.256-0.096-0.8-0.096-1.376 0.064-3.072-0.064h-0.064q-0.512-0.032-0.704 0.032-0.288 0.096-0.432 0.464t-0.144 1.264v0q0 1.92-0.064 2.848-0.032 0.416-0.288 0.64t-0.656 0.24-0.672-0.208-0.304-0.64q-0.096-3.648 0-5.44 0-0.64 0.096-0.912t0.352-0.336q0.128-0.032 0.512 0l0.384 0.032 7.328-0.064q1.28 0 1.408 1.376 0.096 0.896 0.096 1.44l-0.032 1.824q-0.032 4.864-0.064 7.296-0.032 1.024-0.192 1.456t-0.608 0.592-1.504 0.16l-1.184 0.032q-2.592 0.032-3.872 0h-0.32q-1.024 0-1.472-0.128-0.768-0.224-0.64-0.896 0.16-0.736-0.064-0.704-0.128 0-0.512 0.384l-0.192 0.192q-1.312 1.088-3.008 2.848zM27.552 9.248q-0.8 0.544-2.336 1.376-1.28 0.704-1.888 1.088-0.896 0.608-1.248 1.504-0.288 0.768-0.416 2.336 0.096 0.608 0.032 1.856v0.576q-0.032 0.576-0.16 0.992-0.224 0.736-1.088 0.64-0.384-0.032-0.544-0.288-0.096-0.192-0.096-0.576v-4.16q0-3.2 0.032-4.8 0-0.704-0.32-1.040t-0.992-0.368l-4.416-0.096q-0.736 0-1.088-0.032-0.896-0.064-0.896-0.896-0.032-0.992 0.992-1.024h1.696l4.608-0.032q1.152 0 1.504 0.096 0.48 0.128 0.608 0.576 0.128 0.352 0.16 1.44 0.032 0.16-0.032 0.576-0.032 0.576-0.032 0.864 0.064 0.48 0.288 0.768 1.024-0.928 2.496-1.312 1.568-0.416 3.136-0.064z"></path>
</svg>
