<svg version="1.1" xmlns="http://www.w3.org/2000/svg" width="32" height="32" viewBox="0 0 32 32">
    <title>ItemCategory_THM</title>
    <path d="M12.768 18.848q-0.032 0.032-0.224-0.256-0.416-0.576-0.672-0.768-0.864-0.576-1.728-0.544-0.736 0.032-1.024 0.384l-0.032 0.032q-0.032 0-0.096-0.096-0.192-0.384-0.512-0.688t-0.64-0.432q-0.224-0.064-0.544-0.096-0.64 0-0.928 0.512l-0.032 0.064q-0.096 0-0.448-0.32t-0.48-0.544q-0.096-0.128-0.080-0.528t-0.080-0.592q-0.192-0.576-0.896-1.184-0.096-0.096-0.128-0.224v0l0.224 0.064q0.256 0.096 0.448 0.224t0.496 0.432 0.496 0.432q0.32 0.224 0.56 0.336t0.304 0.048 0.064-0.256-0.080-0.336-0.368-0.448-0.416-0.496q-0.224-0.32-0.224-0.64t0.288-0.944 0.288-0.944q0.032-0.64-0.256-1.184-0.16-0.384-0.352-0.56t-0.288-0.4v0l0.192 0.096q0.288 0.128 0.512 0.288 0.288 0.224 0.672 0.64 0.448 0.448 0.736 0.896 0.192 0.288 0.224 0.64 0.032 0.224 0 0.624t0 0.624q0.064 0.48 0.336 0.976t0.56 0.624q0.384 0.16 0.768 0.128 0.128 0 0.256 0.064l0.128 0.064-0.192 0.096q-0.16 0.096-0.192 0.224-0.16 0.544 0.64 1.344 0.256 0.256 0.48 0.352 0.16 0.096 0.416 0.16 0.416 0.096 0.752 0.352t0.528 0.512q0.128 0.16 0.256 0.416l0.064 0.096q0.128 0.256 0.192 0.496t0.032 0.24zM15.232 4q-0.224 0.256-0.416 0.48l-0.096 0.096q-1.376 1.344-1.312 2.72 0.032 1.088 0.448 2.048 0.384 0.896 0.992 1.472 1.216 1.12 1.28 1.92 0.064 0.544-0.032 1.152v0l-0.096-0.096q-0.096-0.064-0.192-0.032t-0.368 0.288-0.384 0.48-0.192 0.592-0.080 0.432-0.032 0.224l-0.032 0.096-0.064-0.256q-0.064-0.288-0.192-0.48-0.064-0.064-0.288-0.352-0.736-0.864-0.816-1.312t0.176-1.216q0.128-0.416 0.128-0.576 0-0.416-0.192-0.736-0.064-0.128-0.16-0.192v0l0.064 0.224q0.032 0.256 0.064 0.448 0 0.384-0.416 1.040t-0.352 1.296q0.032 0.48 0.288 1.056 0.288 0.672 0.768 1.28 0.832 1.088 1.312 2.72v0.032q0.064 0.256 0 0.448-0.032 0.096-0.064 0.16v0l-0.064-0.16q-0.064-0.192-0.176-0.4t-0.528-0.704-0.832-0.928-0.896-0.72-0.864-0.384q-0.8-0.192-1.088-0.608-0.16-0.192-0.24-0.544t-0.016-0.512l0.096-0.224q0.32-0.544 0.32-0.928 0-0.8-0.256-1.408-0.16-0.32-0.448-0.736l-0.352-0.512 0.128 0.032q0.192 0.064 0.352 0.224l0.224 0.16q0.64 0.544 0.864 0.96 0.288 0.608 0.32 1.088v0l0.032-0.128q0.064-0.192 0.112-0.368t0.048-0.72q-0.032-0.64-0.128-1.072t-0.48-1.232-0.704-1.184q-0.448-0.608-1.152-1.184v0l0.288 0.064q0.32 0.128 0.736 0.352 0.608 0.32 0.864 0.512 0.352 0.224 0.672 0.576 0.16 0.16 0.352 0.512l0.16 0.352v-0.16q0-0.16-0.016-0.256t-0.176-0.432-0.192-0.432q-0.064-0.256 0-0.64 0.096-0.48 0.384-0.928 0.704-1.12 1.44-1.76 0.832-0.768 1.472-1.024v0zM17.824 12.672q-0.064 0.064-0.16 0.128-0.192 0.192-0.416 0.448-0.448 0.544-0.8 1.088-0.16 0.192-0.32 0.576t-0.16 0.448l0.064 0.064q0.32 0.224 0.352 0.576 0.032 0.224-0.144 0.432t-0.352 0.208-0.272-0.16q-0.064-0.096-0.096-0.192v0q-0.064 0.032-0.192 0.288t-0.128 0.64q0 0.544 0.448 1.152l0.576 0.8 0.032-0.128q0.032-0.16 0-0.224t-0.096-0.16q-0.128-0.224-0.128-0.448-0.032-0.448 0.256-0.832 0.096-0.16 0.24-0.256t0.24-0.032 0.064 0.32l-0.128 0.256 0.128-0.032q0.128-0.064 0.256-0.192 0.448-0.448 0.512-1.024t-0.256-0.896q-0.512-0.512-0.448-0.896 0.032-0.288 0.192-0.64 0.128-0.32 0.288-0.544l0.096-0.16q0.352-0.48 0.352-0.608zM17.952 14.528q0.256-0.16 0.48-0.288 0.512-0.352 0.768-0.608l0.48-0.448q0.576-0.608 0.8-0.864 0.384-0.448 0.512-0.928 0.064-0.224 0.064-0.736v-0.288l0.064 0.096q0.064 0.096 0.064 0.224 0.096 0.448 0.064 0.8-0.032 0.288-0.208 0.688t-0.432 0.752-0.672 0.8-0.576 0.512l-0.384 0.224 0.096 0.128q0.096 0.16 0.096 0.32 0 0.64-0.416 0.928-0.544 0.416-0.624 0.544t-0.112 0.224l0.032 0.128 0.256-0.192q0.16-0.096 0.32 0.032 0.032 0.064 0.032 0.208t-0.064 0.24l-0.576 0.704q-0.224 0.32-0.32 0.736-0.064 0.288-0.064 0.576l0.032 0.224 0.096-0.32q0.128-0.352 0.288-0.576 0.608-0.832 1.248-1.184 0.32-0.16 0.736-0.32l0.384-0.096 0.064-0.352q0.096-0.416 0.288-0.672 0.256-0.352 0.592-0.544t0.624-0.192l0.16-0.032q0.416-0.032 0.544-0.064t0.384-0.192q0.288-0.192 0.48-0.416 0.256-0.32 0.384-0.704 0.096-0.16 0.096-0.288v0l-0.192 0.192q-0.192 0.224-0.32 0.288-0.192 0.128-0.832 0.16l-0.256 0.032q-0.224 0.064-0.448 0.224l-0.256 0.192v-0.064q0-0.096 0.064-0.16 0.064-0.192 0.256-0.384 0.256-0.32 0.544-0.448 0.704-0.32 1.024-0.672 0.224-0.256 0.288-0.576 0.064-0.192 0.080-0.544t0.048-0.512q0.16-0.768 0.896-1.376 0.384-0.352 0.928-0.608 0.288-0.128 0.448-0.192v0h-0.16q-0.224-0.032-0.32-0.032-0.512 0.064-1.152 0.32-0.768 0.32-1.28 0.928l-0.064 0.096q-0.192 0.224-0.32 0.32-0.224 0.16-0.416 0.096-0.448-0.128-0.448-0.768v-0.448q0.032-0.512 0.016-0.752t-0.272-0.752-0.544-0.928q-0.544-0.768-0.96-1.152-0.288-0.288-0.672-0.512l-0.32-0.16 0.064 0.128q0.096 0.128 0.224 0.256v0q0.448 0.416 0.64 0.832 0.288 0.672 0.288 1.536 0 1.024-0.512 1.728-0.256 0.32-0.784 0.832t-0.56 0.672q-0.032 0.352 0.128 0.8 0.128 0.288 0.096 0.64l-0.032 0.064q-0.064 0.512-0.256 0.8t-0.672 1.024zM20.288 17.856l0.192-0.384q0.224-0.448 0.448-0.672 0.576-0.576 1.536-1.008t1.344-1.104q0.096-0.16 0.304-0.4t0.272-0.4q0.128-0.256 0.192-0.576 0.064-0.512 0.048-0.96t-0.080-0.576l-0.16-0.256 0.128 0.096q0.16 0.128 0.288 0.304t0.272 0.592 0.192 0.848 0 0.848-0.144 0.592-0.224 0.368l-0.16 0.192h0.192q0.192 0 0.384-0.032h0.064q0.288-0.064 0.416-0.096 0.192-0.096 0.352-0.32l0.192-0.256q0.192-0.288 0.384-0.448 0.288-0.256 0.672-0.352 0.16-0.064 0.288-0.032v0l-0.32 0.256q-0.32 0.32-0.448 0.608l-0.128 0.352q-0.16 0.512-0.448 0.8-0.16 0.192-0.48 0.256-0.16 0.032-0.48 0.064h-0.16q-0.48 0.064-0.864 0.544-0.128 0.16-0.256 0.416l-0.096 0.224-0.192-0.128q-0.288-0.16-0.512-0.24t-0.672-0.096-0.736 0.064-0.672 0.272-0.48 0.288q-0.224 0.192-0.448 0.352v0zM24.544 22.016q-0.192-0.608-0.864-0.608-0.352 0-0.576 0.352-0.128 0.192-0.32 0.672-0.096 0.288-0.176 0.432t-0.256 0.24-0.336-0.032q-0.32-0.224-0.096-0.8 0.064-0.224 0.64-0.864l0.256-0.288q0.832-0.96 0.832-1.824 0-0.576-0.368-0.944t-0.912-0.368q-0.992 0-1.472 0.672-0.032 0.032-0.080 0.032t-0.080-0.032l-0.096-0.128q-0.128-0.16-0.224-0.256-0.192-0.16-0.368-0.192t-0.24 0.032l0.096 0.128q0.096 0.16 0.064 0.32v0q-0.064 0.352-1.088 0.8-0.704 0.288-1.664 0.416-0.544 0.064-1.408 0.064h-0.032q-0.864 0-1.408-0.064-0.96-0.128-1.664-0.416-1.024-0.448-1.056-0.8h-0.032q0-0.16 0.096-0.32l0.096-0.128q-0.096-0.064-0.272-0.032t-0.368 0.192q-0.096 0.096-0.224 0.256l-0.064 0.128q-0.032 0.032-0.096 0.032t-0.064-0.032q-0.512-0.672-1.472-0.672-0.576 0-0.928 0.368t-0.352 0.944q0 0.896 0.8 1.824l0.256 0.288q0.576 0.64 0.672 0.864 0.192 0.608-0.096 0.8-0.16 0.128-0.336 0.032t-0.256-0.24-0.208-0.432q-0.16-0.48-0.288-0.672-0.256-0.352-0.576-0.352-0.704 0-0.896 0.608-0.128 0.32 0 0.592t0.256 0.272l0.032-0.192q0.032-0.192 0.128-0.32 0.16-0.16 0.384-0.16 0.128 0 0.24 0.128t0.176 0.288q0.192 0.608 0.448 0.88t0.464 0.368 0.496 0.096q0.384 0 0.512-0.192v0l0.032 0.256q0.064 0.32 0.16 0.544 0.256 0.608 0.704 0.928 0.192 0.16 0.544 0.336t0.544 0.304q0.416 0.256 0.672 0.576v0.288q0 0.128 0.256 0.32 0.32 0.224 0.896 0.384 0.704 0.224 1.776 0.224t1.84-0.224q0.544-0.16 0.864-0.384 0.256-0.192 0.256-0.32v-0.288l0.192-0.192q0.256-0.224 0.512-0.384 0.192-0.128 0.528-0.32t0.528-0.32q0.48-0.32 0.704-0.928 0.192-0.384 0.192-0.8v0l0.128 0.096q0.16 0.096 0.384 0.096 0.544 0 0.992-0.448 0.256-0.288 0.416-0.896 0.064-0.16 0.192-0.288t0.256-0.128q0.224 0 0.384 0.176t0.128 0.496v0q0.16 0 0.288-0.272t0-0.592zM10.944 22.464q-0.192 0.256-0.416 0.352v0-0.16q0-0.192-0.064-0.416-0.128-0.288-0.384-0.64l-0.16-0.16q-0.576-0.704-0.688-1.104t0.032-0.736 0.368-0.432q0.48-0.192 1.024 0.288 0.32 0.224 0.448 0.576 0.096 0.224 0.096 0.4t-0.064 0.288-0.16 0.112q-0.192 0-0.256-0.080t-0.064-0.176l-0.032-0.064q-0.16 0-0.128 0.4t0.384 0.528q0.16 0.064 0.32 0v0l0.032 0.128q0 0.192-0.064 0.384-0.064 0.256-0.224 0.512zM21.088 22.784l-0.128-0.064q-0.16-0.096-0.288-0.288-0.224-0.32-0.288-0.704-0.032-0.16 0-0.288v0l0.096 0.032q0.128 0 0.256-0.032 0.352-0.128 0.384-0.528t-0.16-0.4v0.064q-0.032 0.096-0.080 0.176t-0.272 0.080q-0.096 0-0.144-0.112t-0.048-0.288 0.096-0.4q0.128-0.352 0.416-0.576 0.576-0.48 1.024-0.288 0.224 0.096 0.368 0.432t0.048 0.736-0.672 1.104l-0.16 0.16q-0.256 0.352-0.384 0.64-0.096 0.224-0.096 0.416z"></path>
</svg>
