<svg version="1.1" xmlns="http://www.w3.org/2000/svg" width="32" height="32" viewBox="0 0 32 32">
    <title>ItemCategory_LTW</title>
    <path d="M18.336 6.176q-0.064 0.032-0.256 0.032-0.352 0.064-0.512 0.128-0.256 0.128-0.336 0.416t0.112 0.464 0.544 0.112q0.256-0.032 0.352-0.224 0.064-0.128 0.096-0.384t0.096-0.336 0.176-0.144 0.176 0l0.128 0.16q0.256 0.416 0.528 0.528t0.848 0.208q0.64 0.096 1.184 0.064 0.64 0.256 1.424 0.272t1.488-0.208l0.16 0.16q0.224 0.224 0.352 0.32 0.224 0.16 0.48 0.176t0.48-0.176q0.192-0.16 0.352-0.192 0.256 0.064 0.512 0.064 0.16-0.032 0.416-0.112t0.352-0.080q0.256 0.16 0.384 0.496t0.064 0.752q-0.032 0.224-0.256 0.448-0.128 0.16-0.448 0.48-0.416 0.416-0.608 0.64-0.32 0.384-0.416 0.768 0 0.192 0.064 0.224t0.208-0.016 0.208-0.016 0.032 0.224q-0.512 0.448-0.832 0.896-0.384 0.544-0.608 1.248-0.096 0.384-0.576 0.768 0.032 0.384-0.032 0.96l-0.032 0.416q-0.352 0.48-0.544 1.6-0.128 0.768-0.256 2.336 0 0.288 0.16 0.704l0.096 0.288q0.096 1.728 0.928 2.592 0 0.224-0.16 0.288-0.096 0.032-0.128 0.096t-0.032 0.256q0 0.32 0.16 0.512 0.064 0.096 0.288 0.224h0.064l0.064 0.256q0.064 0.256 0.16 0.384 0.864 0.672 1.6 1.408-0.16 0.672-0.64 1.024-0.32 0.096-0.576-0.032-0.16-0.064-0.4-0.288t-0.352-0.256-0.128 0.048 0.016 0.24q0.032 0.288-0.064 0.288-0.256 0.032-0.592-0.176t-0.592-0.208q-0.128-0.416-0.512-0.736-0.256-0.16-0.8-0.432t-0.8-0.432q-0.16 0.064-0.16 0.112t0.096 0.112 0.112 0.128-0.080 0.128q-1.376-0.352-2.24-0.384-1.312-0.096-2.112 0.352-0.256 0.064-0.416 0.224-0.096 0.096-0.208 0.32t-0.208 0.288q-0.128 0.128-0.352 0.16-0.288-0.032-0.448-0.224-0.128-0.096-0.288-0.384l-0.16-0.288q-0.224-0.032-0.4-0.16t-0.368-0.16q-0.352-0.096-0.992-0.16-1.152 0-2.144 0.192-0.224 0-0.544-0.16l-0.224-0.096-0.672 0.32q-0.672 0.32-0.928 0.512-0.384 0.288-0.576 0.8-0.256-0.032-0.576 0.128t-0.48 0.192-0.176-0.032-0.016-0.192q0.064-0.224-0.032-0.256-0.192 0.032-0.512 0.256-0.224 0.192-0.352 0.256-0.256 0.096-0.576 0-0.384-0.288-0.544-1.024l0.224-0.224q0.832-0.864 1.376-1.184 0-0.352 0.192-0.672 0.032-0.064 0.16-0.112t0.208-0.16 0.144-0.4q0.032-0.128 0-0.176t-0.112-0.096-0.128-0.128-0.048-0.272 0.24-0.56 0.336-0.688q0.192-0.512 0.256-1.152 0.032-2.24-0.096-4.064l-0.096-0.288q-0.16-0.512-0.32-0.672 0-0.224-0.064-0.608-0.064-0.448-0.032-0.768-0.192-0.416-0.64-0.768-0.416-1.632-1.312-2.080 0-0.128 0.048-0.176t0.16-0.080 0.16-0.096-0.016-0.224q-0.064-0.448-0.352-0.832-0.16-0.256-0.576-0.64-0.544-0.544-0.704-0.896-0.064-0.288 0.032-0.544 0.064-0.16 0.192-0.448l0.128-0.224q0.16-0.064 0.608 0.048t0.704 0.096 0.48 0.208 0.448 0.224q0.288-0.064 0.608-0.448 0.16-0.224 0.288-0.288 1.248 0.224 2.576 0.112t2.288-0.528q0.32-0.16 0.576-0.416 0.128-0.128 0.24-0.176t0.368-0.016q-0.256 0.288-0.192 0.528t0.336 0.304 0.528-0.096q0.16-0.096-0.016-0.464t-0.432-0.56l0.064-0.064q0.448-0.448 0.704-0.64 0.416-0.32 0.928-0.448 0-0.064 0.208-0.24t0.24-0.24q0.672 0.384 0.896 0.992 0.96-0.096 1.504 0.864zM11.744 9.952q-0.032 0.064-0.128 0.16-0.288 0.32-0.352 0.576 0.096 0.256 0.288 0.512 0.128 0.128 0.416 0.368t0.384 0.368q0.192 0.192 0.192 0.448 0.032 0.128-0.192 0.096-0.096 0-0.144 0.032t0.016 0.192q0.192 0.224 0.48 0.256 0.224 0 0.672-0.128 0.16 0.192 0.368 0.352t0.336 0.192 0.224 0.16q0.128 0.224 0.32 0.224 0.192-0.288 0.096-0.544-0.032-0.16-0.24-0.416t-0.272-0.384q0-0.256-0.096-0.576-0.16-0.416-0.096-0.768-0.224 0-0.288-0.048t-0.16-0.176l-0.064-0.096q0-0.224-0.064-0.352t-0.224-0.256q-0.256-0.224-0.288-0.448-0.288 0.032-0.512-0.128-0.096-0.096-0.272-0.32t-0.272-0.288q-0.192 0.448-0.128 0.992zM19.904 9.472q-0.064 0.096-0.128 0.096t-0.16-0.080-0.192-0.080q-0.128 0.096-0.544 0.192t-0.576 0.224v0q-0.288 0.288-0.448 0.48-0.256 0.352-0.288 0.672 0.032 0.416-0.096 0.832-0.096 0.256-0.128 0.448-0.032 0.32 0 0.768 0.576-0.576 0.864-0.704 0.128-0.064 0.336-0.080t0.304-0.064 0.224-0.192 0.144-0.304-0.016-0.448l-0.032-0.128q0.544 0 0.832-0.48 0.256-0.384 0.288-1.088v-0.128q-0.032-0.256-0.096-0.288-0.032 0.096-0.128 0.224t-0.16 0.128zM8.576 12.672q0.096 0.064 0.4 0.080t0.528 0.080q0.16 0.064 0.528 0.24t0.528 0.208q0.32 0.096 0.48 0-0.032-0.256-0.352-0.528t-0.352-0.496q0-0.128-0.064-0.24t-0.032-0.272q-0.192-0.064-0.288-0.224-0.096-0.128-0.192-0.352-0.16-0.384-0.32-0.512-0.288 0-0.8-0.224-0.352-0.16-0.544-0.192 0 0.8 0.096 1.472 0.128 0.768 0.384 0.96zM24 10.368q-0.032-0.16-0.224-0.128-0.128 0.096-0.656 0.224t-0.688 0.256-0.192 0.352q-0.064 0.384-0.384 0.64-0.192 0.16-0.304 0.64t0.096 0.576 0.4 0.032q0.096-0.032 0.304-0.16t0.304-0.128q0.288 0.064 0.512 0 0.16-0.064 0.32-0.16 0.128-0.096 0.144-0.24t0.016-0.4q-0.032-0.448 0-0.704 0.096-0.416 0.352-0.8zM9.504 15.648q-0.032 0.576 0.048 0.816t0.272 0.24q0.512 1.152 1.216 1.44 0.064-0.16 0.032-0.256t-0.128-0.224q-0.128-0.16-0.128-0.288 0.416 0.16 0.576-0.128 0.032-0.064 0.048-0.336t0.080-0.336l0.128-0.032q0.192-0.064 0.224-0.192-0.128-0.224-0.352-0.368t-0.352-0.304v0q-0.32-0.384-0.512-0.544-0.32-0.256-0.704-0.224-0.096-0.16-0.416-0.272t-0.384 0.032-0.016 0.256 0.176 0.304q0.224 0.256 0.192 0.416zM22.080 14.912q-0.192-0.032-0.256-0.032t-0.192 0.064l-0.224 0.096q-0.256 0.096-0.368 0.256t-0.112 0.448q-0.192 0.032-0.416 0.208t-0.256 0.4q0.16 0.064 0.192 0.176t0.032 0.304 0.032 0.304 0.192 0.176q0.256 0.064 0.48-0.032 0.16-0.064 0.448-0.288 0.48-0.352 0.832-0.384-0.128-0.704-0.032-1.056 0.064-0.192 0.288-0.384 0.096-0.096 0.128-0.176t-0.032-0.272q-0.16-0.224-0.384-0.128-0.096 0.064-0.288 0.256zM16.864 15.328q0.416 0.832 0.416 1.504 0 0.352-0.192 0.928-0.128 0.32-0.128 0.48-0.064 0.256 0.032 0.544 0.16-0.032 0.272-0.128t0.24-0.288q0.256-0.352 0.512-0.544 0.032-0.352 0.16-0.576 0.096-0.128 0.288-0.256 0.288-0.224 0.352-0.416-0.064-0.096-0.224-0.224t-0.224-0.224q-0.096-0.16-0.128-0.352-0.064-0.064-0.256-0.096t-0.256-0.064q-0.032-0.128-0.176-0.24t-0.144-0.24q-0.096 0-0.144-0.144t-0.112-0.224-0.288-0.048v0.608zM13.344 16.8q0.064 0.16 0.288 0.352 0.16 0.128 0.224 0.224 0.096 0.16 0.096 0.384 0.576 0.896 1.088 0.992-0.032-0.704-0.24-1.44t-0.496-1.248q-0.416-0.064-0.656 0.16t-0.304 0.576zM21.248 19.552q-0.032 0.032-0.096 0.064-0.384 0.256-0.544 0.48-0.064 0.224-0.224 0.704-0.256 0.736-0.32 1.056-0.096 0.512 0.16 0.544 0.224-0.096 0.48-0.512 0.192-0.288 0.32-0.416 0.192-0.096 0.576-0.384l0.224-0.16q0.064-0.32 0.224-0.512 0.096-0.096 0.288-0.256 0.256-0.192 0.32-0.384-0.352 0.032-0.576-0.192-0.128-0.096-0.288-0.416-0.128-0.256-0.192-0.352-0.16-0.128-0.352-0.16 0.032 0.16 0 0.432t0 0.464zM9.632 20q0.032 0.064 0.128 0.32l0.096 0.288 0.032 0.16q0.064 0.192 0.064 0.32t-0.096 0.384q0.224 0.416 0.48 0.544t0.736 0.064l0.096 0.064q0.512 0.448 0.704 0.416 0.032-0.128-0.096-0.48-0.16-0.48-0.16-0.768-0.064-0.16-0.288-0.352l-0.128-0.128q0-0.096 0.16-0.224t0.128-0.288l-0.96-0.576q-0.32-0.16-0.704-0.32-0.224 0.384-0.192 0.576zM13.248 20.832q-0.256 0.448-0.208 0.592t0.336 0.336l0.256 0.128q0-0.32 0.288-0.864t0.32-0.96q-0.256-0.032-0.576-0.256-0.16-0.16-0.288-0.224-0.192-0.096-0.416-0.064-0.192 0.416-0.128 0.64 0.032 0.16 0.208 0.336t0.208 0.336zM18.24 19.936q-0.032 0.16 0.064 0.256t0.032 0.32q-0.544 0.32-0.672 0.96 0.032 0.704 0.384 0.672 0.192-0.096 0.256-0.336t-0.032-0.464q0.064-0.032 0.224-0.064 0.256-0.032 0.256-0.16-0.032-0.256 0.064-0.416 0.032-0.096 0.144-0.24t0.16-0.272 0.016-0.448v-0.192q-0.352-0.032-0.528 0.032t-0.368 0.352zM20.832 22.592q-0.224 0.512 0.032 0.64 0.032 0.128 0.096 0.16t0.256 0.064v0q0.032-0.224 0.32-0.64l0.16-0.256q0.224-0.32 0.288-0.448 0.064-0.224-0.064-0.352-0.32-0.032-0.624 0.208t-0.464 0.624zM13.792 23.872q0.032-0.16-0.064-0.416t-0.064-0.448q-0.16 0.032-0.4-0.048t-0.464-0.016q-0.128 0.416 0.192 0.688t0.8 0.24zM18.272 23.072q0.032 0.256 0.224 0.384t0.512 0.096q0.224-0.224 0.224-0.576-0.224-0.064-0.512 0.032t-0.448 0.064zM15.392 24.576v0.064q0.032 0.352 0.128 0.48 0.096 0.16 0.48 0.192 0.064-0.192 0.336-0.528t0.336-0.56q-0.224-0.064-0.48 0.096-0.096 0.064-0.192 0.096l-0.064-0.16q-0.064-0.096-0.128-0.16t-0.224-0.064q0-0.16-0.144-0.272t-0.304-0.112l0.064 0.192q0.16 0.512 0.192 0.736z"></path>
</svg>
