<svg version="1.1" xmlns="http://www.w3.org/2000/svg" width="32" height="32" viewBox="0 0 32 32">
<title>ItemCategory_DRK</title>
<path d="M8.992 13.152q1.792 0.96 3.040 1.216 1.376 0.32 2.464-0.080t2.176-1.616q-0.864-0.48-2.080-0.992-0.736-0.32-2.272-0.928-2.016-0.8-2.976-1.248-1.632-0.736-2.752-1.472 1.248-0.064 2.944 0.224 0.992 0.16 3.072 0.64 1.472 0.352 2.208 0.512 1.216 0.224 2.080 0.288-0.416-2.144-0.512-3.488-0.16-1.856 0.096-3.36 1.152 1.056 1.888 2.592 0.448 0.896 1.056 2.88l0.352 1.216q0.864-0.256 1.792-0.864 0.544-0.352 1.616-1.168t1.616-1.168q0.928-0.576 1.76-0.896-0.384 0.96-1.056 2.080-0.416 0.64-1.312 1.888-1.248 1.76-1.728 2.656 0.704 0.32 2.112 0.896 1.6 0.64 2.368 1.056 1.312 0.672 2.24 1.504-1.536 0.352-3.296 0.192-1.472-0.128-3.552-0.672 0.096 0.896 0.32 2.144 0.16 0.736 0.48 2.272 0.48 2.080 0.64 3.104 0.288 1.696 0.288 2.944-0.864-1.248-1.792-3.296-0.544-1.216-1.568-3.712-1.024-2.56-1.504-3.552-1.664 1.408-1.76 3.568t1.472 4.656q-0.864 0.16-2.816 0.32-2.272 0.192-3.328 0.416-1.824 0.352-2.944 1.056l-0.288 0.192q-2.176 1.376-3.296 2.048-1.888 1.12-3.52 1.888l1.344-2.080q2.016-3.104 3.008-4.672 0.832-1.344 1.28-3.616 0.256-1.344 0.512-4.096zM15.296 16.736q-0.544-0.192-1.088-0.224-0.352-0.032-0.96 0.032-0.544 0.032-0.832 0.032-0.832-0.032-0.992 0.8-0.128 0.672-0.512 2.4l-0.256 1.216q1.92-0.128 2.896-0.368t1.376-0.672 0.464-1.232q0.032-0.544-0.096-1.984z"></path>
</svg>
