<svg version="1.1" xmlns="http://www.w3.org/2000/svg" width="32" height="32" viewBox="0 0 32 32">
<title>ItemCategory_ALC</title>
<path d="M9.44 13.376l-0.288 0.288-0.288 0.256q-0.16 0.16-0.224 0.256-0.096 0.16-0.112 0.32t0.032 0.272 0.112 0.080q0.16 0 0.576-0.576 0.352-0.48 0.416-0.672t-0.016-0.24-0.208 0.016zM23.744 10.336q0.064 0 0.208-0.096t0.208-0.064q0.128 0.064 0.832 0.64 1.312 1.024 1.472 1.024t0.432-0.352 0.208-0.544q-0.16-0.288-0.608-0.704t-0.768-0.576q-0.128-0.064-0.32 0.048t-0.352 0.112q-0.032-0.032-0.112-0.144t-0.016-0.208q0.192-0.256 0.208-0.544t-0.176-0.448q-0.288-0.192-0.544 0l-0.032 0.032q-0.096 0.064-0.288-0.096l-1.216-1.024q-1.152-0.96-1.824-1.504l-0.544-0.448q-0.928-0.768-1.408-1.056-0.8-0.416-1.632-0.416-0.608 0.032-1.344 0.48-0.64 0.352-1.024 0.8-0.608 0.704-0.832 1.12-0.256 0.448-0.256 0.96 0 0.192 0.384 0.432t0.768 0.272q0.224 0.032 0.544 0 0.224 0 0.224 0.032 0.032 0.16-0.368 0.24t-0.88 0.080q-0.224 0-0.672-0.176t-0.64-0.192-0.368 0.208-0.048 0.448l0.096 0.128q0.16 0.256 0.128 0.416-0.032 0.096-0.288 0.576l-0.416 0.864q-0.576 1.216-0.896 1.664-0.608 0.8-1.088 0.448-0.064-0.032-0.112-0.016t-0.048 0.080q0.096 0.608-0.352 1.344-0.352 0.576-0.96 1.12-0.48 0.48-0.688 0.576t-0.464 0.096q-0.16 0.032-0.512 0h-0.064q-0.096 0.128-0.032 0.256l0.128 0.256q0.128 0.288 0.096 0.384-0.032 0.224-0.32 0.416-0.192 0.128-0.256 0.224-0.16 0.192-0.128 0.512 0.256 0.768 4.032 1.056 2.112 0.192 4.704 0.192 3.264-0.032 4.608-0.064 1.568-0.032 2.592-0.192 0.832-0.096 2.24-0.416 0.096-0.032 0.176 0.016t-0.016 0.144q-0.736 0.448-2.336 0.704-1.184 0.16-3.2 0.256l-0.864 0.032q-1.92 0.096-2.688 0.096-3.296-0.032-5.184-0.16-3.2-0.192-4.48-0.736-0.416-0.16-0.768-0.352t-0.416-0.32-0.192-0.128-0.128 0.096q-0.064 0.48 0.512 0.96 0.512 0.416 1.296 0.704t1.424 0.352q0.096 0 0.096 0.096t-0.080 0.176-0.272 0.176q-0.128 0.064-0.16 0.112t0.032 0.112q0.128 0.192 0.32 0.672 0.352 0.832 0.736 1.344 0.288 0.416 1.088 0.896 0.544 0.352 0.736 0.576 0.32 0.32 0.288 0.736-0.032 0.192-0.192 0.32-0.128 0.096-0.416 0.224-0.352 0.16-0.512 0.288-0.256 0.192-0.256 0.512 0 0.512 0.768 0.896 0.608 0.288 1.568 0.448 0.832 0.128 1.616 0.112t1.008-0.144q0.16-0.096 0.128-0.384 0-0.224 0.032-0.32 0.064-0.192 0.256-0.288 0.416-0.288 0.976-0.272t0.912 0.368q0.128 0.128 0.128 0.448t0.176 0.464 1.088 0.144 1.84-0.192q1.088-0.192 1.632-0.576 0.448-0.32 0.384-0.832-0.032-0.256-0.224-0.384-0.128-0.096-0.448-0.224t-0.448-0.224q-0.224-0.16-0.272-0.464t0.272-0.624q0.224-0.224 0.8-0.608 0.672-0.48 0.896-0.736 0.32-0.384 0.768-1.408 0.384-0.832 0.576-1.056 0.224-0.288 0.608-0.544 0.256-0.16 0.768-0.384 0.64-0.32 0.864-0.512 0.352-0.32 0.352-0.736 0-0.256-0.128-0.416-0.448-0.416-1.056-0.672-0.352-0.128-0.896-0.256-0.32-0.096-0.352-0.128v-0.064q-0.064-0.096-0.064-0.144t0.032-0.144v-0.064q0.16-0.8-0.448-1.728-0.448-0.736-1.248-1.376-0.672-0.576-0.896-0.576l-0.256 0.032q-0.352 0-0.544-0.096-0.416-0.224-0.8-0.704-0.288-0.384-0.48-0.8l-0.416-0.832q-0.448-0.832-0.64-1.248-0.032-0.192 0.048-0.32t0.048-0.32q-0.064-0.448-0.608-0.832l-0.096-0.032q-0.512-0.416-0.512-1.056 0-0.768 0.832-0.896 0.352-0.032 0.992 0.384 0.384 0.256 1.184 0.928l3.232 2.528q-0.16 0.16-0.128 0.288t0.16 0.256 0.256 0.16zM21.024 13.376h0.096t0.064 0.064q0.16 0.64 0.832 1.28 0.448 0.416 1.312 0.992 0.288 0.224 0.192 0.272t-0.384-0.032-0.672-0.272-0.64-0.352q-0.384-0.288-0.576-0.576-0.224-0.352-0.256-0.832v-0.128q0-0.416 0.032-0.416zM16.704 16.512q-0.192 0.16-0.464 0.256t-0.464 0.096q-0.448 0-0.768-0.256t-0.352-0.736q0.448 0.48 0.992 0.48t0.816-0.432-0.016-1.072q0.512 0.416 0.512 0.928t-0.256 0.736zM17.472 14.656q-0.064-0.032-0.128-0.096-0.448-0.32-0.672-0.416-0.32-0.16-0.864-0.192-0.832-0.064-1.456 0.496t-0.592 1.296q0.032 0.832 0.864 1.408-0.512 0.064-0.928-0.176t-0.608-0.688-0.096-0.896q0.128-0.8 0.768-1.312 0.544-0.48 1.328-0.592t1.456 0.192 0.928 0.976z"></path>
</svg>
