<svg version="1.1" xmlns="http://www.w3.org/2000/svg" width="32" height="32" viewBox="0 0 32 32">
    <title>ItemCategory_BLU</title>
    <path d="M28.32 9.344q-0.064-0.032-0.448 0.032t-0.672 0.128q-0.096-1.088-1.008-2.128t-2-1.2q-0.672-0.128-1.28 0.224-0.544 0.288-0.816 0.768t-0.016 0.736q0.064 0.064 0.448 0.128 0.512 0.064 0.768 0.16 0.416 0.192 0.544 0.64 0.256 0.736 0.064 1.232t-0.672 0.624l-3.264 0.992q-0.352 0.128-0.992 0.352-0.8 0.32-1.28 0.416-0.768 0.192-1.696 0.192t-1.696-0.192q-0.48-0.096-1.248-0.416-0.64-0.224-0.992-0.32l-1.152-0.352q-3.2-0.992-4.576-1.376-2.368-0.672-2.656-0.64-0.8 0.064-0.768 1.056 0.032 0.544 0.288 1.312l0.032 0.064q0.832 2.528 2.048 4.48 1.696 2.752 3.488 3.008 1.408 0.192 2.688-0.16 0.736-0.224 1.984-0.896 0.832-0.416 1.248-0.576 0.672-0.288 1.312-0.32 0.608 0.032 1.248 0.288 0.448 0.16 1.184 0.544-0.608 1.12-1.696 3.136-1.28 2.464-1.44 2.816l-0.224 0.512q-0.256 0.512-0.288 0.736-0.096 0.352 0.080 0.48t0.528-0.16q0.192-0.128 0.544-0.512l0.096-0.128q0.64-0.64 2.304-2.592 2.112-2.496 2.784-3.136 1.056 0.096 2.112-0.032 1.792-0.256 3.488-3.008 1.216-1.952 2.048-4.48l0.032-0.064q0.256-0.8 0.288-1.312 0.032-0.992-0.768-1.056zM8.96 16.704q-1.056-0.128-1.856-1.088-0.672-0.768-1.024-1.888-0.32-0.928-0.288-1.472 0.032-0.384 1.92 0.192 1.632 0.512 3.648 1.392t2.304 1.2-0.432 0.768-1.872 0.704q-1.28 0.32-2.4 0.192zM23.040 16.704q-1.12 0.128-2.4-0.192-1.152-0.256-1.872-0.704t-0.432-0.768 2.304-1.2 3.648-1.392q1.888-0.576 1.92-0.192 0.032 0.544-0.256 1.472-0.384 1.12-1.056 1.888-0.8 0.96-1.856 1.088z"></path>
</svg>
