<svg version="1.1" xmlns="http://www.w3.org/2000/svg" width="32" height="32" viewBox="0 0 32 32">
    <title>ItemCategory_SAM</title>
    <path d="M24.704 23.648q-2.016 2.336-4.928 3.264-2.816 0.928-5.76 0.352-1.184-0.224-2.080-0.64-1.664-0.736-0.768-1.632 0.224 0.128 1.344 0.288 0.928 0.096 2.016 0.192 2.016 0.128 3.968-0.576 2.048-0.768 3.648-2.304 0.896-1.024 1.088-2.304 0.224-1.504-0.672-2.688-0.544-0.736-1.456-1.072t-1.584-0.080q-0.48 0.16-0.736 0.608-0.16 0.288-0.224 0.608l-0.032-0.032q0.192 1.12 0.384 2.624 0.16 0.832-0.16 1.088-0.192 0.16-0.768 0.16h-3.936q-0.576 0-0.768-0.16-0.352-0.256-0.16-1.088l0.128-1.088q0.096-1.056-0.080-1.536t-0.624-0.64q-0.256-0.096-0.96-0.128t-1.088-0.096q-0.64-0.096-1.184-0.384-0.288-0.16-0.848-0.688t-0.784-0.624q-0.384-0.192-0.608 0.16-0.256 0.416-0.32 1.664 0.128 2.528 1.536 4.256 0.416 0.352 0.512 0.672 0.064 0.16 0 0.448l-0.032 0.16q0 0.16-0.128 0.32-0.192 0.224-0.512 0.16-0.448-0.096-1.088-0.768-1.632-1.76-2.24-4.24t-0.096-4.976q0.544-2.592 2.176-4.464t3.904-2.896q2.176-0.992 4.608-1.008t4.64 0.912q0.768 0.352 1.248 0.784t0.336 0.656-0.832 0.192-1.392-0.288q-2.208-0.736-4.736-0.192-0.576 0.16-1.152 0.544-0.352 0.224-0.928 0.704-0.448 0.352-0.64 0.448-0.512 0.384-1.28 0.704-0.608 0.224-0.928 0.48l0.128-0.096q-0.256 0.16-0.48 0.384-0.128 0.096-0.336 0.352t-0.176 0.224q-0.512 0.8-0.32 1.696 0.192 0.864 0.896 1.536 1.152 0.832 2.208 0.992t1.776-0.304 0.976-1.424q0.8-3.072 1.6-3.552v0.032q0.896 0.48 1.76 4.16l0.064 0.288q0.064 0.352 0.16 0.48 0.128 0.224 0.416 0.224 0.416-0.064 0.896-0.192t0.704-0.128q0.384-0.032 1.024 0.032 0.768 0.064 1.664 0.48 0.672 0.352 1.312 0.832l0.032 0.064q0.32 0.32 0.512 0.32 0.352 0 0.448-1.024v0.064q-0.128-1.6-0.64-3.616-0.256-0.992-0.288-1.312 0-0.544 0.352-0.832 0.256-0.064 0.56 0.208t0.72 0.976q1.28 2.016 1.632 4.384t-0.32 4.672q-0.672 2.336-2.304 4.224zM16.768 18.464q-0.352-4.352-0.768-4.768h-0.032q-0.416 0.416-0.736 4.768-0.064 0.352 0.064 0.544t0.352 0.192h0.672q0.224 0 0.352-0.192t0.096-0.544z"></path>
</svg>
