<svg version="1.1" xmlns="http://www.w3.org/2000/svg" width="32" height="32" viewBox="0 0 32 32">
    <title>ItemCategory_Miscellany</title>
    <path d="M27.072 16.064l-7.584 4.544q-0.192 0.096-0.192 0.48v5.76q0 0.256 0.208 0.352t0.4-0.032l7.68-5.824q0.128-0.096 0.128-0.288v-4.608q0-0.224-0.224-0.352t-0.416-0.032zM18.016 26.912v-5.984q0-0.256-0.256-0.416l-4.032-2.24q-0.224-0.128-0.448 0.016t-0.224 0.4v1.088q0 0.192-0.128 0.32t-0.32 0.128l-1.952-0.032q-0.192 0-0.32-0.16l-1.504-1.664q-0.128-0.128-0.128-0.32l-0.032-2.112q0-0.256-0.224-0.384l-3.52-2.080q-0.224-0.128-0.448 0t-0.224 0.384l0.032 5.28q0 0.256 0.192 0.384l12.832 7.776q0.224 0.128 0.464 0t0.24-0.384zM19.36 18.624q-0.032 0.16 0.096 0.224t0.256 0q3.2-1.92 5.92-3.52l2.048-1.216q-0.16-2.4-1.136-3.44t-2.448-0.336q-1.952 0.928-3.232 3.072-1.344 2.272-1.504 5.216zM4.448 11.808q3.008 1.6 12.992 6.912 0.192 0.128 0.384 0.016t0.224-0.336q0.064-1.6 0.576-3.2 0.544-1.824 1.536-3.2 1.12-1.568 2.688-2.304 0.256-0.096 0.24-0.368t-0.24-0.368q-11.776-4.704-11.872-4.704-2.304 0-3.904 1.184-1.376 0.992-2.144 2.752-0.64 1.504-0.704 3.232 0 0.256 0.224 0.384z"></path>
</svg>
