<svg version="1.1" xmlns="http://www.w3.org/2000/svg" width="32" height="32" viewBox="0 0 32 32">
    <title>ItemCategory_Minion</title>
    <path d="M6.56 24.96q1.024 1.056 2.304 1.664 0.704 0.352 1.376 0.512 0.096 0.032 0.096 0.128v1.088q0 0.16 0.128 0.256t0.288 0.096l1.6-0.256q0.128 0 0.208-0.096t0.080-0.224v-0.352q0-0.064 0.032-0.096t0.096-0.032q1.344 0.128 2.080-0.608 0.288-0.224 0.224-0.608l-0.192-0.992 0.16-0.96q0-0.096 0.128-0.128 2.080-0.16 3.712-0.96 1.76-0.832 2.752-2.24 1.056-1.504 1.056-3.552 0-1.6-0.448-3.136 0-0.064 0.048-0.128t0.112-0.032q1.728 0.256 3.104-0.608 1.12-0.704 1.648-1.968t0.368-2.736-0.992-2.8-2.112-2.096-2.64-0.832-2.512 0.656-1.68 2.032-0.304 2.816q0 0.064-0.064 0.112t-0.128 0.016q-1.952-0.736-4.032-0.736-6.944 0-6.944 8.832 0 0.8 0.16 1.568 0.032 0.096-0.064 0.16l-0.896 0.384-0.48 0.224q-0.224 0.096-0.336 0.704t-0.016 1.472q0.128 1.504 2.080 3.456zM11.104 21.952q0.48 0 0.832 0.432t0.352 1.040-0.352 1.056-0.832 0.448-0.832-0.448-0.352-1.056 0.352-1.040 0.832-0.432zM8.032 21.696q0.32 0 0.544 0.432t0.224 1.040-0.224 1.056-0.528 0.448-0.528-0.448-0.224-1.056 0.224-1.040 0.512-0.432z"></path>
</svg>
