<svg version="1.1" xmlns="http://www.w3.org/2000/svg" width="32" height="32" viewBox="0 0 32 32">
<title>ItemCategory_Crystal</title>
<path d="M15.52 28.896q0.192 0.224 0.48 0.224t0.48-0.224l6.080-6.304q0.192-0.192 0.192-0.48v-12.224q0-0.288-0.192-0.48l-6.080-6.304q-0.192-0.224-0.48-0.224t-0.48 0.224l-6.080 6.304q-0.192 0.192-0.192 0.48v12.224q0 0.288 0.192 0.48zM16.16 9.536l2.144 3.168q0.064 0.096 0.064 0.224v6.144q0 0.128-0.064 0.224l-2.144 3.168q-0.064 0.128-0.16 0.128t-0.16-0.128l-2.144-3.168q-0.064-0.096-0.064-0.224v-6.144q0-0.128 0.064-0.224l2.144-3.168q0.064-0.128 0.16-0.128t0.16 0.128zM10.848 9.984l4.768-5.408q0.096-0.096 0.24-0.048t0.144 0.208v1.632q0 0.096-0.032 0.16l-3.648 4.544q-0.064 0.064-0.144 0.080t-0.144-0.048l-1.152-0.8q-0.064-0.032-0.080-0.128t0.048-0.192zM10.464 11.616q0-0.128 0.096-0.176t0.224 0.016l1.184 0.8q0.096 0.064 0.096 0.192v7.136q0 0.096-0.064 0.16l-1.216 1.056q-0.096 0.096-0.208 0.032t-0.112-0.192v-9.024z"></path>
</svg>
