<svg version="1.1" xmlns="http://www.w3.org/2000/svg" width="32" height="32" viewBox="0 0 32 32">
    <title>ItemCategory_Rug</title>
    <path d="M29.024 12.704l-13.024-3.488q-0.576-0.128-1.312-0.016t-1.216 0.4l-11.104 7.392q-0.64 0.416-0.656 0.88t0.592 0.72l14.080 5.344q0.8 0.288 1.776 0.112t1.584-0.72l10.016-9.216q0.416-0.384 0.208-0.8t-0.944-0.608zM10.816 18.368l-3.488-1.216q-0.16-0.064-0.16-0.16t0.128-0.192l3.072-2.144q0.192-0.16 0.464-0.144t0.304 0.176l0.448 3.36q0.032 0.192-0.256 0.304t-0.512 0.016zM12.352 13.248l2.56-1.792q0.288-0.16 0.576-0.096l3.168 0.896q0.224 0.064 0.16 0.208t-0.352 0.208l-5.728 0.896q-0.288 0.032-0.432-0.080t0.048-0.24zM20.544 17.952l-2.88 2.464q-0.128 0.128-0.32 0.16t-0.384-0.032l-3.808-1.344q-0.224-0.096-0.128-0.272t0.416-0.24l6.656-1.088q0.288-0.064 0.464 0.080t-0.016 0.272zM24.832 14.304l-2.368 2.016q-0.16 0.16-0.464 0.144t-0.368-0.176l-0.992-3.008q-0.064-0.128 0.176-0.224t0.496-0.032l3.392 0.96q0.16 0.064 0.192 0.144t-0.064 0.176z"></path>
</svg>
