<svg version="1.1" xmlns="http://www.w3.org/2000/svg" width="32" height="32" viewBox="0 0 32 32">
    <title>ItemCategory_Airship</title>
    <path d="M28.256 10.848q-0.384-1.344-1.664-1.76-1.12-0.384-2.528 0-0.576 0.16-2.112 0.96-0.896 0.48-2.816 1.6-1.472 0.864-1.984 1.152-0.192 0.064-0.384 0.048t-0.32-0.176v0q-0.448-0.448-1.056-0.64-0.8-0.32-1.632-0.064-0.192 0.032-0.368-0.032t-0.272-0.224l-1.024-1.792q-1.152-2.048-1.728-3.008-0.992-1.6-1.44-2.048-1.024-1.024-2.176-1.28-1.344-0.256-2.32 0.72t-0.72 2.32q0.224 1.152 1.248 2.176 0.448 0.448 1.952 1.376 0.864 0.544 2.848 1.664 1.408 0.832 1.92 1.152 0.16 0.096 0.24 0.288t-0.016 0.384q-0.256 0.736-0.080 1.52t0.752 1.296q0.16 0.128 0.192 0.32t-0.064 0.384q-0.288 0.512-1.12 1.984-1.12 1.952-1.632 2.88-0.832 1.536-0.992 2.144-0.384 1.408 0 2.528 0.448 1.28 1.776 1.632t2.352-0.544q0.896-0.768 1.28-2.176 0.16-0.608 0.192-2.496 0.032-1.088 0-3.456v-2.048q0-0.192 0.128-0.352t0.32-0.192l0.288-0.096q0.672-0.192 1.168-0.704t0.656-1.184q0.064-0.192 0.208-0.304t0.336-0.144l2.048 0.032h3.36q1.824-0.032 2.464-0.224 1.376-0.352 2.176-1.248 0.896-1.024 0.544-2.368z"></path>
</svg>
