<svg version="1.1" xmlns="http://www.w3.org/2000/svg" width="32" height="32" viewBox="0 0 32 32">
    <title>ItemCategory_Gardening</title>
    <path d="M14.048 4.512q-1.888 1.216-2.816 2.304-0.832 0.96-0.816 1.616t0.656 0.896 2.112 0.912q0.416 0.224 0.832 0 1.024-0.48 2.144-0.56t2.208 0.272q0.224 0.064 0.448 0t0.384-0.224l1.664-1.824q0.48-0.512 0.384-0.864-0.032-0.16-0.16-0.256l-0.672-0.352q-0.704-0.448-0.912-0.736t-0.656-0.768l-0.416-0.48q-0.704-0.48-1.536-0.608-0.672-0.064-1.408 0.096-0.544 0.128-1.056 0.352zM16.8 10.688q-1.664-0.032-2.816 0.576-0.736 0.384-0.832 1.12v0.192q-0.032 0.128 0.064 0.224t0.192 0.064q1.696-0.448 3.424-0.384 1.216 0.032 2.176 0.288 0.16 0.032 0.288-0.080t0.128-0.272q-0.064-0.544-0.288-0.896-0.32-0.48-1.056-0.672-0.48-0.128-1.28-0.16zM20.544 14.656q-0.64-0.704-1.856-0.96-0.736-0.128-2.176-0.128h-0.128q-3.136 0.032-4.576 1.12-0.864 0.64-1.856 1.952-1.088 1.44-1.696 2.88-0.736 1.664-0.56 2.944t0.944 2.4q0.928 1.376 2.592 2.144 1.984 0.928 4.896 0.928t4.928-1.152q1.728-0.96 2.528-2.656 0.736-1.472 0.608-3.072-0.128-1.312-1.472-3.488-0.992-1.568-2.176-2.912zM22.528 10.208v0q0.288-0.224 0.304-0.512t-0.176-0.48q-0.256-0.256-0.704-0.192-0.224 0.032-0.384 0.128l-1.792 1.472 0.096 0.096q0.512 0.608 0.608 1.28 0.064 0.384 0 0.576l-0.032 0.256 3.008-0.608q0.352-0.192 0.448-0.512 0.064-0.224-0.064-0.432t-0.384-0.304-0.48 0q-1.376 0.384-1.568 0.352-0.096-0.032-0.16-0.192 0-0.032 0.032-0.064z"></path>
</svg>
