<svg version="1.1" xmlns="http://www.w3.org/2000/svg" width="32" height="32" viewBox="0 0 32 32">
<title>Armoury_Feet1</title>
<path d="M5.792 5.696l-0.672 1.344 0.992 0.448h0.864q0.992 0.064 1.76 0.288 1.024 0.32 1.44 0.928 0.288 0.448 0.496 0.64t0.336 0.192 0.192-0.096l0.064-0.096 1.088-0.768-0.32-1.12 1.856-0.32v0.416q-0.064 0.512-0.224 0.992-0.256 0.672-0.704 1.152-0.576 0.64-1.504 0.992-0.736-0.352-1.408-0.928-0.352-0.288-0.544-0.512h-0.864l0.544 1.12-0.128 1.632 1.312-0.096v1.568l-1.184 0.416-0.224 1.344-0.384 0.448q-0.448 0.544-0.832 0.864-0.576 0.448-0.96 0.448h-2.528l-0.32 0.672 0.32 1.12 0.288 0.192q0.384 0.192 0.96 0.352 0.832 0.192 1.888 0.256 1.344 0.064 3.008-0.128 0.992-0.608 1.472-1.088 0.32-0.256 0.608-0.768 0.256-0.352 0.448-0.576 0.32-0.384 0.864-0.8 0.96-0.768 2.080-1.28 0.352-0.16 0.512-0.256 0.192-0.128 0.352-0.352 0.192-0.288 0.288-0.96 0.096-0.48 0.128-1.088l0.032-0.512-1.152-1.152-0.736-0.288-0.32-1.984 0.128-0.448q0.192-0.544 0.448-0.928 0.352-0.512 0.736-0.608t0.672-0.256q0.192-0.128 0.32-0.288l0.096-0.128v-0.896l-0.672-0.224q-0.8-0.288-1.568-0.48-1.12-0.256-1.984-0.32-1.12-0.032-1.856 0.256 0.384 0.064 1.248 0.096 1.28 0.096 1.696 0.224 0.736 0.224 0.512 0.8-0.288 0.704-1.472 1.248-0.608 0.256-1.152 0.416l-2.176-1.344zM17.472 11.84v0.608q-0.032 0.768-0.192 1.312-0.224 0.8-0.672 1.088-1.728 1.152-2.784 2.048-0.352 0.32-1.024 1.184-0.768 0.928-1.248 1.312-0.768 0.64-1.664 0.736-2.176 0.192-4.192-0.384-1.024-0.288-1.6-0.608l-0.416-1.184-0.48 0.256 0.448 1.536 0.864 0.288q1.088 0.352 2.112 0.608 1.44 0.32 2.56 0.352 1.408 0.032 2.24-0.384 0.736-0.384 1.248-0.96 0.288-0.352 0.672-1.088 0.416-0.8 0.768-1.152 0.544-0.576 1.472-0.928 0.992-0.384 1.728-1.376 0.608-0.832 0.8-1.808t-0.096-1.424q-0.192-0.128-0.416-0.096-0.096 0-0.128 0.064v0zM19.424 8.032l0.704 1.216q0.8 1.248 1.152 1.44 1.632 0.96 3.168 0.128 0.544-0.32 1.088-1.056 0.384-0.544 0.704-1.216 0.256-0.576 0.256-0.736l-0.16-0.096q-1.28-0.864-2.496-1.056-2.272-0.352-4.416 1.376zM19.136 22.144q0.16 0.32 0.288 0.608 0.416 0.768 0.864 1.408 0.64 0.896 1.312 1.504 0.832 0.736 1.696 0.96 0.928 0.192 1.856 0.064 0.768-0.096 1.536-0.416 0.512-0.224 0.992-0.544l0.384-0.288 0.672-1.312-0.064 1.12-0.096 0.288q-0.16 0.352-0.416 0.704-0.352 0.448-0.8 0.768-0.544 0.384-1.248 0.576-0.96 0.224-1.92 0.096-0.768-0.096-1.568-0.416-0.544-0.224-1.024-0.512l-0.384-0.288-0.288-0.32q-0.384-0.384-0.672-0.864-0.448-0.672-0.704-1.376-0.352-0.864-0.416-1.76zM15.904 8.704q0.128-0.224 0.224-0.448 0.32-0.512 0.704-0.992 0.576-0.704 1.248-1.248 0.864-0.672 1.856-1.088 1.184-0.48 2.56-0.56t2.464 0.144q0.928 0.192 1.568 0.608 0.544 0.32 0.864 0.8 0.256 0.32 0.384 0.672l0.064 0.288-0.672-0.544-0.48-0.288q-0.576-0.352-1.28-0.608-0.96-0.32-1.952-0.384-1.248-0.064-2.464 0.352-1.408 0.448-2.784 1.504-0.064 0.64 0.608 1.824 0.352 0.608 0.704 1.088l0.32 0.448q0.384 0.512 0.8 0.96 0.576 0.64 1.152 0.96 0.704 0.416 1.344 0.384 1.184-0.064 2.432-2.112 0.768-1.312 1.28-2.88 0.128-0.352 0.448-0.448 0.224-0.064 0.512 0.032l0.256 0.096 0.64 0.544-1.728 2.208-0.128 1.472-1.152 0.864-0.032 2.56 0.576 0.896-0.128 1.024 0.32 0.864-0.672 0.704 0.672 1.344-0.416-0.192q-0.544-0.224-1.088-0.352-0.736-0.16-1.344-0.064-0.8 0.096-1.376 0.544-1.216 0.96-1.184 0.96t0.288-0.192l0.48-0.224q0.608-0.288 1.216-0.448 0.864-0.224 1.632-0.16 0.96 0.032 1.728 0.512 0.512 0.832 1.376 1.952 0.448 0.608 0.608 0.864 0.256 0.384 0.32 0.736-0.192 0.448-0.448 0.832-0.192 0.256-0.384 0.48l-0.192 0.128-0.064 0.128q-0.128 0.16-0.384 0.288-0.352 0.192-0.96 0.32-0.736 0.16-1.792 0.224-1.568 0.064-2.72-0.8-0.832-0.64-1.344-1.696-0.288-0.544-0.384-0.928l-0.736-0.96 0.352-4.416-0.512-1.664 1.28-1.632-1.504-1.408 0.288-1.152z"></path>
</svg>
