<svg version="1.1" xmlns="http://www.w3.org/2000/svg" width="32" height="32" viewBox="0 0 32 32">
    <title>Armoury_SoulCrystal</title>
    <path d="M26.656 15.616q0.256-0.192 0.064-0.608-0.096-0.224-0.448-0.704l-0.16-0.224q-0.704-1.696-1.888-3.552-0.64-1.024-1.76-2.528l-0.512-0.704q-0.512-0.736-1.952-1.76-1.024-0.736-2.4-1.536l-1.152-0.672-0.384-0.064q-0.448-0.096-0.96-0.064-0.672 0.064-1.344 0.352-0.832 0.32-1.536 0.976t-1.056 1.264q-0.224 0.384-0.48 1.12t-0.48 1.216q1.184-1.12 2.752-2.144 0.8-0.544 1.376-0.832v0l-0.224 0.928q-0.256 1.12-0.576 1.952-0.416 1.216-0.832 1.728-0.096 0.16-0.8 0.896-1.056 1.152-1.376 1.536-0.512 0.64 0.256 0.064 0.992-0.736-0.256 0.928-0.64 0.832-1.504 1.824l0.448 1.216q0.544 1.472 1.088 2.656 0.736 1.632 1.376 2.464 0.864 0.512 1.088 0.704 0.32 0.224-0.128 0.096t-0.96-0.8l-0.544-0.32q-2.56-1.536-3.136-2.048 0.16 0.256-0.192-0.224 0.032 0.064 0.192 0.224l-0.352-0.672q-0.672-1.088-0.8-1.408-0.096-0.224-0.032-1.536t0.224-1.984q0.192-0.832 0.384 0.032-0.224-1.056 0.256-2.24l-0.704 0.704q-1.12 1.12-1.504 1.728-0.64 0.992-0.864 2.304-0.224 1.472-0.064 3.936 0.224 2.976 2.208 5.152 1.664 1.824 4.288 2.848 2.272 0.896 4.4 0.896t4.56-0.96q2.688-1.056 4.448-2.848 2.080-2.112 2.432-4.736 0.256-2.144-0.48-4.576zM15.712 4.192q0.544 0.48 1.056 0.928 1.28 1.152 2.432 2.272 1.664 1.6 2.848 2.944-0.288-0.032-0.512-0.096-0.896-0.256-1.344-0.416t-0.96-0.448q-0.352-0.192-0.16 0.064 0.128 0.192 0.64 0.8l0.608 0.704q0.128 0.192 0.256 0.48l-0.608-0.832q-0.16-0.256-1.12-0.896-0.672-0.48-0.992-0.704-0.512-0.416-0.736-0.768-0.96-1.376-1.28-2.848-0.16-0.736-0.128-1.184v0zM6.656 21.12l-0.48-2.944 0.416 0.896q0.544 1.056 1.152 1.92 0.832 1.248 1.696 1.952-0.48 0.128-0.608 0.672-0.128 0.416-0.16 0.8-0.832-0.992-1.504-2.24-0.352-0.64-0.512-1.056v0zM25.344 21.44q0 0.416-0.288 0.864 0.128-2.048-0.448-2.048-0.288 0-0.736-0.032l-0.416-0.032-0.8 1.216q-0.864 1.28-1.12 1.536-0.16 0.16-0.544 0.288-0.288 0.128-0.448 0.224-0.224 0.16-0.384 0.448-0.192 0.352-0.544 0.576-0.128 0.096-0.176 0.16t-0.048 0.208-0.16 0.432q-0.128 0.224-0.112 0.304t0.272 0.048q0.384-0.064 0.512-0.032t0.352 0.224l0.128 0.128q0.128 0.096 0.384 0.16-1.44 1.024-2.88 1.312-1.184 0.256-2.528 0.064-0.8-0.128-2.336-0.576l-1.12-0.288q-1.152-0.32-2.24-1.248l1.28 0.8 1.44 0.256 0.16-0.128q0.128-0.192 0.224-0.448 0.16-0.352 0.16-0.768t0.16-0.672q0.544 0.128 1.088 0.224-0.48 0.576-0.576 1.12-0.064 0.288-0.384 0.512-0.128 0.128-0.112 0.192t0.336 0.224q0.672 0.352 0.896 0.448 0.32 0.096 0.704 0.096h0.128q0.48 0 0.672-0.032 0.288-0.128 0.384-0.48t0.704-2.080q2.176-0.32 4.032-1.728 1.728-1.312 2.272-2.944 0.768-2.144-0.448-4.928l-0.032-0.032q0.8 0.416 1.248 0.576t0.704 0.192q0.32 0.064 0.768 0.064 0.256 0.8 0.352 1.472 0.192 1.504 0.064 2.336-0.064 0.48-0.304 0.944t-0.24 0.848z"></path>
</svg>
