<svg version="1.1" xmlns="http://www.w3.org/2000/svg" width="32" height="32" viewBox="0 0 32 32">
    <title>Armoury_Head1</title>
    <path d="M22.816 23.168q-0.32 0.128-0.64 0.288-0.8 0.32-1.76 0.608-1.344 0.416-2.784 0.672-1.824 0.352-3.68 0.448-2.208 0.128-4.448-0.096-3.648-0.352-5.184-0.96-1.184-0.512-1.056-1.184 0.064-0.384 0.672-0.992l0.224-0.192q0.352-0.416 1.12-1.056l0.704-0.544 0.032-0.288q0.032-0.384 0.096-0.832 0.096-0.576 0.32-1.152 0.224-0.704 0.608-1.376 0.416-0.768 0.992-1.44 0.672-0.736 1.536-1.344 0.928-0.672 2.112-1.12 1.312-0.48 2.848-0.704t3.104 0.032q1.92 0.288 3.456 1.216 1.792 1.088 2.816 2.976 0.064-0.576 0.128-1.632 0.064-0.8 0.096-1.184 0.096-0.608 0.256-1.056 0.032-0.096 0.064-0.448 0.064-0.512 0.128-0.608 0.352-0.512 0.8-1.472 0.32-0.768 0.544-1.024 0.576-0.8 0.16 0.384-0.192 0.608-0.512 1.376v0l2.176-4.224q-0.064 0.928-0.48 2.624-0.416 1.856-0.768 2.432 0.192-0.128 0.576-0.832 0.192-0.352 0.352-0.672v0 0.352q-0.032 0.48-0.192 0.96-0.256 0.704-0.768 1.376-0.384 0.48-0.896 0.992 0.48-0.256 1.088-0.832l0.512-0.512-0.192 0.512q-0.256 0.608-0.672 1.152-0.512 0.736-1.248 1.184 0.544-0.128 0.96-0.16l0.32-0.032-0.448 0.192q-0.512 0.256-0.896 0.512-0.544 0.352-0.768 0.736-0.128 0.32-0.064 0.608 0.032 0.16 0.192 0.288l0.128 0.096-0.608-0.256q-0.768-0.32-1.632-0.576-1.216-0.352-2.4-0.544-1.504-0.224-2.912-0.16-1.664 0.064-3.168 0.544-2.88 0.928-4.48 2.016-0.8 0.544-1.024 0.896v0l0.128-0.064q2.080-1.056 4.448-1.568 4.512-0.96 9.472 0.064 3.616 0.736 5.216 2.112 1.152 0.992 1.184 2.208 0 0.608-0.224 1.024l-5.088 1.152 0.928-0.32q1.088-0.384 1.76-0.672 0.96-0.448 0.992-0.704t-0.256-0.672q-0.416-0.608-1.312-1.088-1.184-0.608-3.008-0.928-2.24-0.384-5.312-0.288-2.784 0.064-5.344 0.736-1.984 0.512-3.584 1.28-1.184 0.576-1.52 0.896t-0.304 0.624 0.384 0.304q0.064 0 0.416 0.128 1.984 0.672 4.448 0.832 4.64 0.288 11.136-1.024z"></path>
</svg>
