<svg version="1.1" xmlns="http://www.w3.org/2000/svg" width="32" height="32" viewBox="0 0 32 32">
<title>Armoury_Hands1</title>
<path d="M14.336 22.976l0.096 0.032q-0.032-0.032-0.064-0.032h-0.032zM14.944 23.072l-0.512-0.064q0.128 0.096 0.048 0.544t0.208 1.696q0.128 0.64 0.288 1.184v0q0.288-0.192 0.384-0.304t0.208-0.288 0.208-0.336q-0.448-0.192-0.704-0.608-0.16-0.352-0.192-0.8-0.032-0.352 0.032-0.704zM5.024 22.208l-0.032-0.032zM11.232 12.672q-0.864 1.344-1.248 2.656-0.192 0.672-0.192 1.024l-0.672 1.44-0.416-1.024-0.576 0.256-0.128 1.728-0.608-0.832-0.48 0.448 0.128 0.416q0.192 0.512 0.576 1.024 0.544 0.768 1.344 1.472 1.024 0.896 2.432 1.664-0.128 0.768-0.192 1.824l-0.064 0.864q-0.096-0.032-0.448-0.096-0.992-0.16-1.728-0.48-1.312-0.576-2.464-1.856-0.032-0.256 0.048-0.416t0.208-0.256l0.096-0.032 0.608 0.512q0.736 0.576 1.312 0.896 0.8 0.48 1.184 0.352 0.096-0.512 0.256-1.216l-0.448-0.224q-0.544-0.256-1.024-0.608-0.704-0.512-1.184-1.088-0.608-0.704-0.896-1.504l-0.064 0.48q-0.064 0.864-0.192 1.216-0.192 0.608-0.64 0.768-0.64 0.256-0.736 0.128l0.16 0.608 0.448 0.544q0.576 0.672 1.248 1.248 0.96 0.832 1.984 1.376 1.248 0.672 2.528 0.864 1.536 0.256 3.040-0.128-0.544-0.512-0.64-1.632-0.064-0.928 0.192-2.112-0.544-0.736-1.088-2.176v0l1.824 1.888 1.088-0.352-0.288-0.576 0.736-0.096q0.864-0.096 1.472-0.128 0.896-0.032 1.184 0.128 0.64-0.32 3.296-1.952l0.64-0.96q0.768-1.184 1.344-2.176 0.8-1.376 1.152-2.208 0.128-0.48-0.032-0.928-0.096-0.256-0.224-0.384l-0.992 0.512-0.736 0.768q-0.736 0.832-0.832 1.248-0.096 0.32-0.56 0.8t-1.040 0.832q-0.672 0.384-1.216 0.416 0.064-0.64 0.992-2.272 0.448-0.832 0.896-1.504l2.4-2.976 1.92-1.984 0.352-0.352q0.416-0.416 0.576-0.864 0.224-0.608-0.096-1.12-0.224-0.096-0.48-0.064-0.192 0.032-0.416 0.096l-0.16 0.096-3.68 2.816-2.368 2.496-1.152 1.12-0.224 0.032q-0.224 0.032-0.304-0.080t0.144-0.496q0.512-0.8 1.792-2.496l1.984-2.080 0.704-0.224q0.832-0.256 1.408-0.544 0.8-0.352 0.928-0.672 0.192-0.416 0.192-0.832 0-0.192-0.064-0.288l-0.448-0.352-1.152 0.512q-1.344 0.576-2.24 0.896-0.608 0.256-1.344 0.928-0.512 0.48-1.024 1.12l-0.416 0.544-2.112 2.464 0.608-1.216 1.76-2.048 1.408-1.696 0.96-0.288q1.024-0.32 1.232-0.544t0.24-0.608q0.032-0.192 0-0.352l-0.672-0.288-1.184 0.512-1.632 0.096-3.296 2.016q-0.448 0.416-1.76 1.952-1.888 2.208-2.752 3.584z"></path>
</svg>
