<svg version="1.1" xmlns="http://www.w3.org/2000/svg" width="32" height="32" viewBox="0 0 32 32">
    <title>Armoury_Ring1</title>
    <path d="M26.848 7.808q-1.248-2.208-4.032-2.4-2.336-0.128-6.048 1.152-2.080 0.736-4.384 2.176-1.152 0.704-1.888 1.28v0l0.032 0.032q-0.768 0.8-1.568 1.856-1.6 2.080-2.496 4-1.632 3.552-1.696 5.92-0.096 2.784 1.984 4.224 1.664 1.152 5.056-0.352 2.4-1.088 5.44-3.36 1.504-1.152 2.56-2.080l0.928-0.928q1.152-1.152 2.176-2.304 1.44-1.664 2.4-3.136 1.216-1.824 1.632-3.264 0.512-1.728-0.096-2.816zM18.528 18.848q-0.64 0.544-1.28 1.056-1.568 1.28-3.008 2.24-1.984 1.312-3.392 1.856-1.76 0.64-2.528 0-0.864-0.736-0.32-2.432 0.416-1.312 1.824-3.552 0.896-1.44 2.432-3.008 0.832-0.896 1.504-1.472h0.032q0.672-0.672 1.568-1.344 1.696-1.344 3.2-2.080 2.368-1.184 3.68-1.472 1.76-0.384 2.432 0.544 0.736 1.024-0.864 3.552-1.152 1.792-3.328 4.128-1.088 1.184-1.952 1.984v0z"></path>
</svg>
