<svg version="1.1" xmlns="http://www.w3.org/2000/svg" width="32" height="32" viewBox="0 0 32 32">
<title>Armoury_Legs</title>
<path d="M15.936 8l-3.584 0.736 0.384-0.096q0.48-0.128 0.96-0.32 0.672-0.256 1.184-0.608-0.8-0.064-2.432-0.16l-1.472-0.064h5.056v-2.592h-1.056l0.096-0.928h0.96l-0.096-0.48-2.144-0.16q-2.4-0.16-3.68-0.352-0.704-0.096-1.088-0.064-0.32 0-0.4 0.080t-0.016 0.176l0.032 0.096 0.8 0.48v0.256l-0.576 0.256 0.48 0.576-0.8 1.184-1.056 0.256v0.992l1.056 0.704-0.192 2.432 0.416 1.6q0.448 1.952 0.768 3.648 0.352 0.768 0.704 1.344l0.256 0.416-0.672 0.48 0.672 0.64-0.064 0.192q-0.096 0.256-0.16 0.608-0.064 0.48-0.032 1.056 0.064 0.768 0.256 1.664 0.256 1.44 0.736 2.88 0.192 0.544 0.256 0.8 0.064 0.384 0.064 0.8 0 0.736-0.384 1.312-0.192 0.288-0.384 0.416v0l0.256 0.096q0.32 0.128 0.736 0.192 0.576 0.064 1.216 0.032 0.832-0.064 1.728-0.288-0.416-0.416-0.704-1.12-0.16-0.32-0.224-0.576l0.256-1.888q0.288-2.048 0.544-2.88 0.16-0.608 0.128-1.408-0.032-0.48-0.16-1.216-0.096-0.512-0.064-0.608 0.064-0.128 0.32-0.32l0.256-0.16-0.48-0.832 0.384-1.76 0.16-2.88q0.192-2.912 0.384-3.168t0.192-0.512q0-0.096-0.064-0.192zM16 8l3.584 0.736-0.384-0.096q-0.48-0.128-0.96-0.32-0.672-0.256-1.184-0.608 1.28-0.128 3.904-0.224v0h-5.056v-2.592h1.056l-0.096-0.928h-0.96l0.096-0.48 2.144-0.16q2.4-0.16 3.68-0.352 0.704-0.096 1.088-0.064 0.32 0 0.4 0.080t0.016 0.176l-0.032 0.096-0.8 0.48v0.256l0.576 0.256-0.48 0.576 0.8 1.184 1.056 0.256v0.992l-1.056 0.704 0.192 2.432-0.416 1.6q-0.448 1.952-0.768 3.648-0.576 1.216-0.96 1.76l0.672 0.48-0.672 0.64 0.064 0.192q0.096 0.256 0.16 0.608 0.064 0.48 0.032 1.056-0.064 0.768-0.256 1.664-0.256 1.44-0.736 2.88-0.192 0.544-0.256 0.8-0.064 0.384-0.064 0.8 0 0.512 0.192 0.96 0.128 0.32 0.384 0.576l0.192 0.192-0.256 0.096q-0.32 0.128-0.736 0.192-0.576 0.064-1.216 0.032-0.832-0.064-1.728-0.288 0.32-0.32 0.544-0.736 0.16-0.32 0.288-0.672l0.096-0.288-0.256-1.888q-0.288-2.048-0.544-2.88-0.16-0.608-0.128-1.408 0.032-0.48 0.16-1.216 0.096-0.512 0.064-0.608-0.096-0.192-0.576-0.48l0.48-0.832-0.384-1.76-0.16-2.88q-0.192-2.912-0.384-3.168-0.128-0.192-0.16-0.336t0-0.272l0.032-0.096zM15.456 4.128h1.152v0.544h-1.152v-0.544z"></path>
</svg>
