<svg version="1.1" xmlns="http://www.w3.org/2000/svg" width="32" height="32" viewBox="0 0 32 32">
<title>Armoury_Earrings1</title>
<path d="M26.016 6.976q-0.352 0.064-2.944 0.992 1.056 1.12 1.856 2.56t1.152 2.816q0.512 2.176-0.144 4.72t-2.224 4.656q-1.632 2.24-3.776 3.296-1.632 0.8-4.032 0.784t-4.704-0.88q-2.496-0.928-4.096-2.624-1.824-1.92-2.24-4.48-0.288-1.76 0.224-3.68 0.448-1.728 1.36-2.976t1.776-1.344q0.992-0.096 1.776 0.56t1.248 1.968 0.496 3.136q0.064 2.048 1.12 3.68 0.992 1.536 2.608 2.192t3.344 0.176q1.984-0.544 3.552-2.080 1.408-1.376 2.128-3.136t0.56-3.232q-0.128-0.992-0.992-1.856-0.704-0.704-1.824-1.312-0.8-0.448-1.76-0.768l-0.8-0.256-0.192-0.608-4.64 1.728 0.096 0.128q0.064 0.128 0.096 0.384 0.064 0.32 0 0.8-0.064 0.544-0.288 1.28-0.256 0.928-0.768 1.632-0.352 0.544-0.832 0.928l-0.384 0.256-0.064-1.088q-0.16-1.312-0.384-2.304-0.32-1.376-0.768-1.92-0.576-0.704-1.12-1.12-0.448-0.352-0.832-0.448-0.256-0.096-0.48-0.064l-0.16 0.032q0.064-0.512 0.672-0.992 0.576-0.448 1.328-0.656t1.232-0.080q0.608 0.128 1.184 0.64 0.416 0.352 0.768 0.832l0.288 0.448 4.544-2.016q-0.448-1.728-0.128-1.76 1.216-0.128 2.592 0.704 2.56-1.088 3.168-1.248 0.992-0.288 1.696-0.24t0.832 0.448-0.16 0.832-0.96 0.56z"></path>
</svg>
