<svg version="1.1" xmlns="http://www.w3.org/2000/svg" width="32" height="32" viewBox="0 0 32 32">
    <title>class_job_003</title>
    <path d="M23.968 21.92q-2.080-2.112-4.672-5.152-1.856-2.176-2.72-3.36-1.568-2.016-2.624-3.744l-0.32-0.48q-0.128-0.16-0.704 0.224l-0.096 0.064q-0.192 0.128-0.256 0.048t0.064-0.176l0.576-0.416q0.672-0.512 0.688-0.64t-0.192-0.544-0.496-0.768-0.432-0.352-0.656 0.256l-0.864 0.416q-0.192 0.064-0.224-0.016t0.416-0.432q0.352-0.256 0.384-0.352t-0.24-0.608-0.384-0.56-0.512 0.128-0.752 0.432-0.352 0.4 0.864 1.36q-0.864 0.352-1.664 0.448-0.704 0.096-1.952 0 0.16 0.928 0.704 1.856 0.48 0.8 1.248 1.6l0.096 0.096q-0.064 0.032-0.48-0.288-0.512-0.416-0.992-1.056-0.768-1.024-1.152-2.24-0.544-0.096-1.152-0.416-0.416-0.224-0.8-0.544l-0.32-0.288 0.032 0.416q0.064 0.544 0.224 1.12 0.224 0.832 0.576 1.664 0.48 1.024 1.216 1.952 0.768 1.056 1.824 1.952 0.768 0.608 1.6 1.088l0.672 0.352-0.064-0.672q-0.032-0.8 0.064-1.536 0.16-1.024 0.576-1.76 0.544-0.928 1.376-1.6 1.408 1.856 3.904 5.056l1.44 1.856q2.688 3.392 3.424 4.384 0.8 1.12 1.664 2.496 0.992 1.6 1.216 2.304l0.032 0.032q0.256 0.736 0.32 0.768 0.16 0.032 0.576-0.384t0.704-0.96q0.64-1.216 0.512-1.696-0.032-0.128-0.512-0.512-0.864-0.64-1.408-1.216zM15.008 14.176q-0.032-0.032-0.096-0.016t-0.096 0.048q-3.648 4.512-6.784 7.712-0.544 0.576-1.376 1.216-0.512 0.384-0.544 0.512-0.128 0.48 0.512 1.696 0.288 0.544 0.704 0.96t0.576 0.384q0.096-0.032 0.352-0.8 0.256-0.704 1.216-2.304 0.864-1.376 1.648-2.464t3.664-4.704l0.896-1.152q0.096-0.096 0.032-0.192zM28 6.816q-0.16 0.16-0.32 0.288-0.384 0.32-0.8 0.544-0.608 0.32-1.152 0.416-0.384 1.216-1.152 2.24-0.32 0.448-0.704 0.8-0.288 0.256-0.512 0.4t-0.256 0.144l0.096-0.096q0.768-0.8 1.248-1.6 0.544-0.928 0.704-1.856-1.248 0.096-1.952 0-0.8-0.096-1.664-0.448 0.864-1.216 0.864-1.36t-0.352-0.384-0.752-0.432-0.528-0.144-0.384 0.56-0.224 0.608 0.384 0.352q0.416 0.352 0.4 0.416t-0.208 0.032l-0.864-0.416q-0.512-0.224-0.656-0.24t-0.432 0.336-0.496 0.768-0.192 0.544 0.688 0.64l0.576 0.416q0.128 0.128 0.064 0.192t-0.256-0.064l-0.096-0.064q-0.576-0.384-0.704-0.224-0.064 0.096-0.512 0.736-0.96 1.504-1.536 2.24-0.096 0.16 0.032 0.288l0.672 0.832q0.032 0.032 0.112 0.032t0.112-0.064q0.608-0.736 2.656-3.456 0.832 0.704 1.376 1.6 0.416 0.736 0.576 1.76 0.096 0.736 0.064 1.536l-0.064 0.672 0.672-0.352q0.832-0.48 1.6-1.088 1.056-0.896 1.824-1.92 0.736-0.96 1.216-1.984 0.352-0.832 0.576-1.664 0.16-0.576 0.224-1.12z"></path>
</svg>
