<svg version="1.1" xmlns="http://www.w3.org/2000/svg" width="32" height="32" viewBox="0 0 32 32">
    <title>class_job_033</title>
    <path d="M16.608 10.496q-3.68 0-7.328 0.032l-0.384-0.032q-0.384 0-0.544 0.032-0.224 0.064-0.336 0.336t-0.112 0.88q-0.064 1.92 0.032 5.472 0 0.384 0.272 0.624t0.672 0.224 0.672-0.256 0.272-0.624q0.064-0.928 0.096-2.816v-0.032q0-0.896 0.144-1.28t0.432-0.48q0.16-0.032 0.672 0h0.096q1.536 0.096 3.072 0.064 0.544-0.032 0.8 0.096 0.352 0.128 0.512 0.56t0.16 1.328q0 0.672 0.048 2.032t0.048 2.032v1.6q0.032 1.344-0.032 1.696-0.096 0.48-0.544 0.576-0.288 0.096-1.472 0.064-1.056-0.064-1.76-0.064h-0.512q-0.992 0.032-1.248-0.032-0.352-0.096-0.448-0.416-0.032-0.224-0.032-1.056l0.032-1.056q0-0.064-0.16-0.192l-0.192-0.224q-4 2.496-5.12 6.784 1.728-1.76 3.008-2.816l0.224-0.192q0.352-0.384 0.48-0.416 0.256-0.032 0.096 0.704-0.128 0.672 0.64 0.896 0.448 0.128 1.472 0.128h0.288q1.344 0.032 4.064 0h1.024q1.056-0.032 1.504-0.176t0.608-0.592 0.192-1.44q0.032-3.008 0.096-8.96v-0.224q0-0.544-0.096-1.408-0.128-1.408-1.408-1.376zM21.92 11.2q-0.224-0.288-0.256-0.768-0.032-0.288 0.032-0.864 0.032-0.384 0.032-0.576-0.064-1.088-0.192-1.44-0.128-0.448-0.608-0.576-0.352-0.096-1.504-0.096l-4.608 0.032h-1.696q-0.512 0.032-0.768 0.288t-0.256 0.736q0.032 0.832 0.928 0.896 0.384 0.032 1.12 0.064l4.384 0.096q0.672 0 0.992 0.352t0.288 1.056q-0.032 1.632 0 4.928v4.032q0 0.384 0.096 0.576 0.16 0.256 0.512 0.288 0.896 0.128 1.152-0.64 0.128-0.48 0.128-0.992l0.032-0.608q0.032-1.248-0.064-1.856 0.128-1.536 0.416-2.304 0.352-0.896 1.248-1.504 0.608-0.384 1.888-1.088 1.536-0.832 2.368-1.408-1.6-0.352-3.168 0.064-1.472 0.384-2.496 1.312z"></path>
</svg>
