<svg version="1.1" xmlns="http://www.w3.org/2000/svg" width="32" height="32" viewBox="0 0 32 32">
<title>class_job_007</title>
<path d="M7.296 16.416q0.352 0 0.576 0.096 0.32 0.128 0.64 0.432t0.512 0.688q0.064 0.128 0.096 0.128l0.032-0.064q0.288-0.352 1.024-0.384 0.864-0.032 1.728 0.544 0.256 0.192 0.672 0.768 0.192 0.288 0.224 0.272t-0.032-0.256-0.192-0.496l-0.064-0.096q-0.128-0.256-0.224-0.416-0.224-0.288-0.56-0.528t-0.752-0.368q-0.256-0.064-0.416-0.128-0.224-0.128-0.48-0.384-0.8-0.8-0.64-1.344 0.064-0.16 0.384-0.32v0q-0.192-0.096-0.384-0.096-0.416 0-0.768-0.16-0.288-0.096-0.56-0.592t-0.336-1.008q-0.032-0.192-0.016-0.608t0.016-0.608q-0.064-0.384-0.224-0.672-0.608-0.864-1.44-1.536-0.32-0.256-0.672-0.384 0.096 0.224 0.288 0.4t0.352 0.56q0.256 0.576 0.256 1.184 0 0.32-0.288 0.944t-0.288 0.944 0.224 0.672q0.128 0.192 0.448 0.512 0.256 0.288 0.336 0.416t0.080 0.336-0.064 0.256-0.304-0.048-0.592-0.32q-0.16-0.128-0.464-0.432t-0.496-0.432q-0.288-0.224-0.672-0.288 0.032 0.128 0.128 0.192v0.032q0.704 0.64 0.896 1.184 0.064 0.192 0.064 0.592t0.096 0.528q0.128 0.192 0.48 0.528t0.448 0.336l0.032-0.064q0.256-0.512 0.896-0.512zM10.432 8.448q0.288 0.416 0.672 1.216t0.496 1.232 0.112 1.072q0.032 0.544-0.032 0.704-0.032 0.256-0.16 0.48v0q0-0.448-0.32-1.088-0.192-0.416-0.864-0.96l-0.192-0.16q-0.16-0.128-0.352-0.192l-0.16-0.032 0.352 0.48q0.32 0.416 0.448 0.768 0.256 0.608 0.256 1.408 0 0.352-0.288 0.928l-0.128 0.224q-0.032 0.16 0.048 0.512t0.224 0.544 0.448 0.368 0.656 0.256 0.832 0.368 0.896 0.72 0.832 0.928 0.56 0.752 0.208 0.512l0.096-0.128q0.064-0.224-0.032-0.48v-0.032q-0.48-1.664-1.28-2.72-0.48-0.608-0.768-1.28-0.256-0.576-0.288-1.056-0.064-0.64 0.352-1.296t0.384-1.024-0.128-0.688l0.096 0.064q0.128 0.128 0.192 0.32 0.064 0.224 0.064 0.544 0 0.128-0.128 0.544-0.224 0.8-0.144 1.232t0.816 1.328q0.224 0.288 0.288 0.352 0.192 0.32 0.256 0.736v0q0.064-0.16 0.064-0.32 0-0.096 0.080-0.464t0.192-0.576 0.384-0.48 0.4-0.288 0.256 0.112v0q0.096-0.576 0.032-1.152-0.064-0.768-1.248-1.888-0.64-0.576-1.024-1.472-0.416-0.96-0.448-2.080-0.064-1.376 1.312-2.72l0.096-0.096 0.416-0.48-0.416 0.224q-0.544 0.32-1.088 0.8-0.704 0.64-1.44 1.76-0.288 0.448-0.352 0.928-0.096 0.416 0 0.672 0.032 0.096 0.176 0.432t0.176 0.4q0.032 0.224 0.032 0.416l-0.16-0.32q-0.192-0.352-0.352-0.544-0.32-0.32-0.704-0.576-0.256-0.192-0.864-0.512-0.384-0.224-0.736-0.32l-0.256-0.096 0.384 0.384q0.48 0.416 0.768 0.8zM16.416 16.032q0.032 0.224-0.144 0.432t-0.336 0.208-0.288-0.16q-0.064-0.096-0.096-0.192v0q-0.064 0.032-0.192 0.288t-0.128 0.608q0 0.576 0.448 1.184l0.576 0.8 0.032-0.128q0.032-0.128 0-0.208t-0.096-0.176q-0.128-0.192-0.128-0.416-0.032-0.48 0.256-0.864 0.096-0.16 0.24-0.256t0.256-0.032 0.048 0.32l-0.128 0.256q0.224-0.032 0.352-0.192 0.48-0.48 0.544-1.056t-0.256-0.896q-0.512-0.512-0.448-0.896 0.032-0.288 0.192-0.64 0.128-0.32 0.288-0.544l0.128-0.224q0.32-0.448 0.32-0.576-0.288 0.288-0.576 0.608-0.416 0.48-0.8 1.056-0.128 0.224-0.304 0.592t-0.176 0.464l0.064 0.064q0.32 0.224 0.352 0.576zM19.264 13.664q0.128-0.16 0.448-0.48 0.608-0.576 0.832-0.832 0.384-0.48 0.512-0.928 0.064-0.224 0.064-0.768v-0.256q0.096 0.128 0.128 0.288 0.096 0.416 0.032 0.832-0.032 0.288-0.192 0.688t-0.416 0.752-0.688 0.784-0.592 0.528l-0.384 0.224 0.096 0.128q0.128 0.16 0.128 0.32-0.032 0.64-0.448 0.928-0.544 0.416-0.64 0.56t-0.064 0.336q0.096-0.128 0.256-0.208t0.32 0.048q0.064 0.064 0.048 0.208t-0.080 0.24l-0.544 0.736q-0.256 0.32-0.368 0.72t-0.016 0.784l0.096-0.288q0.16-0.352 0.32-0.608 0.576-0.832 1.248-1.184 0.48-0.256 1.088-0.416l0.064-0.352q0.096-0.416 0.32-0.672 0.224-0.32 0.576-0.528t0.608-0.208l0.16-0.032q0.448-0.032 0.576-0.064t0.352-0.192q0.288-0.192 0.48-0.416 0.288-0.32 0.416-0.704l0.064-0.288-0.16 0.192q-0.224 0.224-0.352 0.288-0.192 0.128-0.832 0.16l-0.256 0.032q-0.224 0.064-0.416 0.224l-0.288 0.192q0-0.128 0.064-0.272t0.256-0.336q0.256-0.32 0.544-0.448 0.704-0.32 1.024-0.704 0.224-0.224 0.32-0.544 0.032-0.192 0.064-0.56t0.064-0.528q0.128-0.736 0.864-1.376 0.64-0.512 1.408-0.768-0.256-0.032-0.512-0.032-0.576 0.096-1.12 0.32-0.768 0.288-1.28 0.928l-0.064 0.064q-0.192 0.256-0.32 0.352-0.224 0.16-0.448 0.096-0.416-0.128-0.448-0.768l0.032-0.416q0-0.544-0.016-0.8t-0.272-0.768-0.544-0.928q-0.416-0.608-0.96-1.152-0.448-0.416-0.992-0.672 0.128 0.224 0.288 0.384v0q0.448 0.416 0.64 0.832 0.288 0.736 0.288 1.568 0 0.992-0.512 1.728-0.256 0.32-0.784 0.816t-0.56 0.688q-0.064 0.416 0.128 0.768 0.128 0.32 0.064 0.672v0.032q-0.064 0.544-0.256 0.832l-0.736 1.088q0 0.032 0.512-0.288t0.768-0.576zM26.784 14.208q-0.192 0.192-0.416 0.48l-0.16 0.256q-0.192 0.224-0.384 0.32-0.128 0.032-0.384 0.064l-0.096 0.032q-0.256 0.032-0.544 0 0.192-0.224 0.352-0.512 0.096-0.192 0.144-0.608t0-0.864-0.192-0.848-0.288-0.624-0.368-0.384l0.128 0.288q0.064 0.096 0.080 0.56t-0.048 0.976q-0.032 0.32-0.16 0.576-0.096 0.16-0.288 0.4t-0.288 0.4q-0.224 0.352-0.528 0.608t-0.816 0.48q-0.992 0.448-1.568 1.024-0.224 0.224-0.448 0.64l-0.192 0.416q0.224-0.16 0.448-0.352 0.128-0.096 0.496-0.288t0.656-0.272 0.736-0.064 0.704 0.112q0.384 0.128 0.704 0.352 0.128-0.352 0.352-0.64 0.352-0.48 0.832-0.544l0.192-0.032q0.32 0 0.48-0.032 0.288-0.096 0.48-0.288 0.288-0.256 0.448-0.768l0.128-0.384q0.128-0.256 0.448-0.576l0.32-0.288q-0.544 0-0.96 0.384zM23.712 21.44q-0.32 0-0.576 0.352-0.128 0.192-0.288 0.672-0.128 0.32-0.208 0.448t-0.256 0.224-0.336 0q-0.288-0.224-0.096-0.8 0.096-0.256 0.672-0.864l0.256-0.32q0.8-0.928 0.8-1.824 0-0.576-0.352-0.944t-0.928-0.368q-0.992 0-1.472 0.672-0.032 0.032-0.080 0.032t-0.080-0.032q-0.128-0.224-0.304-0.384t-0.368-0.192-0.256 0.032l0.096 0.128q0.096 0.16 0.064 0.32v0q-0.064 0.352-1.056 0.8-0.704 0.32-1.664 0.416-0.544 0.064-1.408 0.064h-0.064q-0.864 0-1.408-0.064-0.96-0.096-1.664-0.416-1.024-0.448-1.056-0.8h-0.032q-0.032-0.224 0.192-0.448v0q-0.096-0.064-0.272-0.032t-0.368 0.192-0.288 0.384q-0.032 0.032-0.096 0.032t-0.064-0.032q-0.512-0.672-1.472-0.672-0.576 0-0.944 0.368t-0.368 0.944q0 0.864 0.832 1.824l0.256 0.32q0.576 0.608 0.64 0.864 0.224 0.576-0.096 0.8-0.16 0.096-0.336 0t-0.24-0.224-0.192-0.448q-0.16-0.48-0.32-0.672-0.224-0.352-0.576-0.352-0.672 0-0.864 0.608-0.128 0.352 0 0.608t0.256 0.256v-0.192q0.032-0.192 0.128-0.288 0.16-0.192 0.384-0.192 0.16 0 0.272 0.128t0.176 0.32q0.192 0.608 0.448 0.864t0.464 0.368 0.464 0.112 0.448-0.096l0.096-0.096q0.032 0.416 0.192 0.8 0.224 0.576 0.736 0.928 0.192 0.128 0.528 0.304t0.528 0.304q0.384 0.256 0.704 0.608v0.256q0 0.16 0.256 0.352 0.32 0.224 0.864 0.384 0.768 0.224 1.84 0.224t1.808-0.224q0.544-0.16 0.864-0.384 0.256-0.192 0.256-0.352v-0.256q0.32-0.352 0.704-0.608 0.192-0.128 0.528-0.304t0.528-0.304q0.512-0.352 0.736-0.928 0.128-0.384 0.16-0.8l0.128 0.096q0.16 0.096 0.416 0.096t0.48-0.112 0.48-0.368 0.448-0.864q0.032-0.16 0.16-0.288t0.256-0.128q0.224-0.032 0.384 0.16 0.096 0.096 0.128 0.32l0.032 0.16q0.128 0 0.256-0.256t0-0.608q-0.224-0.608-0.896-0.608zM10.944 22.496q-0.128 0.224-0.384 0.352v-0.16q0-0.192-0.064-0.384-0.128-0.32-0.416-0.64l-0.128-0.192q-0.608-0.704-0.704-1.104t0.048-0.736 0.368-0.432q0.448-0.192 1.024 0.288 0.288 0.256 0.448 0.576 0.096 0.224 0.096 0.416t-0.064 0.288-0.16 0.096q-0.192 0-0.256-0.096t-0.096-0.192q-0.192 0-0.16 0.4t0.416 0.528q0.16 0.032 0.32 0l0.032 0.128q0 0.16-0.064 0.352-0.064 0.256-0.256 0.512zM21.12 22.848q-0.256-0.128-0.416-0.368t-0.224-0.496q-0.064-0.192-0.064-0.352l0.032-0.16q0.16 0.064 0.32 0.032 0.384-0.128 0.4-0.528t-0.144-0.4q-0.032 0.096-0.096 0.192t-0.256 0.096q-0.096 0-0.16-0.096t-0.064-0.288 0.096-0.416q0.16-0.32 0.448-0.576 0.576-0.48 1.024-0.288 0.224 0.096 0.368 0.432t0.048 0.736-0.704 1.104l-0.16 0.192q-0.256 0.32-0.384 0.64-0.064 0.224-0.064 0.384v0.16z"></path>
</svg>
