<svg version="1.1" xmlns="http://www.w3.org/2000/svg" width="32" height="32" viewBox="0 0 32 32">
<title>class_job_019</title>
<path d="M24.224 4.448q-0.16 0-0.448 0.32-0.192 0.192-0.592 0.688t-0.56 0.688q-0.288 0.32-0.448 0.32h-4.416q-0.128 0-0.64-1.088l-0.192-0.416q-0.192-0.384-0.448-0.64-0.16-0.192-0.352-0.256l-0.128-0.064-0.128 0.064q-0.192 0.064-0.352 0.256-0.256 0.256-0.448 0.64l-0.192 0.416q-0.512 1.088-0.64 1.088h-4.416q-0.16 0-0.448-0.32-0.16-0.192-0.56-0.688t-0.592-0.688q-0.288-0.32-0.448-0.32-0.448 0-0.832 0.416-0.448 0.448-0.448 1.12v8.256q0 3.072 1.056 5.664 0.992 2.432 2.816 4.16 1.536 1.44 3.68 2.816 1.088 0.672 1.952 1.12v0 0q0.832-0.416 1.952-1.12 2.144-1.376 3.68-2.816 1.824-1.728 2.816-4.16 1.056-2.592 1.056-5.664v-8.256q0-0.672-0.448-1.12-0.384-0.416-0.832-0.416zM15.008 24.576q-0.352-0.192-0.672-0.384-0.832-0.544-1.568-1.184-1.088-0.928-1.888-1.952-0.992-1.28-1.504-3.008-0.384-1.344-0.384-2.56l0.032-7.008h5.984v16.096zM21.12 21.056q-0.8 1.024-1.888 1.952-0.736 0.64-1.568 1.184l-0.672 0.384v-16.096h5.984l0.032 7.008q0 1.216-0.384 2.56-0.512 1.728-1.504 3.008z"></path>
</svg>
