<svg version="1.1" xmlns="http://www.w3.org/2000/svg" width="32" height="32" viewBox="0 0 32 32">
<title>class_job_027</title>
<path d="M24.832 11.104q-0.064-0.128-0.128-0.352-0.128-0.32-0.288-0.416-0.192-0.128-0.816-0.176t-0.816 0.816q-0.096 0.512-0.064 1.632 0.032 0.448 0 0.608-0.032 0.48-0.576 0.672-0.32 0.128-1.088 0.16h-0.032q-0.288 0.032-1.088-0.384-0.48-0.256-1.696-0.96-1.44-0.864-2.144-1.216-0.864-0.416-2.592-1.728-0.992-0.768-2.912-2.336-1.472-1.184-1.792-1.376l-0.512-0.384q-0.608-0.448-0.832-0.512-0.352-0.096-0.608 0.288 1.408 3.296 2.432 6.4 0.832 2.592 1.344 5.024 0.384 1.92 0.576 3.616 0.096 1.248 0.096 2.24l-0.032 0.736-2.912 0.032q-0.736 0-0.88 0.24t0.112 0.848q0.096 0.16 0.96 0.416 0.992 0.288 2.208 0.48 1.568 0.192 3.040 0.128 1.824-0.064 3.36-0.544 1.824-0.544 3.168-1.632 2.656-2.656 3.872-5.344 0.928-2.080 0.96-4.128 0.032-1.152-0.256-2.624zM13.184 22.72q-0.128-3.264-0.64-6.208-0.608-3.52-1.6-5.6l0.8 0.736q0.992 0.896 1.792 1.536 1.152 0.896 1.824 1.152 0.288 0.128 1.152 0.416 1.952 0.672 2.848 1.088 1.536 0.704 1.76 1.376l-0.288 0.448q-0.832 1.344-1.472 2.080-1.088 1.28-2.4 2.016-1.696 0.896-3.776 0.96z"></path>
</svg>
