<svg version="1.1" xmlns="http://www.w3.org/2000/svg" width="32" height="32" viewBox="0 0 32 32">
    <title>class_job_025</title>
    <path d="M25.056 4.672q-0.544 0.384-2.88 2.048-2.176 1.568-2.688 1.952-1.6 1.216-2.272 0.608-0.352-0.32-0.416-0.928-0.032-0.544 0.144-0.992t0.816-0.992l0.16-0.16q0.128-0.128 0.112-0.512t-0.208-0.608q-0.16-0.128-0.672-0.064t-1.152 0.352q-0.704 0.352-1.344 0.832l-0.352 0.288q-1.76 1.344-2.848 2.336-1.472 1.376-3.072 3.296-0.864 1.088-1.504 1.984-1.728 1.44-2.448 3.552t-0.224 4.288 2.080 3.76 3.776 2.080 4.304-0.224 3.52-2.448q0.992-0.704 2.048-1.568 1.856-1.536 3.2-3.008 0.992-1.056 2.304-2.784l0.32-0.384q0.48-0.64 0.832-1.376 0.256-0.64 0.336-1.152t-0.048-0.64q-0.224-0.192-0.608-0.224t-0.512 0.128l-0.16 0.16q-0.544 0.64-0.992 0.816t-0.992 0.112q-0.608-0.032-0.928-0.384-0.608-0.672 0.608-2.272 0.384-0.576 1.952-2.688 1.664-2.336 2.048-2.912 0.32-0.512 0.512-1.664 0.128-0.64 0.16-1.248l0.032-0.032-0.576 0.064q-0.672 0.064-1.216 0.192-0.768 0.192-1.152 0.416zM11.808 25.504q-1.6 0-2.944-0.896t-1.968-2.384-0.304-3.072 1.456-2.736 2.736-1.472 3.088 0.304 2.384 1.968 0.896 2.976q0 1.44-0.72 2.656t-1.936 1.936-2.688 0.72zM21.568 12.096q-0.896 1.344-1.12 2.272-0.288 1.152 0.384 1.888 0.352 0.416 1.28 0.448 0.672 0.032 1.536-0.096l0.736-0.16q-0.32 0.512-0.768 0.96l-0.256 0.32q-0.832 1.088-1.504 1.76-0.864 0.864-2.336 2.080 0.352-1.888-0.224-3.728t-1.936-3.2-3.2-1.936-3.728-0.224q1.216-1.504 2.112-2.368 0.672-0.672 1.728-1.504l0.32-0.256q0.448-0.448 0.992-0.8l-0.16 0.768q-0.16 0.864-0.128 1.536 0.064 0.928 0.48 1.28 0.736 0.672 1.888 0.384 0.928-0.224 2.24-1.12 1.28-0.832 6.336-4.64l-0.032 0.032q-3.84 5.12-4.64 6.304z"></path>
</svg>
