<svg version="1.1" xmlns="http://www.w3.org/2000/svg" width="32" height="32" viewBox="0 0 32 32">
    <title>class_job_009</title>
    <path d="M6.656 14.272q-0.096 0-0.224-0.128l-0.8-1.088q-0.16-0.192 0-0.384l0.16-0.192q0.192-0.192 0.384-0.192h11.2q0.544 0 0.896 0.096 0.288 0.096 0.448 0.224l0.096 0.128q0.128 0.192 0.224 0.112t0.032-0.24l-0.096-0.192q-0.16-0.192-0.448-0.288-0.352-0.192-0.896-0.192h-13.312q-0.128 0-0.224-0.096t-0.096-0.224v-0.96q0-0.128 0.096-0.224t0.224-0.096h15.744q0.128 0 0.288 0.080t0.224 0.208l0.352 0.672q0.16 0.352 0.288 0.352h6.56q0.128 0 0.192 0.096t0.032 0.224l-0.16 0.416q-0.224 0.544-0.512 1.056-0.416 0.704-0.896 1.28-0.608 0.736-1.312 1.184-0.64 0.416-1.536 0.768-0.736 0.32-1.424 0.48t-0.8 0.096-0.176-0.304-0.224-0.208-0.16 0.384v0.032q0 0.128-0.080 0.176t-0.336 0.112q-0.16 0.064-0.416 0.224-0.352 0.288-0.544 0.672-0.288 0.512-0.272 1.136t0.432 1.168q0.352 0.448 0.784 0.64t0.912 0.256q0.128 0.032 0.224 0.128t0.096 0.224v1.952q0 0.128-0.096 0.224t-0.224 0.096h-3.456q-0.128 0-0.224-0.096t-0.096-0.224v-0.384q0-0.288-0.464-0.608t-1.136-0.544-1.184-0.224q-0.8 0.032-1.408 0.16-0.416 0.096-0.704 0.288l-0.224 0.128q-0.096 0.064-0.224 0.032l-0.096-0.064-0.128-0.224q-0.096-0.256-0.096-0.384 0-0.448 0.544-0.992 0.288-0.256 0.544-0.384t0.672-0.24 0.128-0.176h-0.192q-0.224 0-0.448 0.064-0.352 0.096-0.64 0.288-1.056 0.672-1.056 1.792v1.472q0 0.128-0.080 0.224t-0.208 0.096h-3.392q-0.096 0-0.192-0.096t-0.096-0.224v-1.856q0-0.096 0.112-0.24t0.24-0.176l0.384-0.192q0.448-0.256 0.8-0.608 0.544-0.48 0.832-1.088 0.384-0.768 0.384-1.664 0-1.184-0.608-2.112-0.544-0.768-1.408-1.216-0.768-0.416-1.504-0.416z"></path>
</svg>
