<svg version="1.1" xmlns="http://www.w3.org/2000/svg" width="32" height="32" viewBox="0 0 32 32">
<title>class_job_012</title>
<path d="M18.368 6.144q-0.064 0-0.256 0.032-0.352 0.032-0.512 0.128-0.256 0.096-0.336 0.384t0.112 0.464 0.544 0.144q0.256-0.064 0.352-0.256 0.064-0.096 0.096-0.352t0.096-0.336 0.176-0.144 0.208 0l0.096 0.16q0.256 0.384 0.544 0.512t0.832 0.224q0.64 0.096 1.184 0.032 0.672 0.288 1.44 0.304t1.504-0.208l0.16 0.16q0.224 0.224 0.352 0.32 0.224 0.128 0.464 0.16t0.496-0.192q0.16-0.128 0.32-0.192 0.256 0.096 0.544 0.064 0.16 0 0.416-0.080t0.352-0.080q0.256 0.16 0.384 0.48t0.032 0.768q-0.032 0.192-0.224 0.448-0.128 0.16-0.448 0.48-0.416 0.384-0.608 0.64-0.32 0.384-0.448 0.768 0 0.192 0.080 0.224t0.208-0.016 0.192-0.016 0.064 0.224q-0.512 0.416-0.864 0.896-0.352 0.544-0.576 1.248-0.128 0.384-0.608 0.768 0.064 0.384 0 0.992l-0.032 0.384q-0.384 0.512-0.576 1.632-0.128 0.736-0.224 2.336-0.032 0.288 0.128 0.672l0.096 0.32q0.128 1.728 0.928 2.592 0 0.224-0.16 0.288-0.064 0-0.112 0.064t-0.048 0.288q0 0.32 0.16 0.512 0.096 0.096 0.32 0.224h0.032l0.096 0.256q0.064 0.256 0.16 0.384 0.832 0.64 1.568 1.408-0.128 0.64-0.64 1.056-0.32 0.064-0.576-0.064-0.16-0.064-0.4-0.288t-0.352-0.256-0.128 0.048 0.016 0.24q0.032 0.288-0.064 0.32-0.256 0-0.592-0.208t-0.592-0.208q-0.128-0.416-0.512-0.736-0.256-0.16-0.8-0.432t-0.832-0.432q-0.16 0.064-0.144 0.112t0.112 0.112 0.112 0.128-0.080 0.128q-1.376-0.352-2.24-0.384-1.344-0.096-2.144 0.352-0.224 0.064-0.384 0.224-0.096 0.096-0.224 0.32t-0.224 0.288q-0.128 0.128-0.32 0.16-0.288-0.032-0.48-0.224-0.096-0.096-0.256-0.384l-0.192-0.288q-0.224-0.032-0.4-0.16t-0.368-0.16q-0.32-0.096-0.992-0.16-1.088-0.032-2.144 0.192-0.224 0-0.544-0.16l-0.224-0.096-0.672 0.32q-0.672 0.32-0.928 0.512-0.384 0.32-0.576 0.8-0.256-0.032-0.576 0.144t-0.48 0.192-0.192-0.048 0-0.192q0.032-0.224-0.032-0.256-0.224 0.032-0.512 0.256-0.224 0.192-0.384 0.256-0.224 0.096-0.544 0.032-0.416-0.32-0.576-1.056l0.256-0.256q0.832-0.832 1.344-1.152 0.032-0.352 0.192-0.672 0.064-0.064 0.176-0.112t0.176-0.144q0.128-0.128 0.192-0.416 0.032-0.128 0-0.176t-0.112-0.096-0.144-0.128-0.048-0.272 0.256-0.576 0.336-0.672q0.192-0.512 0.256-1.152 0.032-2.368-0.096-4.064l-0.096-0.288q-0.16-0.512-0.32-0.704 0-0.224-0.064-0.576-0.064-0.48-0.032-0.8-0.224-0.448-0.64-0.768-0.448-1.632-1.312-2.080-0.032-0.128 0.016-0.176t0.16-0.080 0.16-0.096 0.016-0.224q-0.064-0.448-0.352-0.832-0.192-0.256-0.576-0.64-0.544-0.544-0.736-0.896-0.032-0.288 0.032-0.544 0.064-0.16 0.224-0.448l0.128-0.224q0.16-0.064 0.608 0.032t0.704 0.080 0.48 0.208 0.448 0.224q0.288-0.064 0.576-0.416 0.192-0.224 0.32-0.32 1.248 0.256 2.576 0.144t2.288-0.56q0.32-0.128 0.576-0.384 0.128-0.128 0.24-0.176t0.368-0.016q-0.224 0.288-0.176 0.528t0.32 0.304 0.528-0.096q0.16-0.096-0.016-0.464t-0.432-0.56l0.064-0.064q0.448-0.48 0.704-0.672 0.416-0.32 0.928-0.416 0-0.064 0.224-0.24t0.224-0.272q0.672 0.384 0.928 1.024 0.96-0.096 1.504 0.864zM11.776 9.92l-0.16 0.16q-0.256 0.32-0.32 0.576 0.096 0.256 0.288 0.512 0.128 0.128 0.416 0.368t0.384 0.368q0.16 0.224 0.192 0.448 0.032 0.128-0.192 0.128-0.128-0.032-0.16 0t0.032 0.192q0.192 0.256 0.48 0.256 0.224 0 0.672-0.128 0.16 0.192 0.368 0.368t0.336 0.192 0.224 0.176q0.128 0.192 0.32 0.224 0.192-0.288 0.096-0.576-0.032-0.16-0.24-0.416t-0.272-0.384q0-0.224-0.128-0.576-0.128-0.416-0.096-0.768-0.192 0-0.272-0.048t-0.144-0.176l-0.096-0.096q0.032-0.224-0.064-0.384-0.064-0.064-0.192-0.224-0.256-0.224-0.288-0.416-0.288 0.032-0.512-0.128-0.128-0.096-0.288-0.336t-0.256-0.272q-0.224 0.384-0.128 0.96zM19.936 9.44q-0.064 0.096-0.128 0.096t-0.16-0.080-0.192-0.080q-0.128 0.096-0.544 0.192t-0.576 0.224v0.032q-0.32 0.288-0.448 0.448-0.256 0.352-0.288 0.672 0.032 0.416-0.096 0.832-0.096 0.256-0.128 0.448-0.032 0.32 0 0.768 0.576-0.576 0.864-0.704 0.128-0.064 0.336-0.080t0.304-0.064 0.224-0.192 0.128-0.336q0.032-0.128 0-0.416l-0.032-0.128q0.512 0 0.832-0.48 0.256-0.416 0.288-1.088v-0.128q-0.032-0.256-0.096-0.288-0.032 0.096-0.112 0.224t-0.176 0.128zM8.576 12.64q0.096 0.064 0.4 0.080t0.528 0.080q0.16 0.064 0.528 0.24t0.56 0.208q0.288 0.096 0.48 0-0.032-0.224-0.352-0.512t-0.384-0.512q0.032-0.096-0.048-0.224t-0.016-0.288q-0.192-0.064-0.32-0.224-0.064-0.128-0.16-0.352-0.16-0.384-0.32-0.512-0.288-0.032-0.8-0.224-0.352-0.16-0.544-0.192-0.032 0.8 0.096 1.472 0.096 0.768 0.352 0.96zM24.032 10.336q-0.064-0.16-0.224-0.128-0.128 0.096-0.656 0.224t-0.672 0.256-0.208 0.352q-0.064 0.384-0.352 0.64-0.224 0.16-0.32 0.64t0.096 0.576 0.384 0.032q0.128-0.032 0.32-0.16t0.288-0.096q0.32 0.032 0.544-0.032 0.128-0.032 0.272-0.144t0.16-0.24 0.016-0.416q-0.032-0.416 0.032-0.672 0.064-0.448 0.32-0.832zM9.536 15.648q-0.064 0.576 0.016 0.8t0.272 0.256q0.512 1.152 1.248 1.408 0.032-0.16 0-0.256t-0.128-0.192q-0.128-0.192-0.128-0.32 0.416 0.16 0.608-0.096 0.032-0.096 0.048-0.368t0.080-0.304l0.128-0.064q0.192-0.064 0.224-0.16-0.128-0.256-0.352-0.4t-0.352-0.304q-0.32-0.384-0.512-0.544-0.352-0.224-0.704-0.224-0.096-0.16-0.416-0.272t-0.4 0.032-0.032 0.272 0.176 0.288q0.224 0.256 0.224 0.448zM22.112 14.88q-0.16-0.032-0.24-0.016t-0.208 0.048l-0.224 0.096q-0.256 0.096-0.368 0.256t-0.112 0.448q-0.192 0.064-0.416 0.24t-0.256 0.368q0.16 0.064 0.192 0.176t0.032 0.32 0.048 0.32 0.208 0.144q0.224 0.096 0.48-0.032 0.128-0.064 0.416-0.288 0.512-0.352 0.832-0.384-0.128-0.704 0-1.056 0.064-0.192 0.256-0.384 0.128-0.096 0.16-0.176t-0.032-0.272q-0.16-0.224-0.384-0.128-0.128 0.064-0.32 0.256zM16.896 15.328q0.416 0.832 0.416 1.472 0 0.384-0.192 0.928-0.128 0.32-0.128 0.48-0.064 0.288 0.032 0.544 0.16-0.032 0.272-0.128t0.24-0.288q0.256-0.352 0.512-0.544 0.032-0.352 0.16-0.544 0.096-0.128 0.288-0.288 0.288-0.192 0.352-0.416-0.064-0.064-0.224-0.208t-0.224-0.24q-0.096-0.16-0.096-0.352-0.096-0.064-0.288-0.080t-0.256-0.080q-0.032-0.128-0.176-0.24t-0.144-0.208q-0.096-0.032-0.144-0.176t-0.112-0.208-0.288-0.064v0.64zM13.376 16.8q0.032 0.16 0.288 0.32 0.16 0.128 0.224 0.224 0.096 0.16 0.064 0.416 0.576 0.896 1.12 0.96-0.032-0.672-0.24-1.424t-0.496-1.264q-0.416-0.064-0.656 0.16t-0.304 0.576v0.032zM21.28 19.552l-0.064 0.032q-0.416 0.256-0.576 0.512l-0.224 0.672q-0.256 0.768-0.32 1.056-0.096 0.512 0.16 0.576 0.224-0.096 0.48-0.544 0.192-0.288 0.32-0.384 0.192-0.128 0.544-0.384l0.256-0.16q0.064-0.32 0.224-0.512 0.096-0.128 0.288-0.256 0.288-0.192 0.352-0.416-0.384 0.032-0.608-0.16-0.128-0.128-0.288-0.416-0.096-0.256-0.192-0.352-0.128-0.16-0.352-0.16 0.032 0.16 0 0.416t0 0.48zM9.664 20q0 0.064 0.096 0.288l0.128 0.288 0.032 0.16q0.032 0.224 0.032 0.352t-0.096 0.384q0.224 0.384 0.496 0.528t0.752 0.048l0.096 0.096q0.512 0.448 0.704 0.384 0.032-0.096-0.096-0.48-0.16-0.448-0.16-0.736-0.096-0.192-0.32-0.384l-0.128-0.096q0.032-0.128 0.192-0.24t0.128-0.304l-0.96-0.576q-0.32-0.16-0.736-0.32-0.192 0.416-0.16 0.608zM13.248 20.832q-0.224 0.416-0.192 0.576t0.352 0.352l0.224 0.128q0-0.352 0.304-0.88t0.304-0.976q-0.256 0-0.544-0.256-0.192-0.16-0.288-0.192-0.192-0.096-0.448-0.064-0.16 0.416-0.096 0.64 0.032 0.16 0.208 0.336t0.176 0.336zM18.272 19.904q-0.032 0.16 0.064 0.272t0.032 0.336q-0.544 0.32-0.672 0.96 0.032 0.672 0.384 0.672 0.192-0.128 0.256-0.352t-0.032-0.448q0.064-0.064 0.224-0.096 0.256-0.032 0.256-0.16-0.032-0.224 0.064-0.416 0.032-0.096 0.144-0.224t0.16-0.256 0.016-0.448v-0.224q-0.352 0-0.528 0.064t-0.368 0.32zM20.864 22.592q-0.224 0.512 0.032 0.64 0.032 0.128 0.080 0.16t0.272 0.064v0q0.032-0.224 0.32-0.672l0.192-0.256q0.192-0.288 0.256-0.416 0.064-0.224-0.064-0.352-0.32-0.032-0.624 0.208t-0.464 0.624zM13.824 23.872q0.032-0.16-0.080-0.416t-0.048-0.448q-0.16 0.032-0.4-0.048t-0.464-0.016q-0.128 0.384 0.176 0.672t0.816 0.256zM18.304 23.072q0.032 0.256 0.24 0.384t0.496 0.096q0.224-0.224 0.224-0.576-0.224-0.064-0.544 0.032-0.256 0.064-0.416 0.064zM15.424 24.576v0.064q0.032 0.352 0.096 0.48 0.128 0.16 0.512 0.192 0.064-0.192 0.32-0.48 0.288-0.384 0.352-0.608-0.224-0.064-0.48 0.096-0.096 0.064-0.192 0.096l-0.064-0.16q-0.064-0.128-0.128-0.176t-0.224-0.048q0-0.16-0.128-0.272t-0.32-0.112l0.064 0.16q0.16 0.544 0.192 0.768z"></path>
</svg>
