<svg version="1.1" xmlns="http://www.w3.org/2000/svg" width="32" height="32" viewBox="0 0 32 32">
<title>class_job_039</title>
<path d="M27.072 17.92q-0.064-0.128-0.352 0-0.192 0.064-0.672 0.384-2.432 1.536-5.76 2.528-3.424 0.992-5.824 0.8-1.856-0.128-3.136-0.608l1.504-4.8q0.704 1.728 2.304 2.656 1.28 0.736 2.72 0.72t2.688-0.72 1.984-1.984q0.704-1.184 0.736-2.528t-0.544-2.544-1.664-2q-0.032-0.032-0.032-0.544 0-0.576-0.064-0.832-0.064-0.48-0.288-0.576t-0.64 0.16q-0.224 0.16-0.64 0.576-0.32 0.288-0.352 0.288-1.088-0.256-2.16-0.048t-2 0.784l1.152-3.712q0.192-0.512 0.288-1.248 0.128-1.056-0.192-1.168t-0.864 0.816q-0.352 0.64-0.512 1.152l-5.184 14.432q-0.544-0.544-0.768-1.248t-0.16-1.632q0.032-0.576 0.224-1.632l0.032-0.16q0.16-0.832-0.016-0.912t-0.64 0.64-0.816 1.552q-0.48 1.056-0.608 1.952-0.16 1.312 0.224 2.464 0.416 1.312 1.536 2.144l-0.576 2.496q-0.16 0.48-0.224 1.056-0.064 0.864 0.272 0.976t0.784-0.624q0.32-0.48 0.48-0.96l0.96-2.112q0.544 0.16 1.024 0.256 2.016 0.32 4.448-0.064 2.656-0.384 5.248-1.6 2.848-1.312 5.248-3.456 0.512-0.448 0.672-0.672 0.256-0.32 0.16-0.448zM14.912 12.48q0.48-0.768 1.248-1.216t1.68-0.464 1.696 0.448 1.232 1.248 0.448 1.68-0.448 1.696-1.232 1.232-1.68 0.448-1.696-0.448-1.248-1.248-0.448-1.68 0.448-1.696z"></path>
</svg>
