<svg version="1.1" xmlns="http://www.w3.org/2000/svg" width="32" height="32" viewBox="0 0 32 32">
    <title>class_job_008</title>
    <path d="M27.168 21.92q-0.064-0.448-0.448-1.040t-0.608-0.304q0.128 0.32-0.032 0.464t-0.384 0.080-0.272-0.304 0.24-0.56q-0.8-0.8-2.176-2.144l-1.376-1.408q-0.096 0.032-0.464 0.4t-0.496 0.464q-0.096 0.064-0.176-0.016t0.144-0.464l0.128-0.224-12.896-12.864-3.52 3.52 0.704 1.536 0.352-0.256 0.576 1.184 0.352-0.32 0.576 1.248 0.288-0.288 0.608 1.216 0.288-0.32 0.576 1.184 0.32-0.352 0.544 1.248 0.352-0.384 0.576 1.28 0.288-0.32 0.608 1.248 0.352-0.352 0.544 1.248 0.352-0.384 0.544 1.28 0.32-0.352 0.576 1.216 0.288-0.288 0.608 1.216 0.32-0.32 0.576 1.184 0.288-0.32 0.608 1.248 0.288-0.288 0.608 1.184 0.32-0.352 0.608 1.216 0.288-0.288 0.64 1.248 0.32-0.352 0.544 1.28 1.888-1.92 0.064 0.096q0.128 0.096 0.288 0.16t0.416 0.064 0.416-0.080 0.16-0.144-0.096-0.144-0.128-0.176q-0.032-0.16 0.080-0.448t0.352-0.368 0.608 0.112 0.448 0.672-0.16 0.816-1.68 1.936l-0.608 0.64-0.256 0.288q-0.288 0.224-0.384 0.352-0.16 0.224-0.16 0.448 0 0.544 0.624 0.944t1.392 0.304q0.032-0.064 0-0.288-0.064-0.544 0.064-0.896l0.032-0.032q0.224-0.544 0.448-0.896 0.384-0.608 1.088-1.344 0.16-0.192 0.48-0.512 0.544-0.576 0.736-0.896 0.288-0.544 0.224-1.216zM23.104 20.736q-0.256 0-0.416-0.16t-0.16-0.432 0.16-0.432 0.432-0.16 0.448 0.16 0.176 0.416q0 0.608-0.64 0.608z"></path>
</svg>
