<svg version="1.1" xmlns="http://www.w3.org/2000/svg" width="32" height="32" viewBox="0 0 32 32">
    <title>class_job_031</title>
    <path d="M24.192 15.328q-0.48-0.48-1.024-0.864-6.624-4.704-13.248-9.376l-0.032-0.032q-0.608-0.416-0.928-0.512-0.928-0.256-1.472 0.704-0.448 0.736 0.32 1.344 0.32 0.256 1.024 0.736l3.040 2.176q4.928 3.456 7.36 5.216l0.576 0.384q0.512 0.32 0.768 0.512 0.448 0.352 0.736 0.736-0.288 0.256-0.64 0.48-1.184 0.576-1.632 1.12t-0.32 1.216 0.864 1.728q0.448 0.64 0.992 1.216 0.448 0.448 0.352 0.896-0.096 0.384-0.576 0.768-0.416 0.32-0.576 0.384t-0.32-0.128q-0.128-0.128-0.512-0.736-0.736-1.088-1.056-1.696-0.512-1.056-1.44-0.544-0.704 0.416-0.224 1.376 0.768 1.536 1.184 2.272 0.704 1.248 1.44 2.112 0.576 0.704 0.96 0.704t0.96-0.736q0.416-0.544 1.184-1.664l0.352-0.512q0.704-1.024 0.832-1.344 0.192-0.48-0.032-0.928-0.16-0.32-0.96-1.28l-0.096-0.128q-0.32-0.384-0.832-0.96-0.64-0.672-0.704-0.896-0.096-0.288 0.32-0.512 0.32-0.192 1.632-0.672l0.16-0.032q0.352-0.16 1.088-0.512l0.096-0.064q0.864-0.448 0.864-0.96 0.032-0.416-0.48-0.992zM17.632 17.216q0.192-0.832-0.016-1.408t-0.912-1.024q-1.28-0.864-3.808-2.656l-3.488-2.432q-0.352-0.256-0.72-0.272t-0.48 0.336 0 0.832 0.336 0.736 0.48 0.384q0.224 0.128 0.384 0.224 3.68 2.656 5.632 3.968l0.064 0.032q0.608 0.416 0.832 0.672 0.384 0.48 0.288 0.992-0.064 0.352-0.32 0.704t-0.56 0.416-0.592-0.144-0.256-0.528q0.032-0.832-0.32-1.248-0.256-0.352-1.024-0.64-0.256 0.672-0.32 1.472-0.032 0.448 0.032 1.376l0.032 0.32q0.064 0.736 0.448 0.992 0.352 0.192 1.088 0.064 1.088-0.16 1.68-0.464t0.928-0.912 0.592-1.792z"></path>
</svg>
