<svg version="1.1" xmlns="http://www.w3.org/2000/svg" width="32" height="32" viewBox="0 0 32 32">
    <title>class_job_004</title>
    <path d="M24 20.16q-0.064-0.032-0.096 0.032l-2.048 2.016q-0.096 0.096-0.208 0.112t-0.16-0.032 0.144-0.24l1.888-1.888q0.032-0.032 0.032-0.096-0.48-0.128-0.928-0.288-0.832-0.32-1.44-0.96-0.032-0.032-0.096 0.032l-0.672 0.672q-0.064 0.064-0.192 0.080t-0.176-0.032 0.112-0.208l0.736-0.736q0.064-0.032 0.032-0.064-0.224-0.288-0.352-0.544l-0.096-0.224-2.432-1.728q-2.688-1.952-4-3.104l-7.616-6.784v-0.416l-2.144-1.696q-0.096-0.064-0.192-0.064l-0.064 0.032-0.032 0.064q0 0.096 0.064 0.192l1.696 2.144h0.416l6.784 7.616q1.152 1.312 3.104 4l1.728 2.432 0.352 0.16q0.416 0.256 0.8 0.64 0.512 0.544 0.832 1.344 0.448 1.088 0.448 2.688 0 0.256 0.032 0.288 0.096 0.096 0.256-0.032l1.664-1.696q0.192-0.16 0.32 0l0.288 0.288q0.096 0.096 0.48 0.064l0.32-0.064 2.048 2.016q-0.064 0.288 0 0.544 0.032 0.16 0.192 0.384v0q-0.032 0.128 0.064 0.208t0.384 0.048l0.224-0.032q0.384-0.064 0.48 0.032 0.352 0.288 0.736 0.576 0.16 0.096 0.256 0.064l0.032-0.096q0-0.064-0.064-0.16-0.288-0.416-0.576-0.768-0.096-0.096-0.032-0.48l0.032-0.224q0.032-0.288-0.048-0.368t-0.24-0.080l-0.864 0.896-0.032-0.064q0-0.096 0.048-0.224t0.208-0.288l0.32-0.32q0.064-0.064 0.048-0.128t-0.080-0.064q-0.288-0.064-0.544 0l-2.016-2.048 0.032-0.32q0.064-0.352-0.032-0.448l-0.224-0.224q-0.032-0.032-0.096 0.032l-0.448 0.448q-0.16 0.16-0.32 0.192t-0.192 0 0.064-0.16l2.592-2.592q0.16-0.128 0.032-0.256 0-0.032-0.288-0.032-0.736 0-1.28-0.064z"></path>
</svg>
