<svg version="1.1" xmlns="http://www.w3.org/2000/svg" width="32" height="32" viewBox="0 0 32 32">
    <title>class_job_036</title>
    <path d="M27.776 9.632q-0.064 0-0.432 0.064t-0.656 0.096q-0.064-1.056-0.944-2.032t-1.904-1.168q-0.64-0.096-1.248 0.224-0.512 0.288-0.768 0.752t0 0.688q0.064 0.064 0.416 0.128 0.48 0.064 0.704 0.16 0.416 0.192 0.544 0.608 0.256 0.704 0.064 1.168t-0.64 0.624l-3.104 0.928q-0.352 0.128-0.96 0.352-0.768 0.288-1.216 0.384-0.736 0.192-1.632 0.192t-1.632-0.192q-0.448-0.096-1.184-0.384-0.608-0.224-0.928-0.32l-1.024-0.32q-3.072-0.928-4.416-1.312-2.304-0.672-2.592-0.64-1.184 0.128-0.448 2.272l0.032 0.064q0.768 2.4 1.952 4.288 1.632 2.624 3.36 2.848 1.344 0.192 2.528-0.16 0.736-0.192 1.92-0.832 0.768-0.384 1.152-0.544 0.672-0.288 1.28-0.32 0.576 0.032 1.216 0.288 0.384 0.16 1.088 0.512-0.544 1.024-1.6 3.008-1.216 2.336-1.376 2.688l-0.224 0.48q-0.224 0.48-0.288 0.704-0.096 0.32 0.080 0.448t0.528-0.128q0.192-0.16 0.512-0.512l0.096-0.096q0.608-0.608 2.176-2.496 2.048-2.4 2.688-2.976 0.992 0.064 1.984-0.064 1.728-0.224 3.36-2.848 1.184-1.888 1.952-4.288l0.032-0.064q0.256-0.736 0.288-1.248 0.032-0.928-0.736-1.024zM9.28 16.672q-1.024-0.128-1.792-1.056-0.608-0.704-0.992-1.792-0.288-0.896-0.256-1.408 0.032-0.352 1.856 0.192 1.536 0.48 3.456 1.328t2.208 1.152-0.4 0.736-1.776 0.688q-1.248 0.288-2.304 0.16zM22.72 16.672q-1.056 0.128-2.304-0.16-1.088-0.256-1.776-0.688t-0.4-0.736 2.208-1.152 3.456-1.328q1.824-0.544 1.856-0.192 0.032 0.512-0.256 1.408-0.384 1.088-0.992 1.792-0.768 0.928-1.792 1.056z"></path>
</svg>
