<svg version="1.1" xmlns="http://www.w3.org/2000/svg" width="32" height="32" viewBox="0 0 32 32">
<title>class_job_024</title>
<path d="M14.848 11.68q0.864 0 1.472-0.608t0.608-1.472-0.608-1.488-1.472-0.624-1.488 0.624-0.624 1.488 0.624 1.472 1.488 0.608zM16.704 4.032q-0.416-0.064-0.736 0.032t-0.384 0.336 0.048 0.48 0.336 0.4l0.256 0.128q1.088 0.48 1.728 1.152 1.184 1.216 1.184 3.104 0 1.12-0.528 2.144t-1.424 1.632q-0.96 0.672-2.080 0.672-1.248 0-2.208-0.384-0.576-0.256-1.312-0.8l-0.16-0.128q-0.32-0.224-0.576-0.192-0.16 0.032-0.256 0.16-0.224 0.224-0.096 0.768 0.096 0.448 0.32 0.672 1.024 1.248 3.296 2.144l0.096 0.032q0.352 0.128 0.512 0.256 0.32 0.224 0.32 0.544v8.512q0 0.832 0.32 1.568t0.624 0.736 0.64-0.736 0.336-1.568v-8.416q0-0.288 0.24-0.72t0.56-0.56q0.544-0.288 1.248-0.896 1.056-0.928 1.696-2.112 0.832-1.568 0.832-3.424 0-1.408-0.672-2.624-0.64-1.184-1.76-1.952t-2.4-0.96z"></path>
</svg>
