<svg version="1.1" xmlns="http://www.w3.org/2000/svg" width="32" height="32" viewBox="0 0 32 32">
    <title>class_job_023</title>
    <path d="M11.776 20.896v-9.984q0-0.16-0.16-0.288t-0.384-0.192l-0.192-0.032-0.192 0.032q-0.224 0.064-0.384 0.192t-0.16 0.288v9.984q0 0.256 0.384 0.416 0.16 0.064 0.352 0.096v0 0l0.192-0.032q0.224-0.064 0.384-0.192t0.16-0.288zM15.68 20.896v-9.984q0-0.256-0.352-0.416-0.192-0.064-0.384-0.096l-0.192 0.032q-0.192 0.064-0.368 0.192t-0.176 0.288v9.984q0 0.16 0.176 0.288t0.368 0.192l0.192 0.032 0.192-0.032q0.224-0.064 0.384-0.192t0.16-0.288zM19.616 20.896v-9.984q0-0.16-0.16-0.288t-0.384-0.192l-0.192-0.032-0.192 0.032q-0.224 0.064-0.384 0.192t-0.16 0.288v9.984q0 0.16 0.16 0.288t0.384 0.192l0.192 0.032 0.192-0.032q0.224-0.064 0.384-0.192t0.16-0.288zM23.424 3.68q-0.544 0-1.040 0.432t-0.496 0.72-0.256 0.352q-0.128 0.064-0.512 0.064h-11.552q-0.576 0-1.104 0.24t-0.944 0.656q-0.256 0.256-0.448 0.688t-0.192 0.752q0 0.64 0.16 0.96 0.256 0.416 0.864 0.416 0.448 0 0.8-0.224 0.224-0.128 0.544-0.448 0.224-0.224 0.352-0.288 0.192-0.128 0.352-0.128h10.496q0.512 0 0.992 0.32 0.576 0.416 0.576 1.12v11.072q0 0.448-0.48 1.216-0.512 0.832-1.312 1.568-0.896 0.864-1.952 1.376-1.248 0.576-2.528 0.576-3.68 0-6.24-1.92l-0.064-0.064q-0.288-0.192-0.576-0.272t-0.448 0.096 0 0.752 0.448 0.896q0.384 0.416 1.12 0.96 1.12 0.864 2.4 1.408 1.664 0.704 3.376 0.704t3.856-1.152q2.080-1.12 3.488-2.752 1.504-1.76 1.504-3.264v-10.784q0-0.352 0.256-0.912t0.256-0.912v-2.624q0-0.48-0.576-1.040t-1.12-0.56z"></path>
</svg>
