<svg version="1.1" xmlns="http://www.w3.org/2000/svg" width="32" height="32" viewBox="0 0 32 32">
    <title>class_job_015</title>
    <path d="M27.040 19.552q0.576-0.64 0.8-1.472 0.192-0.736 0.16-1.76-0.032-0.992-0.576-2.144-0.64-1.344-1.76-2.208-1.344-1.024-3.104-1.056-1.12 0-2.144 0.896-0.352 0.32-0.768 0.896-0.576 0.8-0.8 1.44-0.256 0.864 0.192 1.376 0.192 0.192 0.544 0.128t0.528-0.272 0.192-0.096-0.096 0.288-0.32 0.32-0.528 0.24q-0.416 0.096-0.736-0.032-0.416-0.16-0.608-0.672-0.128-0.352 0-0.944t0.512-1.136q0.512-0.736 1.472-1.568 0.128-0.096 0.128-0.24t-0.064-0.272q-0.48-0.672-1.44-1.184-1.248-0.704-2.784-0.704-2.56 0-4.8 2.688l-0.064 0.096q-0.288 0.288-0.576 0.832-0.352 0.672-0.48 1.216-0.128 0.704 0.16 1.072t0.704 0.304q0.256-0.064 0.448-0.224 0.224-0.192 0.224-0.128 0.032 0.288-0.48 0.704-0.16 0.128-0.48 0.192-0.384 0.064-0.704-0.032-0.384-0.16-0.56-0.576t-0.064-1.056 0.432-1.216q0.256-0.448 1.28-1.504l0.128-0.16q0.16-0.16 0.128-0.384t-0.256-0.32q-0.352-0.16-0.768-0.192-0.32-0.032-0.64 0.032l-0.768 0.16q-0.608 0.16-1.184 0.448-0.832 0.352-1.472 0.896-0.832 0.64-1.312 1.504-0.608 1.024-0.736 2.304-0.064 0.736 0.192 1.6 0.256 0.96 0.832 1.632 1.152 1.376 3.552 1.76h0.096l0.16 0.096q2.464 1.504 6.128 1.504t6.096-1.024l0.096-0.032q0.032 0 0.352-0.032 1.728-0.064 2.88-0.416 1.088-0.32 1.856-0.896l0.256-0.224q0.384-0.288 0.544-0.448z"></path>
</svg>
