<svg version="1.1" xmlns="http://www.w3.org/2000/svg" width="32" height="32" viewBox="0 0 32 32">
<title>class_job_030</title>
<path d="M18.656 22.336q0.256-0.16 0.448-0.352v0q0.32-0.288 0.576-0.576 0.512-0.608 0.896-1.28 1.12-1.952 1.12-4.128 0.032-2.976-1.952-6.080-1.088-1.696-2.624-2.88-1.312-0.992-2.944-1.632-1.28-0.512-2.72-0.768-0.992-0.16-1.984-0.192l-0.8 0.032 0.544 0.064q0.64 0.128 1.376 0.384 0.992 0.352 1.92 0.896 1.184 0.704 2.24 1.632 1.248 1.088 2.24 2.496-0.256-0.096-0.544-0.192v0l-0.288-0.096q-0.384-0.096-0.832-0.16-0.576-0.064-1.216-0.064-0.768 0-1.504 0.128-0.896 0.16-1.728 0.48-0.928 0.416-1.792 1.024-0.96 0.704-1.76 1.696-0.896 1.088-1.632 2.496-1.472 2.816-1.248 5.984 0.128 2.272 1.12 4.512 0.48 1.12 0.928 1.792v0l-0.192-0.512q-0.224-0.64-0.352-1.376-0.192-1.024-0.192-2.112 0-1.376 0.288-2.752 0.32-1.632 1.056-3.2 0.032 0.288 0.096 0.576v0q0.128 0.64 0.384 1.216 0.128 0.288 0.256 0.544 1.024 2.048 2.912 3.264 2.624 1.728 6.592 1.536 1.984-0.064 3.808-0.832 1.504-0.608 2.88-1.696 1.056-0.864 1.984-1.984 0.672-0.8 1.184-1.632l0.384-0.672-0.352 0.384q-0.448 0.512-0.992 1.024-0.832 0.672-1.76 1.216-1.184 0.704-2.496 1.12-1.568 0.512-3.328 0.672zM14.272 21.184q-1.248 0-2.288-0.608t-1.648-1.648-0.608-2.272 0.608-2.288 1.648-1.664 2.272-0.608 2.272 0.608 1.648 1.664 0.608 2.288-0.608 2.272-1.648 1.648-2.256 0.608z"></path>
</svg>
