<!-- Generated by IcoMoon.io -->
<svg version="1.1" xmlns="http://www.w3.org/2000/svg" width="32" height="32" viewBox="0 0 32 32">
<title>ItemCategory_Bone</title>
<path d="M23.2 22.912q-0.704 0-1.472-0.416t-1.152-0.992l-1.664-2.56q-1.792-2.816-2.432-4.16-0.928-1.824-1.984-4.608-0.64-1.696-0.96-2.24l-0.064-0.16q-0.064-0.096 0.176-0.576t0.656-1.024v-0.064q0-0.128-0.064-0.288-0.096-0.256-0.288-0.64-0.352-0.672-1.056-0.896t-1.376 0.128l-0.544 0.288q-0.16 0.448-0.608 0.672t-0.928 0.096l-0.576 0.288q-0.64 0.352-0.848 1.072t0.144 1.36q0.192 0.384 0.384 0.608 0.128 0.16 0.224 0.224l0.064 0.032q0.704-0.032 1.232 0.032t0.592 0.16l0.288 0.384q1.024 1.408 1.568 2.304 0.896 1.408 2.080 3.616 0.576 1.088 1.984 4.352l1.28 3.008q0.256 0.64 0.192 1.52t-0.448 1.456l0.032 0.128q0.096 0.256 0.352 0.736 0.352 0.672 1.056 0.896t1.376-0.128l0.512-0.288q0.16-0.448 0.624-0.672t0.944-0.096l0.544-0.288q0.672-0.352 0.88-1.072t-0.144-1.36q-0.448-0.832-0.576-0.832v0z"></path>
</svg>
