<svg version="1.1" xmlns="http://www.w3.org/2000/svg" width="32" height="32" viewBox="0 0 32 32">
<title>ItemCategory_OrchestrionRoll</title>
<path d="M25.056 9.472q-2.368-0.16-4.16-1.92-0.928-0.896-2.464-1.344-0.928-0.256-1.856-0.288-0.064-0.032-0.096 0v-0.032h-2.528v13.888q-1.344-0.512-2.768-0.512t-2.64 0.464-1.92 1.248-0.704 1.712 0.704 1.712 1.92 1.248 2.656 0.464 2.64-0.464 1.92-1.248 0.72-1.712v-12.384q0.8-0.32 1.664-0.416 1.248-0.128 2.144 0.288 1.056 0.512 2.496 0.32 0.832-0.128 2.176-0.576l0.16-0.064q0.16-0.064 0.128-0.208t-0.192-0.176z"></path>
</svg>
