<!-- Generated by IcoMoon.io -->
<svg version="1.1" xmlns="http://www.w3.org/2000/svg" width="32" height="32" viewBox="0 0 32 32">
<title>ItemCategory_Catalyst</title>
<path d="M26.24 18.016q-0.192-0.352-0.576-0.352l-3.808 0.032 2.432-3.072q0.128-0.16 0.128-0.384v-2.688q0-0.288-0.192-0.464t-0.448-0.176h-2.336q-0.352 0-0.544 0.288l-2.976 4.736 1.312-6.24q0.096-0.352-0.192-0.608l-2.976-2.816q-0.192-0.16-0.432-0.176t-0.432 0.176l-3.104 2.72q-0.288 0.256-0.224 0.64l0.96 4.704-3.008-1.632q-0.192-0.096-0.416-0.064t-0.384 0.224l-2.304 2.592q-0.16 0.16-0.16 0.4t0.16 0.432l1.856 2.368-2.688-0.032q-0.384 0-0.576 0.352l-0.928 1.792q-0.064 0.192-0.048 0.384t0.144 0.32q1.344 1.6 3.488 2.752 3.52 1.92 8.080 1.92t8.048-1.952q2.112-1.152 3.424-2.752 0.128-0.16 0.144-0.352t-0.048-0.352zM13.408 23.584l-3.072-2.4q-0.096-0.096-0.112-0.208t0.080-0.208l1.248-1.248q0.096-0.096 0.24-0.080t0.208 0.144l1.824 3.68q0.096 0.16-0.064 0.304t-0.352 0.016zM17.408 19.072l-1.12 4.128q-0.064 0.224-0.272 0.208t-0.24-0.208l-1.312-7.84q-0.032-0.224 0.16-0.304t0.32 0.080l2.304 3.040q0.288 0.384 0.16 0.896z"></path>
</svg>
