<!-- Generated by IcoMoon.io -->
<svg version="1.1" xmlns="http://www.w3.org/2000/svg" width="32" height="32" viewBox="0 0 32 32">
<title>ItemCategory_Furnishings</title>
<path d="M24.096 8.064h-0.32q-0.288-0.384-0.48-0.608l-0.16-0.128-0.288 0.256q-0.384 0.32-0.832 0.48h-1.472q-0.288-0.128-0.576-0.416-0.192-0.192-0.608-0.64-0.48-0.544-0.8-0.864-0.672-0.672-1.696-0.896-0.512-0.096-0.896-0.064h-0.416q-0.544 0.064-0.992 0.256-0.672 0.224-1.152 0.704-0.32 0.32-0.832 0.864-0.384 0.448-0.576 0.64-0.32 0.288-0.576 0.416h-1.504q-0.448-0.16-0.8-0.448l-0.32-0.288-0.128 0.128q-0.224 0.224-0.48 0.608h-0.416q-0.448 0-0.912 0.512t-0.464 1.024v12.224q0 0.608 0.416 1.040t0.928 0.432h1.664q0.416 0.384 0.416 0.832 0 0.256-0.288 0.448l-0.288 0.16-0.128-0.16q-0.128-0.16-0.352-0.288-0.288-0.16-0.672-0.16-1.088 0-1.088 1.312 0 0.544 0.576 0.896 0.704 0.416 2.016 0.416 0.416 0 1.056-0.352 0.32-0.192 0.576-0.384l2.528-2.72h4.448l2.528 2.72 0.288 0.192q0.32 0.224 0.64 0.352 0.416 0.192 0.704 0.192 1.312 0 2.016-0.416 0.576-0.352 0.576-0.896 0-1.312-1.088-1.312-0.384 0-0.672 0.16-0.224 0.128-0.352 0.288l-0.128 0.16-0.288-0.16q-0.288-0.192-0.288-0.448 0-0.448 0.416-0.832h1.536q0.576 0 0.992-0.416t0.416-1.056v-12.288q0-0.48-0.448-0.976t-0.96-0.496zM23.424 20.608q0 0.48-0.256 0.64-0.16 0.096-0.64 0.096h-13.28q-0.352 0-0.496-0.208t-0.144-0.72v-9.632q0-0.768 0.672-0.768h13.248q0.352 0 0.608 0.272t0.256 0.656v9.664h0.032zM12.8 12.352h6.4v2.688h-6.4v-2.688zM12.8 17.152h6.4v2.496h-6.4v-2.496z"></path>
</svg>
