<!-- Generated by IcoMoon.io -->
<svg version="1.1" xmlns="http://www.w3.org/2000/svg" width="32" height="32" viewBox="0 0 32 32">
<title>ItemCategory_Tables</title>
<path d="M18.336 18.528v-0.032q0.128-1.28 0.976-2.256t2.096-1.264q2.016-0.48 3.216-1.264t1.2-1.68v-3.296q0-0.96-1.312-1.776t-3.568-1.28-4.912-0.464-4.912 0.464-3.584 1.28-1.328 1.776v3.296q0 0.896 1.2 1.68t3.248 1.264q1.248 0.288 2.096 1.264t0.976 2.256v0.032q-2.208 0.224-3.968 0.864t-2.768 1.552-1.008 1.904q0 1.152 1.344 2.080t3.648 1.44 5.056 0.512 5.040-0.528 3.632-1.456 1.344-2.048q0-0.992-1.008-1.904t-2.768-1.552-3.936-0.864zM8.544 9.44q0-0.704 1.008-1.296t2.736-0.944 3.776-0.352 3.776 0.352 2.736 0.944 1.008 1.296-1.008 1.296-2.736 0.944-3.776 0.352-3.776-0.352-2.736-0.944-1.008-1.296z"></path>
</svg>
