<svg version="1.1" xmlns="http://www.w3.org/2000/svg" width="32" height="32" viewBox="0 0 32 32">
<title>ItemCategory_Meal</title>
<path d="M7.648 11.744q0.032 0.8 0.368 1.344t1.232 1.184q0.704 0.48 1.056 0.992t0.32 1.12l-0.736 9.44v0.064q0 0.544 0.256 0.992t0.704 0.704 0.96 0.256 0.96-0.256 0.704-0.704 0.256-0.992q0-0.128-0.032-0.288l-0.736-9.216q-0.032-0.608 0.336-1.12t1.040-0.992q0.928-0.64 1.264-1.216t0.336-1.44l0.032-0.16v-6.432q0-0.384-0.288-0.64t-0.624-0.208-0.544 0.288-0.208 0.56v3.424q0 0.32-0.208 0.56t-0.56 0.288-0.624-0.208-0.272-0.608v-3.456q0-0.32-0.208-0.56t-0.56-0.288-0.64 0.208-0.288 0.64v3.424q0.032 0.32-0.192 0.56t-0.56 0.288-0.624-0.208-0.288-0.608v-3.456q0-0.32-0.208-0.56t-0.544-0.288-0.624 0.208-0.288 0.64v6.432zM19.264 19.104l1.728 0.576q0.224 0.064 0.352 0.256t0.096 0.416l-0.416 5.536q-0.032 0.224 0 0.416 0.064 0.48 0.352 0.832 0.064 0.096 0.192 0.192 0.288 0.256 0.672 0.384 0.512 0.192 1.040 0.080t0.944-0.464v0q0.192-0.192 0.192-0.48v-20.96q0-0.704-0.384-1.2t-0.864-0.496q-0.576 0-1.216 0.704-0.8 0.864-1.472 2.56v0q-0.544 1.376-0.864 2.784-0.544 2.304-0.736 4.96-0.128 1.728-0.096 3.264 0 0.224 0.128 0.4t0.352 0.24z"></path>
</svg>
