<!-- Generated by IcoMoon.io -->
<svg version="1.1" xmlns="http://www.w3.org/2000/svg" width="32" height="32" viewBox="0 0 32 32">
<title>ItemCategory_Other</title>
<path d="M7.808 13.312q-1.12 0-1.904 0.784t-0.784 1.904 0.784 1.904 1.904 0.784 1.904-0.784 0.784-1.904-0.784-1.904-1.904-0.784zM16 13.312q-1.12 0-1.904 0.784t-0.784 1.904 0.784 1.904 1.888 0.784 1.904-0.784 0.8-1.904-0.8-1.904-1.92-0.784h0.032zM24.192 13.312q-1.12 0-1.904 0.784t-0.784 1.904 0.784 1.904 1.904 0.784 1.904-0.784 0.784-1.904-0.784-1.904-1.904-0.784z"></path>
</svg>
