<!-- Generated by IcoMoon.io -->
<svg version="1.1" xmlns="http://www.w3.org/2000/svg" width="32" height="32" viewBox="0 0 32 32">
<title>ItemCategory_OutdoorFurnishings</title>
<path d="M22.432 13.152q0.16-0.256 0.384-0.448l-0.416-0.928q0.096-0.736-0.224-1.408t-1.44-1.056q-0.32-0.128-0.384-0.448-0.288-1.888-0.96-3.488-0.608-1.376-1.344-2.272-0.672-0.8-1.152-0.864-0.576-0.064-1.056 1.504l-1.504 1.92-0.832 0.992-0.256 0.128q-0.32 0.192-0.512 0.48-0.32 0.416-0.416 0.96-0.32 1.856-0.256 2.656l-0.064 0.032q-1.152 0.224-2.272 1.568-0.832 1.024-0.96 2.192t0.544 2.032l0.256 1.28 1.984-0.032q0.8 0.48 2.304 0.736 0.416 0.128 0.864 0.096l0.224 0.032 0.032 1.984q-2.016 0.128-3.328 0.544t-1.312 0.96q0 0.032 0.48 1.184l-0.192 0.064 0.512 0.736 1.472 3.424q0.128 0.48 1.44 0.736l-0.032 0.032q0 0.192 0.288 0.032 0.992 0.16 1.984 0.16h0.512q2.624 0 2.736-0.176t-0.016-0.336q0.192-0.064 0.352-0.224v0q0.064-0.032 0.832-1.888l1.632-2.464-0.128-0.064q0.224-0.224 0.224-0.464t-0.256-0.528l0.064-0.224q0-0.544-1.312-0.96t-3.328-0.544v-1.92q1.92-0.096 3.264-0.544 0.224 0.032 0.416 0l0.704 0.192 0.192-0.416q0.576-0.256 0.928-0.896 0.448-0.736 0.448-1.824-0.032-1.44-1.12-2.24zM12.128 24.128q0.896 0.416 2.048 0.64 1.248 0.256 2.496 0.256 0.736 0 1.44-0.064v0.768l-0.992 0.096q-3.264-0.256-4.736-0.96z"></path>
</svg>
