<!-- Generated by IcoMoon.io -->
<svg version="1.1" xmlns="http://www.w3.org/2000/svg" width="32" height="32" viewBox="0 0 32 32">
<title>ItemCategory_Furnishing</title>
<path d="M24.576 7.68h-0.384q-0.288-0.384-0.512-0.64l-0.16-0.128q-0.48 0.544-1.152 0.768h-1.568q-0.288-0.128-0.608-0.448l-0.64-0.64q-0.512-0.608-0.832-0.928-0.512-0.48-1.216-0.768-0.48-0.192-1.056-0.224l-0.448-0.032-0.448 0.032q-0.544 0.032-1.056 0.224-0.704 0.288-1.184 0.768-0.352 0.32-0.864 0.928-0.416 0.48-0.64 0.64-0.32 0.32-0.576 0.448h-1.6q-0.672-0.224-1.152-0.768l-0.16 0.128q-0.224 0.256-0.512 0.64h-0.416q-0.48 0-0.96 0.544t-0.48 1.056v12.864q0 0.672 0.432 1.12t0.944 0.448h1.76q0.448 0.416 0.448 0.896 0 0.224-0.288 0.448-0.16 0.096-0.32 0.16v0l-0.128-0.16q-0.16-0.192-0.384-0.288-0.288-0.16-0.704-0.16-1.152 0-1.152 1.344 0 0.576 0.64 0.96 0.704 0.448 2.080 0.448 0.32 0 0.768-0.192 0.32-0.16 0.672-0.384l0.288-0.192 2.688-2.88h4.672l2.688 2.88 0.256 0.192q0.352 0.224 0.672 0.384 0.448 0.192 0.768 0.192 1.376 0 2.112-0.448 0.608-0.384 0.608-0.96 0-1.344-1.152-1.344-0.384 0-0.704 0.16-0.224 0.096-0.384 0.288l-0.096 0.16-0.32-0.16q-0.32-0.224-0.32-0.448 0-0.48 0.48-0.896h1.6q0.576 0 1.024-0.432t0.448-1.136v-12.896q0-0.512-0.48-1.040t-0.992-0.528zM23.84 20.896q0 0.512-0.256 0.672-0.192 0.096-0.704 0.096h-13.952q-0.384 0-0.512-0.224t-0.128-0.768v-10.112q0-0.832 0.672-0.832h13.92q0.416 0 0.688 0.288t0.272 0.704v10.176zM12.672 12.192h6.72v2.848h-6.72v-2.848zM12.672 17.248h6.72v2.624h-6.72v-2.624zM7.744 23.68h1.376q0.768 0.768 0.288 1.248-0.192 0.16-0.432 0.192t-0.464-0.064l-0.544-0.288q-0.48-0.224-0.96-0.032-0.32 0.128-0.448 0.48-0.256 0.736 0.128 1.312 0.32 0.544 1.040 0.816t1.472 0.192 1.2-0.56l3.232-3.296h4.736l3.232 3.296q0.448 0.48 1.2 0.56t1.472-0.192 1.040-0.816q0.384-0.576 0.128-1.312-0.128-0.32-0.448-0.48-0.48-0.192-0.96 0.064l-0.544 0.256q-0.224 0.096-0.464 0.064t-0.432-0.192q-0.48-0.48 0.288-1.248h1.408q0.768 0 1.28-0.528t0.512-1.264v-12.416q0-0.736-0.512-1.264t-1.28-0.528h-0.032q0.032-0.384-0.304-0.608t-0.72-0.16q-0.288 0.032-0.576 0.192l-0.224 0.128q-0.576 0.512-1.312 0.416-0.832-0.128-1.152-0.64-0.608-0.896-1.472-1.504-1.152-0.864-2.496-0.864v0q-1.312 0-2.496 0.864-0.864 0.608-1.44 1.504-0.352 0.512-1.184 0.64-0.736 0.096-1.312-0.416l-0.224-0.128q-0.288-0.16-0.544-0.192-0.384-0.064-0.72 0.16t-0.304 0.608h-0.032q-0.736 0-1.264 0.528t-0.528 1.264v12.416q0 0.736 0.528 1.264t1.264 0.528zM23.904 20.48q0 0.416-0.288 0.72t-0.704 0.304h-13.76q-0.416 0-0.72-0.304t-0.304-0.72v-9.6q0-0.416 0.304-0.704t0.72-0.288h13.76q0.416 0 0.704 0.288t0.288 0.704v9.6zM13.152 12.192h5.76q0.192 0 0.336 0.144t0.144 0.336v1.888q0 0.192-0.144 0.336t-0.336 0.144h-5.76q-0.192 0-0.336-0.144t-0.144-0.336v-1.888q0-0.192 0.144-0.336t0.336-0.144zM13.152 17.248h5.76q0.192 0 0.336 0.144t0.144 0.336v1.664q0 0.192-0.144 0.336t-0.336 0.144h-5.76q-0.192 0-0.336-0.144t-0.144-0.336v-1.664q0-0.192 0.144-0.336t0.336-0.144z"></path>
</svg>
