<svg version="1.1" xmlns="http://www.w3.org/2000/svg" width="32" height="32" viewBox="0 0 32 32">
<title>ItemCategory_fisher1</title>
<path d="M24.64 21.376q-0.256-0.128-0.736-0.32-0.8-0.288-1.12-0.544l-0.288-0.192q-0.928-0.576-1.184-0.832-0.384-0.352-0.688-0.752t-0.432-0.672-0.704-1.296l-0.192-0.288q-0.448-0.704-0.512-1.024 0.448 0.48 0.8 0.896 0.032 0.064 0.16 0.256 0.224 0.384 0.384 0.512 0 0.032 0.048 0.016t0.048-0.048q-0.064-0.48 0-1.056t0.256-0.96q0.032-0.032 0.016-0.080t-0.048-0.080q-0.608-0.256-1.056-0.544-0.288-0.192-0.704-0.544l-0.416-0.32-0.224-0.128q-0.64-0.384-0.864-0.8 0.128 0.128 0.672 0.416l0.352 0.16 0.256 0.192q0.224 0.192 0.384 0.256 0 0.032 0.032-0.016t0.032-0.080l-0.128-0.352q-0.224-0.736-0.224-1.28 0-0.032-0.080-0.192t-0.112-0.192q-0.416-0.32-0.672-0.64-0.128-0.192-0.32-0.544-0.128-0.224-0.224-0.352l-0.16-0.256q-0.384-0.48-0.576-0.832-0.32-0.608-0.512-1.312-0.896 0.096-1.6 0.064t-1.568-0.224q-0.128-0.032-0.64-0.352-0.896-0.544-1.344-0.736t-1.088-0.384l-0.416-0.128q-0.32-0.096-0.768-0.192l-0.384-0.064q-1.472-0.288-2.656-0.672-0.384 0.544-0.416 1.28-0.032 0.448 0.064 1.344l0.064 0.512q0.064 0.544 0.096 0.768 0.096 0.352 0.416 0.96 0.256 0.512 0.352 0.8 0.064 0.16 0.16 0.608 0.096 0.384 0.16 0.544l0.128 0.416q0.192 0.448 0.224 0.672 0.192 0.032 0.288-0.048t0.192-0.208q0.192-0.288 0.384-0.288h0.032q0.928 0.064 1.312 0.032 0.608-0.064 0.992-0.336t0.8-0.88q0.288-0.448 0.544-0.928 0.032 0.16-0.032 0.384-0.032 0.128-0.192 0.448t-0.208 0.496-0.112 0.544-0.096 0.496q-0.096 0.192-0.224 0.256t-0.672-0.032l-0.928-0.128q-0.64-0.096-0.832-0.096h-0.032q-0.224 0.032-0.32 0.096-0.256 0.256-0.48 0.512-0.064 0.064-0.064 0.192t0.16 0.32l0.096 0.128q0.096 0.16 0.416 0.592t0.352 0.528q0.064 0.192 0.080 0.672t0.112 0.704q0.032 0.128 0.256 0.352l0.192 0.224q0.096 0.16 0.32 0.512 0.384 0.736 0.672 0.928 0.032 0.032 0.112 0.016t0.048-0.080q-0.224-0.704-0.224-1.664l0.032-0.128q0-0.864-0.032-1.248-0.032-0.16-0.16-0.464t-0.128-0.464q0.416 0.48 0.544 1.056 0.192 0.608 0.032 1.44 0.064 0 0.32 0.224l0.416 0.288 0.512 0.352q0.448 0.288 0.544 0.384 0.256 0.192 0.544 0.768l0.288 0.48q0.48 0.64 0.736 0.896 0.768 0.736 0.992 1.184 0.032 0.064 0.080 0.064t0.080-0.032q0.256-0.448 0.736-0.64 0.608-0.288 0.864-0.288 0.16 0.032 0.32 0.16l0.192 0.096 0.192 0.032q0.032-0.064 0-0.096-0.128-0.384-1.376-1.056-0.16-0.064-0.48-0.16-0.512-0.128-0.672-0.288 0.896 0.032 2.016 0.544 0.64 0.32 1.888 1.024l0.16 0.128q0.128 0.064 0.832 0.608l0.288 0.224q0.256 0.096 0.672 0.128t0.704-0.032q0.096-0.032 0.224-0.128 0.256-0.16 0.416-0.16l0.224 0.16q0.224 0.128 0.288 0.224 0.16 0.16 0.16 0.352-0.352-0.256-0.64-0.288-0.192 0-0.544 0.096-0.576 0.192-1.152 0.096 0.096 0.288 0.48 0.704 0.256 0.32 0.352 0.512 0.16 0.256 0.32 0.736l0.096 0.288 0.16 0.448q0.096 0.32 0.608 1.28l0.064 0.096q0.256 0.416 0.384 0.608 0.288 0.288 0.608 0.352-0.192-0.544-0.096-1.088 0.064-0.288 0.288-0.832 0.192-0.448 0.24-0.656t0.048-0.528v-0.48q0.192 0 0.512 0.128t0.48 0.128q0.192-0.064 0.544-0.288 0.64-0.384 1.024-0.416 0.192-0.032 0.768 0.064l0.352 0.064q-0.864-1.088-2.336-1.792zM8.608 7.84q-0.128 0.096-0.416 0.128t-0.384-0.064q-0.256-0.16-0.336-0.48t0.112-0.48q0.096-0.064 0.176-0.064t0.272 0.032v0q0.064 0 0.16 0.064l0.096 0.064 0.224 0.096q0.128 0.064 0.192 0.304t-0.096 0.4z"></path>
</svg>
