<svg version="1.1" xmlns="http://www.w3.org/2000/svg" width="32" height="32" viewBox="0 0 32 32">
<title>ItemCategory_SoulCrystal</title>
<path d="M27.776 18.112q-1.12-0.256-1.856-0.608-0.544-0.256-0.672-0.48t-0.288-0.896q-0.256-1.152-0.448-3.168-0.032-0.608-0.448-1.008t-0.992-0.4q-0.672 0-1.088 0.576-0.96-2.080-1.664-3.072-0.928-1.344-1.664-2.016-1.184-1.184-2.24-1.152-0.544 0-1.344 0.416-0.448 0.224-1.28 0.768l-0.224 0.16q-1.472 0.96-2.304 2.24l-0.032 0.032-0.064-0.064q-0.128-0.224-0.288-0.864-0.256-1.152-0.416-3.2-0.064-0.576-0.464-0.976t-0.976-0.4-0.976 0.384-0.464 0.96q-0.256 2.208-0.544 3.36-0.128 0.608-0.208 0.736t-0.496 0.352q-0.768 0.384-2.144 0.736-0.48 0.128-0.784 0.528t-0.32 0.912 0.256 0.928 0.752 0.576q1.472 0.48 2.24 0.96 0.416 0.256 0.48 0.416 0.128 0.192 0.288 0.768 0.256 1.024 0.48 2.848 0.064 0.576 0.464 0.944t0.944 0.368q0.288 0 0.544-0.096 1.184 2.304 1.6 3.232 0.288 0.544 0.928 1.088 0.416 0.288 1.28 0.8l0.448 0.256q0.992 0.608 1.632 0.832 0.928 0.288 1.792 0.032 0.576-0.192 1.216-0.544 0.384-0.224 1.12-0.704 0.832-0.512 1.248-0.736 0.256-0.16 0.448-0.384 0.192 0.96 0.384 2.464 0.064 0.576 0.48 0.96t0.96 0.384 0.944-0.384 0.464-0.96q0.256-1.856 0.512-2.88 0.128-0.512 0.24-0.688t0.72-0.496q0.768-0.448 2.016-0.928 0.448-0.16 0.72-0.592t0.24-0.944-0.352-0.896-0.8-0.48zM8.992 17.44q-0.032 0-0.032-0.128-0.352-2.784-0.8-3.52l-0.032-0.032q-0.512-0.832-2.944-1.632-0.064-0.032-0.048-0.144t0.048-0.112q2.432-0.608 2.944-1.408l0.032-0.032q0.416-0.704 0.8-3.968 0-0.096 0.048-0.096t0.048 0.096v0q0.288 3.136 0.8 3.968 0.576 0.96 2.912 1.44 0.032 0.032 0.048 0.144t-0.048 0.112q-2.368 0.896-2.88 1.664h-0.032q-0.448 0.704-0.8 3.52 0 0.128-0.064 0.128zM26.816 19.712q-2.336 0.864-2.88 1.632v0q-0.48 0.704-0.8 3.552-0.032 0.096-0.064 0.096t-0.064-0.096q-0.352-2.784-0.8-3.552v-0.032q-0.544-0.832-2.944-1.632-0.064 0-0.064-0.112t0.064-0.144q2.4-0.608 2.912-1.408l0.032-0.032q0.416-0.704 0.8-3.968 0.032-0.096 0.080-0.096t0.048 0.096v0q0.256 3.136 0.768 3.968 0.608 0.96 2.912 1.472 0.064 0 0.064 0.112t-0.064 0.144z"></path>
</svg>
