<!-- Generated by IcoMoon.io -->
<svg version="1.1" xmlns="http://www.w3.org/2000/svg" width="32" height="32" viewBox="0 0 32 32">
<title>ItemCategory_SeasonalMiscellany</title>
<path d="M4.448 11.808q3.008 1.6 12.992 6.912 0.192 0.128 0.384 0.016t0.224-0.336q0.064-1.6 0.576-3.2 0.544-1.824 1.536-3.2 1.12-1.568 2.688-2.304 0.256-0.096 0.24-0.368t-0.24-0.368q-11.776-4.704-11.872-4.704-2.304 0-3.904 1.184-1.376 0.992-2.144 2.752-0.64 1.504-0.704 3.232 0 0.256 0.224 0.384zM30.368 21.248q-0.032-0.608-0.448-1.056t-1.024-0.544-1.184-0.224v-2.976q0-0.224-0.224-0.352t-0.416-0.032l-2.208 1.312q-0.16-0.608-0.288-1.44l3.104-1.824q-0.16-2.4-1.136-3.44t-2.448-0.336q-1.952 0.928-3.232 3.072-1.344 2.24-1.504 5.216-0.032 0.096 0.064 0.192-0.32 0.128-0.736 0.256-1.184 0.352-2.432 0.576h-0.032l-2.496-1.376q-0.224-0.128-0.448 0t-0.224 0.416v1.088q0 0.192-0.128 0.32t-0.32 0.128l-1.952-0.032q-0.192 0-0.32-0.16l-1.504-1.664q-0.128-0.128-0.128-0.32l-0.032-2.112q0-0.256-0.224-0.384l-3.52-2.080q-0.224-0.128-0.448 0t-0.224 0.384l0.032 5.28q0 0.256 0.192 0.384l12.832 7.776q0.224 0.128 0.464 0t0.24-0.384v-3.424l0.64 0.224 0.64 0.256v2.88q0 0.256 0.208 0.352t0.4-0.032l0.8-0.64q0.16 0.64 0.288 1.408 0.096 0.64 0.576 1.040t1.104 0.4 1.104-0.4 0.576-1.040q0.288-1.76 0.608-2.752 0.192-0.544 0.32-0.704 0.192-0.224 1.024-0.576 1.088-0.448 2.816-0.928 0.576-0.16 0.928-0.656t0.32-1.072zM28.32 21.632q-3.424 0.96-4.16 1.76-0.672 0.736-1.184 3.872-0.032 0.256-0.304 0.256t-0.336-0.256q-0.256-1.504-0.544-2.496t-0.608-1.376q-0.384-0.48-1.664-0.992-0.48-0.192-1.088-0.384-0.672-0.192-1.504-0.384-0.096-0.032-0.16-0.128t-0.064-0.208 0.064-0.192 0.192-0.112q0.736-0.128 1.44-0.32 2.272-0.544 2.784-1.216 0.32-0.384 0.608-1.488t0.576-2.832q0-0.192 0.16-0.256t0.304 0 0.176 0.256q0.128 1.088 0.288 1.952 0.128 0.672 0.288 1.184 0.224 0.832 0.544 1.184 0.576 0.704 2.464 1.184 0.768 0.224 1.664 0.352 0.128 0.032 0.208 0.112t0.080 0.192-0.064 0.208-0.16 0.128z"></path>
</svg>
