<svg version="1.1" xmlns="http://www.w3.org/2000/svg" width="32" height="32" viewBox="0 0 32 32">
<title>ItemCategory_Medicine</title>
<path d="M14.4 9.344q0.064 0.16 0.128 0.256l0.064 0.032h2.816l0.064-0.032q0.064-0.096 0.128-0.256l1.152-4.832 0.032-0.192q-0.032-0.224-0.256-0.384-0.288-0.224-0.864-0.352-1.664-0.32-3.328 0-0.576 0.128-0.864 0.352-0.224 0.16-0.256 0.384l0.032 0.192zM16 28.736q2.528 0 4.672-1.024 2.048-0.992 3.264-2.72t1.216-3.776q0-2.208-1.392-4.016t-3.696-2.736v-6.144l0.544-0.544q0.576-0.64 0.656-1.024t-0.256-0.752-0.784-0.368h-0.8l-1.056 3.968v6.144q0.576 0.128 1.152 0.352 1.024 0.448 1.856 1.152l0.256 0.192h-7.008l-0.608 0.192q-0.736 0.256-1.344 0.64-0.864 0.544-1.344 1.216-0.608 0.832-0.608 1.856 0 2.304 0.608 3.712 0.32 0.736 0.64 0.992-0.736-0.352-1.344-0.864-0.992-0.8-1.504-1.84t-0.512-2.144 0.512-2.128 1.504-1.824q0.832-0.704 1.824-1.12 0.544-0.224 1.12-0.384v-6.144l-1.056-3.968h-0.8q-0.416 0-0.768 0.368t-0.272 0.752 0.656 1.024l0.544 0.544v6.144q-2.272 0.96-3.648 2.752t-1.376 4q0 2.048 1.216 3.776t3.264 2.72q2.144 1.024 4.672 1.024z"></path>
</svg>
