<!-- Generated by IcoMoon.io -->
<svg version="1.1" xmlns="http://www.w3.org/2000/svg" width="32" height="32" viewBox="0 0 32 32">
<title>ItemCategory_Tabletop</title>
<path d="M19.584 18.080l-0.416-1.12q-0.128-0.288-0.4-0.48t-0.624-0.192h-0.224q0.032-0.864-0.096-1.728l0.128-0.096q0.48-0.32 0.832-0.8l0.192-0.224q0.192-0.288 0.32-0.608 0.352-0.736-0.016-1.232t-2.32-1.392q-0.16-0.064-0.112-0.256t0.24-0.128q2.080 0.416 2.672 0.224t0.752-0.992q0.096-0.32 0.096-0.672v-0.288q-0.032-0.608-0.208-1.152t-0.496-1.024l-0.16-0.256q-0.224-0.256-0.48-0.512-0.608-0.544-1.2-0.352t-2.032 1.76q-0.128 0.16-0.272 0.048t-0.048-0.272q1.056-1.856 1.056-2.48t-0.704-1.008q-0.32-0.192-0.64-0.288l-0.288-0.096q-0.544-0.16-1.136-0.16t-1.136 0.16l-0.32 0.064q-0.32 0.128-0.608 0.32-0.704 0.384-0.704 1.008t1.056 2.48q0.096 0.16-0.064 0.272t-0.288-0.048q-1.44-1.568-2.016-1.76t-1.184 0.352q-0.256 0.256-0.48 0.512l-0.16 0.256q-0.32 0.48-0.496 1.024t-0.208 1.12v0.32q0 0.352 0.064 0.672 0.16 0.8 0.752 0.992t2.672-0.256q0.192-0.032 0.256 0.144t-0.128 0.272q-1.92 0.896-2.288 1.392t-0.048 1.232q0.16 0.32 0.352 0.608l0.192 0.224q0.736 0.928 1.824 1.344l0.288 0.096q0.32 0.096 0.672 0.128 0.832 0.096 1.184-0.4t0.608-2.64q0-0.064 0.064-0.128t0.144-0.048 0.144 0.064 0.064 0.112q0.224 2.144 0.592 2.64t1.168 0.4h0.224q0.032 0.512 0.032 1.056h-2.080q-0.32 0-0.592 0.192t-0.4 0.48l-0.448 1.12q-1.568 0.224-2.608 1.376t-1.040 2.752q0 1.44 0.896 2.576t2.304 1.488v0l0.288 1.28q0.032 0.224 0.512 0.496t1.216 0.432q0.864 0.192 1.872 0.192t1.872-0.192q0.736-0.16 1.216-0.432t0.512-0.496l0.288-1.28q1.408-0.352 2.304-1.488t0.896-2.576q0-1.6-1.040-2.752t-2.608-1.376zM15.456 20.288q-0.992 0.544-1.568 1.6-0.32 0.576-0.544 1.408l-0.032 0.16q-0.032 0.096-0.16 0.096l-1.856-0.672q-0.16-0.032-0.16-0.192-0.032-1.76 1.024-2.752 0.544-0.512 1.344-0.8 0.064 0 0.096 0.032l1.856 0.8q0.096 0.064 0.096 0.176t-0.096 0.144z"></path>
</svg>
