<svg version="1.1" xmlns="http://www.w3.org/2000/svg" width="32" height="32" viewBox="0 0 32 32">
    <title>ItemCategory_Shield</title>
    <path d="M25.824 10.88l-0.448-0.192q-0.512-0.224-0.928-0.544-0.608-0.448-0.928-0.992-0.576-0.896-0.736-1.984-0.096-0.512-0.064-0.864l-0.896-0.544q-1.184-0.64-2.464-1.216-1.216-0.512-2.432-0.832-0.608-0.16-0.96-0.192l-0.448 0.064q-0.576 0.128-1.216 0.32-0.864 0.256-1.728 0.64-1.28 0.576-2.464 1.216l-0.896 0.544v0.416q-0.032 0.512-0.192 1.056-0.192 0.736-0.608 1.376-0.448 0.768-1.408 1.312-0.512 0.288-0.896 0.416v0.832q0.064 1.088 0.288 2.304 0.288 1.664 0.896 3.392 0.736 2.112 1.92 4.16 1.632 2.816 3.36 4.768 1.28 1.408 2.464 2.208 0.576 0.416 0.928 0.544l0.352-0.192q0.448-0.224 0.96-0.64 0.736-0.544 1.472-1.312 0.96-0.928 1.856-2.144 1.088-1.44 2.112-3.232 1.184-2.048 1.92-4.16 0.608-1.728 0.896-3.392 0.224-1.216 0.288-2.304v-0.832zM21.248 20.448q-0.992 1.728-2.048 3.2-0.832 1.152-1.664 2.112-0.608 0.672-1.152 1.152l-0.416 0.384-0.416-0.384q-0.544-0.48-1.152-1.152-0.832-0.96-1.664-2.112-1.056-1.472-2.048-3.2-1.792-3.104-2.496-6.304-0.352-1.6-0.352-2.592l0.384-0.224q0.48-0.288 0.864-0.608 0.544-0.416 0.832-0.896 0.48-0.768 0.768-1.76 0.16-0.48 0.192-0.8l0.256-0.192q0.352-0.256 0.8-0.512 0.64-0.32 1.36-0.592t1.424-0.4q0.48-0.096 0.928-0.128h0.672q0.416 0.032 0.928 0.128 0.672 0.128 1.392 0.4t1.36 0.592q0.448 0.256 0.8 0.512l0.256 0.192 0.096 0.384q0.096 0.48 0.288 0.96 0.256 0.672 0.608 1.216 0.288 0.448 0.832 0.896 0.384 0.32 0.832 0.608l0.384 0.224-0.032 0.704q-0.096 0.864-0.32 1.888-0.32 1.376-0.832 2.816-0.672 1.792-1.664 3.488zM21.12 10.144q-0.448-0.704-0.704-1.664-0.128-0.448-0.16-0.768l-0.16-0.16q-0.256-0.16-0.608-0.352-0.512-0.256-1.152-0.512t-1.248-0.384q-0.448-0.096-0.832-0.096h-0.576q-0.384 0-0.832 0.096-0.608 0.128-1.248 0.384-0.896 0.352-1.504 0.704-0.288 0.192-0.416 0.32l-0.064 0.352q-0.096 0.48-0.256 0.928-0.224 0.64-0.544 1.152-0.416 0.608-0.928 1.024-0.384 0.32-0.8 0.512l-0.32 0.128 0.032 0.64q0.096 0.832 0.288 1.76 0.256 1.28 0.736 2.592 0.608 1.632 1.472 3.216t1.792 2.96q0.768 1.056 1.504 1.92 0.544 0.64 1.024 1.088l0.352 0.32 0.384-0.32q0.48-0.448 0.992-1.088 0.768-0.864 1.504-1.952 0.928-1.344 1.792-2.928t1.472-3.216q0.48-1.312 0.736-2.592 0.224-0.928 0.288-1.76l0.032-0.64-0.32-0.128q-0.416-0.192-0.8-0.512-0.512-0.416-0.928-1.024zM16 14.976q0 0.352-0.208 0.528t-0.496 0.176h-4.576q-0.736 0-1.056-1.792-0.256-1.472 0.032-1.664t0.832-0.704q0.736-0.704 1.056-1.28 0.224-0.448 0.384-0.96 0.096-0.384 0.128-0.736l0.032-0.288 0.512-0.32q0.608-0.384 1.088-0.608 0.8-0.352 1.568-0.416 0.288-0.032 0.496 0.112t0.208 0.464v7.488zM21.472 16.608q-0.128 0.48-0.544 1.472-0.576 1.472-1.312 2.688-0.96 1.664-1.936 2.896t-1.36 1.232q-0.288 0-0.288-0.448v-8q0-0.256 0.176-0.4t0.432-0.144h4.384q0.32 0 0.416 0.224t0.032 0.48z"></path>
</svg>
