<!-- Generated by IcoMoon.io -->
<svg version="1.1" xmlns="http://www.w3.org/2000/svg" width="32" height="32" viewBox="0 0 32 32">
<title>class_job_017</title>
<path d="M27.264 27.040q-0.16 0-0.32-0.032-0.416-0.064-0.96-0.224-0.736-0.224-1.6-0.544-1.12-0.48-2.112-1.248v0q0.032-0.32-0.288-0.832-0.224-0.384-0.64-0.8l-0.256-0.256q-0.192-0.224-0.352-0.608t-0.192-0.624 0.064-0.432l0.032-0.096q0.064-0.192-0.016-0.192t-0.192 0.288-0.112 0.672q0 0.448 0.256 1.28 0.064 0.256 0.096 0.8v0l-1.12-0.8q-0.48-0.384-0.896-0.832 0.16-0.096 0.304-0.288t0.208-0.864-0.064-1.408q-0.128-0.832-0.448-1.344-0.224-0.448-0.512-0.8l-0.224-0.256-0.96-1.952q-0.224-0.48-0.624-1.088t-0.56-0.736v-0.032q-0.448-0.448-0.496-0.384t0.272 0.416q0.128 0.128 0.416 0.64 0.352 0.608 0.608 1.152 0.32 0.864 0.512 1.888v0l-0.064 0.32t-0.032 0.512v0l-0.448-0.768q-0.256-0.448-0.608-0.832v0q-0.224-1.312-0.544-1.952t-0.864-1.12q-0.096-0.416-0.224-0.8-0.256-0.672-0.768-1.568l-0.128-0.256q-0.064-0.192-0.24-0.4t-0.192-0.192 0.144 0.304l0.064 0.128q0.032 0.064 0.224 0.608l0.224 0.576q0.224 0.64 0.32 1.344-0.032 0.096-0.064 0.16l-0.192 0.352q-0.096-0.16-0.256-0.32t-0.32-0.384q-0.16-1.024-0.464-2.016t-0.816-1.856q-0.192-0.352-0.432-0.688t-0.272-0.304 0.16 0.48l0.16 0.32q0.48 1.056 0.448 1.696-0.064 0.352-0.192 0.704l-0.448-0.416q-0.224-0.16-0.704-0.512 0.224-1.024-0.096-1.856-0.192-0.448-0.48-0.864v0q-0.416-1.024-0.992-1.664-0.352-0.416-0.416-0.32l0.16 0.256q0.224 0.32 0.448 0.672 0.096 0.16 0.288 0.672l0.16 0.48q-0.064 0.16-0.112 0.32t-0.112 0.448q-0.512-0.768-1.12-1.296t-0.832-0.496q-0.032 0 0.128 0.128 0.736 0.704 1.184 1.44 0.736 1.184 0.576 1.824-0.064 0.128-0.288 0.192-0.096-0.928-0.544-1.568-0.32-0.48-0.832-0.928-0.352-0.32-0.768-0.608l-0.32-0.192q-0.576-0.672-0.992-1.472-0.224-0.448-0.544-1.28-0.224-0.512-0.272-0.512t0.112 0.688 0.416 1.2l0.672 1.6q0 0.8 0.288 1.536 0.032 0.352 0.128 0.816t0.192 0.688q0.192 0.48 0.48 0.896l-0.128-0.032q-0.16-0.032-0.256-0.096t-0.464-0.432-0.624-0.656l-0.384-0.512q-0.448-0.608-0.496-0.576t0.256 0.56 0.624 1.008l0.768 1.024 0.096 0.384q0.192 0.48 0.496 0.736t0.624 0.448q0.256 0.096 0.48 0.16l0.16 0.032 0.512 0.704h-0.64q-0.32 0-0.608 0.032-0.544-0.32-0.96-0.8-0.288-0.352-0.672-0.896l-0.192-0.224q-0.32-0.384-0.368-0.352t0.048 0.224 0.192 0.32l0.192 0.224q1.088 1.536 1.568 1.952 1.344 1.248 2.176 1.632 0.352 0.128 0.704 0.224l0.736 1.12-1.152-0.096q-0.064 0-0.416-0.176t-0.64-0.4q-0.512-0.448-1.248-1.248l-0.256-0.32q-0.16-0.224-0.176-0.208t0.048 0.176 0.128 0.256q0.576 0.8 1.248 1.472 0.288 0.32 1.216 1.056l0.192 0.192q0.48 0.544 0.928 0.896 0.352 0.224 0.992 0.288l0.544 0.512 0.48 0.512 0.128 0.352q0.064 0.192 0.16 0.352l-0.256-0.064q-0.352-0.096-0.768-0.384-0.224-0.16-0.656-0.512t-0.528-0.448q-0.448-0.48-0.496-0.432t0.24 0.4q0.16 0.224 0.608 0.704 0.544 0.576 0.8 0.768l0.448 0.32q0.64 0.448 0.768 0.608 0.288 0.384 0.736 0.704 0.768 0.576 1.744 0.72t1.84-0.080q0.416-0.128 0.64-0.288v0 0q0.416 0.384 0.64 0.544 0.288 0.256 0.544 0.512v0q-0.224 0.032-0.608 0.032t-1.056 0.128q-0.768 0.16-1.264 0.368t-0.912 0.56q-0.16 0.128-0.192 0.32 0.128 0 0.24-0.080t0.496-0.224 0.608-0.144q0.48 0 1.184 0.224 0.32 0.128 0.864 0.192 0.672 0.128 1.248 0.128t1.248-0.192l0.192-0.064q0.032 0 0.768 0.48 0.832 0.544 1.216 0.736 0.576 0.352 1.536 0.784t1.088 0.432q0.288-0.032 0.8-0.448l0.352-0.352t0.064-0.16zM8.096 11.584q-0.096 0-0.224-0.064l-0.128-0.064q-0.352-0.256-0.56-0.592t-0.24-0.72q0.384 0.512 0.624 0.688t0.528 0.208l0.064 0.256v0.16q0 0.128-0.064 0.128zM9.472 14.368q-0.288-0.16-0.576-0.48l-0.192-0.288q0.256 0.064 0.512 0.096 0.16 0.032 0.352 0l0.384 0.416 0.384 0.448h-0.256q-0.288-0.032-0.608-0.192zM10.912 11.52l0.16 0.16q0.224 0.224 0.48 0.544 0.192 0.256 0.256 0.608 0.064 0.256 0.016 0.432t-0.176 0.176l-0.128-0.032q-0.16-0.16-0.288-0.32l-0.288-0.352v-0.48zM12.672 18.144q-0.032 0.064-0.192 0.016t-0.352-0.144q-0.288-0.16-0.704-0.608l-0.384-0.448q0.256 0.064 0.464 0.096t0.4-0.032l0.48 0.544q0.192 0.192 0.256 0.352t0.032 0.224zM13.6 14.656q0.096 0.064 0.256 0.096l0.096 0.672q0.032 0.224 0.128 0.544l0.064 0.32-0.256-0.032q-0.064-0.096-0.16-0.224l-0.16-0.16-0.032-0.576q-0.064-0.416-0.16-0.8 0.096 0.096 0.224 0.16zM14.624 21.312q-0.128-0.032-0.304-0.128t-0.336-0.16q-0.384-0.16-0.64-0.512 0.256-0.032 0.512-0.032t0.448 0.064l0.768 0.672q-0.224 0.096-0.448 0.096zM16.832 20.192l-0.192-0.256q-0.192-0.288-0.288-0.384l-0.32-0.384q0.032-0.288 0.064-0.544 0.032-0.16 0.064-0.448v-0.256q0.032 0 0.24 0.272t0.368 0.56q0.224 0.384 0.224 0.64 0.064 0.416-0.16 0.8z"></path>
</svg>
