<!-- Generated by IcoMoon.io -->
<svg version="1.1" xmlns="http://www.w3.org/2000/svg" width="32" height="32" viewBox="0 0 32 32">
<title>class_job_001</title>
<path d="M27.168 26.144q-0.128-0.064-0.416-0.288l-0.032-0.064q-0.096-0.064-0.16-0.032l-0.384 0.384q-0.128 0.128-0.224 0.016t0-0.24l0.384-0.352-3.008-3.328-0.608 0.64q-0.064 0.032-0.144 0.048t-0.144-0.048-0.048-0.144 0.048-0.112l2.4-2.4-0.704-0.704-1.248 1.248q-0.096 0.096-0.416 0.064-0.224 0-0.448-0.064-0.096-0.032-0.16 0l-0.064 0.032-0.448 0.448h-0.064q-0.064 0-0.128-0.064t-0.032-0.192l0.32-0.32-0.416-0.416q-0.128-0.416-0.112-0.88t0.176-0.912l-0.32-0.032q-0.384-0.128-0.832-0.352-0.64-0.352-1.28-0.928-1.248-1.152-3.296-3.168-2.304-2.272-3.52-3.632t-2.56-2.992l-1.12-1.344-4.16-2.016 2.016 4.16 1.344 1.12q1.632 1.344 2.992 2.56t3.632 3.52q2.016 2.048 3.168 3.296 0.8 0.928 1.152 1.76 0.16 0.416 0.16 0.672v0q0.448-0.16 0.912-0.176t0.88 0.112l0.672 0.672-0.128 0.096-0.032 0.064q-0.032 0.064 0 0.16 0.064 0.224 0.064 0.448 0.032 0.32-0.064 0.416l-1.248 1.248 0.704 0.704 1.76-1.76 3.52 3.2 0.256 0.288q-0.032 0.064 0.032 0.16l0.064 0.032q0.224 0.288 0.288 0.432t0.064 0.464v0.288l0.16 0.064q0.224 0.032 0.48 0 0.48-0.064 0.784-0.368t0.368-0.784q0.032-0.256 0-0.48l-0.064-0.16h-0.288q-0.32 0-0.48-0.064zM21.696 11.808q1.312-1.184 2.944-2.528l1.344-1.12 2.016-4.16-4.16 2.016-1.12 1.344q-1.344 1.632-2.56 2.944-1.376 1.568-3.936 4.064l1.408 1.376q2.496-2.528 4.064-3.904v-0.032zM13.344 17.152q-0.64 0.576-1.28 0.928-0.448 0.224-0.832 0.352l-0.32 0.032q0.16 0.448 0.176 0.912t-0.112 0.88l-0.416 0.416 0.32 0.32q0.032 0.128-0.032 0.192t-0.128 0.064h-0.064l-0.448-0.448-0.064-0.032q-0.064-0.032-0.16 0-0.224 0.064-0.448 0.064-0.32 0.032-0.416-0.064l-1.248-1.248-0.704 0.704 2.4 2.4q0.032 0.032 0.048 0.112t-0.048 0.144-0.144 0.048-0.144-0.048l-0.608-0.64q-2.752 3.072-3.008 3.328l0.384 0.352q0.096 0.128 0.032 0.208t-0.128 0.064-0.128-0.048l-0.352-0.384q-0.096-0.032-0.16 0.032l-0.064 0.032q-0.288 0.256-0.432 0.32t-0.464 0.064h-0.288l-0.064 0.16q-0.032 0.224 0 0.48 0.064 0.48 0.368 0.784t0.784 0.368q0.416 0.032 0.64-0.064v-0.288q0-0.32 0.064-0.464t0.288-0.4l0.064-0.096q0.064-0.064 0.032-0.16l0.256-0.256 3.552-3.2 1.728 1.76 0.704-0.704-1.248-1.248q-0.096-0.096-0.064-0.416 0-0.224 0.064-0.448 0.032-0.096 0-0.16l-0.032-0.064-0.128-0.128 0.672-0.64q0.416-0.128 0.88-0.112t0.912 0.176l0.032-0.32q0.128-0.384 0.352-0.832 0.352-0.64 0.96-1.28l0.896-0.992-1.472-1.44q-0.512 0.512-0.96 0.928z"></path>
</svg>
