<!-- Generated by IcoMoon.io -->
<svg version="1.1" xmlns="http://www.w3.org/2000/svg" width="32" height="32" viewBox="0 0 32 32">
<title>class_job_005</title>
<path d="M17.248 16.064l7.104-7.104h0.448q0.288 0.16 0.656 0.144t0.656-0.272q0.384-0.288 0.512-0.768 0.096-0.288 0.128-0.864 0.032-0.384 0.064-0.544 0.064-0.288 0.192-0.448 0.32-0.352 0.864-0.64 0.128-0.064 0.128-0.096t-0.208-0.032-0.528 0.080-0.672 0.352-0.384 0.464l-0.032 0.192q-0.064 0.416-0.288 0.64-0.416 0.416-0.96 0.352-0.48-0.032-0.768-0.32-0.16-0.16-0.224-0.512-0.032-0.256 0-0.544l0.032-0.288-0.576-0.096q-0.768-0.064-1.568-0.032-1.152 0.032-2.24 0.32-1.248 0.288-2.592 0.928-0.736 0.384-1.888 1.024-0.672 0.416-0.832 0.448-0.512 0.16-1.504 0.032-0.48-0.096-0.992-0.384l-0.128-0.096q-0.288-0.032-0.576 0-0.064 0-0.064 0.032t0.096 0.128l1.376 1.408q0.224 0.192 0.080 0.336t-0.4 0.112q-0.16 0-0.4-0.096t-0.272-0.064l-0.256 0.256q-0.032 0.032 0 0.096l1.184 1.184q0.064 0.064 0.16 0l0.704-0.704q0.128-0.128 0.288 0l0.672 0.704q0.096 0.096 0.224-0.128 0.448-0.928 1.12-1.696t1.984-1.328 2.88-0.784q1.088-0.192 2.112 0.064 0.8 0.192 1.44 0.608v0.512l-7.072 7.072q-0.064 0.032-0.064 0.080t0.032 0.080l0.224 0.224q0.064 0.064 0.128-0.032zM5.504 28l0.064-0.128q0.288-0.544 0.64-0.864 0.16-0.128 0.416-0.16 0.192-0.032 0.544-0.064 0.608-0.064 0.896-0.128 0.48-0.16 0.768-0.544 0.224-0.256 0.256-0.624t-0.16-0.656v-0.448l7.488-7.488 6.656 6.688 0.064 1.376 0.32 0.32 0.032-0.64q0-0.16 0.16-0.224l-0.032 1.024 2.208 2.208-0.064-1.568 0.32-0.32 1.568 0.064-2.208-2.208-1.024 0.032q0.064-0.16 0.224-0.16l0.608-0.032-0.32-0.352-1.344-0.032-14.784-14.784q-1.216-1.184-1.184-1.504 0.032-0.16 0.288-0.224 0.096-0.032 0.224-0.032v0l-4.128-2.528 2.496 4.128 0.064-0.224q0.064-0.256 0.224-0.256 0.32-0.064 1.504 1.152l2.144 2.144-0.576 0.544q-0.032 0.032 0.048 0.272t0.112 0.4q0.032 0.288-0.112 0.416t-0.336-0.064l-1.408-1.408q-0.096-0.096-0.128-0.096t-0.032 0.096q-0.032 0.256 0 0.544l0.096 0.128q0.288 0.512 0.384 0.992 0.128 0.992-0.032 1.504-0.032 0.16-0.448 0.864-0.64 1.12-1.024 1.888-0.64 1.312-0.928 2.56-0.288 1.12-0.32 2.24-0.032 0.832 0.032 1.568l0.096 0.576 0.256-0.032q0.32-0.032 0.576 0.032 0.352 0.032 0.512 0.192 0.288 0.288 0.32 0.768 0.064 0.544-0.352 0.96-0.224 0.224-0.608 0.288l-0.224 0.032q-0.256 0.096-0.48 0.4t-0.32 0.64-0.080 0.544 0.048 0.208zM8.128 24q-0.416-0.64-0.608-1.44-0.256-1.024-0.064-2.112 0.224-1.568 0.784-2.88t1.328-1.984 1.696-1.12q0.224-0.128 0.128-0.224l-0.704-0.672q-0.128-0.16 0-0.288l1.056-1.056 4.32 4.352-7.424 7.424h-0.512z"></path>
</svg>
