<svg version="1.1" xmlns="http://www.w3.org/2000/svg" width="32" height="32" viewBox="0 0 32 32">
<title>class_job_038</title>
<path d="M25.632 13.568q-0.064 1.152-0.416 2t-1.088 1.776q-0.48 0.608-1.856 2.080l-0.608 0.608q-1.728 1.888-2.912 3.456-0.672 0.928-1.024 1.568-0.224 0.416-0.56 1.248t-0.528 1.152q-0.32 0.448-0.704 0.448v0q-0.384 0-0.704-0.448-0.16-0.32-0.512-1.152t-0.576-1.248q-1.088-1.952-3.936-5.024l-0.608-0.608q-1.376-1.472-1.856-2.080-0.736-0.928-1.088-1.776t-0.416-2q-0.128-1.696 0.704-2.88 0.736-1.088 1.92-1.376v0q1.6-0.384 3.072-1.376 2.368-1.6 4-4.576v0q1.632 2.976 4 4.576 1.472 0.992 3.072 1.376v0q1.184 0.288 1.92 1.376 0.832 1.184 0.704 2.88zM23.552 13.088q-0.096-0.992-0.64-1.568-0.48-0.48-1.2-0.576t-1.424 0.16q-0.96 0.288-1.184 1.376-0.128 0.64 0 1.952 0.064 0.704 0.064 0.928-0.032 0.384-0.224 0.416-0.48 0.096-1.024-0.512-0.512-0.512-0.896-1.328t-0.512-1.392q-0.032-0.192 0.032-0.544 0.064-0.48 0.256-0.896 0.192-0.512 0.896-1.056 0.608-0.448 0.896-0.48-0.32-0.096-1.504-1.312l-1.152-1.216h-0.032q-2.144 2.368-2.624 2.528 0.288 0.032 0.896 0.48 0.704 0.544 0.896 1.056 0.192 0.416 0.256 0.896 0.064 0.352 0.032 0.544-0.096 0.576-0.496 1.392t-0.88 1.328q-0.576 0.608-1.056 0.512-0.192-0.032-0.224-0.416 0-0.224 0.064-0.928 0.128-1.312 0-1.952-0.224-1.088-1.184-1.376-0.704-0.256-1.424-0.16t-1.2 0.576q-0.544 0.576-0.64 1.568-0.128 1.216 0.672 2.528 0.48 0.768 1.76 2.176l0.512 0.544q1.056 1.184 2.784 2.72 0.896 0.832 1.216 1.184 0.512 0.544 0.672 1.024 0.16-0.48 0.672-1.024 0.32-0.352 1.216-1.184 1.728-1.536 2.784-2.72l0.512-0.544q1.28-1.376 1.76-2.176 0.8-1.312 0.672-2.528z"></path>
</svg>
