<!-- Generated by IcoMoon.io -->
<svg version="1.1" xmlns="http://www.w3.org/2000/svg" width="32" height="32" viewBox="0 0 32 32">
<title>class_job_037</title>
<path d="M26.24 7.104q-1.088 1.536-2.176 3.040l-0.064 0.16q-0.128 0.224-0.416 0.576-0.384 0.448-1.024 1.088l-10.848 10.752q1.472 0.928 3.184 1.056t3.296-0.56 2.672-2.016 1.44-3.024q0.128-0.736 0.576-1.056 0.352-0.256 0.784-0.224t0.752 0.352q0.416 0.384 0.32 0.992-0.448 2.88-2.144 4.8 0 0.16 0.128 0.608 0.224 0.768 0.224 1.152 0.032 0.64-0.32 0.928-0.32 0.256-0.8 0.064-0.288-0.096-0.896-0.448-0.384-0.224-0.512-0.288-0.256-0.128-0.352-0.064-2.464 1.376-5.264 1.2t-5.040-1.872l-0.032 0.032q-2.176 1.568-2.976 2.080-0.416 0.288-0.672 0.352-0.224 0.032-0.32 0l-0.192-0.192q-0.064-0.128 0-0.32 0.064-0.288 0.32-0.672 0.64-0.896 2.176-3.040l0.096-0.16q0.128-0.224 0.384-0.576 0.416-0.48 1.056-1.12l9.792-9.696q-1.6-1.088-3.552-1.216t-3.68 0.784-2.736 2.592-1.008 3.632q0 0.544-0.224 0.96-0.256 0.448-0.816 0.496t-0.976-0.384-0.416-1.072q0-2.112 0.864-3.968t2.432-3.2 3.552-1.92q0.096-0.032 0.192-0.256 0.064-0.16 0.192-0.576 0.224-0.768 0.384-1.088 0.256-0.576 0.64-0.608t0.832 0.512q0.224 0.32 0.64 1.056 0.352 0.64 0.448 0.64 2.784 0.192 4.992 1.888 0.928-0.832 1.184-0.864v0l3.072-2.176q0.416-0.256 0.672-0.32 0.192-0.064 0.32 0l0.192 0.192q0.064 0.128 0 0.32-0.064 0.288-0.352 0.672z"></path>
</svg>
