<svg version="1.1" xmlns="http://www.w3.org/2000/svg" width="32" height="32" viewBox="0 0 32 32">
<title>class_job_013</title>
<path d="M27.936 26.848q-0.032-0.096-1.184-1.344l-1.12-1.216v-0.352q0-0.352-0.032-0.512t-0.224-0.448q-0.32-0.416-0.32-0.672t0.256-0.512l0.256-0.224-0.32-0.288q-0.352-0.32-0.592-0.32t-0.336 0.080-0.176 0.208-0.16 0.176-0.24 0.048-0.24-0.112-0.032-0.224 0.208-0.288 0.24-0.304 0.112-0.336 0.048-0.704-0.144-1.232q-0.128-0.448-0.224-0.736-0.064-0.224-0.384-0.192-0.096 0-0.544 0.384-0.352 0.352-0.448 0.4t-0.176-0.016-0.080-0.192 0.608-0.8q0.352-0.352 0.384-0.448 0.16-0.256 0.112-0.512t-0.512-1.072-0.72-1.024-0.544-0.048q-0.096 0.064-1.344 1.248-1.376 1.312-1.472 1.36t-0.128 0.016-0.016-0.112 1.168-1.424q1.12-1.216 1.248-1.44 0.256-0.352 0.080-0.704t-0.768-0.928-0.96-0.704-0.56 0q-0.064 0.064-1.856 1.792l-1.312 1.248q-0.032 0.032-0.064 0t-0.016-0.112 1.232-1.52 1.408-1.76q0.16-0.224 0.032-0.432t-0.72-0.624-0.848-0.48q-0.416-0.096-0.64 0.032-0.096 0.032-0.768 0.72t-0.752 0.704-0.144-0.064-0.016-0.208 0.848-1.12l0.032-0.064q0.128-0.128 0.096-0.336t-0.16-0.304q-0.352-0.224-1.328-0.304t-1.264 0.048q-0.128 0.032-0.544 0.416-0.352 0.288-0.384 0.288-0.352 0.128-0.256-0.288 0-0.096 0.192-0.256 0.32-0.288 0.336-0.528t-0.304-0.656q-0.128-0.224-0.32-0.384v0l-0.224 0.256q-0.288 0.256-0.512 0.288t-0.672-0.32q-0.288-0.224-0.416-0.224-0.288-0.064-0.864-0.032l-1.216-1.12q-1.248-1.152-1.36-1.2t-0.24-0.048-0.192 0.064 0.064 0.352q0.032 0.128 1.184 1.344l1.12 1.248v0.32q0 0.352 0.032 0.512t0.256 0.448q0.32 0.448 0.304 0.672t-0.272 0.512q-0.128 0.128-0.256 0.224l0.416 0.352q0.448 0.352 0.672 0.352 0.096-0.032 0.24 0.048t0.208 0.208-0.128 0.544-0.192 0.576q0 0.256 0.24 1.136t0.336 0.992 0.32 0.080 0.304 0.048-0.080 0.4q-0.128 0.256-0.128 0.384-0.032 0.448 0.832 1.728 0.96 1.44 2.272 2.72t2.592 2.016q0.992 0.544 1.504 0.544 0.352 0 0.704-0.32 0.096-0.096 0.144-0.080t0.016 0.272 0 0.32q0.16 0.224 0.48 0.384 0.512 0.256 1.344 0.32 1.152 0.064 1.44-0.16 0.064-0.032 0.096-0.032 0.192 0.064 0.208 0.176t-0.016 0.304l-0.032 0.128q-0.032 0.224 0.288 0.64l0.352 0.352 0.224-0.256q0.288-0.256 0.512-0.288t0.672 0.32q0.288 0.224 0.416 0.256 0.288 0.032 0.864 0l1.216 1.152q1.248 1.12 1.36 1.168t0.24 0.048 0.192-0.064-0.064-0.352zM18.56 23.744q-0.128 0.032-0.512 0.288-0.832 0.512-1.44 0.736-1.024 0.448-2.048 0.48-2.144 0.064-3.328-2.144-0.256-0.512-0.992-2.528l-0.416-1.12q-0.448-1.184-1.12-1.92-0.8-0.896-1.888-1.024-0.896-0.096-1.6 0.256-0.544 0.256-0.896 0.8-0.288 0.448-0.32 0.848t0.096 0.56 0.256 0.16q0.256 0 0.32-0.224 0.192-0.608 0.608-1.024 0.576-0.576 1.472-0.448 1.056 0.128 1.792 1.408 0.448 0.736 1.056 2.56 0.48 1.344 0.736 1.856 0.928 1.824 2.24 2.496 1.024 0.544 2.368 0.416 2.464-0.256 4.576-1.92 0.064-0.032 0.096-0.128t0-0.128q-0.064-0.16-0.464-0.256t-0.592 0z"></path>
</svg>
