<!-- Generated by IcoMoon.io -->
<svg version="1.1" xmlns="http://www.w3.org/2000/svg" width="32" height="32" viewBox="0 0 32 32">
<title>class_job_006</title>
<path d="M7.936 17.664q0-0.384-0.24-0.656t-0.592-0.272-0.592 0.272-0.24 0.656 0.24 0.64 0.592 0.256 0.592-0.256 0.24-0.64zM11.264 10.624q0.416 0 0.72-0.32t0.304-0.768-0.304-0.768-0.72-0.32-0.704 0.32-0.288 0.768 0.288 0.768 0.704 0.32zM17.152 8.224q0.384 0 0.656-0.304t0.272-0.72-0.272-0.72-0.656-0.304-0.656 0.304-0.272 0.72 0.272 0.72 0.656 0.304zM23.584 9.568q0.352 0 0.608-0.256t0.256-0.64-0.256-0.656-0.608-0.272-0.592 0.272-0.24 0.656 0.24 0.64 0.592 0.256zM27.488 8.32q-0.224 0.224-0.448 0.48-0.512 0.48-0.736 0.64-0.128 0.064-0.352 0.16l-0.224 0.064-0.224 0.128q-0.256 0.192-0.416 0.224-0.32 0.128-0.832 0.192t-0.96 0.064q-0.352 0-0.576-0.032l-0.128-0.032q0.032-0.096 0.112-0.208t0.208-0.208v-0.064q0-0.032-0.032-0.080t-0.256 0.096-0.384 0.272q-0.16-0.192-0.272-0.416t-0.176-0.608q-0.096-0.448-0.064-0.864 0.096-1.248 0.448-1.856 0.192-0.32 0.448-0.768l0.256-0.352q-0.192 0.032-0.368 0.112t-0.624 0.496q-0.512 0.48-0.704 0.832-0.448 0.672-0.416 1.216 0 0.256 0.192 0.704 0.128 0.384 0.256 0.576 0.352 0.576 0.8 1.056l-0.352 0.352q-0.384 0.384-0.576 0.608-0.256 0.288-0.512 1.12l-0.032 0.064q-0.096 0.192-0.288 0.288l-0.224 0.096q-0.256 0.096-0.352 0.16-0.256 0.192-0.48 0.384-0.256-0.256-0.352-0.64-0.096-0.512-0.48-1.472-0.128-0.288-0.32-0.672l-0.16-0.352 0.32-0.384q0.384-0.416 0.544-0.672 0.224-0.384 0.48-0.992 0.32-0.736 0.384-1.088 0.096-0.768-0.288-1.632-0.256-0.512-0.592-0.88t-0.848-0.784q-0.416-0.384-0.544-0.448t-0.16-0.032l0.128 0.16q0.544 0.672 0.688 1.024t0.112 0.96l-0.064 0.544 0.16 0.192q0.192 0.224 0.24 0.464t0.032 0.752-0.080 0.864q-0.096 0.48-0.256 0.864-0.128 0.288-0.288 0.512l-0.128 0.16-0.192-0.256-0.032-0.16q-0.032-0.192-0.096-0.288t-0.144-0.176-0.144-0.048-0.016 0.144 0.048 0.24-0.096 0.128v0q-0.192-0.32-0.416-0.576l-0.256-0.256q-0.928-1.088-1.568-1.584t-1.296-0.816-1.088-0.32-0.72 0.16q-0.224 0.128-0.608 0.48l-0.32 0.288q-0.16 0.16-0.224 0.24t-0.064 0.272l0.192-0.128q0.224-0.128 0.608-0.128 0.48 0 1.344 0.64l0.896 0.608 0.512-0.064q0.544-0.064 0.8 0.032 0.64 0.192 0.96 0.48 0.192 0.16 0.512 0.544t0.352 0.416q0.064 0.256 0.128 0.288l0.064 0.032q0.288 0.192 0.448 0.384 0.32 0.352 0.576 1.12 0.352 0.992 0.352 1.824 0 0.256-0.080 0.768t-0.080 0.8q-0.032 0.928-0.768 2.144-0.16 0.256-0.16 0.288l0.096 0.16q0.32 0.48 0.416 0.8 0.032 0.16 0.144 0.384t0.080 0.32q-0.032 0.16-0.32 0.384v0q-0.32 0.224-0.672 0.384l0.064 0.128q0.128 0.096 0.32 0.192l0.128 0.032q0.416 0.16 0.64 0.352 0.128 0.128 0.32 0.368t0.192 0.304q-0.512-0.352-1.056-0.608-0.288-0.128-0.768-0.288-0.384-0.096-0.608-0.192-1.152-0.48-2.208-1.184-0.704-0.48-1.248-1.152-0.32-0.096-0.64-0.288l-0.128-0.064q-0.32-0.192-0.368-0.336t-0.016-0.496l0.064-0.352-0.288-0.832q-0.256-0.864-0.288-1.216-0.064-0.48-0.064-0.992l0.384-0.448q0.448-0.448 0.736-0.576 0.736-0.352 1.28-0.352 0.16 0 0.704 0.096l0.256 0.032q0.064 0 0.464-0.304t0.656-0.592l0.448-0.544q0.416-0.48 0.448-0.56t0.064-0.208l-0.384 0.224q-0.416 0.16-0.832 0.16-0.192 0-0.704-0.064l-0.256-0.032q-0.128 0-0.544 0.16-0.544 0.224-1.056 0.592t-0.928 0.784q-0.32 0.32-0.544 0.64l-0.16 0.256q-0.064-0.16-0.064-0.32 0-0.32 0.096-0.608v0q0-0.128-0.096-0.176t-0.24 0.16-0.224 0.416-0.048 0.432l-0.128-0.032q-0.128-0.096-0.256-0.224v-0.032q-0.384-0.544-0.512-0.8-0.256-0.64-0.256-1.344 0-0.352 0.096-0.64 0.064-0.224 0.16-0.384l0.128-0.128q-0.16-0.544-0.128-1.088 0.032-0.384 0.096-0.608l0.032-0.128q0.032-0.256 0.096-0.48t0.16-0.384 0.096-0.32l-0.32 0.288q-0.448 0.416-0.896 0.992-0.544 0.672-0.768 1.184t-0.256 1.056q-0.032 1.184 1.12 2.304l1.44 1.408q-0.032 0.352-0.032 0.736 0.032 0.48 0.16 0.96 0.256 0.832 0.256 1.696 0 0.576-0.096 1.152-0.064 0.48-0.112 0.592t-0.048 0.24h0.256q0.32 0.032 0.448 0.096l0.256 0.128 0.096 0.032q0.128 0.032 0.16 0.064l1.024 1.216q0.512 0.576 1.088 1.056l0.48 0.384q-0.16 0-0.32-0.032-0.32-0.064-0.704-0.256-0.256-0.16-0.48-0.384v0q-0.608 0.16-0.928 0.144t-0.8-0.176q-0.64-0.192-1.072-0.544t-0.688-0.704q-0.192-0.224-0.32-0.448l-0.064-0.16 0.064-0.736q0.096-0.736-0.064-1.856-0.064-0.416-0.4-1.344t-0.608-1.36-0.816-0.704-1.056-0.272q-0.992 0-1.472 0.352 0.896 0.16 1.504 0.832 0.48 0.576 1.056 1.696v0q0.32 0.064 0.544 0.256 0.704 0.544 0.928 1.536 0.032 0.256 0.064 0.704l0.032 0.384q0 0.096-0.064 0.096l-0.096-0.032-0.128-0.096q-0.128-0.096-0.192-0.064t-0.064 0.128l0.096 0.224q0.096 0.256 0.032 0.352v0q-0.576 0.032-1.088 0.32-0.384 0.256-1.024 0.992t-0.864 1.248q-0.352 0.8-0.224 1.76 0.032 0.384 0.416 0.992l0.352 0.544 0.096-0.576q0.128-0.608 0.224-0.848t0.448-0.752l0.288-0.48v-0.8q0.032-0.8 0.048-0.896t0.256-0.464 0.432-0.528q0.352-0.288 0.8-0.288l0.288 0.352q0.352 0.416 0.672 0.768 0.768 0.832 1.344 1.216 0.48 0.288 1.504 0.8 0.448 0.224 0.864 0.64l0.352 0.352 0.32-0.224q0.352-0.256 0.608-0.352t0.72-0.16 0.784-0.064q0.544 0 1.12 0.288 0.384 0.192 0.96 0.672l0.544 0.512q0.608 0.608 0.928 1.12 0.384 0.704 0.576 1.216 0.256 0.608 0.304 1.216t0.080 1.184v0.16l0.064 0.224q0.224-0.224 0.48-0.432t0.544-0.368q0.48-0.672 1.088-1.184 0.896-0.704 1.6-0.832 0.32-0.064 0.72-0.048t0.608 0.064 0.368 0.208 0.192 0.368 0 0.336l-0.032 0.128q0.256-0.064 0.352-0.288t0-0.496-0.256-0.4v-0.032q-0.224-0.224-0.384-0.32-0.288-0.192-0.704-0.256-0.576-0.064-1.024-0.224l-1.152-0.384q-0.288-0.096-0.576-0.224-0.096-0.064-0.512-0.576l-0.448-0.544-0.448-0.448q-0.288-0.32-0.352-0.416l-0.064-0.064q-0.288-0.416-0.368-0.72t-0.048-0.672 0.128-0.576 0.416-0.336q0.224-0.096 0.512-0.128l0.256-0.032q-0.032-0.288-0.288-0.448-0.128-0.096-0.48-0.176t-0.512-0.176q-0.448-0.256-0.832-0.832-0.448-0.672-0.448-1.44t0.512-1.904 0.912-1.376 1.040-0.24q0.064 0 0.128-0.064l0.064-0.032-0.096-0.256q-0.128-0.384-0.032-0.768 0.032-0.288 0.208-0.672t0.368-0.576q0.256-0.256 0.576-0.448l0.544 0.16q0.64 0.16 1.12 0.192 0.896 0.096 1.568-0.032 0.256-0.064 0.56-0.24t0.512-0.368 0.448-0.704 0.304-0.832v-0.384zM22.592 15.2q-0.384 0-0.672 0.32t-0.288 0.752 0.288 0.752 0.688 0.32 0.672-0.32 0.272-0.752-0.272-0.752-0.688-0.32zM22.624 17.632q-0.384 0-0.656 0.288t-0.272 0.704 0.272 0.704 0.656 0.288 0.656-0.288 0.272-0.704-0.272-0.704-0.656-0.288zM20.608 16.48q-0.448 0-0.768 0.352t-0.32 0.832 0.32 0.816 0.752 0.336 0.752-0.336 0.32-0.816-0.32-0.832-0.736-0.352z"></path>
</svg>
