<!-- Generated by IcoMoon.io -->
<svg version="1.1" xmlns="http://www.w3.org/2000/svg" width="32" height="32" viewBox="0 0 32 32">
<title>class_job_011</title>
<path d="M16.544 10.24q0-0.512-0.256-1.12-0.16-0.288-0.288-0.48v0l-0.128 0.224q-0.16 0.288-0.288 0.576-0.128 0.416-0.128 0.8t0.128 0.8q0.128 0.32 0.288 0.608l0.128 0.256 0.128-0.256q0.16-0.288 0.288-0.608 0.128-0.416 0.128-0.8zM27.168 20.192q0.192-0.512 0.112-1.056t-0.368-0.992q-0.416-0.64-0.928-0.864-0.256-0.128-0.416-0.128l-0.096-0.448q-0.192-0.544-0.48-1.024-0.416-0.64-0.992-1.024-0.736-0.448-1.664-0.448-0.864 0-1.632 0.416l0.032-0.032q0.064-0.352 0.096-0.736 0.032-0.544-0.032-1.056l-0.288 0.064q-0.352 0.16-0.704 0.48t-0.448 0.48q-0.16-1.056-0.768-1.696-0.544-0.576-1.152-0.576-0.512 0-0.864 0.32-0.288 0.224-0.448 0.576l-0.128 0.32-0.128-0.32q-0.16-0.352-0.448-0.576-0.352-0.32-0.864-0.32-0.608 0-1.152 0.576-0.608 0.64-0.768 1.696-0.096-0.16-0.448-0.48t-0.704-0.48l-0.256-0.064q-0.064 0.512-0.064 1.056 0.032 0.384 0.128 0.736v0.032q-0.768-0.416-1.632-0.416-0.928 0-1.664 0.448-0.576 0.384-0.992 1.024-0.288 0.448-0.48 1.024l-0.096 0.448-0.192 0.032q-0.256 0.064-0.512 0.256-0.32 0.256-0.624 0.704t-0.384 0.992 0.112 1.056l-0.224 0.16q-0.224 0.224-0.384 0.48-0.224 0.384-0.224 0.768 0 0.64 0.496 1.056t1.056 0.416 1.040-0.288q0.256 0.224 0.512 0.32t0.704 0.176 0.656 0.080 0.4-0.16l-0.32-0.096q-0.32-0.16-0.544-0.384-0.32-0.32-0.32-0.752t0.528-0.864 1.408-0.688 1.92-0.256 1.776 0.224q0.544 0.16 1.152 0.576 0.448 0.288 0.768 0.64 0.256 0.288 0.352 0.448l0.032 0.192q0.032 0.16 0.080 0.256t0.176 0.192l0.128 0.064 0.128-0.064q0.128-0.096 0.176-0.192t0.080-0.256l0.032-0.192q0.096-0.16 0.352-0.448 0.32-0.352 0.8-0.64 0.608-0.416 1.12-0.576 0.736-0.224 1.776-0.224t1.92 0.256 1.408 0.688 0.528 0.88q0 0.576-0.576 0.96-0.32 0.192-0.608 0.256v0q0.192 0.16 0.4 0.16t0.656-0.080 0.72-0.176 0.496-0.32q0.512 0.288 1.072 0.288t1.040-0.416 0.48-1.056q0-0.384-0.224-0.768-0.16-0.256-0.384-0.48zM25.12 18.432q0.192-0.32 0.384-0.608 0.576 0.128 0.832 0.608 0.128 0.256 0.128 0.544 0 0.224-0.096 0.416l-0.064 0.192q-0.416-0.288-0.848-0.416t-0.848-0.192l0.192-0.192q0.224-0.224 0.32-0.352zM19.424 14.88v0q0.096-0.32 0.256-0.608 0.128-0.192 0.384-0.416l0.224-0.16v0.288q0 0.352-0.096 0.544-0.192 0.48-0.8 0.96 0.032-0.288 0.032-0.608zM22.24 14.752q0.608 0 1.024 0.224 0.32 0.192 0.48 0.448l0.096 0.256-0.512-0.064q-0.64-0.032-1.152 0.064-0.64 0.128-1.376 0.64l-0.288-0.032q-0.32 0-0.512 0.032-0.384 0.096-0.704 0.256l0.416-0.48q0.544-0.544 1.088-0.896 0.768-0.448 1.44-0.448zM16.416 13.376q0.128-0.416 0.432-0.72t0.592-0.304q0.544 0 0.896 0.864 0.32 0.736 0.32 1.6t-0.8 2.016q-0.512 0.8-1.344 1.6 0.352-0.544 0.608-1.152 0.384-0.992 0.384-1.792t-0.416-1.248q-0.288-0.32-0.768-0.48zM16 14.464h0.192q0.224 0.096 0.352 0.32 0.224 0.32 0.224 0.912t-0.224 1.232q-0.128 0.48-0.352 0.928l-0.192 0.352-0.192-0.352q-0.224-0.448-0.352-0.928-0.224-0.64-0.224-1.232t0.224-0.912q0.128-0.224 0.352-0.32h0.192zM14.56 12.352q0.288 0 0.592 0.304t0.432 0.72l0.096 0.416q-0.48 0.128-0.768 0.448-0.416 0.448-0.416 1.248t0.384 1.792q0.256 0.576 0.608 1.152-0.832-0.8-1.376-1.6-0.768-1.152-0.768-2.016t0.32-1.6q0.352-0.864 0.896-0.864zM11.712 13.696q0.128 0.096 0.224 0.16 0.256 0.224 0.384 0.416 0.16 0.288 0.256 0.608v0q0 0.32 0.032 0.608-0.608-0.48-0.8-0.96-0.096-0.192-0.096-0.544v-0.288zM9.76 14.752q0.672 0 1.44 0.448 0.544 0.352 1.088 0.896l0.416 0.48q-0.32-0.16-0.704-0.256-0.192-0.032-0.512-0.032l-0.288 0.032-0.448-0.288q-0.544-0.288-0.928-0.352-0.512-0.096-1.152-0.064l-0.512 0.064 0.096-0.256q0.16-0.256 0.48-0.448 0.416-0.224 1.024-0.224zM5.664 18.432q0.256-0.48 0.832-0.608l0.384 0.608q0.096 0.128 0.32 0.352l0.192 0.192q-0.416 0.064-0.848 0.192t-0.848 0.416l-0.064-0.192q-0.096-0.192-0.096-0.416 0-0.288 0.128-0.544zM6.176 21.824q0 0.16 0.032 0.352-0.928-0.416-0.768-1.248 0.096-0.512 0.768-0.864 0.576-0.32 1.28-0.416 0.576-0.064 1.12 0.064-2.432 0.896-2.432 2.112zM9.056 17.408q-0.128 0.288-0.128 0.8l0.032 0.448-0.192-0.064q-0.256-0.064-0.48-0.16-0.32-0.16-0.544-0.416-0.544-0.64-0.544-1.184v0q0-0.16 0.224-0.384 0.288-0.288 0.736-0.352 0.64-0.128 1.216 0.064 0.32 0.128 0.544 0.384l-0.16 0.096q-0.192 0.128-0.384 0.288-0.224 0.224-0.32 0.48zM11.072 16.896q0.48 0 1.056 0.32 0.416 0.192 0.832 0.544l0.352 0.32-0.64-0.096q-0.736-0.064-1.216-0.032-0.704 0.064-1.376 0.352v0q-0.064-0.352 0-0.704 0.16-0.704 0.992-0.704zM13.568 19.040q-0.192 0.096-0.288 0.288l-0.32-0.064q-0.448-0.064-0.928-0.096-0.672-0.032-1.344 0.032 0.256-0.256 0.64-0.448 0.576-0.288 1.312-0.288 0.928 0 1.312 0.384-0.192 0.064-0.384 0.192zM16.896 20.096q-0.32 0.224-0.64 0.64l-0.256 0.384-0.256-0.384q-0.32-0.416-0.64-0.64-0.448-0.288-0.928-0.448l0.16-0.096q0.16-0.128 0.384-0.128 0.288 0 0.576 0.224 0.416 0.32 0.704 0.96v0l0.192-0.352q0.256-0.416 0.528-0.624t0.56-0.208q0.192 0 0.384 0.128l0.16 0.096q-0.512 0.16-0.928 0.448zM18.72 19.328q-0.096-0.192-0.288-0.304t-0.384-0.176q0.384-0.384 1.312-0.384 0.736 0 1.312 0.288 0.384 0.192 0.64 0.448-0.672-0.064-1.344-0.032-0.48 0.032-0.928 0.096zM21.92 18.304q-0.672-0.288-1.376-0.352-0.48-0.032-1.216 0.032l-0.64 0.096 0.352-0.32q0.416-0.352 0.832-0.544 0.576-0.32 1.056-0.32 0.576 0 0.832 0.352 0.192 0.288 0.192 0.704zM22.944 17.408q-0.096-0.256-0.32-0.48-0.16-0.16-0.384-0.288l-0.16-0.096q0.224-0.256 0.544-0.384 0.608-0.192 1.216-0.064 0.448 0.064 0.736 0.352 0.224 0.224 0.224 0.384v0q0 0.544-0.544 1.184-0.288 0.352-0.8 0.512-0.224 0.096-0.416 0.128v0l0.032-0.448q0-0.512-0.128-0.8zM25.792 22.176q0.032-0.192 0.032-0.352 0-1.216-2.432-2.112 0.544-0.128 1.12-0.064 0.736 0.096 1.28 0.416 0.672 0.352 0.768 0.864 0.16 0.832-0.768 1.248z"></path>
</svg>
