<!-- Generated by IcoMoon.io -->
<svg version="1.1" xmlns="http://www.w3.org/2000/svg" width="32" height="32" viewBox="0 0 32 32">
<title>class_job_022</title>
<path d="M23.136 10.72h-1.216l-0.256 0.32q-0.288 0.384-0.576 0.608-0.352 0.32-0.544 0.32-0.352 0-0.576-0.448t-0.224-0.896v-5.152q0-0.416-0.224-0.96-0.128-0.416-0.384-0.8l-0.224-0.352-0.224 0.384q-0.224 0.416-0.384 0.832-0.224 0.544-0.224 0.896v5.504l-0.16 0.224q-0.224 0.256-0.608 0.512-0.608 0.416-1.312 0.512-0.704-0.096-1.312-0.512t-0.768-0.736v-5.504q0-0.352-0.224-0.896-0.16-0.416-0.384-0.832l-0.224-0.384-0.224 0.352q-0.256 0.384-0.384 0.8-0.224 0.544-0.224 0.96v5.152q0 0.448-0.224 0.896t-0.576 0.448q-0.192 0-0.544-0.32-0.288-0.224-0.576-0.608l-0.256-0.32h-1.216q-0.192 0-0.336 0.128t-0.112 0.32q0 0.128 2.304 5.28 1.696 3.744 1.856 4.16 0.224 0.608 1.312 3.904l0.608 1.792q0.16 0.416 0.448 0.736t0.512 0.32l0.544 0.032 0.544-0.032q0.224 0 0.512-0.32t0.448-0.736l0.608-1.792q1.088-3.296 1.312-3.904 0.16-0.416 1.856-4.16 2.304-5.152 2.304-5.28 0-0.192-0.128-0.32t-0.32-0.128zM20.192 15.264q-0.16 0.448-0.768 1.12-0.544 0.64-1.088 0.992l-0.32 0.192q-0.384 0.224-0.624 0.4t-0.448 0.448-0.208 0.4 0.416 0.64q0.512 0.64 0.512 0.8v1.728q0 0.192-0.544 0.96-0.32 0.416-0.352 0.544-0.16 0.32-0.256 0.736t-0.096 0.624-0.224 0.336l-0.192 0.064-0.192-0.064q-0.224-0.128-0.224-0.336t-0.096-0.624-0.256-0.736q-0.032-0.128-0.352-0.544-0.544-0.768-0.544-0.96v-1.728q0-0.16 0.512-0.8 0.416-0.512 0.416-0.64t-0.208-0.4-0.448-0.448-0.624-0.4l-0.32-0.192q-0.544-0.352-1.088-0.992-0.608-0.672-0.768-1.12l-0.32-1.248 0.192-0.288q0.256-0.352 0.512-0.512 0.544-0.352 0.96-0.352 0.064 0 0.448 0.384 0.672 0.736 1.072 0.912t0.752 0.272q0.256 0.064 0.448 0.064h0.256q0.192 0 0.448-0.064 0.352-0.096 0.752-0.272t1.072-0.912q0.384-0.384 0.448-0.384 0.416 0 0.96 0.352 0.256 0.16 0.512 0.512l0.192 0.288z"></path>
</svg>
