<!-- Generated by IcoMoon.io -->
<svg version="1.1" xmlns="http://www.w3.org/2000/svg" width="32" height="32" viewBox="0 0 32 32">
<title>class_job_035</title>
<path d="M22.176 17.728q-0.16-0.064-0.368-0.208t-0.4-0.176q-0.256-0.096-0.736-0.096-1.12 0-2.048 0.592t-1.456 1.584-0.528 2.144q0 1.76 1.024 2.832t2.784 1.36q0.352 0.032 0.624 0.384t0.208 0.864-0.704 0.608q-0.48 0.032-1.216-0.16-2.176-0.416-3.424-1.92-1.344-1.6-1.344-4.128 0-1.568 0.704-2.928t1.984-2.256l0.064-0.032q0.8-0.448 0.896-1.632v0q0.224-4.16 0.672-8.8l0.096-0.864q0.096-1.056 0.16-1.376 0.096-0.512 0.32-0.512v0q0.192 0 0.32 0.48 0.064 0.352 0.16 1.408l0.064 0.864q0.352 3.36 0.608 7.264 0.096 1.056 0.384 1.888 0.256 0.768 0.48 0.96 0.32 0.128 0.928 0.48 0.544 0.32 0.768 0.416 0.384 0.16 0.608 0.128 0.192 0.032 0.128 0.224t-0.336 0.4-0.656 0.288-0.768-0.080zM10.592 14.944q0.096-0.096 0.512 0.16 0.256 0.128 0.864 0.576l0.672 0.48q0.416 0.256 0.896 0.416l0.192 0.064q0.416 0 0.736 0.208t0.16 0.4q-1.056 1.28-1.36 3.264t0.656 3.968q0.512 1.024 1.376 2.048l0.032 0.064q0 0.256-0.368 0.16t-0.8-0.384-0.56-0.48q-0.352-0.288-0.736-0.832v0q-0.224-0.192-0.544-0.032l-0.672 0.448q-0.608 0.448-0.864 0.576-0.416 0.256-0.512 0.16v0q-0.096-0.128 0.16-0.544 0.128-0.256 0.608-0.896l0.448-0.64 0.128-0.224q0.096-0.192 0.112-0.48t-0.016-0.48q-0.096-0.352-0.16-0.736v-0.032q-0.096-0.704-0.48-0.8l-0.256-0.064-0.864-0.16q-0.96-0.16-1.312-0.288-0.576-0.16-0.608-0.352v0q0.032-0.192 0.608-0.352 0.352-0.128 1.312-0.288l0.864-0.16 0.32-0.096q0.224-0.064 0.464-0.272t0.336-0.432q0.096-0.352 0.288-0.672 0.032-0.096 0.032-0.16-0.064-0.48-0.48-1.056l-0.448-0.672q-0.448-0.64-0.608-0.896-0.224-0.416-0.128-0.512zM18.272 21.472q0-0.608 0.352-1.12t0.928-0.752 1.184-0.128 1.040 0.56 0.56 1.056-0.112 1.184-0.752 0.928-1.152 0.352q-0.864 0-1.456-0.608t-0.592-1.472z"></path>
</svg>
