<!-- Generated by IcoMoon.io -->
<svg version="1.1" xmlns="http://www.w3.org/2000/svg" width="32" height="32" viewBox="0 0 32 32">
<title>class_job_010</title>
<path d="M25.472 22.592q-0.128-0.128-0.8-0.448-1.024-0.544-1.568-0.992-0.16-0.128-0.192-0.256t-0.032-0.32v-0.096q0-0.224-0.32-0.224h-0.768q-0.096 0-0.144-0.096t0-0.128 0.176-0.096l0.032-0.032q0.288-0.128 0.512-0.32t0.224-0.288q0-0.032-0.096-0.128l-0.096-0.064q-0.288-0.256-0.48-0.576-0.032-0.096-0.048-0.464t0.048-0.608 0.352-0.72q0.16-0.256 0.192-1.6v-0.128q0-0.16 0.080-0.272t0.224-0.112 0.208 0.16l0.032 0.128 0.096 1.44q0 0.192 0.032 0.384 0.032 0.064 0.384 0.288 0.704 0.384 1.376 0.832 0.096 0.064 0.176 0.032t0.016-0.096q-0.48-0.768-0.544-1.152-0.032-0.32 0.032-1.504l0.064-1.152q0.064-1.536-0.384-2.976-0.48-1.6-1.536-3.008-0.992-1.28-2.688-2.176-1.536-0.832-3.104-0.992-0.608-0.064-1.6-0.128-1.12-0.064-1.792-0.192-0.448-0.064-0.992-0.352l-0.224-0.128q-0.096-0.064-0.16-0.032t-0.032 0.128l0.096 0.256q0.48 1.248 0.512 1.728 0 0.096 0.096 0.144t0.272 0.016 0.528 0 0.48 0.064 0.224 0.224 0 0.192l-0.064 0.032q-0.736 0.064-1.184 0.256-0.544 0.224-1.184 0.672-0.864 0.608-1.472 1.344-0.352 0.448-0.64 1.152-0.192 0.416-0.448 1.28-0.32 1.056-0.544 1.392t-0.832 0.976l-0.096 0.128q-0.064 0.096-0.064 0.144t0.096 0.048h0.256q4.48 0.032 4.576 0.016t0.096-0.24 0.128-0.288q1.568-0.896 2.56-1.504 0.352-0.224 0.528-0.272t0.4-0.048q0.736 0 1.28 0.352 0.352 0.224 0.496 0.544t0.112 0.64q0 0.16-0.048 0.16t-0.112-0.224q-0.064-0.352-0.384-0.608-0.224-0.192-0.48-0.288-0.352-0.192-0.928-0.16-0.224 0.032-0.8 0.416-1.696 1.12-1.936 1.28t-0.272 0.448q-0.032 0.128-0.064 0.192-0.064 0.192-0.208 0.288t-0.304 0.096h-4.768q-0.096 0-0.112 0.080t-0.016 0.272v0.288q-0.032 0.32-0.128 0.608-0.064 0.192-0.256 0.576l-0.32 0.64q-0.224 0.512-0.576 0.928-0.16 0.224-0.16 0.304t0.256 0.24l0.288 0.224q0.128 0.096 0.416 0.384 0.512 0.512 0.832 0.752t0.944 0.624 0.768 0.528 0.176 0.304l0.032 0.128q0.032 0.128 0.192 0.032 0.288-0.192 1.216-0.896 0.128-0.096 0.176-0.048t-0.048 0.176l-0.128 0.128q-0.672 0.672-0.8 0.832t-0.032 0.48q0.288 0.544 0.688 1.104t0.656 0.752q0.192 0.128 0.448 0.096l1.696-0.864q1.728-0.896 1.824-0.96t0.176-0.048 0.016 0.080-2.112 1.408q-1.92 1.248-1.968 1.296t-0.048 0.304q0 0.576-0.16 0.928t-0.576 0.768q-0.32 0.288-0.448 0.352t-0.096 0.16v0.032q0.032 0.096 1.024-0.032 0.736-0.064 1.584-0.208t1.808-0.496q1.344-0.48 2.016-1.088 1.12-1.024 2.24-1.856 1.568-1.248 2.272-1.472 0.928-0.288 1.952-0.256 0.8 0.032 1.568 0.288 0.128 0.032 0.192-0.048t-0.032-0.208zM11.232 20.512l-0.288 0.224q-0.128 0.096-0.32-0.032l-1.216-0.832-1.344-0.896q-0.064-0.032-0.048-0.080t0.112-0.080l0.576-0.096q0.192-0.032 0.352 0.064l2.112 1.536q0.16 0.128 0.032 0.192h0.032zM12.192 19.84l-0.224 0.16q-0.16 0.096-0.256 0.032l-0.896-0.768-0.992-0.704q-0.064-0.032-0.032-0.032l0.064-0.032 0.448-0.096q0.16-0.032 0.288 0.096l1.536 1.184q0.096 0.064 0.096 0.080t-0.064 0.080h0.032zM13.152 19.136l-0.192 0.16q-0.128 0.064-0.256-0.032l-1.344-0.992q-0.16-0.128 0.032-0.16l0.288-0.064q0.192-0.032 0.32 0.064l1.088 0.832q0.16 0.128 0.064 0.192zM14.016 18.464l-0.16 0.128q-0.16 0.128-0.256 0.032l-0.864-0.64q-0.064-0.064-0.048-0.112t0.080-0.048l0.384-0.096q0.16-0.032 0.32 0.128l0.512 0.384q0.16 0.128 0.032 0.224zM13.248 26.4q-0.288 0-0.288-0.384 0-0.128 0.096-0.24t0.24-0.112 0.192 0.096 0.048 0.256v0.032q0.032 0.16-0.064 0.256t-0.224 0.096zM16.288 24.512q-0.16 0.032-0.224 0.16t0 0.24 0.032 0.16-0.096-0.016q-0.16-0.096-0.176-0.24t0-0.272 0.128-0.208 0.24-0.112q0.256 0 0.256 0.112t-0.016 0.144-0.080 0.032h-0.064zM17.12 14.144q-0.192-0.288-0.48-0.384t-0.544 0.080-0.288 0.496 0.224 0.64q0.096 0.064-0.128 0.032t-0.32-0.16q-0.224-0.224-0.192-0.656t0.352-0.672 0.688-0.208 0.624 0.352q0.096 0.128 0.128 0.272t0.016 0.208-0.080 0zM19.328 22.848q-0.128 0.032-0.192 0.192-0.032 0.032 0 0.192v0.128q0 0.096-0.048 0.128t-0.112 0q-0.192-0.128-0.128-0.432t0.352-0.336q0.096 0 0.176 0.048t-0.048 0.080z"></path>
</svg>
