<!-- Generated by IcoMoon.io -->
<svg version="1.1" xmlns="http://www.w3.org/2000/svg" width="32" height="32" viewBox="0 0 32 32">
<title>class_job_028</title>
<path d="M26.848 14.144q-0.192-0.288-0.48-0.576-1.152-0.352-1.568 0.544-0.192 0.416-0.224 1.088-0.032 0.576 0.064 0.768 0.416 0.96 0.416 1.536 0 1.056-0.768 1.824t-1.84 0.768-1.84-0.768-0.768-1.824q0-1.152 0.48-2.048 0.416-0.704 1.216-1.344 0.48-0.416 1.568-1.056 0.768-0.48 1.152-0.736l-0.128-0.096q-0.8-0.608-1.376-0.928-1.024-0.512-2.432-0.768-1.76-0.352-4.32-0.352v0q-2.56 0-4.32 0.352-1.408 0.256-2.432 0.768-0.576 0.32-1.376 0.928l-0.128 0.096q0.384 0.256 1.152 0.736 1.088 0.64 1.568 1.056 0.8 0.64 1.216 1.344 0.48 0.896 0.48 2.048 0 1.088-0.768 1.84t-1.84 0.752-1.84-0.752-0.768-1.84q0-0.576 0.416-1.536 0.096-0.192 0.064-0.768-0.032-0.672-0.224-1.088-0.416-0.896-1.568-0.544-0.288 0.288-0.48 0.576-0.48 0.704-0.8 1.568-0.352 0.96-0.352 1.792 0 1.952 1.216 3.488t3.136 1.952 3.664-0.448 2.576-2.64 0.352-3.68-2.016-3.088q0.736-0.288 1.568-0.416 0.544-0.096 1.504-0.128 0.96 0.032 1.504 0.128 0.832 0.128 1.568 0.416-1.568 1.184-2.032 3.088t0.368 3.68 2.576 2.64 3.664 0.432 3.136-1.952 1.216-3.472q0-0.832-0.352-1.792-0.32-0.864-0.8-1.568z"></path>
</svg>
