<!-- Generated by IcoMoon.io -->
<svg version="1.1" xmlns="http://www.w3.org/2000/svg" width="32" height="32" viewBox="0 0 32 32">
<title>class_job_026</title>
<path d="M23.84 14.464q0-1.952-0.88-3.632t-2.448-2.768-3.488-1.344q-0.128-0.16-0.288-0.288-0.096-0.096-0.24-0.16t-0.144-0.176 0.256-0.368q0.16-0.16 0.448-0.32 0.128-0.096 0.144-0.144t-0.176-0.176q-0.288-0.224-0.464-0.4t-0.336-0.464q-0.096-0.224-0.176-0.224t-0.176 0.224q-0.16 0.288-0.336 0.464t-0.464 0.4q-0.192 0.128-0.192 0.176t0.16 0.144q0.288 0.16 0.448 0.32 0.256 0.256 0.256 0.368t-0.144 0.176-0.24 0.16q-0.16 0.128-0.288 0.288-1.76 0.224-3.232 1.184-3.008-1.696-3.584-0.896-0.224 0.32 0.032 1.424t0.896 2.32q-0.96 1.76-0.944 3.728t0.96 3.712 2.608 2.816 3.648 1.232q-0.352 0.096-0.736 0.352t-0.384 0.448 0.128 0.32l0.288 0.192t0.304 0.224 0.112 0.256q0 0.544-0.768 1.056-0.192 0.128-0.576 0.256-0.192 0.064-0.224 0.096-0.096 0.096-0.096 0.256v0.32q0 0.16 0.192 0.16h1.408q0.224 0 0.224 0.096t-0.16 0.176-0.448 0.112q-0.224 0.032-0.736 0.064h-1.888q-0.256 0-0.848 0.496t-0.592 0.656 0.080 0.192 0.24 0.032h10.112q0.16 0 0.24-0.032t0.080-0.192-0.576-0.656-0.832-0.496h-1.44v-0.928q0.032-0.16-0.064-0.256-0.032-0.032-0.256-0.096-0.352-0.128-0.544-0.256-0.768-0.512-0.768-1.056 0-0.16 0.096-0.256t0.304-0.224 0.304-0.192q0.128-0.128 0.128-0.32t-0.384-0.448-0.736-0.352q1.664-0.128 3.168-0.928 1.184 0.608 2.24 0.848t1.408-0.016q0.736-0.544-0.864-3.424 1.28-1.952 1.248-4.256zM22.816 14.464q0 1.728-0.8 3.232l-0.096-0.128q-1.152-1.856-3.168-3.968-0.16-1.888-0.608-3.456-0.608-1.952-1.44-2.432 1.696 0.192 3.104 1.12t2.208 2.416 0.8 3.216zM17.6 12.448q-1.344-1.376-2.848-2.592 0.544-0.8 1.216-0.8t1.12 1.12q0.32 0.832 0.512 2.272zM18.784 15.168q0.384 0.576 0.608 0.896 0.704 1.024 1.024 1.824 0.352 1.056-0.064 1.488t-2.304-0.304q0.544-1.728 0.736-3.904zM15.648 7.712q-0.832 0.352-1.44 1.728-0.704-0.512-1.376-0.928v0q1.312-0.736 2.816-0.8zM9.28 14.464q0-1.376 0.544-2.656l0.224 0.288q0.928 1.216 1.76 2.208 0.672 0.8 0.72 0.752t0.032-0.144-0.144-0.256l-0.128-0.256q-0.608-1.184-0.96-2.112-0.704-1.792-0.32-2.176t1.216-0.16q0.704 0.16 1.568 0.704-0.224 0.96-0.352 1.92h0.096q0.064-0.032 0.144-0.128t0.144-0.32q0.128-0.608 0.384-1.216l1.696 1.216q-0.832 0.032-1.472 0.56t-0.848 1.312 0.064 1.552 0.944 1.232 1.504 0.448 1.472-0.496q-0.256 1.664-0.704 2.432-0.032 0 0 0.032-0.384 0.672-0.896 0.672-0.864 0-1.568-1.408-0.384-0.768-0.576-1.696-0.064-0.288-0.224-0.384-0.096-0.064-0.16-0.064v0l0.096 0.672q0.128 0.832 0.352 1.536 0.288 0.992 0.672 1.632 0.512 0.832 1.12 1.056-1.76-0.096-3.232-1.024t-2.32-2.448-0.848-3.28zM16.672 21.216q0.576-0.288 1.056-1.312l0.608 0.48 0.416 0.288q-0.992 0.448-2.080 0.544z"></path>
</svg>
