<svg version="1.1" xmlns="http://www.w3.org/2000/svg" width="32" height="32" viewBox="0 0 32 32">
<title>class_job_014</title>
<path d="M23.392 9.984q0 0.096 0.128 0.208t0.224 0.144 0.24-0.080 0.208-0.080q0.16 0.096 0.864 0.672 1.28 1.024 1.44 1.024t0.448-0.368 0.192-0.528q-0.128-0.288-0.592-0.72t-0.784-0.592q-0.128-0.064-0.32 0.064t-0.352 0.096q-0.032 0-0.112-0.128t-0.016-0.192q0.192-0.288 0.208-0.576t-0.176-0.416q-0.288-0.224-0.544 0l-0.032 0.032q-0.064 0.032-0.288-0.096l-3.552-2.976q-0.928-0.8-1.44-1.056-0.8-0.448-1.664-0.416-0.576 0-1.312 0.448-0.64 0.384-1.024 0.832-0.608 0.704-0.832 1.088-0.288 0.48-0.288 0.96 0 0.224 0.4 0.464t0.784 0.272q0.224 0.032 0.512 0 0.224 0 0.256 0.032 0.032 0.128-0.368 0.224t-0.88 0.096q-0.224 0-0.688-0.192t-0.656-0.192-0.352 0.224-0.032 0.416l0.064 0.16q0.192 0.256 0.128 0.416-0.032 0.096-0.256 0.576l-0.416 0.864q-0.576 1.216-0.928 1.664-0.576 0.8-1.056 0.416-0.192-0.064-0.16 0.096 0.096 0.608-0.384 1.344-0.352 0.576-0.928 1.12-0.512 0.48-0.736 0.576t-0.48 0.096q-0.16 0.032-0.512 0h-0.032q-0.096 0.128-0.032 0.256l0.128 0.288q0.128 0.256 0.096 0.352-0.032 0.224-0.32 0.416-0.192 0.128-0.256 0.224-0.16 0.192-0.128 0.512 0.256 0.768 4.032 1.056 2.208 0.192 4.736 0.192 3.264-0.032 4.608-0.064 1.6-0.032 2.624-0.192 0.832-0.096 2.24-0.416 0.096-0.032 0.16 0.016t-0.032 0.144q-0.704 0.448-2.336 0.704-1.184 0.16-3.2 0.256l-0.864 0.032q-1.92 0.096-2.688 0.096-3.264-0.032-5.216-0.16-3.2-0.192-4.48-0.736-0.416-0.16-0.768-0.368t-0.416-0.32-0.192-0.128-0.128 0.112q-0.064 0.48 0.512 0.96 0.512 0.416 1.296 0.704t1.424 0.352q0.096 0 0.096 0.096t-0.080 0.176-0.272 0.176q-0.096 0.064-0.128 0.112t0 0.112q0.16 0.192 0.352 0.672 0.32 0.8 0.704 1.344 0.32 0.416 1.12 0.928 0.544 0.32 0.736 0.544 0.288 0.32 0.256 0.768 0 0.16-0.192 0.288-0.096 0.096-0.416 0.224-0.352 0.16-0.512 0.288-0.224 0.224-0.224 0.512-0.032 0.544 0.736 0.896 0.608 0.288 1.568 0.448 0.864 0.128 1.632 0.128t0.992-0.128q0.16-0.128 0.16-0.416 0-0.192 0.032-0.32 0.032-0.16 0.256-0.288 0.416-0.288 0.976-0.272t0.912 0.368q0.128 0.128 0.128 0.448t0.176 0.48 1.088 0.144 1.84-0.176q1.088-0.224 1.632-0.608 0.448-0.288 0.384-0.8-0.032-0.256-0.224-0.416-0.128-0.096-0.448-0.224t-0.448-0.224q-0.224-0.16-0.272-0.448t0.272-0.64q0.224-0.224 0.8-0.608 0.672-0.448 0.896-0.704 0.32-0.384 0.768-1.44 0.384-0.8 0.576-1.056 0.224-0.288 0.608-0.544l0.768-0.384q0.64-0.32 0.864-0.512 0.384-0.32 0.384-0.736 0-0.224-0.16-0.416-0.448-0.416-1.056-0.672-0.352-0.128-0.896-0.256-0.32-0.096-0.352-0.176t-0.048-0.176 0.016-0.224q0.16-0.768-0.448-1.696-0.448-0.736-1.248-1.376-0.672-0.576-0.896-0.576h-0.224q-0.384 0.032-0.576-0.064-0.416-0.224-0.8-0.736-0.256-0.352-0.48-0.8l-0.384-0.768q-0.48-0.864-0.672-1.28-0.032-0.192 0.048-0.336t0.048-0.336q-0.064-0.448-0.64-0.832l-0.064-0.032q-0.512-0.384-0.512-1.056 0-0.768 0.832-0.896 0.352-0.032 0.992 0.384 0.384 0.256 1.216 0.928l3.232 2.56q-0.16 0.16-0.128 0.32zM21.056 13.408h0.096t0.096 0.064q0.128 0.64 0.8 1.28 0.448 0.416 1.312 0.992 0.288 0.224 0.192 0.272t-0.32-0.016h-0.032q-0.288-0.096-0.688-0.288t-0.656-0.352q-0.384-0.288-0.576-0.544-0.224-0.352-0.224-0.864l-0.032-0.096q0-0.448 0.032-0.448zM16.736 16.544q-0.192 0.16-0.512 0.256-0.256 0.096-0.416 0.096-0.448 0-0.768-0.256t-0.352-0.736q0.448 0.48 0.992 0.48t0.816-0.432-0.016-1.072q0.48 0.416 0.496 0.928t-0.24 0.736zM17.504 14.688q-0.064-0.032-0.128-0.096-0.448-0.32-0.672-0.448-0.32-0.128-0.864-0.16-0.832-0.064-1.456 0.496t-0.592 1.296q0 0.832 0.864 1.408-0.544 0.064-0.944-0.176t-0.592-0.688-0.096-0.896q0.128-0.8 0.736-1.312 0.576-0.48 1.36-0.592t1.456 0.192 0.928 0.976zM8.672 14.88q0.16 0 0.576-0.576 0.384-0.48 0.432-0.672t-0.032-0.24-0.208 0.016l-0.576 0.544q-0.16 0.16-0.224 0.256-0.096 0.16-0.112 0.32t0.032 0.272 0.112 0.080z"></path>
</svg>
