<!-- Generated by IcoMoon.io -->
<svg version="1.1" xmlns="http://www.w3.org/2000/svg" width="32" height="32" viewBox="0 0 32 32">
<title>class_job_040</title>
<path d="M14.176 10.528q0.32 0.448 0.576 0.928t0.32 0.768q0.064 0.384 0.064 0.928 0 0.768 0.064 3.008l0.032 1.312q0 0.672 0.208 1.040t0.528 0.368h0.064q0.32 0 0.528-0.368t0.208-1.040l0.032-1.312q0.064-2.24 0.064-3.008 0-0.544 0.064-0.928 0.064-0.288 0.32-0.768t0.576-0.928q0.544-0.672 1.344-1.408l0.736-0.544q0.192-0.224 0.192-0.512t-0.192-0.48l-0.704-0.416q-0.8-0.512-1.376-0.992-0.32-0.256-0.608-0.704-0.224-0.32-0.416-0.736l-0.128-0.352q0-0.256-0.192-0.448t-0.464-0.192-0.464 0.192-0.192 0.448l-0.16 0.352q-0.192 0.416-0.384 0.736-0.32 0.448-0.64 0.704-0.928 0.736-2.048 1.408v0q-0.224 0.192-0.224 0.48t0.224 0.512q-0.032 0 0.032 0.032 1.28 0.96 2.016 1.92zM12.224 12.48q0.128-0.192 0.064-0.4t-0.256-0.336l-0.608-0.16q-0.704-0.224-1.248-0.48-0.416-0.16-0.864-0.672l-0.384-0.448q-0.064-0.192-0.24-0.304t-0.384-0.048-0.32 0.24-0.048 0.4l-0.096 0.576q-0.16 0.64-0.416 1.024-0.544 0.736-1.28 1.44v0q-0.128 0.224-0.064 0.432t0.256 0.336l0.672 0.288q0.768 0.352 1.28 0.768 0.352 0.256 0.64 0.576t0.4 0.56 0.24 0.656v0q0.128 0.576 0.64 2.208l0.32 1.088q0.16 0.544 0.384 0.8t0.48 0.192h0.032q0.256-0.064 0.32-0.4t-0.064-0.88l-0.224-0.928q-0.416-1.824-0.576-2.432-0.128-0.416-0.128-0.704-0.032-0.224 0.064-0.656t0.256-0.816q0.256-0.608 0.736-1.312zM25.856 13.312q-0.224-0.224-0.416-0.448-0.512-0.544-0.864-0.992-0.256-0.384-0.416-1.024l-0.096-0.576q0.064-0.224-0.048-0.4t-0.32-0.24-0.4 0.048-0.224 0.304l-0.384 0.448q-0.48 0.512-0.864 0.672-0.544 0.256-1.248 0.48l-0.608 0.16q-0.192 0.096-0.256 0.32t0.064 0.416l0.416 0.608q0.48 0.704 0.736 1.312 0.16 0.384 0.256 0.816t0.080 0.688-0.144 0.672q-0.16 0.608-0.576 2.4l-0.224 0.96q-0.128 0.544-0.064 0.88t0.32 0.4h0.032q0.256 0.064 0.48-0.176t0.384-0.784l0.288-1.024q0.544-1.728 0.704-2.304v0q0.096-0.416 0.208-0.656t0.4-0.56 0.64-0.576q0.544-0.416 1.312-0.768l0.64-0.288q0.192-0.128 0.256-0.336t-0.064-0.432zM17.664 17.856q-0.128-0.096-0.304-0.096t-0.288 0.096-0.128 0.304 0.144 0.4l0.448 0.352q0.064 0.064 0.064 0.144t-0.064 0.144l-1.408 1.28q-0.064 0.064-0.144 0.064t-0.112-0.064l-1.408-1.312q-0.064-0.032-0.064-0.112t0.064-0.144l0.416-0.352q0.192-0.192 0.176-0.4t-0.128-0.304-0.288-0.096-0.304 0.064l-1.28 0.864q-0.128 0.16-0.128 0.368t0.128 0.368l0.544 0.416q0.64 0.544 1.024 1.056 0.256 0.32 0.448 0.688t0.224 0.608 0.032 0.656q0 0.608 0.064 2.272l0.032 0.992q0 0.512 0.16 0.848t0.384 0.336h0.032q0.256 0 0.416-0.336t0.16-0.848v-0.992q0.064-1.664 0.064-2.272 0-0.384 0.064-0.672 0.032-0.224 0.224-0.592t0.448-0.688q0.608-0.8 1.536-1.472v0q0.16-0.16 0.16-0.368t-0.16-0.368v0q-1.088-0.736-1.248-0.832z"></path>
</svg>
