<svg version="1.1" xmlns="http://www.w3.org/2000/svg" width="32" height="32" viewBox="0 0 32 32">
<title>class_job_032</title>
<path d="M10.336 16.864q2.336-0.704 3.232-1.664 0.96-1.056 0.864-2.944-1.152 0.32-3.552 1.376-1.6 0.672-2.4 0.96-1.344 0.512-2.4 0.736 0.64-0.736 1.792-1.536 0.672-0.48 2.112-1.376 2.080-1.28 2.912-1.984-1.472-0.992-2.304-1.696-1.12-0.96-1.824-1.952 1.248-0.064 2.528 0.384 0.768 0.256 2.208 1.056l0.928 0.48q0.32-0.64 0.512-1.504 0.128-0.512 0.272-1.584t0.24-1.584q0.192-0.864 0.48-1.504 0.352 0.768 0.576 1.76 0.16 0.608 0.352 1.824 0.288 1.728 0.512 2.496 0.608-0.224 1.728-0.704 1.28-0.544 1.92-0.736 1.12-0.352 2.144-0.416-0.672 1.088-1.792 1.984-0.896 0.768-2.368 1.632 0.832 0.704 2.944 2.048 1.44 0.896 2.112 1.376 1.152 0.832 1.856 1.536-1.216-0.224-2.912-0.864-0.992-0.384-3.008-1.248t-2.816-1.12q-0.16 1.728 1.008 3.008t3.472 1.824q-0.416 0.576-1.408 1.792-1.184 1.376-1.664 2.112-0.832 1.216-1.056 2.272l-0.064 0.288q-0.448 2.016-0.704 3.040-0.448 1.664-0.928 3.040l-0.416-1.984q-0.608-2.88-0.96-4.32-0.288-1.216-1.312-2.752-0.608-0.896-2.048-2.624zM15.936 15.328q-0.384 0.192-0.736 0.48-0.192 0.192-0.512 0.576-0.288 0.32-0.448 0.48-0.48 0.48-0.128 1.024 0.32 0.448 1.024 1.568l0.608 0.928q1.024-1.152 1.44-1.84t0.4-1.168-0.464-0.992q-0.288-0.32-1.184-1.056z"></path>
</svg>
