<svg version="1.1" xmlns="http://www.w3.org/2000/svg" width="32" height="32" viewBox="0 0 32 32">
<title>class_job_021</title>
<path d="M28 16l-0.064-0.832q-0.096-0.992-0.384-2.016-0.352-1.408-0.992-2.624-0.544-0.992-1.456-1.984t-1.824-1.568-1.376-0.448-0.72 0.384q-0.352 0.352-0.512 1.024l-0.128 0.704q-0.128 0.672-0.288 1.024-0.224 0.544-0.8 1.216-0.704 0.8-2.144 1.056-0.736 0.096-1.312 0.064v0q-0.64 0.032-1.376-0.064-1.408-0.256-2.080-1.056-0.576-0.672-0.8-1.216-0.16-0.352-0.288-1.024l-0.128-0.704q-0.16-0.672-0.512-0.992-0.256-0.288-0.72-0.416t-1.376 0.448-1.824 1.568-1.456 1.984q-0.64 1.216-0.992 2.624-0.288 1.024-0.384 2.048l-0.064 0.8q0.032 0.768 0.224 1.824 0.352 2.016 1.248 3.648 0.512 0.992 1.44 1.984t1.824 1.568 1.36 0.448 0.752-0.384q0.32-0.352 0.48-1.024l0.16-0.704q0.128-0.672 0.256-1.024 0.256-0.544 0.8-1.216 0.512-0.576 1.408-0.864 0.64-0.224 1.408-0.256h0.64q0.672-0.064 1.376 0.064 1.408 0.256 2.080 1.056 0.576 0.672 0.8 1.216 0.16 0.352 0.288 1.024l0.128 0.704q0.16 0.672 0.512 0.992 0.256 0.288 0.72 0.416t1.376-0.464 1.824-1.568 1.456-2q0.64-1.184 0.992-2.592 0.288-1.024 0.384-2.048zM24.32 20.064q-0.288 0.576-0.704 1.12-0.288 0.384-0.576 0.704l-0.256 0.224-0.096-0.352q-0.16-0.48-0.384-0.928-0.32-0.608-0.736-1.12-0.512-0.608-1.152-1.024-0.768-0.512-1.632-0.8-0.704-0.224-1.408-0.352-0.512-0.064-0.992-0.064l-0.384 0.032q-0.576-0.064-1.44 0.064-1.6 0.256-2.944 1.12-1.184 0.736-1.888 2.176-0.384 0.704-0.512 1.28v0l-0.224-0.256q-0.32-0.32-0.608-0.704-0.384-0.544-0.704-1.12-0.416-0.832-0.64-1.856-0.16-0.768-0.192-1.568l-0.032-0.64q-0.032-0.608 0.064-1.408 0.192-1.536 0.8-2.656 0.288-0.576 0.704-1.12 0.288-0.384 0.576-0.704l0.256-0.224 0.096 0.352q0.16 0.48 0.384 0.896 0.32 0.64 0.736 1.152 0.512 0.608 1.152 1.024 1.408 0.896 3.040 1.12 0.832 0.128 1.376 0.064v0 0 0q0.608 0.064 1.408-0.064 1.632-0.256 3.008-1.12 0.64-0.416 1.152-1.056 0.416-0.48 0.736-1.12 0.224-0.448 0.384-0.896l0.096-0.384 0.256 0.256q0.288 0.32 0.576 0.704 0.416 0.544 0.704 1.12 0.608 1.12 0.8 2.624 0.096 0.8 0.064 1.44v0.032q0.032 0.704-0.096 1.472-0.192 1.472-0.768 2.56z"></path>
</svg>
