<svg version="1.1" xmlns="http://www.w3.org/2000/svg" width="32" height="32" viewBox="0 0 32 32">
<title>class_job_020</title>
<path d="M16.8 7.52q0.672-0.576 1.152-1.248 0.384-0.544 0.608-1.12 0.192-0.416 0.288-0.832l0.032-0.32h-0.32q-0.384 0.032-0.832 0.128-0.64 0.128-1.216 0.416-0.768 0.352-1.44 0.928l-8.992 7.552q-0.64 0.544-1.12 1.216-0.384 0.544-0.64 1.12-0.192 0.416-0.256 0.832l-0.064 0.32h0.32q0.416-0.032 0.864-0.128 0.608-0.128 1.216-0.416 0.736-0.352 1.408-0.928l4.48-3.776zM21.344 12.928q0.672-0.544 1.152-1.216 0.384-0.544 0.64-1.152 0.16-0.416 0.256-0.8l0.064-0.32h-0.32q-0.416 0.032-0.864 0.128-0.608 0.128-1.216 0.416-0.736 0.352-1.408 0.928l-8.992 7.52q-0.672 0.576-1.152 1.248-0.384 0.544-0.64 1.12-0.16 0.416-0.256 0.832l-0.064 0.288h0.32q0.416 0 0.864-0.096 0.608-0.16 1.216-0.416 0.736-0.352 1.408-0.928l4.512-3.776zM24.192 16.32l-4.48 3.776-4.512 3.776q-0.672 0.576-1.152 1.248-0.384 0.512-0.608 1.12-0.192 0.416-0.288 0.8l-0.032 0.32h0.32q0.384 0 0.832-0.096 0.64-0.16 1.216-0.448 0.768-0.352 1.44-0.896l8.992-7.552q1.216-1.024 1.76-2.368 0.288-0.672 0.32-1.12h-0.32q-0.416 0-0.864 0.096-0.608 0.16-1.216 0.416-0.736 0.384-1.408 0.928z"></path>
</svg>
