<!-- Generated by IcoMoon.io -->
<svg version="1.1" xmlns="http://www.w3.org/2000/svg" width="32" height="32" viewBox="0 0 32 32">
<title>class_job_029</title>
<path d="M6.752 15.616v0l-0.96 2.24-1.024-0.448q-0.032-0.416 0.032-0.8 0.128-0.736 0.576-1.312 0.256-0.288 0.576-0.544l0.992 0.448zM7.232 17.728q-0.224-0.064-0.608-0.16l-0.224-0.032 0.736-1.696 0.192 0.16q0.32 0.224 0.512 0.32 0.288 0.16 0.992 0.352t1.056 0.352q1.216 0.544 2.336 1.28l-0.608 1.312q-1.28-0.32-2.496-0.832-0.352-0.16-0.976-0.544t-0.912-0.512zM15.712 22.72q0.256 0.064 0.832 0.192 1.216 0.224 1.888 0.48 0.768 0.288 2.304 1.12 1.312 0.736 2.016 1.024 1.152 0.48 2.368 0.736 0.992 0.192 1.952 0.224 0.704 0.032 1.344 0l0.512-0.064-0.32-0.416q-0.384-0.512-0.864-0.992-0.704-0.704-1.504-1.28-1.024-0.736-2.144-1.28-0.672-0.288-2.112-0.768-1.664-0.576-2.4-0.928-0.608-0.32-1.632-1.088l-0.704-0.48q-1.152-0.768-1.952-1.248v0l-1.824 4.16 0.608 0.192q0.768 0.224 1.632 0.416zM14.912 16.608l-2.688 6.144-0.704-0.288 0.96-2.176-0.384-0.16q-0.096-0.032-0.128-0.16l0.704-1.664q0.128-0.064 0.256 0l0.352 0.16 0.96-2.176zM26.016 14.592v0l-0.768 1.76-0.192 0.448 1.024 0.448q0.288-0.256 0.544-0.544 0.448-0.576 0.576-1.312 0.064-0.384 0.032-0.8l-1.024-0.448zM24.16 15.68q0.192 0.096 0.512 0.32l0.192 0.16 0.736-1.696-0.224-0.032q-0.384-0.096-0.608-0.16-0.288-0.128-0.912-0.512t-0.976-0.544q-1.216-0.512-2.496-0.832l-0.608 1.312q1.12 0.736 2.336 1.28 0.352 0.16 1.056 0.352t0.992 0.352zM14.752 12.8q-0.224-0.128-0.704-0.48-1.024-0.768-1.632-1.088-0.736-0.352-2.4-0.928-1.44-0.48-2.112-0.768-1.12-0.544-2.144-1.28-0.8-0.576-1.504-1.28-0.48-0.48-0.864-0.992l-0.288-0.416 0.48-0.064q0.64-0.032 1.344 0 0.992 0.032 1.952 0.224 1.216 0.256 2.368 0.736 0.704 0.288 2.016 1.024 1.536 0.832 2.304 1.12 0.672 0.256 1.888 0.48l0.864 0.192q0.832 0.192 1.6 0.416l0.608 0.192-1.792 4.16-0.576-0.352q-0.704-0.416-1.408-0.896zM19.776 9.248l-2.688 6.144 0.704 0.32 0.928-2.176 0.352 0.16q0.128 0.064 0.256 0l0.704-1.664q-0.032-0.128-0.128-0.192l-0.352-0.128 0.928-2.176z"></path>
</svg>
