<svg version="1.1" xmlns="http://www.w3.org/2000/svg" width="32" height="32" viewBox="0 0 32 32">
<title>class_job_002</title>
<path d="M27.2 20.736q-0.32-0.32-0.704-0.576-0.128-0.096-0.256 0.032-0.352 0.32-1.344 1.344l-0.256 0.256q-0.064 0.096-0.224 0.096h-0.096q-0.032-0.16 0.048-0.288t0.624-0.672q0.768-0.8 0.896-0.96 0.064-0.128 0.064-0.192t-0.096-0.16q-0.672-0.608-0.816-0.688t-0.304-0.048l0.032 0.288q-0.032 0.352-0.224 0.592t-1.344 1.392l-0.128 0.128q-0.448 0.416-0.544 1.024-0.064 0.32-0.032 0.832 0.032 0.192 0 0.224t-0.16-0.032q-0.32-0.096-0.704-0.096-0.288 0-0.736 0.16l-0.384 0.192 0.128-0.16q0.16-0.16 0.32-0.256 0.256-0.16 0.512-0.224 0.128-0.032 0.448 0.032l0.288 0.032q-0.128-0.448-0.032-0.864 0.128-0.544 0.48-0.96l0.448-0.48q0.48-0.448 0.672-0.672 0.096-0.128 0.112-0.208t-0.048-0.176l-0.032-0.128q-0.032-0.16 0.016-0.336t0.112-0.112q0.224 0.192 0.368 0.048t-0.112-0.368l-1.632-1.472q-1.504-1.28-1.616-1.376t-0.192 0.016-0.016 0.24q0.032 0.032-0.112 0.080t-0.32 0.016-0.336-0.192q-0.256-0.32-0.736-0.304t-0.832 0.4q-0.544 0.544-0.352 1.824 0.096 0.608 0.256 1.216-0.608-0.288-1.248-0.448-0.544-0.16-1.12-0.128 0.448-0.224 0.992-0.256 0.192 0 0.48 0.096l0.288 0.064q-0.16-0.576-0.16-1.184 0-0.48 0.208-0.944t0.592-0.752q0.192-0.192 0.512-0.288t0.704-0.048 0.864 0.4v0l0.064-0.192q0.064-0.224 0.032-0.384-0.032-0.064-0.16-0.288l-0.224-0.32q-0.096-0.16-0.128-0.544 0-0.16-0.032-0.192-0.128-0.16-0.928-0.032h-0.128q-0.064 0-0.256-0.16l-0.128-0.096q-0.224-0.192-0.288-0.144t-0.064 0.208l-0.032 0.192q0 0.064-0.288 0.288l-0.672 0.576-0.512 0.512q-0.288 0.32-0.336 0.608t-0.016 0.832l0.032 0.512-0.448-0.096q-0.512-0.096-0.8-0.096-0.384 0-0.768 0.096v0q0.32-0.32 0.704-0.416 0.192-0.064 0.544-0.032l0.288 0.032-0.032-0.288q0-0.352 0.064-0.672 0.096-0.448 0.352-0.8 0.224-0.288 0.832-0.768l0.288-0.224q0.32-0.352 0.256-0.768-0.032-0.16-0.16-0.48l-0.128-0.32q-0.096-0.224-0.16-1.024-0.032-0.512-0.064-0.624t-0.352-0.752l-0.32-0.736q-0.192-0.48-0.352-0.704-0.256-0.416-0.576-0.608-0.512-0.288-1.696-0.224h-0.192q-0.32 0-1.216-0.192l-0.064-0.032q-0.8-0.16-1.312-0.032-0.352 0.096-1.152 1.216l-0.16 0.224q-0.096 0.128-0.384 0.304t-0.32 0.272q-0.064 0.16-0.064 0.4t0.128 0.352 0.384 0.208l0.224 0.064-0.192 0.032q-0.224 0.032-0.448-0.032-0.288-0.096-0.48-0.416-0.096-0.16 0-0.544t0.192-0.512l0.288-0.224q0.576-0.48 0.752-0.72t0.432-0.592 0.32-0.416q0.32-0.256 0.608-0.256 0.192 0 0.416 0.096l0.032 0.032q0.416 0.16 0.704 0.192h0.48q0.384-0.032 0.672 0.032l0.224 0.064q0.352 0.128 0.576 0.192 0.32 0.032 0.416-0.064 0.064-0.064-0.048-0.304t-0.304-0.368q-0.384-0.288-1.6-1.632l-0.064-0.064q-0.384-0.448-0.896-0.656t-1.088-0.176q-0.448 0-0.864 0.32-0.256 0.16-0.608 0.608-0.288 0.352-0.448 0.416l-0.128 0.032q-0.832 0.064-1.344 0.576-0.384 0.416-0.448 1.312l-0.032 0.128q0 0.064-0.352 0.416t-0.512 0.544q-0.352 0.416-0.384 0.768v0q-0.16 0.672-0.064 1.376-0.16 0.096-0.288 0.256-0.192 0.224-0.352 0.576-0.224 0.544-0.208 1.216t0.368 1.152q0.224 0.288 0.832 0.8l0.256 0.192q0.64 0.544 1.664 0.96 0.832-0.032 1.184-0.24t0.576-0.688l0.096-0.192 0.128-0.064q0.704-0.224 0.832-0.352 0.352-0.32 0.512-0.768 0.064-0.192 0.064-0.352l0.224-0.064q0.224-0.064 0.416-0.192 0.256-0.16 0.32-0.384 0.128-0.32 0.192-0.768l0.032-0.224q0.128-0.416 0.288-0.832l-0.448-0.416q-0.256-0.192-0.576-0.288l0.192-0.192q0.064-0.096 0.096-0.192l0.32 0.224q0.384 0.224 0.704 0.288 0.448 0.096 0.928 0.064 0.256-0.032 0.288 0.128 0 0.096-0.048 0.176t-0.080 0.080q-0.256 0-0.512 0.032-0.064 0.032-0.192 0.256t-0.192 0.416l-0.096 0.288q-0.32 0.928-0.352 1.184-0.096 0.48-0.064 0.96 0.032 0.64 0.256 1.056 0.352 0.576 0.864 0.992 0.032 0.064-0.144-0.016t-0.432-0.24q-0.352-0.288-0.576-0.608-0.256-0.352-0.304-0.768t-0.080-0.8q-0.192-0.096-0.704 0.416-0.096 0.096-0.352 0.512-0.16 0.288-0.208 0.32t-0.24 0.096q-0.608 0.16-0.896 0.352-0.096 0.064-0.336 0.384t-0.336 0.384q-0.224 0.128-1.088 0.16 0.128 0.384 0.32 0.656t0.608 0.624q0.48 0.416 0.768 0.48 0.384 0.128 0.928 0.16 0.672 0.032 1.152 0.224 0.256 0.128 0.544 0.416 0.096 0.128 0.144 0.128t0.304-0.128q0.416-0.224 0.48-0.192t0.080 0.096-0.048 0.128l-0.16 0.16q-0.384 0.416-0.416 0.48-0.128 0.256 0.064 0.48l0.096 0.064q0.096 0.096 0.096 0.16l-0.032 0.128q-0.16 0.736 0.032 0.928 0.032 0.032 0.224 0.032 0.352 0.032 0.544 0.128l0.32 0.192q0.224 0.16 0.288 0.192 0.256 0.032 0.384-0.064l1.632 1.824q1.696 1.888 1.888 2.112 0.128 0.192 0.064 0.512-0.032 0.224 0.064 0.32 0.416 0.48 1.6 1.824 0.064 0.096 0.192 0.112t0.224-0.016l-0.032-0.096q-0.032-0.096 0.016-0.24t0.24-0.304l1.728-1.728q0.352-0.352 0.48-0.864 0.064-0.288 0.064-0.736-0.032-0.224 0-0.24t0.256-0.016q0.448 0 0.736-0.064 0.48-0.128 0.832-0.48l1.92-1.888q0.16-0.16 0.32-0.224t0.256-0.064h0.096l0.032-0.064q-0.032-0.096-0.16-0.224z"></path>
</svg>
