<!-- Generated by IcoMoon.io -->
<svg version="1.1" xmlns="http://www.w3.org/2000/svg" width="32" height="32" viewBox="0 0 32 32">
<title>class_job_016</title>
<path d="M9.248 8.096q-0.064-0.064 0-0.128 1.632-1.344 1.6-1.344 0.096-0.128 0.224-0.064 0.256 0.16 0.576 0.192 0.8 0 1.024-0.288l0.608-0.768q0.48-0.608 0.752-0.848t1.872-0.784l0.128-0.064q0.032 0 0.112 0.032t0.112 0.064l0.256 0.384q0.032 0.128-0.096 0.192-0.256 0.064-0.64 0.224-0.512 0.192-0.896 0.48-0.16 0.096-0.336 0.304t-0.256 0.384-0.048 1.168v0.192q0 0.288-0.384 0.736-0.256 0.352-0.256 0.512 0 0.224 0.352 0.992l0.128 0.224q0 0.064-0.064 0.224l-0.032 0.096q0 0.032 0.192 0.256t0.192 0.256l-0.096 0.224 1.856 2.080q0.064 0.096 0.064 0.144t-0.032 0.080l-0.192 0.224q-0.128 0.128-0.352 0.48l-0.064 0.096q-0.096 0.128-0.032 0.208t0.16 0.016l0.384-0.32 0.384-0.416q0.032-0.032 0.080-0.032t0.048 0.032l2.304 2.624q0.096 0.128 0.032 0.192-0.608 0.672-0.864 0.928-0.032 0.032 0 0.096t0.064 0.032q0.384-0.192 0.704-0.448 0.096-0.064 0.224-0.192l0.128-0.128q0.064-0.032 0.128 0.032 0.704 0.768 3.072 3.296 1.216 1.28 3.328 3.456l0.704 0.736q0.064 0.064 0.032 0.128l-0.096 0.064q-0.096 0.064-0.224 0.192-0.384 0.48-0.96 1.152-0.064 0.096-0.016 0.128t0.144-0.064l0.064-0.032q0.64-0.48 0.928-0.736 0.16-0.128 0.288-0.288l0.128-0.128q0.064-0.064 0.128-0.032l0.768 0.832q0.064 0.064 0.096 0.176t0.032 0.176l-0.032 0.384q-0.16 1.28-0.224 1.312l-0.128 0.128q-0.416 0.384-0.528 0.432t-0.976 0-0.928-0.080-2.752-3.68l-4.064-5.536-5.28-6.56q-0.064 0.032-0.112 0.080t-0.144-0.016l-0.128-0.16q-0.256-0.32-0.288-0.336t-0.112 0.032-0.144 0.032-0.576-0.368l-0.512-0.32q-0.096-0.032-0.192 0.032l-1.6 1.504q-0.128 0.128-0.48 1.056-0.512 1.408-0.928 2.144-0.544 0.928-1.376 1.984-0.704 0.896-1.376 1.536-0.032 0.032-0.080 0.032t-0.080-0.032l-0.384-0.384v-0.128q1.728-2.432 2.272-3.776 0.576-1.44 0.704-3.072 0.032-0.416 0.064-0.48 0.16-0.16 0.464-0.592t0.304-0.496v-0.16q0-0.224 0.128-0.32 0.256-0.288 0.576-0.64 0.48-0.544 0.512-0.672 0.032-0.256-0.064-0.512z"></path>
</svg>
