<!-- Generated by IcoMoon.io -->
<svg version="1.1" xmlns="http://www.w3.org/2000/svg" width="32" height="32" viewBox="0 0 32 32">
<title>class_job_034</title>
<path d="M24.768 23.648q-2.048 2.336-4.96 3.264-2.784 0.928-5.76 0.352-1.184-0.224-2.080-0.64-1.664-0.736-0.768-1.632 0.224 0.128 1.376 0.288 0.896 0.128 1.984 0.192 2.048 0.128 4-0.576 2.048-0.768 3.616-2.304 0.928-1.024 1.12-2.336 0.224-1.472-0.704-2.688-0.544-0.736-1.44-1.072t-1.568-0.080q-0.48 0.192-0.768 0.64-0.16 0.288-0.224 0.608v-0.032q0.192 1.312 0.352 2.624 0.192 0.832-0.16 1.088-0.192 0.16-0.768 0.16h-3.936q-0.576 0-0.768-0.16-0.352-0.256-0.16-1.088l0.128-1.088q0.096-1.056-0.080-1.536t-0.624-0.64q-0.256-0.096-0.96-0.128t-1.088-0.096q-0.64-0.096-1.184-0.384-0.32-0.16-0.864-0.688t-0.8-0.656q-0.384-0.16-0.576 0.192-0.256 0.416-0.352 1.664 0.16 2.528 1.536 4.256 0.448 0.352 0.544 0.672 0.064 0.16 0 0.448l-0.032 0.16q-0.032 0.16-0.128 0.32-0.192 0.224-0.512 0.16-0.448-0.096-1.12-0.768-1.6-1.76-2.224-4.256t-0.080-4.992q0.544-2.592 2.176-4.464t3.904-2.896q2.208-0.992 4.624-1.024t4.656 0.928q0.736 0.32 1.232 0.768t0.352 0.672-0.848 0.192-1.376-0.288q-2.272-0.736-4.768-0.192-0.544 0.16-1.152 0.544-0.352 0.224-0.928 0.704-0.448 0.352-0.608 0.48-0.544 0.384-1.312 0.672-0.608 0.256-0.928 0.48l0.128-0.064q-0.256 0.16-0.48 0.352-0.128 0.128-0.32 0.384 0.192-0.224-0.192 0.192-0.512 0.8-0.32 1.728 0.192 0.832 0.896 1.504 1.152 0.864 2.208 1.024t1.792-0.304 0.96-1.424v0q0.8-3.104 1.6-3.552v0h0.032q0.896 0.512 1.728 4.16l0.096 0.32q0.064 0.352 0.16 0.48 0.128 0.224 0.416 0.224 0.384-0.096 0.864-0.208t0.736-0.144q0.352-0.032 1.024 0.032 0.736 0.064 1.632 0.512 0.704 0.352 1.344 0.832l0.032 0.032q0.32 0.352 0.512 0.352 0.352 0 0.448-1.024v0.032q-0.128-1.6-0.64-3.584-0.256-1.024-0.288-1.344 0-0.544 0.352-0.832 0.224-0.064 0.528 0.208t0.752 0.976q1.312 2.080 1.632 4.464t-0.352 4.704-2.272 4.144zM16.8 18.464q-0.352-4.384-0.768-4.8v0q-0.416 0.416-0.768 4.8-0.032 0.32 0.080 0.528t0.368 0.208h0.672q0.224 0 0.336-0.208t0.080-0.528z"></path>
</svg>
