<!-- Generated by IcoMoon.io -->
<svg version="1.1" xmlns="http://www.w3.org/2000/svg" width="32" height="32" viewBox="0 0 32 32">
<title>class_job_018</title>
<path d="M24.672 22.048q-0.256-0.128-0.736-0.32-0.8-0.288-1.12-0.544l-0.256-0.192q-0.928-0.576-1.216-0.832-0.384-0.352-0.688-0.752t-0.416-0.64-0.624-1.136l-0.288-0.512q-0.448-0.704-0.512-0.992 0.448 0.448 0.8 0.896 0.032 0.064 0.16 0.256 0.192 0.384 0.384 0.512 0 0.032 0.048 0l0.048-0.032q-0.096-0.512-0.016-1.088t0.272-0.96q0.032-0.064-0.032-0.128-0.608-0.256-1.056-0.576-0.288-0.16-0.736-0.512l-0.416-0.32-0.224-0.16q-0.608-0.384-0.864-0.8 0.16 0.128 0.704 0.416l0.32 0.192 0.256 0.16q0.224 0.192 0.384 0.288 0.032 0 0.064-0.048t0.032-0.080l-0.128-0.352q-0.256-0.736-0.224-1.28-0.096-0.192-0.192-0.352-0.416-0.352-0.672-0.672-0.16-0.192-0.32-0.512-0.16-0.256-0.224-0.384l-0.192-0.256q-0.352-0.48-0.544-0.832-0.352-0.608-0.512-1.312-0.928 0.096-1.632 0.064t-1.568-0.224q-0.096-0.032-0.64-0.352-0.896-0.544-1.344-0.736t-1.12-0.384l-0.352-0.128q-0.352-0.096-0.832-0.192l-0.352-0.064q-1.344-0.256-2.656-0.672-0.384 0.544-0.448 1.312 0 0.448 0.096 1.312l0.064 0.48q0.064 0.576 0.096 0.8 0.096 0.352 0.416 0.992 0.256 0.48 0.352 0.768 0.064 0.192 0.16 0.64 0.096 0.352 0.16 0.512l0.16 0.416q0.16 0.448 0.192 0.672 0.192 0.032 0.288-0.032t0.192-0.224q0.192-0.288 0.384-0.288h0.032q0.928 0.064 1.312 0.032 0.64-0.064 1.008-0.336t0.784-0.88q0.32-0.448 0.544-0.928 0.032 0.16-0.032 0.384-0.032 0.128-0.176 0.448t-0.208 0.512-0.128 0.544-0.096 0.48q-0.064 0.192-0.208 0.256t-0.688 0l-0.928-0.128q-0.64-0.128-0.864-0.112t-0.32 0.112q-0.256 0.224-0.48 0.512-0.064 0.064-0.064 0.176t0.16 0.304l0.064 0.128q0.128 0.16 0.448 0.592t0.352 0.528q0.064 0.224 0.080 0.704t0.112 0.704q0.032 0.096 0.256 0.32l0.16 0.224q0.128 0.16 0.352 0.544 0.384 0.704 0.64 0.928 0.064 0 0.144-0.016t0.048-0.048q-0.256-0.704-0.224-1.696v-0.192q0.032-0.832-0.032-1.184 0-0.16-0.144-0.464t-0.112-0.464q0.416 0.48 0.544 1.056 0.16 0.64 0.032 1.44 0.032 0.032 0.32 0.224l0.416 0.32 0.512 0.32q0.448 0.288 0.544 0.384 0.256 0.224 0.544 0.8 0.192 0.32 0.288 0.448 0.48 0.64 0.736 0.896 0.736 0.736 0.992 1.216 0.032 0.032 0.080 0.048t0.080-0.016q0.288-0.448 0.768-0.672 0.608-0.288 0.832-0.256 0.16 0 0.32 0.128l0.192 0.096 0.192 0.032q0.032-0.032 0-0.096-0.128-0.352-1.376-1.056-0.16-0.064-0.48-0.16-0.512-0.128-0.672-0.288 0.864 0.064 1.984 0.576 0.672 0.288 1.888 1.024l0.192 0.096q0.128 0.096 0.8 0.576l0.32 0.256q0.256 0.096 0.688 0.128t0.688-0.032q0.096 0 0.256-0.096 0.224-0.16 0.416-0.16l0.224 0.16q0.192 0.128 0.288 0.224 0.128 0.128 0.16 0.32-0.384-0.256-0.672-0.256-0.192-0.032-0.512 0.096-0.608 0.16-1.152 0.096 0.064 0.256 0.448 0.672 0.256 0.352 0.384 0.512 0.128 0.288 0.288 0.736l0.128 0.288 0.128 0.48 0.352 0.704 0.352 0.672q0.224 0.416 0.384 0.608 0.256 0.288 0.576 0.352-0.192-0.576-0.096-1.088 0.064-0.32 0.32-0.832 0.192-0.448 0.24-0.656t0.032-0.528 0.016-0.48q0.192 0 0.512 0.112t0.448 0.144q0.192-0.096 0.576-0.32 0.608-0.384 0.992-0.416 0.224 0 0.8 0.096l0.352 0.064q-0.832-1.088-2.336-1.792zM8.608 8.48q-0.096 0.096-0.4 0.128t-0.4-0.064q-0.256-0.16-0.336-0.496t0.112-0.464q0.096-0.064 0.192-0.064t0.256 0.032q0.064 0 0.192 0.064l0.288 0.16q0.128 0.064 0.192 0.304t-0.096 0.4z"></path>
</svg>
